<svg xmlns="http://www.w3.org/2000/svg" viewBox="0 0 512 512" role="img" aria-labelledby="title">
  <title>Koala logo</title>
  <g fill="none" fill-rule="evenodd">
    <path
      fill="#c9c6cf"
      d="M152 73c-22 0-48 11-61 30-15 23-18 53-5 77 6 12 17 24 31 30l23-18c-8-8-12-18-13-30-1-15 5-30 16-40 14-14 33-21 51-19l15-16C194 78 173 73 152 73Z"
    />
    <path
      fill="#c9c6cf"
      d="M359 77c22-2 45 4 62 18 13 10 21 26 22 42 1 13-4 25-12 34l24 20c15-7 27-20 34-34 12-24 9-53-7-75-18-26-50-38-81-35-20 2-39 11-53 25l16 16c13-7 28-11 45-11Z"
    />
    <path
      fill="#ff92b0"
      d="M138 106c-13 4-25 13-32 25-7 13-7 31 0 43 7 13 19 24 33 30 4-18 15-34 29-46l27-20c-12-18-36-38-57-32Z"
    />
    <path
      fill="#ff92b0"
      d="M374 104c-19-4-40 13-53 30l32 24c12 10 21 24 25 39 13-6 24-16 32-28 8-12 9-29 2-42-7-13-21-20-38-23Z"
    />
    <path
      fill="#cbc8d1"
      d="M255 94c87 0 157 68 157 153 0 90-72 163-161 163-89 0-160-73-160-163 0-85 70-153 164-153Z"
    />
    <path
      fill="#ece7e4"
      d="M164 208c13 0 25 5 34 14s14 21 14 34c0 12-5 24-14 33-9 8-21 13-34 13-12 0-24-5-33-13-8-9-13-21-13-33 0-13 5-25 13-34 9-9 21-14 33-14Zm185 0c13 0 25 5 34 14s14 21 14 34c0 12-5 24-14 33-9 8-21 13-34 13-12 0-24-5-33-13-8-9-13-21-13-33 0-13 5-25 13-34 9-9 21-14 33-14Z"
    />
    <path
      fill="#6f6986"
      d="M256 163c21 0 40 8 53 22 13 13 21 31 21 52 0 20-8 39-21 52-13 14-32 22-53 22-22 0-41-8-54-22-13-13-21-32-21-52 0-21 8-39 21-52 13-14 32-22 54-22Z"
    />
    <path
      fill="#000"
      d="M257 137c28 0 52 10 69 28 17 18 27 42 27 70 0 26-9 50-27 68-17 19-41 29-69 29-28 0-53-10-70-29-17-18-27-42-27-68 0-28 10-52 27-70 17-18 42-28 70-28Zm0 25c-21 0-39 7-51 21-12 13-19 29-19 49 0 18 7 35 19 48 12 13 30 20 51 20 21 0 38-7 50-20 13-13 20-30 20-48 0-20-7-36-20-49-12-14-29-21-50-21Z"
    />
    <path
      fill="#000"
      d="M187 219c15 0 27 12 27 27a12 12 0 1 1-24 0c0-2-1-3-3-3s-4 1-4 3a12 12 0 0 1-24 0c0-15 13-27 28-27Zm138 0c15 0 28 12 28 27a12 12 0 0 1-24 0c0-2-2-3-4-3s-3 1-3 3a12 12 0 0 1-24 0c0-15 12-27 27-27Z"
    />
    <path
      fill="#000"
      d="M227 310c8 0 14 6 14 13 0 8 7 15 16 15s15-7 15-15c0-7 7-13 14-13s13 6 13 13c0 23-19 41-42 41s-43-18-43-41c0-7 7-13 13-13Z"
    />
    <path
      fill="#000"
      d="M216 343c9 0 16 7 16 16 0 6 5 11 11 11 7 0 12-5 12-11a16 16 0 0 1 32 0c0 6 5 11 12 11 6 0 11-5 11-11 0-9 7-16 16-16s16 7 16 16c0 23-19 43-43 43-11 0-21-4-28-10-7 6-17 10-28 10-24 0-43-20-43-43 0-9 7-16 16-16Z"
    />
    <path
      fill="#cbc8d1"
      d="M122 411c24-33 59-57 99-68 11-3 23-5 35-5 12 0 24 2 35 5 41 12 76 36 100 70l-2 67H124l-2-69Z"
    />
    <path
      fill="#d9d7db"
      d="M256 421c25 0 46 21 46 47v12h-92v-12c0-26 21-47 46-47Z"
    />
    <path
      fill="#000"
      d="M121 404c26-34 63-58 106-70 9-2 19 4 21 13 3 9-3 19-12 22-36 10-67 31-88 60-6 8-17 9-25 3-8-5-10-17-2-28Zm270 5c-23-29-54-51-91-61-9-3-15-13-12-22 2-9 12-15 21-13 43 12 81 37 108 72 6 8 4 19-3 25-8 6-19 5-25-1Z"
    />
    <path
      fill="#000"
      d="M256 401c37 0 67 30 67 67v12h-34v-12c0-18-15-33-33-33s-33 15-33 33v12h-34v-12c0-37 30-67 67-67Z"
    />
    <path
      fill="#b1adbe"
      d="M126 112c-14 20-17 46-8 67 4 10 11 18 19 24-22-3-41-16-52-34-12-19-14-44-5-65 9-21 27-37 49-43-1 1-2 3-3 4Zm261-4c18 6 34 20 42 40 9 21 7 46-4 65-10 16-26 28-44 33 9-7 16-17 21-28 10-21 7-48-7-68-2-4-5-7-8-10Z"
    />
  </g>
</svg>
