<?xml version="1.0" encoding="UTF-8"?>
<svg id="Layer_1" data-name="Layer 1" xmlns="http://www.w3.org/2000/svg" version="1.1" viewBox="0 0 215.9995685 150.4840716">
  <defs>
    <style>
      .cls-1 {
        fill: #fc3;
      }

      .cls-1, .cls-2, .cls-3, .cls-4, .cls-5, .cls-6 {
        stroke-width: 0px;
      }

      .cls-2 {
        fill: #bb945b;
      }

      .cls-3 {
        fill: #000;
      }

      .cls-4 {
        fill: #8f5a28;
      }

      .cls-5 {
        fill: #7a0019;
      }

      .cls-6 {
        fill: #fff;
      }
    </style>
  </defs>
  <path class="cls-3" d="M0,55.1816986s11.9940947-.8907,18.0111945,9.3573998c0,0-3.2313999-.2227-4.1224999.8906,0,0,4.8275999,3.9354897,6.5726998,10.0263997,0,0,3.8989999,12.0321997,12.2538997,21.0555995,0,0-1.2632.8164-2.9335999.7051,0,0,2.6733999,1.6328,3.1186999,2.5253905,0,0,2.6752999,3.3418093,6.0907998,6.2383093,3.4159999,2.8964999,10.173806,6.3866907,12.7733997,7.4257998,0,0-.8173.7421-1.7822,1.1875,0,0,15.0019996,6.0917998,27.2558993,4.9784999,0,0,6.4618998,7.4257998,12.9974997-2.0821089,0,0,8.0947998-.074191,17.3046996-5.3456909,0,0,.7422-.5937,1.9292.5196l1.7823078,2.0057999s1.1883922-1.634709,1.1883922.7422c0,0,0,1.1133-.0732,1.5586,0,0-2.3778999.9658-7.3520998,1.041,0,0,1.4854,1.4844-.7430923,1.1874911,0,0-2.4502076.1475089-6.8321075-.9647911,0,0-6.5350998-1.6348-9.3573998,4.1581999,0,0-.4463.8183-2.8964928,6.6825912,0,0-1.6342071,4.2354086-5.199707,6.5381085,0,0-9.5057998,6.8319998-2.8221999,10.6952997,0,0,1.2627,4.3808999,5.5702999,3.6386999,0,0,1.7822-.0742,2.4516071.3711,0,0,9.1347926,2.6717919,13.8876925-13.4433997,0,0,.5938-3.7128999,2.3769999-4.2323999,0,0,3.0448999.5937,6.0897998,1.8574,3.0435077,1.2598,7.0541998,2.7460999,15.0005077,1.7061,0,0,14.334,1.7099,15.6698915-14.5556996,0,0,1.2627.0742,1.6348.8164,0,0-.8174-8.3163998.7422-12.2538997,0,0,3.8622999-1.0391,5.4208999-2.5995999,0,0,2.2284999-4.1581999,3.0468999-4.9003999,0,0,1.1865-2.4511999.4453088-4.1601999,0,0,.7411912-1.8554,4.2323911-5.8670999,0,0,16.6356996-18.2704995,21.3144995-36.3906991,0,0,22.2079994,5.4960999,36.6874991-1.1875,0,0,4.6796104-1.041,4.2342999-9.5077998,0,0,0-5.5702999-.7422-8.0936998,0,0,1.4102-3.4921999-.0742-6.6855998-1.4862896-3.1932999-.6679-4.3807999-1.4121-6.0155998,0,0-.0741896-1.707-2.0800999-2.7460999,0,0-.3710897-2.5995999-.5927-3.1210999,0,0,1.5595-2.5975999.8916103-6.0165998,0,0,1.4100896-4.8261999-3.6407103-7.0547116,0,0-3.4901999-1.3378882-6.6835998-1.9315882,0,0-6.3866899-.9639-6.3866899,4.3837999,0,0-.1484099,1.4834-1.4853099,1.4834,0,0-4.2333999.1493883-4.3075999,4.0858999,0,0-.2227,2.8974884,2.3769098,4.6786999,0,0,.0741902,3.1952999,2.0038901,4.3827885,0,0,.9668.9649113,1.3379,2.0782113,0,0-2.2284999,1.5605-.668,5.0506999,0,0,.5938,2.6738999,0,3.3417999,0,0-7.5018998-1.1875-8.9852998-1.1875,0,0-5.0526999-3.5643999-13.5917997-4.6796999,0,0-.0742-7.2030998-10.1015997-9.5057998,0,0-.7422-.9649.669-1.2617115,0,0-1.4864-2.1542884.0752-2.377,0,0,4.3797999-1.4120884,3.1922999-6.4608883,0,0-1.04-4.9765999-8.3172998-3.9384999,0,0-2.3769999-.9639-3.1943999-1.1133,0,0-.7422-.8154-.0742-1.4834,0,0-.7422-.2988-1.2616911.2959,0,0-.4463089.5205-2.2285088.5205,0,0-2.3769999.1475-3.3427999.3701,0,0-1.1875.669-2.6727999-.3701,0,0-2.1533999-.6679-5.2724999-1.042,0,0-1.9316-.4443119-2.5253915-1.039,0,0-.5215084.6689-.3721085,1.4131,0,0-2.8221999.0742-5.9413998-1.5606,0,0-.4443,1.2617,0,1.8574,0,0-2.0038999.8907-2.3768999,1.1133,0,0-.8164.0742-1.5595918-.2969,0,0-5.4209081-1.4873-6.905308,3.4892999,0,0-1.4131,5.7929999,4.529308,7.2050882,0,0,1.336.3711116.2226919,1.7812115l-.7432.9657885s1.4111.3731115,1.2627.9668115c0,0-.9639,1.4101885-1.708,1.7813l.7441.6698885s-.0752.3711114-.5957.7422114c0,0-2.0790999,1.7813-2.2274999,2.3769999,0,0-20.6449995-6.2402998-35.7211991-4.6054999,0,0-10.8441997.5195-14.0375996,7.2050998,0,0-2.7479999,6.5350998-3.0448999,12.9217997,0,0-.5195.5196-.8906.7422,0,0-1.6347933,1.2637-1.2627,4.8281891.3711,3.5644107-.5205,2.0781108-.0742,6.0898107,0,0,.7421067,1.707-.2227,3.1190999,0,0-4.1591933,6.5351998,1.1133,10.5449997,0,0,1.8564,3.3436999,4.3075999,3.7147999,0,0,1.2627.1484,1.9316-.0762,0,0,.9649-.5175102,2.0790999.5957,0,0,3.7138999,2.8222999,6.5352069-1.2636,0,0,1.1142929-1.7813.0741929-4.7519999,0,0,2.2284999-1.0391,1.8565-6.6836104,0,0,1.1147-1.1151894,1.3374-3.6405894,0,0,0-2.8046999.3945-4.5409999.0166-.0723.0332-.1426.0517-.211.4454-1.7089-.0742-3.2674999-.4462-4.4569999,0,0,.5947-2.8964999,1.4853-3.6386999,0,0,8.3183998,5.2734999,16.9326072,7.5761998,0,0-1.3359076,16.0409996-.6689076,19.2343995,0,0-15.0009996-8.9120998-23.2445994,11.0653997,0,0-1.7081.5205-8.2441998-3.4911999,0,0-7.4266998-4.4550999-12.4764997-10.2479997-5.0498999-5.7929999-13.6645997-14.4825103-23.3203994-17.2305103-9.6542998-2.7480891-25.7699993-3.0448891-35.6483941,9.7305105Z"/>
  <path class="cls-3" d="M0,55.1816986s11.9940947-.8907,18.0111945,9.3573998c0,0-3.2313999-.2227-4.1224999.8906,0,0,4.8275999,3.9354897,6.5726998,10.0263997,0,0,3.8989999,12.0321997,12.2538997,21.0555995,0,0-1.2632.8164-2.9335999.7051,0,0,2.6733999,1.6328,3.1186999,2.5253905,0,0,2.6752999,3.3418093,6.0907998,6.2383093,3.4159999,2.8964999,10.173806,6.3866907,12.7733997,7.4257998,0,0-.8173.7421-1.7822,1.1875,0,0,15.0019996,6.0917998,27.2558993,4.9784999,0,0,6.4618998,7.4257998,12.9974997-2.0821089,0,0,8.0947998-.074191,17.3046996-5.3456909,0,0,.7422-.5937,1.9292.5196l1.7823078,2.0057999s1.1883922-1.634709,1.1883922.7422c0,0,0,1.1133-.0732,1.5586,0,0-2.3778999.9658-7.3520998,1.041,0,0,1.4854,1.4844-.7430923,1.1874911,0,0-2.4502076.1475089-6.8321075-.9647911,0,0-6.5350998-1.6348-9.3573998,4.1581999,0,0-.4463.8183-2.8964928,6.6825912,0,0-1.6342071,4.2354086-5.199707,6.5381085,0,0-9.5057998,6.8319998-2.8221999,10.6952997,0,0,1.2627,4.3808999,5.5702999,3.6386999,0,0,1.7822-.0742,2.4516071.3711,0,0,9.1347926,2.6717919,13.8876925-13.4433997,0,0,.5938-3.7128999,2.3769999-4.2323999,0,0,3.0448999.5937,6.0897998,1.8574,3.0435077,1.2598,7.0541998,2.7460999,15.0005077,1.7061,0,0,14.334,1.7099,15.6698915-14.5556996,0,0,1.2627.0742,1.6348.8164,0,0-.8174-8.3163998.7422-12.2538997,0,0,3.8622999-1.0391,5.4208999-2.5995999,0,0,2.2284999-4.1581999,3.0468999-4.9003999,0,0,1.1865-2.4511999.4453088-4.1601999,0,0,.7411912-1.8554,4.2323911-5.8670999,0,0,16.6356996-18.2704995,21.3144995-36.3906991,0,0,22.2079994,5.4960999,36.6874991-1.1875,0,0,4.6796104-1.041,4.2342999-9.5077998,0,0,0-5.5702999-.7422-8.0936998,0,0,1.4102-3.4921999-.0742-6.6855998-1.4862896-3.1932999-.6679-4.3807999-1.4121-6.0155998,0,0-.0741896-1.707-2.0800999-2.7460999,0,0-.3710897-2.5995999-.5927-3.1210999,0,0,1.5595-2.5975999.8916103-6.0165998,0,0,1.4100896-4.8261999-3.6407103-7.0547116,0,0-3.4901999-1.3378882-6.6835998-1.9315882,0,0-6.3866899-.9639-6.3866899,4.3837999,0,0-.1484099,1.4834-1.4853099,1.4834,0,0-4.2333999.1493883-4.3075999,4.0858999,0,0-.2227,2.8974884,2.3769098,4.6786999,0,0,.0741902,3.1952999,2.0038901,4.3827885,0,0,.9668.9649113,1.3379,2.0782113,0,0-2.2284999,1.5605-.668,5.0506999,0,0,.5938,2.6738999,0,3.3417999,0,0-7.5018998-1.1875-8.9852998-1.1875,0,0-5.0526999-3.5643999-13.5917997-4.6796999,0,0-.0742-7.2030998-10.1015997-9.5057998,0,0-.7422-.9649.669-1.2617115,0,0-1.4864-2.1542884.0752-2.377,0,0,4.3797999-1.4120884,3.1922999-6.4608883,0,0-1.04-4.9765999-8.3172998-3.9384999,0,0-2.3769999-.9639-3.1943999-1.1133,0,0-.7422-.8154-.0742-1.4834,0,0-.7422-.2988-1.2616911.2959,0,0-.4463089.5205-2.2285088.5205,0,0-2.3769999.1475-3.3427999.3701,0,0-1.1875.669-2.6727999-.3701,0,0-2.1533999-.6679-5.2724999-1.042,0,0-1.9316-.4443119-2.5253915-1.039,0,0-.5215084.6689-.3721085,1.4131,0,0-2.8221999.0742-5.9413998-1.5606,0,0-.4443,1.2617,0,1.8574,0,0-2.0038999.8907-2.3768999,1.1133,0,0-.8164.0742-1.5595918-.2969,0,0-5.4209081-1.4873-6.905308,3.4892999,0,0-1.4131,5.7929999,4.529308,7.2050882,0,0,1.336.3711116.2226919,1.7812115l-.7432.9657885s1.4111.3731115,1.2627.9668115c0,0-.9639,1.4101885-1.708,1.7813l.7441.6698885s-.0752.3711114-.5957.7422114c0,0-2.0790999,1.7813-2.2274999,2.3769999,0,0-20.6449995-6.2402998-35.7211991-4.6054999,0,0-10.8441997.5195-14.0375996,7.2050998,0,0-2.7479999,6.5350998-3.0448999,12.9217997,0,0-.5195.5196-.8906.7422,0,0-1.6347933,1.2637-1.2627,4.8281891.3711,3.5644107-.5205,2.0781108-.0742,6.0898107,0,0,.7421067,1.707-.2227,3.1190999,0,0-4.1591933,6.5351998,1.1133,10.5449997,0,0,1.8564,3.3436999,4.3075999,3.7147999,0,0,1.2627.1484,1.9316-.0762,0,0,.9649-.5175102,2.0790999.5957,0,0,3.7138999,2.8222999,6.5352069-1.2636,0,0,1.1142929-1.7813.0741929-4.7519999,0,0,2.2284999-1.0391,1.8565-6.6836104,0,0,1.1147-1.1151894,1.3374-3.6405894,0,0,0-2.8046999.3945-4.5409999.0166-.0723.0332-.1426.0517-.211.4454-1.7089-.0742-3.2674999-.4462-4.4569999,0,0,.5947-2.8964999,1.4853-3.6386999,0,0,8.3183998,5.2734999,16.9326072,7.5761998,0,0-1.3359076,16.0409996-.6689076,19.2343995,0,0-15.0009996-8.9120998-23.2445994,11.0653997,0,0-1.7081.5205-8.2441998-3.4911999,0,0-7.4266998-4.4550999-12.4764997-10.2479997-5.0498999-5.7929999-13.6645997-14.4825103-23.3203994-17.2305103-9.6542998-2.7480891-25.7699993-3.0448891-35.6483941,9.7305105Z"/>
  <g>
    <path class="cls-2" d="M125.2821918,10.7108997s.7373.1456.7237.4385c-.0342.7393-.6348.8125-1.2188.752-1.0586-.1113-4.2890918-.3906-3.8417999-5.2353999,0,0,.667-4.1239999,5.8467081-2.6748118,0,0,.8925918.8906118,1.9501917-.0565882,0,0,1.7266-1.0567,3.8993999-.7217l-.168-1.0586s1.6719.5557,3.0077999.667c1.337.1123,2.5624999.6688881,2.8408999.6688881,0,0-.1114-1.1698881.0566-1.1698881,0,0,2.2274999.4463,3.8983999.6133,0,0,2.9521999.2793,3.9550999,2.0595881,0,0,.6133,1.2265118.9463-.5556882,0,0,.0557-1.0586,4.6786999-1.1699,0,0-.4453.8359,1.0596088.7235882,0,0,1.3915911-.2225882,4.733391,1.1709118,0,0,5.682609-1.7265,7.2421998,2.8964999,0,0,1.0576,4.2323999-3.1757999,5.4022999,0,0-1.2813-.5029-.0557-1.2246,0,0,1.1143-.3349,1.2813-.8925,0,0-3.0077999.5576-2.5624999-3.2851999,0,0,1.2256-.2227,1.8389,1.4463,0,0,.8349.5596.5009-.499,0,0,0-.4463.167-.7256,0,0,.5576.5028883.9473091.6142,0,0-.2227091-3.1756999-4.958-1.8945,0,0,.055591,4.6786999,1.6708909,8.1317998l-.668.335s.835,3.0624999,1.0029,3.5644999c0,0,8.8564998,1.0586,9.0790998,9.1346998,0,0-.7802-.0547-1.0028907.168,0,0,1.2255907,3.2304999.334,5.7362999,0,0-.7236093-1.1699-.835.168,0,0-.6132092,6.0155998-3.7871092,7.9081998,0,0-.1678908-1.4473109-1.2822.2246-1.1143,1.6699-2.9462999,4.1366999-8.2421998,5.9022999-5.6825999,1.8946-8.0770998,3.2871999-8.8016998,4.0117893,0,0-.5.4453106-1.3917-.334,0,0-3.0643999-2.3964893-4.5125999-3.1191893-1.4483-.7246-3.3427999-1.8945-4.7900999-3.3418107,0,0-.668.4454108-.668,1.1133108,0,0-9.9149997-4.2323999-12.0868997-9.8593108,0,0-.3906-.724689-1.1709-.279289,0,0-2.0038999-4.5664999-.3895919-9.1347998,0,0-.4453081-.668-.5567081-.8906,0,0,1.7823-3.5644999,3.2304999-4.7343999,1.4483-1.1699114,3.3417999-2.1719114,4.0673999-3.3417999,0,0-.4473-.3906-1.6171918-.1113,0,0,.0556918-1.3379,1.1151918-3.6210999,0,0-.3906-.334-1.2255-.0547116,0,0,.6123082-3.2870884,1.1689-4.8476883,0,0,.3897-1.0019-1.1689-.5576,0,0-.8916.5576-2.6738999.1112883,0,0-.3271.877,1.6084,1.4287117Z"/>
    <path class="cls-2" d="M97.3656925,105.7577973s-4.2333999,6.3124998-5.0507999,8.4667998c0,0-.8906,1.1113,1.1885.8164,2.0800999-.296809,4.9766074-.5937,12.1064997-4.6053999,0,0,.8906-.2969-.5205-1.2618-1.4112-.9648-5.6445999-3.3417999-6.3867998-3.7147999-.7431-.3691-1.1884,0-1.3369.2988Z"/>
    <path class="cls-2" d="M85.1303928,98.0702975s-5.9604998,10.4159997-2.2289999,18.2148905c0,0,1.8935,3.7871089,5.8490999.277309,0,0,1.3369-1.6152,3.1747999-5.7929999,1.8379-4.1756999,5.4589999-8.5760998,7.0741998-10.5273091,0,0-2.0048999-1.1698906-2.2284925-1.5038906,0,0-3.8984073.3906-4.79-.668-.8907073-1.0586-2.0049073,2.6191999-6.8506072,0Z"/>
    <path class="cls-2" d="M91.313,90.1610977c-.2227073-1.9502-2.0059073-3.1180999-3.5654072-2.9520999-1.5595928.168-3.3422999,1.0019-3.7875928,2.6171903-.4454071,1.6142096-1.8936071,4.0664096-2.2286071,4.8476095-.3339.7793-2.5614999,3.7304999-3.6200999,7.0175998s-4.734293,16.9335996,4.511707,19.2167906c0,0,1.8935929.3887089,3.1752928-1.4501911,0,0-11.3636997-1.0566-1.9497-22.0009994,0,0,.0557-.7793-.3905929-2.0038999-.4453071-1.2265,0-2.6737999.669-3.3983999,0,0,.4452929.8359.3895929,1.5604904-.0557.7247095.6138,3.3418095,3.7328999,3.7325095,0,0,1.5596.1093,2.5615072-1.9512,0,0,.2792927-.7793095.335-1.5586.0556927-.7793.3895927-1.7266.167-3.6767999ZM90.3656927,93.3358976s-.9472,3.5644999-3.3417999.7247c0,0-.6133-1.2813.5567-.7247,0,0,1.2256,1.2266,2.1727999-.4453.9463-1.6728.6123.4453.6123.4453Z"/>
    <path class="cls-2" d="M98.9437925,86.9286978c-1.7265-2.0595097-6.2938998-.5566-6.5174998.3916,0,0,2.1727999,3.3417999-.0557,9.0800998,0,0,2.5067999,2.3378999,5.2362999-.7812095,2.7294999-3.1191904,3.0634999-6.627,1.3369-8.6904903ZM97.3285925,94.2265976c-.2225925,1.2265-2.3397999,1.0585905-2.7294999.2225905-.3896-.834-.5566-1.1132904.501-.834,0,0,.8359074.1661096,1.3926-.2792904.5576-.4453,1.0586-.3339.8359.8907Z"/>
    <path class="cls-2" d="M105.0150923,89.9374977s-1.8388-2.2265999-3.0077999-1.8379c0,0,.2227076,5.6269999-3.4530999,9.3027998,0,0,3.2860999,3.3417905,6.6278998,0,0,0,2.3954999-2.7285999-.167-7.4648998ZM104.1791924,95.7870976c-.1113.6133-.501,1.4473-1.6151924,1.6153-1.1133076.1679-1.5596076-1.0586-1.5596076-1.0586-.334-1.002.7803-.4454,1.4482-.4454.669,0,1.8379-.7246,1.7266-.1113Z"/>
    <path class="cls-2" d="M81.3417929,90.7177977s-3.7870999-13.9247996,4.8462071-22.2236096c8.6337926-8.2988896,19.2723923-1.002,19.8856923,2.2832101.6123077,3.2870999.8907,6.5721998-2.6180999,15.3172996,0,0-1.7265924-.5576-2.6738999-.2793,0,0-5.1795999-3.5086999-10.1376925-.165,0,0-3.8984072-.8926-5.7373071.3877,0,0-.9466929.4453-.7241-.9463,0,0,.1113-9.8026998,6.7964071-13.2558997,0,0,2.5614926-.6679-.168-1.1699,0,0-.5566073,0-.9463073.2227-.3896.2226-1.2812.0566-.6689-1.2813.6133-1.3359.502-2.3397999-.7793-.7793-1.2812,1.5586-1.3926,3.0624999-1.6152,4.0097999,0,0-5.0141999,4.5683999-4.1225999,15.5966996,0,0-.8359,2.0614999-1.3369,2.2831999Z"/>
    <path class="cls-2" d="M100.2807925,102.0819974s.8906-.7246,1.0576-1.1699c0,0,.6689-.6133,1.6719-.6699094,1.0019-.0546906,1.4482-.5,2.0604999.1133094.6123.6113,7.1840998,5.7909999,8.7436998,6.4608998,1.5605079.668,8.1317998,5.6249999,23.0038994,4.0663999,0,0,1.5605-.7246091.8916085,1.6153,0,0-.334,2.9510909-.2217085,4.1210909.1103,1.169909-1.2266-1.058591-1.2266.333909,0,1.3926,1.5039,18.3808995-12.4208997,17.1552996,0,0-2.2284999-.167-4.9579999-1.5596,0,0-1.2256-.5576086-.2773.7246.9463,1.2813.4453,1.3926-1.2823,1.336-1.7255-.0547-5.1180999.1367-10.804192-2.3378999-6.0156075-2.6190999-10.6386074-1.8945-11.0283074-1.7832,0,0-1.6719.5018914.4453074,1.0018914,2.1161925.501,2.7294925.336,1.9492925,2.0059086-.7792925,1.6719-2.6181999,13.8690914-9.8583998,15.0390914,0,0,.5009-.7792918,1.0019-2.6738918,0,0,.502-1.4482-.9463-.0546-1.4482,1.3924918-5.1810999,4.2889999-7.8549998,1.3359,0,0,1.7266-.334,3.3417999-2.3944999,0,0,.7803-1.17-1.0019-.2237-1.7822.9483-5.6259999,1.8389-5.7929999-2.3397999,0,0-.3896-1.169,2.4511999-3.1747999,2.9569999-2.0859999,6.7240998-3.3359999,9.3578998-12.5878997,2.1718999-7.6308998,7.7977998-6.5155998,7.7977998-6.5155998,0,0,5.2363999,1.3358911,12.5322997,1.3906,0,0,.8901.0566.3335-.8906-.5562-.9483.1113-.7246.6123-.7793.5019-.0547,1.7822-.169,2.3954999-.334.6123-.168.7803.2226.7803.4453,0,.2226.1113.9473.7793.2226.6689-.7246,1.0039-.8906,1.1152.168.1113079,1.0586.0557,7.4081998.7793079,5.3456999.7235921-2.0604999,1.448192-6.2928998.4462921-10.4159997,0,0-.4462921-1.2812-.9482921-.166-.5009079,1.1133-1.0576079-1.4492-1.1142079-1.5039-.0547-.0567-3.2861999-8.1327998-3.2861999-5.8495999,0,2.2850908-.5,3.1757999-1.3369,2.1737999-.8354-1.0039-8.2425998-6.1845998-9.0218998-6.5175998-.7803-.334-.4454-.8906-.167-1.1133Z"/>
    <path class="cls-2" d="M67.25,53.7694986s-2.5625066,4.0488999-.7803067,7.4277998c0,0,1.1885,1.8554,1.3741.1113,0,0,.4453-1.2266.8173.5195.3711,1.7460896,1.2989067,4.1581999,4.0469067,3.8613999,0,0,1.0028931.0371.7060931-1.2618-.2969-1.3007.4824-1.2636,1.0761-.1484.5948069,1.1133,2.4140999,3.1190999,4.3076999,2.7851999,0,0,1.0029.0371,1.5224-1.0039.5205-1.0391.4463-1.7071.4463-1.8926,0-.1856-.0381-.9297-.7432-.1856-.705.7422-.6308-.0761-.5937-.3711.0371-.2968-.0381-1.5234,1.2627-2.6366999,1.2998-1.1152,1.6709-2.2655999,1.708-3.2694999.0371-1.002-.0371-1.2988-1.0772-1.1875-1.04.1113-7.9090998,0-13.0711929-3.1934105,0,0-.6309067-.4452894-1.002.4453106Z"/>
    <path class="cls-2" d="M196.69819,25.3261881s2.1904999,5.4961112,7.75981,3.8984112c0,0,3.8983897-.6679,5.5331897-6.4979998,0,0,.5567-2.5624999-1.6348-5.1249999,0,0-.8906-1.1504115.2247-.668,1.1132.4824,1.4843.8905885,1.8925-.2227.4082-1.1162.6309-2.4881999.1114103-3.5653999-.5196103-1.0771-.9268103-1.8564-.2598103-1.6347.668.2226.5205-.9268.2978103-1.5977-.2236103-.667-1.1513103-2.4110999-3.3798102-3.1181999-2.2285999-.705-4.8652999-1.4482-6.9433998-1.4101-2.0800999.0361-2.4140999.7051-2.9706999,1.1133s-1.5234,2.1170882.8164,2.2284999c2.3398999.1113,3.6757999.1474,4.7157999,1.3379,1.0401,1.1875-.1865,1.1875-.4092,1.0019-.2226-.1855-2.1893999-.9658-4.4178999-.8906-2.2284999.0742-3.2304999,1.4101-3.0077999,2.7450999.2226099,1.3379.705,2.3398999,3.0448999,2.2284999,2.3397999-.1103,3.63871,1.1533,3.9725999,1.9697885.334.8164115-.8906.371-1.372.1855115-.4844-.1855115-4.9404999-1.5244-6.3505998-.1855115-1.4111,1.3359115-.1856,5.8671113,2.5624999,5.4218114,0,0,1.1875-.1855,2.3749999-1.2636,0,0,1.2266-.8165.5937.5195-.6298,1.3379-.4824,2.7850999.335,3.4550999.8174.6679.0752.705-.2578.5566-.3369-.1484113-1.3389-.7051-1.5976899-1.1523-.26071-.4454-2.30371-.8536-1.63381.6698887Z"/>
    <path class="cls-2" d="M191.5731902,12.2909997s-1.5976,2.0058999-.1855,3.5273999c1.4102,1.5234,1.1133098,0,2.1151999-.2598,1.0039-.2607-.7422-2.3017999-.2588-3.4901999.4815-1.1875-1.0019-.8164-1.6709.2226Z"/>
    <path class="cls-2" d="M75.6044931,117.121097s-8.6894931,1.2617-17.1552996-2.2284999c0,0,.5938065-.4453.8164-.8906.2237-.4473-.0742-.5215-.5937-.67-.5196-.1484-12.5507997-2.9706999-22.6513994-14.0350996,0,0,.6685059-.9668,1.3369-1.041.668-.0742,1.336-.2227094.5938-.9649-.743194-.7422-6.3876998-6.2391998-11.3632997-15.6698996,0,0-5.2724999-12.4042997-6.9062998-13.8143997,0,0,.0747-1.1875102,2.8969999-.4454,0,0,1.188.2968898.2969-.8164-.8916-1.1152-5.9418998-11.5117102-19.3837995-12.9237997,0,0,.2969-1.0391,1.0391-1.1875.7426-.1484106,1.708-.2969,1.7827.0742.0742.3711.1489.5196.9653.4453.8174-.0742,3.4906999-.0742,4.8266999.0743,0,0,.4467.2967894.4467.5937,0,.2969-.2968.8906.8174,1.0390894,1.1133.1484105,6.0894053,1.7832105,7.7231998,3.0449105,0,0,.5195.373.3716.6699-.149.2969-.0748.668.2968.8164.3706.1485,4.5298056,2.9706999,5.9408998,4.9023999,0,0,.2969057.5195,0,.6679-.2968.1484897-.4448.3711-.1479.668s4.0844999,4.8280999,5.2724999,6.6854897c0,0,.0747.5176101-.5943.7422101-.6679.2227-.8159.5196-.3711.9649.4453.4453,7.0551998,7.4999998,7.7237058,8.6151998.667894,1.1133.593694,1.3359,0,1.7813-.593806.4472-.148506.8925.148394,1.1152.2974.2227,6.0897998,4.7518999,9.2089998,8.1698998,0,0,.8916062.9649.1484,1.5586-.7422.5938-.2969.9649.5205,1.3379.8164.3691,7.5009998,3.5644999,7.7978998,3.6386999s1.04.5937.6679.9648c-.371.3711-1.1884.8906.2227.9668,1.4121.0723,10.6952997,1.336,16.2646996,3.3417999,0,0,.9658.2969.6689,1.8555-.2969,1.5605-.0742,9.3573998.3711,9.9530997Z"/>
    <path class="cls-2" d="M34.0888941,46.5663988s9.4325998,1.1133,26.2909993,20.7206995c0,0,9.1346998,8.7636998,17.0819996,11.1386997,0,0,1.708.2988,1.5596,1.4121,0,0-.2227,3.7128999-.148493,4.6054999.073293.8906-.594707.8906-1.114207.5195-.5205-.3711-4.0849999-2.0800999-4.7528999-2.5995999-.669-.5195-.8916-.5938-1.1885-.1484-.2969.4452901-.5947.4452901-1.2627-.2969-.668-.7422-5.1991999-4.3085999-5.4218999-4.4570999-.2226-.1494-.5937-.4453-.8906.07329-.2979.52251-.5205.22361-1.1143-.29589-.5937-.5195-3.2674999-4.0839999-3.4159999-4.3808999-.1494-.2968-.5947-.5937-.8916-.4472101-.2969.1504101-.5947-.4452899-.8916-.8906899-.2969-.4453101-2.0048999-3.8613101-2.3759999-4.2323999-.3711-.3711-.5205-.5195-.7431-.4453-.2227.0742-.668,0-1.1143-.9668-.4452936-.9648103-2.2274999-3.7870999-2.6727999-4.0839999-.4458-.2968104-.8174-.6679-1.1143-.6679s-.7431937-.5196-1.04-1.0411c-.2969-.5195-3.8613999-4.9002999-4.3076999-5.2733999-.4453-.3711-.5194939-.5176-.9648-.4453-.4453.0742-.8174-.4453-1.4853-1.1133-.6685-.668-4.1591999-3.3418106-4.7529999-3.7870999-.5947-.4453-.8911-.5937107-1.04-.3711-.2969.4453-.8916-.0742-1.2622-.5937-.3716-.5215-2.8227999-2.1542999-.9663-1.9317Z"/>
    <path class="cls-2" d="M125.2821918,10.7108997s.7373.1456.7237.4385c-.0342.7393-.6348.8125-1.2188.752-1.0586-.1113-4.2890918-.3906-3.8417999-5.2353999,0,0,.667-4.1239999,5.8467081-2.6748118,0,0,.8925918.8906118,1.9501917-.0565882,0,0,1.7266-1.0567,3.8993999-.7217l-.168-1.0586s1.6719.5557,3.0077999.667c1.337.1123,2.5624999.6688881,2.8408999.6688881,0,0-.1114-1.1698881.0566-1.1698881,0,0,2.2274999.4463,3.8983999.6133,0,0,2.9521999.2793,3.9550999,2.0595881,0,0,.6133,1.2265118.9463-.5556882,0,0,.0557-1.0586,4.6786999-1.1699,0,0-.4453.8359,1.0596088.7235882,0,0,1.3915911-.2225882,4.733391,1.1709118,0,0,5.682609-1.7265,7.2421998,2.8964999,0,0,1.0576,4.2323999-3.1757999,5.4022999,0,0-1.2813-.5029-.0557-1.2246,0,0,1.1143-.3349,1.2813-.8925,0,0-3.0077999.5576-2.5624999-3.2851999,0,0,1.2256-.2227,1.8389,1.4463,0,0,.8349.5596.5009-.499,0,0,0-.4463.167-.7256,0,0,.5576.5028883.9473091.6142,0,0-.2227091-3.1756999-4.958-1.8945,0,0,.055591,4.6786999,1.6708909,8.1317998l-.668.335s.835,3.0624999,1.0029,3.5644999c0,0,8.8564998,1.0586,9.0790998,9.1346998,0,0-.7802-.0547-1.0028907.168,0,0,1.2255907,3.2304999.334,5.7362999,0,0-.7236093-1.1699-.835.168,0,0-.6132092,6.0155998-3.7871092,7.9081998,0,0-.1678908-1.4473109-1.2822.2246-1.1143,1.6699-2.9462999,4.1366999-8.2421998,5.9022999-5.6825999,1.8946-8.0770998,3.2871999-8.8016998,4.0117893,0,0-.5.4453106-1.3917-.334,0,0-3.0643999-2.3964893-4.5125999-3.1191893-1.4483-.7246-3.3427999-1.8945-4.7900999-3.3418107,0,0-.668.4454108-.668,1.1133108,0,0-9.9149997-4.2323999-12.0868997-9.8593108,0,0-.3906-.724689-1.1709-.279289,0,0-2.0038999-4.5664999-.3895919-9.1347998,0,0-.4453081-.668-.5567081-.8906,0,0,1.7823-3.5644999,3.2304999-4.7343999,1.4483-1.1699114,3.3417999-2.1719114,4.0673999-3.3417999,0,0-.4473-.3906-1.6171918-.1113,0,0,.0556918-1.3379,1.1151918-3.6210999,0,0-.3906-.334-1.2255-.0547116,0,0,.6123082-3.2870884,1.1689-4.8476883,0,0,.3897-1.0019-1.1689-.5576,0,0-.8916.5576-2.6738999.1112883,0,0-.3271.877,1.6084,1.4287117Z"/>
    <path class="cls-2" d="M97.3656925,105.7577973s-4.2333999,6.3124998-5.0507999,8.4667998c0,0-.8906,1.1113,1.1885.8164,2.0800999-.296809,4.9766074-.5937,12.1064997-4.6053999,0,0,.8906-.2969-.5205-1.2618-1.4112-.9648-5.6445999-3.3417999-6.3867998-3.7147999-.7431-.3691-1.1884,0-1.3369.2988Z"/>
    <path class="cls-2" d="M85.1303928,98.0702975s-5.9604998,10.4159997-2.2289999,18.2148905c0,0,1.8935,3.7871089,5.8490999.277309,0,0,1.3369-1.6152,3.1747999-5.7929999,1.8379-4.1756999,5.4589999-8.5760998,7.0741998-10.5273091,0,0-2.0048999-1.1698906-2.2284925-1.5038906,0,0-3.8984073.3906-4.79-.668-.8907073-1.0586-2.0049073,2.6191999-6.8506072,0Z"/>
    <path class="cls-2" d="M91.313,90.1610977c-.2227073-1.9502-2.0059073-3.1180999-3.5654072-2.9520999-1.5595928.168-3.3422999,1.0019-3.7875928,2.6171903-.4454071,1.6142096-1.8936071,4.0664096-2.2286071,4.8476095-.3339.7793-2.5614999,3.7304999-3.6200999,7.0175998s-4.734293,16.9335996,4.511707,19.2167906c0,0,1.8935929.3887089,3.1752928-1.4501911,0,0-11.3636997-1.0566-1.9497-22.0009994,0,0,.0557-.7793-.3905929-2.0038999-.4453071-1.2265,0-2.6737999.669-3.3983999,0,0,.4452929.8359.3895929,1.5604904-.0557.7247095.6138,3.3418095,3.7328999,3.7325095,0,0,1.5596.1093,2.5615072-1.9512,0,0,.2792927-.7793095.335-1.5586.0556927-.7793.3895927-1.7266.167-3.6767999ZM90.3656927,93.3358976s-.9472,3.5644999-3.3417999.7247c0,0-.6133-1.2813.5567-.7247,0,0,1.2256,1.2266,2.1727999-.4453.9463-1.6728.6123.4453.6123.4453Z"/>
    <path class="cls-2" d="M98.9437925,86.9286978c-1.7265-2.0595097-6.2938998-.5566-6.5174998.3916,0,0,2.1727999,3.3417999-.0557,9.0800998,0,0,2.5067999,2.3378999,5.2362999-.7812095,2.7294999-3.1191904,3.0634999-6.627,1.3369-8.6904903ZM97.3285925,94.2265976c-.2225925,1.2265-2.3397999,1.0585905-2.7294999.2225905-.3896-.834-.5566-1.1132904.501-.834,0,0,.8359074.1661096,1.3926-.2792904.5576-.4453,1.0586-.3339.8359.8907Z"/>
    <path class="cls-2" d="M105.0150923,89.9374977s-1.8388-2.2265999-3.0077999-1.8379c0,0,.2227076,5.6269999-3.4530999,9.3027998,0,0,3.2860999,3.3417905,6.6278998,0,0,0,2.3954999-2.7285999-.167-7.4648998ZM104.1791924,95.7870976c-.1113.6133-.501,1.4473-1.6151924,1.6153-1.1133076.1679-1.5596076-1.0586-1.5596076-1.0586-.334-1.002.7803-.4454,1.4482-.4454.669,0,1.8379-.7246,1.7266-.1113Z"/>
    <path class="cls-2" d="M81.3417929,90.7177977s-3.7870999-13.9247996,4.8462071-22.2236096c8.6337926-8.2988896,19.2723923-1.002,19.8856923,2.2832101.6123077,3.2870999.8907,6.5721998-2.6180999,15.3172996,0,0-1.7265924-.5576-2.6738999-.2793,0,0-5.1795999-3.5086999-10.1376925-.165,0,0-3.8984072-.8926-5.7373071.3877,0,0-.9466929.4453-.7241-.9463,0,0,.1113-9.8026998,6.7964071-13.2558997,0,0,2.5614926-.6679-.168-1.1699,0,0-.5566073,0-.9463073.2227-.3896.2226-1.2812.0566-.6689-1.2813.6133-1.3359.502-2.3397999-.7793-.7793-1.2812,1.5586-1.3926,3.0624999-1.6152,4.0097999,0,0-5.0141999,4.5683999-4.1225999,15.5966996,0,0-.8359,2.0614999-1.3369,2.2831999Z"/>
    <path class="cls-2" d="M100.2807925,102.0819974s.8906-.7246,1.0576-1.1699c0,0,.6689-.6133,1.6719-.6699094,1.0019-.0546906,1.4482-.5,2.0604999.1133094.6123.6113,7.1840998,5.7909999,8.7436998,6.4608998,1.5605079.668,8.1317998,5.6249999,23.0038994,4.0663999,0,0,1.5605-.7246091.8916085,1.6153,0,0-.334,2.9510909-.2217085,4.1210909.1103,1.169909-1.2266-1.058591-1.2266.333909,0,1.3926,1.5039,18.3808995-12.4208997,17.1552996,0,0-2.2284999-.167-4.9579999-1.5596,0,0-1.2256-.5576086-.2773.7246.9463,1.2813.4453,1.3926-1.2823,1.336-1.7255-.0547-5.1180999.1367-10.804192-2.3378999-6.0156075-2.6190999-10.6386074-1.8945-11.0283074-1.7832,0,0-1.6719.5018914.4453074,1.0018914,2.1161925.501,2.7294925.336,1.9492925,2.0059086-.7792925,1.6719-2.6181999,13.8690914-9.8583998,15.0390914,0,0,.5009-.7792918,1.0019-2.6738918,0,0,.502-1.4482-.9463-.0546-1.4482,1.3924918-5.1810999,4.2889999-7.8549998,1.3359,0,0,1.7266-.334,3.3417999-2.3944999,0,0,.7803-1.17-1.0019-.2237-1.7822.9483-5.6259999,1.8389-5.7929999-2.3397999,0,0-.3896-1.169,2.4511999-3.1747999,2.9569999-2.0859999,6.7240998-3.3359999,9.3578998-12.5878997,2.1718999-7.6308998,7.7977998-6.5155998,7.7977998-6.5155998,0,0,5.2363999,1.3358911,12.5322997,1.3906,0,0,.8901.0566.3335-.8906-.5562-.9483.1113-.7246.6123-.7793.5019-.0547,1.7822-.169,2.3954999-.334.6123-.168.7803.2226.7803.4453,0,.2226.1113.9473.7793.2226.6689-.7246,1.0039-.8906,1.1152.168.1113079,1.0586.0557,7.4081998.7793079,5.3456999.7235921-2.0604999,1.448192-6.2928998.4462921-10.4159997,0,0-.4462921-1.2812-.9482921-.166-.5009079,1.1133-1.0576079-1.4492-1.1142079-1.5039-.0547-.0567-3.2861999-8.1327998-3.2861999-5.8495999,0,2.2850908-.5,3.1757999-1.3369,2.1737999-.8354-1.0039-8.2425998-6.1845998-9.0218998-6.5175998-.7803-.334-.4454-.8906-.167-1.1133Z"/>
    <path class="cls-2" d="M67.25,53.7694986s-2.5625066,4.0488999-.7803067,7.4277998c0,0,1.1885,1.8554,1.3741.1113,0,0,.4453-1.2266.8173.5195.3711,1.7460896,1.2989067,4.1581999,4.0469067,3.8613999,0,0,1.0028931.0371.7060931-1.2618-.2969-1.3007.4824-1.2636,1.0761-.1484.5948069,1.1133,2.4140999,3.1190999,4.3076999,2.7851999,0,0,1.0029.0371,1.5224-1.0039.5205-1.0391.4463-1.7071.4463-1.8926,0-.1856-.0381-.9297-.7432-.1856-.705.7422-.6308-.0761-.5937-.3711.0371-.2968-.0381-1.5234,1.2627-2.6366999,1.2998-1.1152,1.6709-2.2655999,1.708-3.2694999.0371-1.002-.0371-1.2988-1.0772-1.1875-1.04.1113-7.9090998,0-13.0711929-3.1934105,0,0-.6309067-.4452894-1.002.4453106Z"/>
    <path class="cls-2" d="M196.69819,25.3261881s2.1904999,5.4961112,7.75981,3.8984112c0,0,3.8983897-.6679,5.5331897-6.4979998,0,0,.5567-2.5624999-1.6348-5.1249999,0,0-.8906-1.1504115.2247-.668,1.1132.4824,1.4843.8905885,1.8925-.2227.4082-1.1162.6309-2.4881999.1114103-3.5653999-.5196103-1.0771-.9268103-1.8564-.2598103-1.6347.668.2226.5205-.9268.2978103-1.5977-.2236103-.667-1.1513103-2.4110999-3.3798102-3.1181999-2.2285999-.705-4.8652999-1.4482-6.9433998-1.4101-2.0800999.0361-2.4140999.7051-2.9706999,1.1133s-1.5234,2.1170882.8164,2.2284999c2.3398999.1113,3.6757999.1474,4.7157999,1.3379,1.0401,1.1875-.1865,1.1875-.4092,1.0019-.2226-.1855-2.1893999-.9658-4.4178999-.8906-2.2284999.0742-3.2304999,1.4101-3.0077999,2.7450999.2226099,1.3379.705,2.3398999,3.0448999,2.2284999,2.3397999-.1103,3.63871,1.1533,3.9725999,1.9697885.334.8164115-.8906.371-1.372.1855115-.4844-.1855115-4.9404999-1.5244-6.3505998-.1855115-1.4111,1.3359115-.1856,5.8671113,2.5624999,5.4218114,0,0,1.1875-.1855,2.3749999-1.2636,0,0,1.2266-.8165.5937.5195-.6298,1.3379-.4824,2.7850999.335,3.4550999.8174.6679.0752.705-.2578.5566-.3369-.1484113-1.3389-.7051-1.5976899-1.1523-.26071-.4454-2.30371-.8536-1.63381.6698887Z"/>
    <path class="cls-2" d="M191.5731902,12.2909997s-1.5976,2.0058999-.1855,3.5273999c1.4102,1.5234,1.1133098,0,2.1151999-.2598,1.0039-.2607-.7422-2.3017999-.2588-3.4901999.4815-1.1875-1.0019-.8164-1.6709.2226Z"/>
    <path class="cls-2" d="M75.6044931,117.121097s-8.6894931,1.2617-17.1552996-2.2284999c0,0,.5938065-.4453.8164-.8906.2237-.4473-.0742-.5215-.5937-.67-.5196-.1484-12.5507997-2.9706999-22.6513994-14.0350996,0,0,.6685059-.9668,1.3369-1.041.668-.0742,1.336-.2227094.5938-.9649-.743194-.7422-6.3876998-6.2391998-11.3632997-15.6698996,0,0-5.2724999-12.4042997-6.9062998-13.8143997,0,0,.0747-1.1875102,2.8969999-.4454,0,0,1.188.2968898.2969-.8164-.8916-1.1152-5.9418998-11.5117102-19.3837995-12.9237997,0,0,.2969-1.0391,1.0391-1.1875.7426-.1484106,1.708-.2969,1.7827.0742.0742.3711.1489.5196.9653.4453.8174-.0742,3.4906999-.0742,4.8266999.0743,0,0,.4467.2967894.4467.5937,0,.2969-.2968.8906.8174,1.0390894,1.1133.1484105,6.0894053,1.7832105,7.7231998,3.0449105,0,0,.5195.373.3716.6699-.149.2969-.0748.668.2968.8164.3706.1485,4.5298056,2.9706999,5.9408998,4.9023999,0,0,.2969057.5195,0,.6679-.2968.1484897-.4448.3711-.1479.668s4.0844999,4.8280999,5.2724999,6.6854897c0,0,.0747.5176101-.5943.7422101-.6679.2227-.8159.5196-.3711.9649.4453.4453,7.0551998,7.4999998,7.7237058,8.6151998.667894,1.1133.593694,1.3359,0,1.7813-.593806.4472-.148506.8925.148394,1.1152.2974.2227,6.0897998,4.7518999,9.2089998,8.1698998,0,0,.8916062.9649.1484,1.5586-.7422.5938-.2969.9649.5205,1.3379.8164.3691,7.5009998,3.5644999,7.7978998,3.6386999s1.04.5937.6679.9648c-.371.3711-1.1884.8906.2227.9668,1.4121.0723,10.6952997,1.336,16.2646996,3.3417999,0,0,.9658.2969.6689,1.8555-.2969,1.5605-.0742,9.3573998.3711,9.9530997Z"/>
    <path class="cls-2" d="M34.0888941,46.5663988s9.4325998,1.1133,26.2909993,20.7206995c0,0,9.1346998,8.7636998,17.0819996,11.1386997,0,0,1.708.2988,1.5596,1.4121,0,0-.2227,3.7128999-.148493,4.6054999.073293.8906-.594707.8906-1.114207.5195-.5205-.3711-4.0849999-2.0800999-4.7528999-2.5995999-.669-.5195-.8916-.5938-1.1885-.1484-.2969.4452901-.5947.4452901-1.2627-.2969-.668-.7422-5.1991999-4.3085999-5.4218999-4.4570999-.2226-.1494-.5937-.4453-.8906.07329-.2979.52251-.5205.22361-1.1143-.29589-.5937-.5195-3.2674999-4.0839999-3.4159999-4.3808999-.1494-.2968-.5947-.5937-.8916-.4472101-.2969.1504101-.5947-.4452899-.8916-.8906899-.2969-.4453101-2.0048999-3.8613101-2.3759999-4.2323999-.3711-.3711-.5205-.5195-.7431-.4453-.2227.0742-.668,0-1.1143-.9668-.4452936-.9648103-2.2274999-3.7870999-2.6727999-4.0839999-.4458-.2968104-.8174-.6679-1.1143-.6679s-.7431937-.5196-1.04-1.0411c-.2969-.5195-3.8613999-4.9002999-4.3076999-5.2733999-.4453-.3711-.5194939-.5176-.9648-.4453-.4453.0742-.8174-.4453-1.4853-1.1133-.6685-.668-4.1591999-3.3418106-4.7529999-3.7870999-.5947-.4453-.8911-.5937107-1.04-.3711-.2969.4453-.8916-.0742-1.2622-.5937-.3716-.5215-2.8227999-2.1542999-.9663-1.9317Z"/>
  </g>
  <g>
    <path class="cls-3" d="M128.4462918,27.9999993s10.7675997,4.4179999,11.1767082,13.8495997c0,0,.1494915.6309,1.2988914.7051,1.1523.0762,3.9374999.2988,6.1659998-.5938,0,0,.5557-.3339,1.4463.0742891.8916.4082109,2.4882999,1.1523108,5.7928999.4472109,0,0,.668.1465,1.0772-1.041,0,0,1.0391-1.375,1.2246-2.1542999.1865-.7793,1.5244-4.5663999,2.7851999-5.9784998,0,0,1.4492-2.0780999,4.9393999-3.9354999,0,0,.668-.334.8545092.7420888.1855908,1.0782111-.2226092,1.1895111.4091908.7051112,0,0,.3711-.5937.3711-1.2246,0-.6308-.2237-.2226.0732-1.6348.2969-1.4101-.5576-1.7441-.5204908-1.7812.0380908-.0371-.667-.5938-.5185092.4082.1474,1.002.0361,1.5605-.7061,1.8574-.7432.2968888-6.6835998,4.4179999-14.3339996,2.5995999,0,0-.7041-.2617111-.7422-1.2265-.0371-.9649-.4081912-2.4512112.5196-2.5624999.9287-.1114.4082088-1.1504.4082088-1.1504,0,0,.0018912-.8164.8173912-.2227.4082.2969.706.9278,1.2626088.1485,0,0,1.8564911-2.0058999.1855911-4.3085999,0,0-1.1875-1.7813-4.4560999-.5938,0,0-6.3856998-1.5215-4.6044913,3.6015999,0,0,.3720914,1.0781,1.4482913,1.709,0,0,.5195.4824.6308-.4825.1114-.9648113,1.6719087-.4824,1.1143.5196,0,0-.334.5937.334.7422.668.1483888,1.6719-.1485,1.4111,2.8221999,0,0,0,.7421888-2.2645999,1.375,0,0-4.3447999,1.1875-7.4638913.2598,0,0-6.4238083-1.5234-10.4336082-5.2362999,0,0-.4813918-.4493113.7041-1.9317.7432-.9277-1.709.1113887-1.6709.8183887,0,0,0,1.039-.8174,2.0039112-.374.4433-.1113,1.8574,0,2.1171999.1133.2597.5567,1.0761.7061-.4453.1494-1.5235,1.1514-1.1153,1.375-1.002Z"/>
    <path class="cls-3" d="M145.7128913,44.8944989s1.1504.4454,1.8184.8536c0,0,.8906-1.002,1.9316-1.1504l.0742-.2969s-2.7099999-.1484-3.8241999.5937Z"/>
    <path class="cls-3" d="M145.082,19.9042995s-2.9345086-1.2637-9.1357084-.5937c0,0-1.4102.1484-2.8964999,1.3359,0,0-.6309.2226886-.1846-.4824.4453-.7051.4453-.8164-.372-.668-.8164.1484-.1123-.3711.2597-.707.3721084-.334,1.4483-.6309115,1.6338-.7051.1856-.0742.4453084-.2598115.4453084-1.002,0-.7421.2226916-6.3124998,2.4882915-7.9471998,2.2647085-1.6328,5.8681999.0361,6.8329998,3.1923883.9649,3.1562115.5196,5.4599115.5196,5.4599115,0,0-.0743.4824.4453.7050885.5195.2227115.9648087.8184114.3339,1.0039114,0,0-.0732.4453-.3700913.4082Z"/>
    <path class="cls-3" d="M150.54,19.4960995s-1.2617088-5.2733999.1865912-7.9101998c1.4463-2.6367116,2.7460999-2.6004999,4.5301999-1.6728,1.7823.9297,3.4522089,4.6063999,3.0810999,7.7255998,0,0-.2236.5566.5195.7793.7432.2226,1.4483.5195,1.709.8926.2598.3711.0732.3711-.2607.3339-.334-.0371-.5566909.0743-.334.5196.2226.4453.2597,1.1504-.2959.4453-.5576-.7051-1.9317-1.3731-2.8974999-1.2988-.9648.0742-2.8221999.1113-3.6386999.2597-.8173.1485-.706.334-.5947.5567.1114.2226.4453,1.1504-.4453.4824-.8905912-.668-1.1504-.8164-1.5595912-1.1133Z"/>
    <path class="cls-3" d="M134.46,10.4345997s4.2108915-6.3329998,9.6415914-.2168c0,0,.2744086.3857.4589-.1533.2344-.6807.3965087-1.3496-.1844913-1.8575-.5938086-.5205-7.2852085-5.3006999-10.249,1.5215,0,0-.669,2.1161999.333.7061Z"/>
    <path class="cls-3" d="M149.834,9.8398998s.1864912,1.0029.9286912.0361c.7422-.9649,2.6727999-2.8202999,6.3124998.374,0,0,1.298809,1.3721.668-.2627-.6309-1.6318-3.7499999-4.7518999-7.5009998-2.1151999,0,0-.9277.4834-.4081912,1.9678Z"/>
    <path class="cls-3" d="M126.8485918,7.2050998s.7061-1.3389117-.3349-1.1895c-1.0391.1475-1.3662-.6728-2.1161999-.7802-.7793-.1104-2.0370999.4443-2.3027999,1.6709-.2959,1.374.1123081,1.2627.5957.3358882,0,0,.5928-.9296882,1.4112-.707,0,0,.5185.0742118.2959,1.1513117,0,0-.1114,1.0401.7441.1494.8525-.8935,1.0381-.4082,1.4102-.2226.3711.1846.2968-.4082.2968-.4082Z"/>
    <path class="cls-3" d="M128.4462918,27.9999993s10.7675997,4.4179999,11.1767082,13.8495997c0,0,.1494915.6309,1.2988914.7051,1.1523.0762,3.9374999.2988,6.1659998-.5938,0,0,.5557-.3339,1.4463.0742891.8916.4082109,2.4882999,1.1523108,5.7928999.4472109,0,0,.668.1465,1.0772-1.041,0,0,1.0391-1.375,1.2246-2.1542999.1865-.7793,1.5244-4.5663999,2.7851999-5.9784998,0,0,1.4492-2.0780999,4.9393999-3.9354999,0,0,.668-.334.8545092.7420888.1855908,1.0782111-.2226092,1.1895111.4091908.7051112,0,0,.3711-.5937.3711-1.2246,0-.6308-.2237-.2226.0732-1.6348.2969-1.4101-.5576-1.7441-.5204908-1.7812.0380908-.0371-.667-.5938-.5185092.4082.1474,1.002.0361,1.5605-.7061,1.8574-.7432.2968888-6.6835998,4.4179999-14.3339996,2.5995999,0,0-.7041-.2617111-.7422-1.2265-.0371-.9649-.4081912-2.4512112.5196-2.5624999.9287-.1114.4082088-1.1504.4082088-1.1504,0,0,.0018912-.8164.8173912-.2227.4082.2969.706.9278,1.2626088.1485,0,0,1.8564911-2.0058999.1855911-4.3085999,0,0-1.1875-1.7813-4.4560999-.5938,0,0-6.3856998-1.5215-4.6044913,3.6015999,0,0,.3720914,1.0781,1.4482913,1.709,0,0,.5195.4824.6308-.4825.1114-.9648113,1.6719087-.4824,1.1143.5196,0,0-.334.5937.334.7422.668.1483888,1.6719-.1485,1.4111,2.8221999,0,0,0,.7421888-2.2645999,1.375,0,0-4.3447999,1.1875-7.4638913.2598,0,0-6.4238083-1.5234-10.4336082-5.2362999,0,0-.4813918-.4493113.7041-1.9317.7432-.9277-1.709.1113887-1.6709.8183887,0,0,0,1.039-.8174,2.0039112-.374.4433-.1113,1.8574,0,2.1171999.1133.2597.5567,1.0761.7061-.4453.1494-1.5235,1.1514-1.1153,1.375-1.002Z"/>
    <path class="cls-3" d="M145.7128913,44.8944989s1.1504.4454,1.8184.8536c0,0,.8906-1.002,1.9316-1.1504l.0742-.2969s-2.7099999-.1484-3.8241999.5937Z"/>
    <path class="cls-3" d="M145.082,19.9042995s-2.9345086-1.2637-9.1357084-.5937c0,0-1.4102.1484-2.8964999,1.3359,0,0-.6309.2226886-.1846-.4824.4453-.7051.4453-.8164-.372-.668-.8164.1484-.1123-.3711.2597-.707.3721084-.334,1.4483-.6309115,1.6338-.7051.1856-.0742.4453084-.2598115.4453084-1.002,0-.7421.2226916-6.3124998,2.4882915-7.9471998,2.2647085-1.6328,5.8681999.0361,6.8329998,3.1923883.9649,3.1562115.5196,5.4599115.5196,5.4599115,0,0-.0743.4824.4453.7050885.5195.2227115.9648087.8184114.3339,1.0039114,0,0-.0732.4453-.3700913.4082Z"/>
    <path class="cls-3" d="M150.54,19.4960995s-1.2617088-5.2733999.1865912-7.9101998c1.4463-2.6367116,2.7460999-2.6004999,4.5301999-1.6728,1.7823.9297,3.4522089,4.6063999,3.0810999,7.7255998,0,0-.2236.5566.5195.7793.7432.2226,1.4483.5195,1.709.8926.2598.3711.0732.3711-.2607.3339-.334-.0371-.5566909.0743-.334.5196.2226.4453.2597,1.1504-.2959.4453-.5576-.7051-1.9317-1.3731-2.8974999-1.2988-.9648.0742-2.8221999.1113-3.6386999.2597-.8173.1485-.706.334-.5947.5567.1114.2226.4453,1.1504-.4453.4824-.8905912-.668-1.1504-.8164-1.5595912-1.1133Z"/>
    <path class="cls-3" d="M134.46,10.4345997s4.2108915-6.3329998,9.6415914-.2168c0,0,.2744086.3857.4589-.1533.2344-.6807.3965087-1.3496-.1844913-1.8575-.5938086-.5205-7.2852085-5.3006999-10.249,1.5215,0,0-.669,2.1161999.333.7061Z"/>
    <path class="cls-3" d="M149.834,9.8398998s.1864912,1.0029.9286912.0361c.7422-.9649,2.6727999-2.8202999,6.3124998.374,0,0,1.298809,1.3721.668-.2627-.6309-1.6318-3.7499999-4.7518999-7.5009998-2.1151999,0,0-.9277.4834-.4081912,1.9678Z"/>
    <path class="cls-3" d="M126.8485918,7.2050998s.7061-1.3389117-.3349-1.1895c-1.0391.1475-1.3662-.6728-2.1161999-.7802-.7793-.1104-2.0370999.4443-2.3027999,1.6709-.2959,1.374.1123081,1.2627.5957.3358882,0,0,.5928-.9296882,1.4112-.707,0,0,.5185.0742118.2959,1.1513117,0,0-.1114,1.0401.7441.1494.8525-.8935,1.0381-.4082,1.4102-.2226.3711.1846.2968-.4082.2968-.4082Z"/>
  </g>
  <g>
    <path class="cls-4" d="M8.7641948,50.7245987s-.7237.6699.6684.6699c1.3926,0,3.9545999.3886894,4.2895999.5.3335.1114,1.0019-.1113106.0556-.4453106-.9477-.334-3.0082999-1.8944893-5.0135999-.7245894Z"/>
    <path class="cls-4" d="M15.4481946,52.4511881s.1675.6699106,0,.8926106c-.1669.2226.2789.4453.4458054.5.1664946.0566,9.19,3.2870999,8.6332944,4.7909999,0,0-.3339.3906.1114.6679.4453056.2793,5.6815999,4.6796999,6.1268998,5.6269999,0,0,.4453.5566-.0555942.834-.501.2793-.3897058.4453-.1109058.7812.2779058.334,4.7895999,6.1816998,5.0121999,6.7949998.2227059.6132.1114.6132-.2226.7792899-.3335.1679101-.3892.50191-.1114.83591.2784.334,7.5195998,9.3026998,7.8535998,9.58009.3349.2793098.1123.4453098-.1108939.6132098-.2231061.1661-.2231061.4444.0551939.667.2793.2227,9.4140998,8.6337902,9.7479998,9.2470998.334.6133.2227.5566905.2227.8359,0,.2793,7.1854998,2.9511999,7.9647998,3.6757905.7803065.7246094.669.8907094.836,1.17.167.2792094,1.3369-.7246906,5.2919999.2792094,3.9540999,1.002,6.5165998,2.6171999,8.4657998,2.7285999,0,0,.2226-.2237.335-.9473.1113-.7227-.335-1.1133-.9473-1.2813-.6133-.166-9.0233998-2.8397999-9.9706997-3.4530999,0,0-.5567-.334-.7793.2227-.2236.5566-.5576.4453-.9473.2226-.3896-.2226-4.2333999-1.5586-7.6307998-5.1229999,0,0-1.003-.8359-1.2256-.5586-.2227.2793-.334.168-.7803-.1113-.4453-.2774-4.5116999-2.9511999-8.0761936-8.5790998,0,0-.3896061-.334-.6123061-.2217-.2226.1132902-.8354-.0557098-.9472-.3897098-.1114-.3338902-5.0126999-8.79979-5.2919999-9.6922899-.2779-.8907101-.7237-.4454-.7237-.4454,0,0-.5009.168-.8916-.7226-.3896-.8926-4.0653999-7.3534998-4.3441941-7.7421998-.2788058-.3906-.6685058-.6133-.8911058-.6133-.2222,0-.7803-.2793-.836-.5019-.0556-.2227-4.1219999-5.7363999-4.2889999-5.9043103-.167-.166-.7232-.5-1.002-.5-.2783,0-.8911-.168-1.3925-.6132895-.5015-.4453-6.1821998-4.0097999-7.6303944-4.6797105-1.4487054-.668-1.2818054.334-1.2818054.334Z"/>
    <path class="cls-4" d="M14.8353946,46.7694988s.5572.4473.8917.1114c.3334-.334-.7250946-.4453-.8917-.1114Z"/>
    <path class="cls-4" d="M17.1195946,47.8280988s.2222.502.7803.5567c.5562.0566,1.6147.4472,1.8931055.3359.2782945-.1113-2.0616054-1.3926-2.6734054-.8926Z"/>
    <path class="cls-4" d="M20.7392945,49.1093988s2.6737999,1.0039,2.7294999,1.6719q.0556.6678894.7802056.8358894c.7240944.166,4.8456943,1.5586106,5.5136942,2.5625106,0,0,.1113058.332-.1113.668-.2222.334-.2779.4453.2226058.7226.502.2793,6.0722941,3.9550999,6.6288941,5.0136999,0,0,.167.334,0,.668-.167.3339,0,.7246.2227.8925.2226.1661,4.9014059,4.4550999,5.8485999,6.4609998,0,0,.2783.6679-.334.6679-.6131939,0-.5576.5567-.2778.836.2778.2773,4.1762999,4.8456999,4.3432999,5.2909999.1679.4453.0571.501-.167.6133-.2226938.1113-.668.334-.167.7793.5019.4453,5.0693062,5.1796999,5.4033062,5.4589999.334.2773.3895937.7236.334.8906-.0557063.167-.2783063.4453.3895937.8925902.669.4453098,6.6845998,4.7343097,6.9628998,4.957.2783.2227097.334.5566097.334.5566097,0,0,.2793.668.7246.7246,0,0,7.0185998,2.2832999,7.5751998,2.8964999,0,0,.2783.5567.7236.668.4463.1112904,8.2998998,2.7851999,8.9677998,3.0624999.669.2793.8916.1113,1.0586-.2227.167-.3339.669-1.3925095.669-1.3925095,0,0-.2237-.6113905-.669-.836-.445293-.2225905-6.1268998-2.5057904-7.1298998-3.0633904,0,0-.5009-.168-.7236.1689-.2227.334-.6123.1113-.8916,0-.2783-.1143-5.4579999-3.1767999-5.7929999-3.5106999-.334-.3331-1.1689-.501-1.5595-.667-.3896934-.168-4.2333999-2.7304999-5.0683999-4.6796999,0,0-.3897-.4453-1.2256-.334,0,0-.4453-.1113-.7793-.5566-.3349-.4454-3.0087999-3.3995099-4.5126999-7.5761998,0,0-.334-.7227-.8349-.2227,0,0-2.7294999-2.7850999-3.8994999-5.6249999,0,0-.4452938-.5566102-.7231-.4453-.2788.1113-.7808-.3359-.8364-.5586-.0557-.2226-2.6733999-5.4022999-4.9008999-7.6307998,0,0-.5571-.3887-.7798-.1661-.223094.2227-.7803,0-.8916-.2226-.1113-.2227-5.1801999-5.4589999-5.3475999-5.5702999-.167-.1114-.668-.3907-.8902-.168-.2231.2227-.6694-.0547-.8364-.166-.1665-.1113-4.4560999-3.1757999-4.4560999-3.1757999,0,0-.5566-.3906-.9471943-.1113-.3892056.2793-.6118056,0-.9463056-.166-.334-.168-2.4511999-1.2813-2.7294999-1.3926-.2778-.1113-1.5034.1113-1.0029.5Z"/>
    <path class="cls-4" d="M26.2538943,45.9901881s3.2865999,1.0586107,3.3974999,1.7266107c0,0,3.8993999,1.7832,4.5673999,2.3398999.6689.5566.5019-.3907,0-.668-.501-.2793-1.2797941-1.3926-1.6709-1.2266-.3897.168-.9458-.2773-1.1133-.5566-.168-.2774-3.8993999-2.1718999-4.3442999-2.1718999-.4467,0-1.6157.2793-.8364.5565892Z"/>
    <path class="cls-4" d="M36.8925941,51.6171881s-.334.7793106.7803,1.2812106c1.1142.5,5.9598998,4.5664999,6.4613998,5.2343999.5005.6699.3335.6133.1665.836-.1665.2226-.1109.3339.2783.7246.3906.3886,3.8993999,4.0096999,4.8466999,5.5702999,0,0,.2226.5.2226.668,0,.1679.1675.5019.3897.6679.2226.168,3.7313999,4.0663999,4.0663999,4.3456999.334.2774.334.668.2783.8906-.0557.2227,0,.502.2227.668.2226.168,3.5087999,3.7323999,3.8993999,4.1200999.3896.3916.167.7823.167.7823,0,0-.1114.7246.2226.8896.334.169,5.1796999,3.2304999,5.4589999,3.6220999.2783.3887.3897.6679.2227.8359-.167.166-.2783.7227.5009.9452902.7803.2227098,7.0742998,2.1739098,7.6865998,2.6182097.6133068.4463,1.0029.7256,1.0586.8916.0556.168.5009.3906.8916.4453.3896.0566,3.5643999,1.0038903,3.7871069,1.1152.222593.1114,1.392593-.3916.111293-1.2812-1.2812-.8936-4.6229999-2.4511999-4.8456999-2.6191097-.2227-.1660902-.668-.0546902-.7245931.1679098-.0557068.2227-.6123068.2774-.835.0547-.2226068-.2226098-5.0683067-4.2323999-5.6259067-4.6239999-.5567-.3877-.5567-.1651-.6123.1123-.0557.2793-.1114.2226-.6133.1113-.501-.1113-3.3974933-2.4502099-4.8456999-4.3436999,0,0-.7803-.669-1.003-.6133-.2226.0557-.7236-.1113-.9463-.502-.2226-.3886-2.2284935-3.9530999-2.5067999-4.4549999-.2783-.502-.5566-.4454-.7236-.502-.168-.0547-.7246-.4453-.7803-.6113-.0557-.168-3.2304999-4.8456999-3.3974999-5.1249999-.1665-.2793-.6689-.2793-.6689-.2793,0,0-.6123-.0547-.9463-.5567-.334-.5-3.8436999-5.9589103-4.2328999-6.3495998-.3911-.3906-.5024-.2793105-.7251-.2226-.2227.0566-.6123-.2227105-.9463-.6133-.3349-.3887-6.5175998-6.7401998-6.7401998-4.9004105Z"/>
    <path class="cls-4" d="M8.7641948,50.7245987s-.7237.6699.6684.6699c1.3926,0,3.9545999.3886894,4.2895999.5.3335.1114,1.0019-.1113106.0556-.4453106-.9477-.334-3.0082999-1.8944893-5.0135999-.7245894Z"/>
    <path class="cls-4" d="M15.4481946,52.4511881s.1675.6699106,0,.8926106c-.1669.2226.2789.4453.4458054.5.1664946.0566,9.19,3.2870999,8.6332944,4.7909999,0,0-.3339.3906.1114.6679.4453056.2793,5.6815999,4.6796999,6.1268998,5.6269999,0,0,.4453.5566-.0555942.834-.501.2793-.3897058.4453-.1109058.7812.2779058.334,4.7895999,6.1816998,5.0121999,6.7949998.2227059.6132.1114.6132-.2226.7792899-.3335.1679101-.3892.50191-.1114.83591.2784.334,7.5195998,9.3026998,7.8535998,9.58009.3349.2793098.1123.4453098-.1108939.6132098-.2231061.1661-.2231061.4444.0551939.667.2793.2227,9.4140998,8.6337902,9.7479998,9.2470998.334.6133.2227.5566905.2227.8359,0,.2793,7.1854998,2.9511999,7.9647998,3.6757905.7803065.7246094.669.8907094.836,1.17.167.2792094,1.3369-.7246906,5.2919999.2792094,3.9540999,1.002,6.5165998,2.6171999,8.4657998,2.7285999,0,0,.2226-.2237.335-.9473.1113-.7227-.335-1.1133-.9473-1.2813-.6133-.166-9.0233998-2.8397999-9.9706997-3.4530999,0,0-.5567-.334-.7793.2227-.2236.5566-.5576.4453-.9473.2226-.3896-.2226-4.2333999-1.5586-7.6307998-5.1229999,0,0-1.003-.8359-1.2256-.5586-.2227.2793-.334.168-.7803-.1113-.4453-.2774-4.5116999-2.9511999-8.0761936-8.5790998,0,0-.3896061-.334-.6123061-.2217-.2226.1132902-.8354-.0557098-.9472-.3897098-.1114-.3338902-5.0126999-8.79979-5.2919999-9.6922899-.2779-.8907101-.7237-.4454-.7237-.4454,0,0-.5009.168-.8916-.7226-.3896-.8926-4.0653999-7.3534998-4.3441941-7.7421998-.2788058-.3906-.6685058-.6133-.8911058-.6133-.2222,0-.7803-.2793-.836-.5019-.0556-.2227-4.1219999-5.7363999-4.2889999-5.9043103-.167-.166-.7232-.5-1.002-.5-.2783,0-.8911-.168-1.3925-.6132895-.5015-.4453-6.1821998-4.0097999-7.6303944-4.6797105-1.4487054-.668-1.2818054.334-1.2818054.334Z"/>
    <path class="cls-4" d="M14.8353946,46.7694988s.5572.4473.8917.1114c.3334-.334-.7250946-.4453-.8917-.1114Z"/>
    <path class="cls-4" d="M17.1195946,47.8280988s.2222.502.7803.5567c.5562.0566,1.6147.4472,1.8931055.3359.2782945-.1113-2.0616054-1.3926-2.6734054-.8926Z"/>
    <path class="cls-4" d="M20.7392945,49.1093988s2.6737999,1.0039,2.7294999,1.6719q.0556.6678894.7802056.8358894c.7240944.166,4.8456943,1.5586106,5.5136942,2.5625106,0,0,.1113058.332-.1113.668-.2222.334-.2779.4453.2226058.7226.502.2793,6.0722941,3.9550999,6.6288941,5.0136999,0,0,.167.334,0,.668-.167.3339,0,.7246.2227.8925.2226.1661,4.9014059,4.4550999,5.8485999,6.4609998,0,0,.2783.6679-.334.6679-.6131939,0-.5576.5567-.2778.836.2778.2773,4.1762999,4.8456999,4.3432999,5.2909999.1679.4453.0571.501-.167.6133-.2226938.1113-.668.334-.167.7793.5019.4453,5.0693062,5.1796999,5.4033062,5.4589999.334.2773.3895937.7236.334.8906-.0557063.167-.2783063.4453.3895937.8925902.669.4453098,6.6845998,4.7343097,6.9628998,4.957.2783.2227097.334.5566097.334.5566097,0,0,.2793.668.7246.7246,0,0,7.0185998,2.2832999,7.5751998,2.8964999,0,0,.2783.5567.7236.668.4463.1112904,8.2998998,2.7851999,8.9677998,3.0624999.669.2793.8916.1113,1.0586-.2227.167-.3339.669-1.3925095.669-1.3925095,0,0-.2237-.6113905-.669-.836-.445293-.2225905-6.1268998-2.5057904-7.1298998-3.0633904,0,0-.5009-.168-.7236.1689-.2227.334-.6123.1113-.8916,0-.2783-.1143-5.4579999-3.1767999-5.7929999-3.5106999-.334-.3331-1.1689-.501-1.5595-.667-.3896934-.168-4.2333999-2.7304999-5.0683999-4.6796999,0,0-.3897-.4453-1.2256-.334,0,0-.4453-.1113-.7793-.5566-.3349-.4454-3.0087999-3.3995099-4.5126999-7.5761998,0,0-.334-.7227-.8349-.2227,0,0-2.7294999-2.7850999-3.8994999-5.6249999,0,0-.4452938-.5566102-.7231-.4453-.2788.1113-.7808-.3359-.8364-.5586-.0557-.2226-2.6733999-5.4022999-4.9008999-7.6307998,0,0-.5571-.3887-.7798-.1661-.223094.2227-.7803,0-.8916-.2226-.1113-.2227-5.1801999-5.4589999-5.3475999-5.5702999-.167-.1114-.668-.3907-.8902-.168-.2231.2227-.6694-.0547-.8364-.166-.1665-.1113-4.4560999-3.1757999-4.4560999-3.1757999,0,0-.5566-.3906-.9471943-.1113-.3892056.2793-.6118056,0-.9463056-.166-.334-.168-2.4511999-1.2813-2.7294999-1.3926-.2778-.1113-1.5034.1113-1.0029.5Z"/>
    <path class="cls-4" d="M26.2538943,45.9901881s3.2865999,1.0586107,3.3974999,1.7266107c0,0,3.8993999,1.7832,4.5673999,2.3398999.6689.5566.5019-.3907,0-.668-.501-.2793-1.2797941-1.3926-1.6709-1.2266-.3897.168-.9458-.2773-1.1133-.5566-.168-.2774-3.8993999-2.1718999-4.3442999-2.1718999-.4467,0-1.6157.2793-.8364.5565892Z"/>
    <path class="cls-4" d="M36.8925941,51.6171881s-.334.7793106.7803,1.2812106c1.1142.5,5.9598998,4.5664999,6.4613998,5.2343999.5005.6699.3335.6133.1665.836-.1665.2226-.1109.3339.2783.7246.3906.3886,3.8993999,4.0096999,4.8466999,5.5702999,0,0,.2226.5.2226.668,0,.1679.1675.5019.3897.6679.2226.168,3.7313999,4.0663999,4.0663999,4.3456999.334.2774.334.668.2783.8906-.0557.2227,0,.502.2227.668.2226.168,3.5087999,3.7323999,3.8993999,4.1200999.3896.3916.167.7823.167.7823,0,0-.1114.7246.2226.8896.334.169,5.1796999,3.2304999,5.4589999,3.6220999.2783.3887.3897.6679.2227.8359-.167.166-.2783.7227.5009.9452902.7803.2227098,7.0742998,2.1739098,7.6865998,2.6182097.6133068.4463,1.0029.7256,1.0586.8916.0556.168.5009.3906.8916.4453.3896.0566,3.5643999,1.0038903,3.7871069,1.1152.222593.1114,1.392593-.3916.111293-1.2812-1.2812-.8936-4.6229999-2.4511999-4.8456999-2.6191097-.2227-.1660902-.668-.0546902-.7245931.1679098-.0557068.2227-.6123068.2774-.835.0547-.2226068-.2226098-5.0683067-4.2323999-5.6259067-4.6239999-.5567-.3877-.5567-.1651-.6123.1123-.0557.2793-.1114.2226-.6133.1113-.501-.1113-3.3974933-2.4502099-4.8456999-4.3436999,0,0-.7803-.669-1.003-.6133-.2226.0557-.7236-.1113-.9463-.502-.2226-.3886-2.2284935-3.9530999-2.5067999-4.4549999-.2783-.502-.5566-.4454-.7236-.502-.168-.0547-.7246-.4453-.7803-.6113-.0557-.168-3.2304999-4.8456999-3.3974999-5.1249999-.1665-.2793-.6689-.2793-.6689-.2793,0,0-.6123-.0547-.9463-.5567-.334-.5-3.8436999-5.9589103-4.2328999-6.3495998-.3911-.3906-.5024-.2793105-.7251-.2226-.2227.0566-.6123-.2227105-.9463-.6133-.3349-.3887-6.5175998-6.7401998-6.7401998-4.9004105Z"/>
  </g>
  <g>
    <path class="cls-6" d="M139.9950915,32.8261881s1.5576.5566111,7.1289085-.7050889c0,0,1.6698912-.8164,1.1874913,2.0800889l-.7431,6.0898109s-.2598.6309-1.0762.8164c-.8174.1856-2.9335999.7793-5.3847999.4825,0,0-.6679.1484-.8906-1.1133-.2217-1.2637-.6689-5.1620999-1.3359-6.8339998,0,0-.4834-1.2988,1.1142-.8164111Z"/>
    <path class="cls-6" d="M149.2782912,32.4550992s-.4834,6.5350889-.8554,8.0214998c0,0-.334.7051,1.04.8905891,1.374.1855109,2.3026999.3711109,4.3075999.1855109,0,0,.668.2227,1.2988-1.4843,0,0,1.4112-2.3769999,1.6719-6.9082109,0,0,.1484-.9648889-1.2617-.7050889-1.4121.2598-3.3798999.2226-5.2372999-.334,0,0-.9277-.3711-.9639.334Z"/>
    <path class="cls-6" d="M145.4892913,22.6151881s-.4825.3711113-.3711.668c.1113.2969113.2607.5567113.7793.334.5205087-.2226887,1.1523-.4452887,1.6347-.4081887s.5938087-.2969.7051-.3711c.1113-.0742.0742-.4082-.334-.4453s-1.3369-.4102-2.4139999.2225886Z"/>
    <path class="cls-6" d="M150.2421912,22.5780994s-.0371,1.2246.8183,1.5586c0,0,.6309.1114.3331-1.1133-.2969-1.2246-1.4854-1.039-1.1514-.4453Z"/>
    <path class="cls-6" d="M139.0663915,10.1386997s2.6728999.8164,3.2666085,7.3514883c0,0,.1493914.8907115.7060914.8536115,0,0,.706.0371.706-.9278,0,0,.9649086-6.7216998-4.1971999-7.9471998,0,0-.5928-.0752-.7051.1855-.1114.2588.1123.4102.2236.4844Z"/>
    <path class="cls-6" d="M138.8056915,14.4442996s-.4834.4834-.0371,1.0391c.4453.5576.5566,1.1162.6679,1.3017885.1114.1855115.2979.4824115.7061.4824115s.5947-.4453.5195-.8164115c-.0742-.3710885-.5937-1.9316884-1.0029-2.1171884-.4081915-.1865-.8535.1103-.8535.1103Z"/>
    <path class="cls-6" d="M153.1395911,14.7050996s-.5575911.3700884-.2978.8896c.2598.5224885.4453,1.376.5205,1.5987.0742.2226,1.1504.8535,1.2256-.1485.0732-1.0039-.5205-2.7860999-1.4483-2.3397999Z"/>
    <path class="cls-6" d="M153.5106911,10.6942997s1.9688,1.2618,2.7109999,6.9072998c0,0,0,.7793.6679.6679.669-.1113115.669-.2968.669-.8906,0-.5937115.2227-5.6073999-3.6386999-7.2401998,0,0-1.5234-.3731-.4092.5556Z"/>
    <path class="cls-6" d="M9.8783947,49.0546988s2.6737999.2773,4.2328999,1.3926c0,0,.6128,0,.8907054-.168.2792946-.166,3.1761945.3906,8.5785944,4.2890999,0,0,.8354056.9472,1.0581.1679.2231-.7812.7793056-.1113,1.0029,0,.2231.1114.3901.3887.7236,0,.334-.3906.2227-.5566-.0556-.6132-.2779-.0567-5.1240999-1.8946-5.5146999-2.1719106-.3891-.2792894-.3891-.334-.2778-.6132894.1108-.2793.1108-.6133-.2783-.7246-.3902-.1113-3.5087945-1.1133-4.2333999-1.2246-.7241-.1113-1.5039.334-1.5039-.2227,0-.5566.2226-.6133-.3344946-.6679-.5571053-.0567-3.063-.1133-4.2329053.1113-1.1699.2226-.0557.4453-.0557.4453Z"/>
    <path class="cls-6" d="M27.7020943,56.7968986s3.1749057,4.2889999,3.2861999,4.6229999c.1113.334.4463.2774.7807058.0547.3334942-.2226.5561942-.166.8344942.168.2788.334,2.5629999,3.4530999,4.0663999,7.5741998,0,0,.334,1.0586.9473.4473.6123-.6133,1.0019-.0567,1.3359.6113.335.6699,4.3447999,9.1913998,4.9023999,10.0272997,0,0,.1113.5.7236.1114.6133-.3907.8359061.2217.9473.3886.1113.167.9472,1.4493,1.1699,1.7832.2226.334.668.2784.9463.168.2793-.1113,1.2256-.6699.8916-1.0586-.334-.3906-4.3442999-4.9022999-5.7929999-5.6815999,0,0-.7788-.669-.2226-1.0586.5566-.3906,1.1699-.502.5566-1.2246-.6123-.7246-3.8427999-4.2343999-4.2333999-4.7909999-.3892-.5567.2236-.668.3906-.7246.167-.0547102,1.392606-.334.668-1.2247102-.7236-.8905897-5.1239999-4.6795896-6.5165998-5.6815896,0,0-.5015-.3906-.167-.7793.334-.3906.2227-.4473-.1113-.7246-.3344942-.2793-6.6845998-5.3476999-5.4033999-3.0077999Z"/>
    <path class="cls-6" d="M47.9774938,84.5351881s3.5645062,4.791,4.0659999,5.2363097c.5014.4453.6684.166.8911-.1113097.2226-.2802903.5009-.4452903.9472,0,.4453.4453097,5.5136999,5.0683095,8.0204998,6.2949095,0,0,.7247066.3887.7247066-.2246,0-.6113095.3338934-.6113095.8348934-.3887.501.2227,9.8036998,4.2323905,12.0868997,4.6230999,0,0,1.17.6132,1.5596-.334.3896069-.9473-.167-1.0586-.5566-1.2266-.3897-.166-5.7929999-2.1151999-7.7421998-2.2831999-1.9502-.166-2.8964999-.8906-4.2333999-.9473-1.3369-.0546095-.669-.6113-.5576-.7793.1123-.1679.3349-.6132-.4454-.9472-.7793-.334-4.0663999-2.0068999-6.6278998-2.3398999,0,0-1.6709-.167-1.1699-1.0019.501-.836.4453-1.002.0557-1.2813097-.3897-.2792903-4.8452999-4.0096902-6.5732998-4.6805902-1.7261-.667-1.8379-.3887-1.2803.3915902Z"/>
    <path class="cls-6" d="M19.626,46.7694988s2.1718944-.0546,3.3973944,1.0586c0,0,.7798.334,1.4483-.1113,0,0,3.6200999,1.6719,5.1239999,3.3417999,0,0,.8364.5585894,1.0034.0565894.1665-.5018893.3892-.4452894.9468,0,.5566.4454106,2.0048999,1.5586106,2.2831999,1.0586106.2783-.5019.4453-.7246106-1.0024-1.3379-1.4488-.6113-4.0102999-1.8378-5.2358999-2.4510999,0,0-.4447943-.7227-.8916-.8906107-.4453-.1660893-3.7870999-1.1132892-4.4559999-1.2812892-.6675-.166-4.0092999,0-2.6171944.5566Z"/>
    <path class="cls-6" d="M34.3856941,53.4550986s2.3955999,2.8964999,2.6181999,3.0077999c.2232.1112895.6133.334.9473.166.334-.166.3896-.334.7236.0567.335.3885895,1.1699,1.2812,1.2813,1.5039.1113.2226.3896.5.892.1113.5005-.3906105.7232-.8906105.2222-1.2266105-.501-.334-4.6229999-3.4530894-6.0150998-3.9530894-1.3931-.5019106-.9478-.0566-.6695.334Z"/>
    <path class="cls-6" d="M41.627,60.1952985s2.5628939,3.5644999,2.9520939,4.2323999c.3906.668.5576.2227.7803.2227.2226061,0,.334,0,.501.1113.1669.1114.7246062.2793.8916062.1114.1668938-.1661.2782938-.668.0555938-.8907-.2225938-.2226-2.3915938-2.8690999-4.7343999-4.4003999-1.4481939-.9472-.7801939.2774-.4461939.6133Z"/>
    <path class="cls-6" d="M47.0858938,66.8788983s1.7823,3.3417999,2.0048999,3.5644999c.2237.2226.4463.7246.836.3886.3896-.332.5009-.1093.7236.0567.2236063.168.4463.5019.8359.2226.3897063-.2793.2783-.7246-.0556-1.0586-.334-.3339-3.5087999-3.6190999-4.0107999-3.7870999-.501-.166-.6678938-.2793-.334.6133Z"/>
    <path class="cls-6" d="M51.9872937,73.1171881s2.3954999,5.23631,2.8964999,5.624c.5019.3916099.6133.2803099.8916.169.2783-.1113901.501-.0575901.7793.3877099.2793064.4482,3.1747999,4.4012901,3.7880999,4.7919999.6123.3906.6679.3339.8916.1679.2226065-.1679.5566065-.0566098.8906065.334.334.3887,5.4032933,4.1776999,5.7372933,4.2890999.334.1112903.501.334.7793,0,.2793-.336.7246,0,1.0586.166.334.168,8.4110998,3.5643999,9.1903998,3.6757999.7803.1113.8916-.2227.7246-.834-.167-.6143-.2226-1.2266-.8916-1.4492-.6679-.2227-4.9569999-1.7813096-7.5194998-1.67,0,0-1.5596-.0576-.7236-.7812.8349-.7227-.2227-1.1709-.501-1.1709-.2793,0-6.1835998-1.7803-7.2411998-2.6162097-1.0586-.836-1.4482934-.4462902-.9472934-1.2255902.501-.7803-.334-1.0029-.6133065-1.1143-.2783-.1113-6.0712998-4.5663999-6.1825998-4.9003999-.1113-.3369-.334-.5595.2227-.7822.5576-.2226,0-.7226-.2227-1.001-.2226-.2793-3.6200936-4.3456999-3.0077999-2.06051Z"/>
    <path class="cls-6" d="M139.9950915,32.8261881s1.5576.5566111,7.1289085-.7050889c0,0,1.6698912-.8164,1.1874913,2.0800889l-.7431,6.0898109s-.2598.6309-1.0762.8164c-.8174.1856-2.9335999.7793-5.3847999.4825,0,0-.6679.1484-.8906-1.1133-.2217-1.2637-.6689-5.1620999-1.3359-6.8339998,0,0-.4834-1.2988,1.1142-.8164111Z"/>
    <path class="cls-6" d="M149.2782912,32.4550992s-.4834,6.5350889-.8554,8.0214998c0,0-.334.7051,1.04.8905891,1.374.1855109,2.3026999.3711109,4.3075999.1855109,0,0,.668.2227,1.2988-1.4843,0,0,1.4112-2.3769999,1.6719-6.9082109,0,0,.1484-.9648889-1.2617-.7050889-1.4121.2598-3.3798999.2226-5.2372999-.334,0,0-.9277-.3711-.9639.334Z"/>
    <path class="cls-6" d="M145.4892913,22.6151881s-.4825.3711113-.3711.668c.1113.2969113.2607.5567113.7793.334.5205087-.2226887,1.1523-.4452887,1.6347-.4081887s.5938087-.2969.7051-.3711c.1113-.0742.0742-.4082-.334-.4453s-1.3369-.4102-2.4139999.2225886Z"/>
    <path class="cls-6" d="M150.2421912,22.5780994s-.0371,1.2246.8183,1.5586c0,0,.6309.1114.3331-1.1133-.2969-1.2246-1.4854-1.039-1.1514-.4453Z"/>
    <path class="cls-6" d="M139.0663915,10.1386997s2.6728999.8164,3.2666085,7.3514883c0,0,.1493914.8907115.7060914.8536115,0,0,.706.0371.706-.9278,0,0,.9649086-6.7216998-4.1971999-7.9471998,0,0-.5928-.0752-.7051.1855-.1114.2588.1123.4102.2236.4844Z"/>
    <path class="cls-6" d="M138.8056915,14.4442996s-.4834.4834-.0371,1.0391c.4453.5576.5566,1.1162.6679,1.3017885.1114.1855115.2979.4824115.7061.4824115s.5947-.4453.5195-.8164115c-.0742-.3710885-.5937-1.9316884-1.0029-2.1171884-.4081915-.1865-.8535.1103-.8535.1103Z"/>
    <path class="cls-6" d="M153.1395911,14.7050996s-.5575911.3700884-.2978.8896c.2598.5224885.4453,1.376.5205,1.5987.0742.2226,1.1504.8535,1.2256-.1485.0732-1.0039-.5205-2.7860999-1.4483-2.3397999Z"/>
    <path class="cls-6" d="M153.5106911,10.6942997s1.9688,1.2618,2.7109999,6.9072998c0,0,0,.7793.6679.6679.669-.1113115.669-.2968.669-.8906,0-.5937115.2227-5.6073999-3.6386999-7.2401998,0,0-1.5234-.3731-.4092.5556Z"/>
    <path class="cls-6" d="M9.8783947,49.0546988s2.6737999.2773,4.2328999,1.3926c0,0,.6128,0,.8907054-.168.2792946-.166,3.1761945.3906,8.5785944,4.2890999,0,0,.8354056.9472,1.0581.1679.2231-.7812.7793056-.1113,1.0029,0,.2231.1114.3901.3887.7236,0,.334-.3906.2227-.5566-.0556-.6132-.2779-.0567-5.1240999-1.8946-5.5146999-2.1719106-.3891-.2792894-.3891-.334-.2778-.6132894.1108-.2793.1108-.6133-.2783-.7246-.3902-.1113-3.5087945-1.1133-4.2333999-1.2246-.7241-.1113-1.5039.334-1.5039-.2227,0-.5566.2226-.6133-.3344946-.6679-.5571053-.0567-3.063-.1133-4.2329053.1113-1.1699.2226-.0557.4453-.0557.4453Z"/>
    <path class="cls-6" d="M27.7020943,56.7968986s3.1749057,4.2889999,3.2861999,4.6229999c.1113.334.4463.2774.7807058.0547.3334942-.2226.5561942-.166.8344942.168.2788.334,2.5629999,3.4530999,4.0663999,7.5741998,0,0,.334,1.0586.9473.4473.6123-.6133,1.0019-.0567,1.3359.6113.335.6699,4.3447999,9.1913998,4.9023999,10.0272997,0,0,.1113.5.7236.1114.6133-.3907.8359061.2217.9473.3886.1113.167.9472,1.4493,1.1699,1.7832.2226.334.668.2784.9463.168.2793-.1113,1.2256-.6699.8916-1.0586-.334-.3906-4.3442999-4.9022999-5.7929999-5.6815999,0,0-.7788-.669-.2226-1.0586.5566-.3906,1.1699-.502.5566-1.2246-.6123-.7246-3.8427999-4.2343999-4.2333999-4.7909999-.3892-.5567.2236-.668.3906-.7246.167-.0547102,1.392606-.334.668-1.2247102-.7236-.8905897-5.1239999-4.6795896-6.5165998-5.6815896,0,0-.5015-.3906-.167-.7793.334-.3906.2227-.4473-.1113-.7246-.3344942-.2793-6.6845998-5.3476999-5.4033999-3.0077999Z"/>
    <path class="cls-6" d="M47.9774938,84.5351881s3.5645062,4.791,4.0659999,5.2363097c.5014.4453.6684.166.8911-.1113097.2226-.2802903.5009-.4452903.9472,0,.4453.4453097,5.5136999,5.0683095,8.0204998,6.2949095,0,0,.7247066.3887.7247066-.2246,0-.6113095.3338934-.6113095.8348934-.3887.501.2227,9.8036998,4.2323905,12.0868997,4.6230999,0,0,1.17.6132,1.5596-.334.3896069-.9473-.167-1.0586-.5566-1.2266-.3897-.166-5.7929999-2.1151999-7.7421998-2.2831999-1.9502-.166-2.8964999-.8906-4.2333999-.9473-1.3369-.0546095-.669-.6113-.5576-.7793.1123-.1679.3349-.6132-.4454-.9472-.7793-.334-4.0663999-2.0068999-6.6278998-2.3398999,0,0-1.6709-.167-1.1699-1.0019.501-.836.4453-1.002.0557-1.2813097-.3897-.2792903-4.8452999-4.0096902-6.5732998-4.6805902-1.7261-.667-1.8379-.3887-1.2803.3915902Z"/>
    <path class="cls-6" d="M19.626,46.7694988s2.1718944-.0546,3.3973944,1.0586c0,0,.7798.334,1.4483-.1113,0,0,3.6200999,1.6719,5.1239999,3.3417999,0,0,.8364.5585894,1.0034.0565894.1665-.5018893.3892-.4452894.9468,0,.5566.4454106,2.0048999,1.5586106,2.2831999,1.0586106.2783-.5019.4453-.7246106-1.0024-1.3379-1.4488-.6113-4.0102999-1.8378-5.2358999-2.4510999,0,0-.4447943-.7227-.8916-.8906107-.4453-.1660893-3.7870999-1.1132892-4.4559999-1.2812892-.6675-.166-4.0092999,0-2.6171944.5566Z"/>
    <path class="cls-6" d="M34.3856941,53.4550986s2.3955999,2.8964999,2.6181999,3.0077999c.2232.1112895.6133.334.9473.166.334-.166.3896-.334.7236.0567.335.3885895,1.1699,1.2812,1.2813,1.5039.1113.2226.3896.5.892.1113.5005-.3906105.7232-.8906105.2222-1.2266105-.501-.334-4.6229999-3.4530894-6.0150998-3.9530894-1.3931-.5019106-.9478-.0566-.6695.334Z"/>
    <path class="cls-6" d="M41.627,60.1952985s2.5628939,3.5644999,2.9520939,4.2323999c.3906.668.5576.2227.7803.2227.2226061,0,.334,0,.501.1113.1669.1114.7246062.2793.8916062.1114.1668938-.1661.2782938-.668.0555938-.8907-.2225938-.2226-2.3915938-2.8690999-4.7343999-4.4003999-1.4481939-.9472-.7801939.2774-.4461939.6133Z"/>
    <path class="cls-6" d="M47.0858938,66.8788983s1.7823,3.3417999,2.0048999,3.5644999c.2237.2226.4463.7246.836.3886.3896-.332.5009-.1093.7236.0567.2236063.168.4463.5019.8359.2226.3897063-.2793.2783-.7246-.0556-1.0586-.334-.3339-3.5087999-3.6190999-4.0107999-3.7870999-.501-.166-.6678938-.2793-.334.6133Z"/>
    <path class="cls-6" d="M51.9872937,73.1171881s2.3954999,5.23631,2.8964999,5.624c.5019.3916099.6133.2803099.8916.169.2783-.1113901.501-.0575901.7793.3877099.2793064.4482,3.1747999,4.4012901,3.7880999,4.7919999.6123.3906.6679.3339.8916.1679.2226065-.1679.5566065-.0566098.8906065.334.334.3887,5.4032933,4.1776999,5.7372933,4.2890999.334.1112903.501.334.7793,0,.2793-.336.7246,0,1.0586.166.334.168,8.4110998,3.5643999,9.1903998,3.6757999.7803.1113.8916-.2227.7246-.834-.167-.6143-.2226-1.2266-.8916-1.4492-.6679-.2227-4.9569999-1.7813096-7.5194998-1.67,0,0-1.5596-.0576-.7236-.7812.8349-.7227-.2227-1.1709-.501-1.1709-.2793,0-6.1835998-1.7803-7.2411998-2.6162097-1.0586-.836-1.4482934-.4462902-.9472934-1.2255902.501-.7803-.334-1.0029-.6133065-1.1143-.2783-.1113-6.0712998-4.5663999-6.1825998-4.9003999-.1113-.3369-.334-.5595.2227-.7822.5576-.2226,0-.7226-.2227-1.001-.2226-.2793-3.6200936-4.3456999-3.0077999-2.06051Z"/>
  </g>
  <g>
    <path class="cls-5" d="M69.5145932,38.915999s3.9365999,6.1640998,13.6650997,3.4902999c0,0,2.2289999-5.4199999,2.4515999-5.7911109,0,0,.8174-.076089,1.0401-.224589,0,0-.2969-8.3905998,3.4901999-16.4120996,0,0,.1485-.5937-.3711-.8906,0,0-15.6713996-.2988-17.6019996,7.3515998,0,0-1.708,5.6444999-2.6738999,12.4764997Z"/>
    <path class="cls-5" d="M97.4398925,19.6073995s-5.5702999,9.0605998-4.6044999,20.5722995c0,0,2.3017999,1.4102,3.3417999,1.4844,0,0,0-9.5059109,4.6044999-21.3886995,0,0-1.708-.8164-3.3417999-.668Z"/>
    <path class="cls-5" d="M107.689,92.6855977s-.0752077,1.1152.1112923,1.4492c.1855.334.5185-1.0039.5937077-1.2266096.0732923-.2225904.2226923-1.039-.2226077-1.0761904-.4463-.0371-.4463.668-.4823923.8536Z"/>
    <path class="cls-5" d="M107.5023923,100.5214975s.4834.5195.9649-.4082c.4834-.9277,1.9302-4.7538999,2.1167077-5.9413998.1854922-1.1895-.4453078-1.002-.4453078-1.002,0,0-.5576-.2226-.7422,1.1875-.1864922,1.4102-1.4849,4.4921999-1.8941,5.1972999-.4082.707,0,.9668,0,.9668Z"/>
    <path class="cls-5" d="M109.4335922,102.2284974s.4443.4453.8906-.2578c.4453-.707,1.9307-3.3436999,2.2655999-6.1288998,0,0,.1475-.8535-.2967922-.9277-.4473078-.0742-.7793078.4453-.8555078.6679-.0742.2227-.6309,3.6757999-1.8926,5.4589999,0,0-.6313.7421906-.1113,1.1875Z"/>
    <path class="cls-5" d="M111.8847922,104.0487974s.705.4825,1.0009-.4453c.2979-.9297,2.0058999-4.3456999,2.2285999-6.0155998.2226-1.6719-1.003-1.4121-1.1875-.9277095-.1866.4824095-1.1895,4.455-2.2285999,5.9414093,0,0-.706.8164.1866,1.4472Z"/>
    <path class="cls-5" d="M114.5575921,105.4960973s.7793.707,1.0401-.2227c.2587-.9277,2.0057999-4.7518999,2.1903999-5.9764998.1865-1.2266-.1856-1.7832-.8174-1.5977094-.6309.1856095-.928692.8907094-1.0019,1.4473094-.0752.5586-.7803,3.6776906-1.5606,4.4940999-.7793.8164-.0361,1.8555.1494,1.8555Z"/>
    <path class="cls-5" d="M117.119092,106.8710973s.7422.5566,1.0411-.668c.2959-1.2246,1.708-3.2303999,2.2635999-6.1269092,0,0,.2598-1.0761906-.5556-1.1523906-.8174-.0742-.8907.3711-1.077192,1.0782-.185508.705-1.411108,4.3436999-1.820308,5.2342999-.4082.8926-.6309,1.2637.1484,1.6348Z"/>
    <path class="cls-5" d="M120.016592,107.9472973s.668.4472,1.0391-.4082c.3711-.8535,1.8193081-4.4921999,1.9677-6.6093998,0,0,.2598-1.2246-.5195-1.2637-.7803-.0351-.8535.4844-.9287,1.2637-.0741919.7793-.8916,3.2675999-1.374,4.1210999-.4815.8555-1.2237,2.7850999-.1846,2.8964999Z"/>
    <path class="cls-5" d="M122.875,108.8398973s.8183919.4824,1.1884919-.8184c.3711-1.2988,1.4472-3.5624999,1.708-6.6464998,0,0,.1113-.9277-.5938-.9648094-.706-.0370906-.8916.7422094-.8916,1.1875094s-1.04,4.8280999-1.6338,5.9784906c-.5937,1.1523092.2227081,1.2637092.2227081,1.2637092Z"/>
    <path class="cls-5" d="M125.623,109.2851881s.4843918.1484092.7421918-.9296908c.2598082-1.0772,1.6348082-4.5293092,1.7452-6.3124998,0,0,.1865-1.336-.5557-1.002s-.6318,1.0391-.7061,1.5215c-.0742.4844-1.0029,4.3827999-1.4111,5.7577999,0,0-.5947.8906.1855082.9648908Z"/>
    <path class="cls-5" d="M128.0360918,109.6181881s.7803.2978092,1.003-.8896908c.2226-1.1894,1.5595-3.9003999,1.8574-6.0897998.2978-2.1913999-1.002-1.4863-1.1152-1.2637-.1094.2227-.3702.707-.4062917,1.5977-.0391083.8906-.7441083,3.5643999-1.3389082,4.6796999-.5937,1.1132-.6308,1.7441,0,1.9657908Z"/>
    <path class="cls-5" d="M130.748,109.8788972s.8535917.0742,1.002-1.8203c.1493917-1.8926,1.4472916-2.9686999,1.5966916-5.5702999,0,0,.1865-1.0391093-.4082-.8535-.5947.1855-.7041.7441-.7793,1.2265-.0751917.4825-1.4491917,5.0136999-1.708,5.5331999-.2608.5176-.5948,1.3731.2968083,1.4844Z"/>
    <path class="cls-5" d="M133.3104916,109.5077972s.7422-.0742.8536-1.041c.1113-.9648,1.4111-3.4159999,1.7451-6.0507998,0,0,.1113-.8554-.5196-.707-.6308.1484-.5205.7051-.5205.9648,0,.2618-1.04,4.3828999-1.6709,5.4228999-.6318,1.04-.2968,1.2627.1123,1.4111Z"/>
    <path class="cls-5" d="M136.207,109.2851881s.7040915.1484092.8154915-.8534908c.1123-1.004,1.3369-4.9395092,1.5605085-6.1660998.2226915-1.2246-1.1504085-.5937-1.1504085-.2597s-1.4863,5.5702906-1.7832,6.3495998c-.2978.7812-.0742.9668.5576084.9296908Z"/>
    <path class="cls-5" d="M138.7685915,108.9120972s.705-.1465.705-.7031.4834085-2.7851999,1.5977-5.1249999c0,0,.4453-1.709-.3721-1.5977-.8174.1114-.8174.5567-.8916,1.4864-.0742.9277-1.1494,4.1210999-1.2998,4.7889999-.1484.67-.2226,1.1133.2608,1.1504Z"/>
    <path class="cls-5" d="M141.1815914,108.2812973s.5586-.1114.5948-1.003c.0371-.8896.5205-2.3758999,1.04-3.3036999.5195-.9277.9658-2.8964999.2227-2.7479999-.7422.1484-.8174,1.4863-.8916,2.4510999-.0733.9649-1.1514,3.1562999-1.2627,3.8613999-.1114.7050908-.1114.6699.2968.7422Z"/>
    <path class="cls-5" d="M143.707,107.3534973s.669-.1855.669-1.1504c0-.9648,1.1874913-4.3456999,1.2987913-4.5682999.1113-.2227.2227-1.2617-.2959-1.0762-.5195.1855906-.5947.7051-.706,1.4121-.1124.7051-1.1885,3.7109999-1.337,4.3437999-.1474.6308.1104,1.1523.3711086,1.039Z"/>
    <path class="cls-5" d="M147.0126913,102.8612974s.3711-.3339.5557-.9296c.1865-.5938.7431-2.3378999.038-1.9668,0,0-.5205-.2227094-.5566,1.4472,0,0-.5205,1.2617-.0371,1.4492Z"/>
    <path class="cls-5" d="M68.624,40.439499s.334.0371-.1123067,1.1875c-.4453,1.1504-.1474,4.2342999-.5566,5.0878999-.4082.8535-.4824,1.4472-.668.3339-.1865-1.1132.2969067-2.5253999.334-5.2733999,0,0,.1113-1.5215,1.0029067-1.3359Z"/>
    <path class="cls-5" d="M70.1835932,41.9980989s.4453.2968.0361,1.2636c-.4082.9649-.2596932,2.7480999-.2596932,3.6757999,0,.9276893-.6309068,3.6757999-.8907067,4.1581999-.2597.4824-.5205,1.041-.8172933.1484894-.2969067-.8906893.2596933-2.004.5946933-3.4531893.334-1.4472.5566-3.4901999.5566-4.4921999,0-1.0039.669-1.3379.7803-1.3007Z"/>
    <path class="cls-5" d="M72.2255932,43.3358989s.7422.2598.1855,1.3731c-.5566,1.1151892-.4453,2.5624999-.5195,3.5643999-.0742,1.004-.2607,5.0507893-1.2255932,4.5683999-.9658068-.4824-.1113068-1.8203-.0742068-2.3026999s.5195-1.7071.4453-3.4531999c-.0742-1.746.2227-4.0467999,1.1885-3.7499999Z"/>
    <path class="cls-5" d="M74.7138931,44.4491881s.6679.2969108.1855,1.2246108c-.4833931.9297-.6318,4.3828999-.7431,5.1992999-.1114.8164-.1485,3.1932999-1.0772,2.7850894-.9277-.4081894-.2969-1.8202894-.2227-2.3026894.0743-.4824.335-3.8984999.2979-4.6777999s.7051-2.5995999,1.5596-2.2285108Z"/>
    <path class="cls-5" d="M76.8671931,45.1171881s.2969.1855108.1484,1.0039108c-.1484.8164-.1855,2.7108999-.6308,4.1952999s.2597,4.2694999-.6319,4.0468999c-.8906-.2227-.5937-.334-.5937-.8164s.8174-8.5780998,1.708-8.4297106Z"/>
    <path class="cls-5" d="M79.095693,44.8202989s.9277.2968892.2227,2.9706999c-.7061,2.6738999-.445393,5.8300999-.7061,6.2382998,0,0-.2598,1.0038894-.7422.8926-.4834-.1133-.2607-.7813-.2607-1.4492,0-.668.4463-8.8378998,1.4863-8.6523998Z"/>
    <path class="cls-5" d="M81.6200929,44.5233989s.9658.6309.1856,2.8222999c-.7793,2.1913999-.5938,2.9706999-.5566929,3.6757999.0370929.707.1113929,3.9003999-.891607,3.7518999-1.0019-.1484-.2226-1.5234-.2226-1.6347s.074207-3.9375106.5947-5.2362999c.519507-1.2989.0371-3.6386999.8906-3.3789999Z"/>
    <path class="cls-5" d="M82.957,53.4726986s.669-.4453.5947929-3.8985106c0,0,.4082071-2.8964892.7793-3.9374892,0,0,.0742-2.0780999-.7050929-1.707,0,0-.335.1854892-.2227071,1.0391.1113.8553892-.372,3.0819999-.6318,3.6014999-.2598.5215-.2598,1.8203-.0371,3.2304999.2226071,1.4121-.6309,2.2655999.2226071,1.6719Z"/>
    <path class="cls-5" d="M196.13959,28.6679993s.0743-2.1171999-.5937-1.041c-.668,1.0781.1855,2.4881888.2598,2.9335999.0742.4472.5566.5585888.3339-1.8926Z"/>
    <path class="cls-5" d="M196.28809,34.6464991s.2607-1.0781.373.5936889c.1114,1.671911-.5576.519611-.373-.5936889Z"/>
    <path class="cls-5" d="M197.46,30.4862992s.29289,1.6718888.33389-.1855c.043-1.8555-.166-1.2246112-.375-.8164-.20889.4082,0,.7793.04111,1.0019Z"/>
    <path class="cls-5" d="M197.626,38.656299s.59369,1.8945.74219.333889c.1484-1.558489.0371-5.6073889-.3711-4.083889-.4073,1.5214-.37109,3.3417999-.37109,3.7499999Z"/>
    <path class="cls-5" d="M199.74119,30.9687992s-.40819-1.1875-.5566-.0352c-.1485,1.1504.705,4.4179999.4453,6.3124998-.2598,1.8926.707,4.6034999,1.0039,3.0819999.2969-1.5234-.5567-6.6483998-.669-7.2421998-.1123-.5937111-.2236-2.1170999-.2236-2.1170999Z"/>
    <path class="cls-5" d="M201.4511899,30.7831881s.5927-.4081888.667,1.3008111c.0752,1.709.9297,3.2304999.7812,5.4218999-.1503899,2.1913999.669,4.7518999-.4101,3.5643999-1.0762-1.1894-.5567-3.1191109-.668-3.8612999-.1112899-.7441-.9268-6.3144998-.3701-6.425811Z"/>
    <path class="cls-5" d="M205.3856898,41.404299s.8184-.334.2227-2.4882999c-.5938-2.1542999-1.1875-8.4296998-1.8926-8.2069998-.7051.2246-.2226,1.1523-.1474,1.709.0732.5566.9267,4.3436999.7783,7.0175998,0,0,.1865,2.0428999,1.039,1.9687Z"/>
    <path class="cls-5" d="M208.0224897,40.773399s.5195103-.1484.3339-1.0039c-.1855-.8535-1.5213897-6.2381998-1.6328-8.0194998-.1113-1.7832-1.1152-2.1913999-1.1894-.9277-.0741898,1.2617,1.4502,7.8339998,1.6728102,8.7635998.2226898.9278.3700898,1.336.8154897,1.1875Z"/>
    <path class="cls-5" d="M210.4735897,39.697299s.5196-.5586.1856-1.1524c-.334-.593711-1.0391-2.6737999-1.1123-4.4549999-.0752-1.7832-.4483-6.0527998-1.4873-5.1992999,0,0-.5938.1855888-.1114,1.5215.4825,1.3379.7803,6.9823998,1.5987,8.0214998,0,0,.1474,1.5977.9267,1.2637Z"/>
    <path class="cls-5" d="M212.2196896,38.322299s.668.334.8164-.7422c.1494-1.0781-1.1152-3.5273999-1.2636-4.085911-.1464896-.5566889-1.002-5.8671888-1.1133-6.1640888-.1113-.2969112-1.1875-.8906-1.0391.5566.1494,1.4492,1.5586,3.0468999,1.1143,5.9433998,0,0,.1113,3.0429999,1.4853,4.4921999Z"/>
    <path class="cls-5" d="M213.8895896,35.0175991s.6309.668.6309-.7793c0-1.4492-.3711-3.1933999-.7793-3.8632999-.4081896-.668-.5195-4.1581999-1.2617-5.0116999-.7441-.8555-1.7451-.8926-1.1894896.4082.5585896,1.2988,1.1894896,3.6015999,1.4492896,5.7929999.2597104,2.1893999.9648,2.9335999,1.1503,3.4530999Z"/>
    <path class="cls-5" d="M122.9130919,43.4101881c.0742.082.668.4082108.5928-1.4120891-.0733-1.8184-.2968919-1.2989109-.7051-.7793-.4082.5195-.2969,1.7441.1123,2.1913891Z"/>
    <path class="cls-5" d="M125.4003918,43.4472989s-.2227,3.2675999-1.1885,2.8573999c-.9638919-.4063.334-2.6718999.4463-3.0058999.1104-.3359.668-1.0781.7422.1485Z"/>
    <path class="cls-5" d="M127.4794918,45.0800989s-.4814918,4.3827999-1.4854,3.9374999c-1.0019-.4473-.0742-2.1542999.0381-2.7128999.1104-.5566.668-3.0058999,1.4473-1.2246Z"/>
    <path class="cls-5" d="M129.9677917,46.7519988s-1.1875,5.8671893-2.0409999,4.3807999c-.8555-1.4844-.2617918-.6679.4814-3.5272999.7422-2.8593999,1.5596-1.7071,1.5596-.8535Z"/>
    <path class="cls-5" d="M132.3827917,48.2733988s-.7812,4.0488999-1.5615,4.6425999c-.7792917.5938-1.1885-.0371-1.0762-.7422.1113-.707,1.1143-3.3417999,1.3369083-4.0116999.2226917-.6679107.4833917-1.373,1.1142917-.9648.6308.4082.1865.9648.1865,1.0761Z"/>
    <path class="cls-5" d="M134.8690916,49.3144988s-.8164,4.2323999-1.374,4.9764999c-.5566.7421894-.6308.7793-1.1513.4824-.5196-.2988-.4825-1.041.1113-2.0057999.5947-.9668.6699083-3.5274106,1.2627-4.0097999.5947-.4844,1.4492084-.2597,1.1513.5567Z"/>
    <path class="cls-5" d="M137.5800915,51.0585987s-1.0772,4.4940999-1.4483,4.7167999c-.3701.2227-.3339.8906-1.2627.2227-.9277-.668,1.003-3.5273999,1.1153-4.7539105.1103-1.2246893.8154-1.4843893,1.0381-1.4472893.2226.0371,1.1513-1.1875.5576,1.2617Z"/>
    <path class="cls-5" d="M140.2528915,51.3183987s-.5556,4.4198999-1.0752,5.2733999c-.5195.8535-1.0029.5957-1.2998.5195-.2978-.0742-1.1513-.0742.1475-2.8963999,1.2998-2.8203999.2236085-4.1581999,1.4853-3.8984999,1.2627.2597893.7422.668.7422,1.002Z"/>
    <path class="cls-5" d="M142.8163914,53.5839986s-.9287,3.3046999-1.0762,3.7499999c-.1484.4473-.5957.5586-1.041.4101895-.4463-.1503895-.3711-.8925895.0742-2.0058895.4454-1.1133.4551-4.5019999,1.4854-3.3788999.8174.8906.5576,1.2246.5576,1.2246Z"/>
    <path class="cls-5" d="M143.7450914,55.3300986s.4072-1.1152,1.1514-.2227c0,0,.5928.4082.1474,1.2989-.4453.8906-.2226,1.9316-1.4853,1.8574-1.2617-.0742.1133-1.8945105.1865-2.9335999Z"/>
    <path class="cls-5" d="M147.3456913,53.8066986s1.3369-.8907.9297.5194894c-.4092,1.4121105-.8173913,4.0488105-1.5233913,3.9004105-.7051087-.1485-.7432087-.5215-.2598087-2.1171999.4824-1.5977.4082-2.1542999.8535-2.3026999Z"/>
    <path class="cls-5" d="M151.2821912,52.6562987s-.8896,3.8612999-1.1875,4.3807999c-.2978.5215-.1855,1.375-1.0029.9297-.8164-.4453.2227-2.0429999.334-2.6366999.1113-.5938.5566-2.8222999.8535-3.0077999.2978-.1856,1.0771-.5215,1.0029.334Z"/>
    <path class="cls-5" d="M153.9560911,51.5780987s-.335,2.3398999-.669,3.3808999c-.334,1.0391-.2969,2.6347999-1.1142,2.4511895-.8165-.1874895-.4454-1.2265895.0751088-2.711.5195911-1.4862894,0-3.3436894.8535911-3.6034894.8545-.2598.9277.0371.8545.4824Z"/>
    <path class="cls-5" d="M157.039091,50.0937987s-.1875,2.8221999-.6328,3.8241999c-.4454,1.0039.1494,2.0428999-.7042,2.3026999-.8554.2598-1.4492.2227-.8554-1.7832.5947-2.0038999.7441-3.2304999.706-3.4530999-.0371-.2227-.0371-1.002.6309-1.1875.668-.1856.8555.2969.8555.2969Z"/>
    <path class="cls-5" d="M159.711891,49.1288988s-.4082,3.5273999-.3711,4.0468999c.0381.5195-.5576,1.2617-.8916,1.4101-.334.1504-.9277.1485-.5185-.8906.4072-1.039.5927-3.9354999.5556-4.3065999s.222709-.8184.4453-.8906c.2227-.0762.8916-.1875.7803.6308Z"/>
    <path class="cls-5" d="M162.3495909,46.7519988s-.0019,1.0761-.2617,2.4881893c-.2598,1.4102107.8174,1.8555106-.4824,2.7461106-1.2998.8926-1.003.5215-.8544909-.8906.1493909-1.4101.2606909-4.2323999.7430909-4.3807999.4825-.1485.6309091-.2598.8555.0371Z"/>
    <path class="cls-5" d="M164.4647908,46.7890988s.334,1.6699-.4824,2.2655999c-.8173909.5937-.5205-1.1152-.4092-1.4863.1133-.3711.4834-1.2637.8916-.7793Z"/>
    <path class="cls-5" d="M69.5145932,38.915999s3.9365999,6.1640998,13.6650997,3.4902999c0,0,2.2289999-5.4199999,2.4515999-5.7911109,0,0,.8174-.076089,1.0401-.224589,0,0-.2969-8.3905998,3.4901999-16.4120996,0,0,.1485-.5937-.3711-.8906,0,0-15.6713996-.2988-17.6019996,7.3515998,0,0-1.708,5.6444999-2.6738999,12.4764997Z"/>
    <path class="cls-5" d="M97.4398925,19.6073995s-5.5702999,9.0605998-4.6044999,20.5722995c0,0,2.3017999,1.4102,3.3417999,1.4844,0,0,0-9.5059109,4.6044999-21.3886995,0,0-1.708-.8164-3.3417999-.668Z"/>
    <path class="cls-5" d="M107.689,92.6855977s-.0752077,1.1152.1112923,1.4492c.1855.334.5185-1.0039.5937077-1.2266096.0732923-.2225904.2226923-1.039-.2226077-1.0761904-.4463-.0371-.4463.668-.4823923.8536Z"/>
    <path class="cls-5" d="M107.5023923,100.5214975s.4834.5195.9649-.4082c.4834-.9277,1.9302-4.7538999,2.1167077-5.9413998.1854922-1.1895-.4453078-1.002-.4453078-1.002,0,0-.5576-.2226-.7422,1.1875-.1864922,1.4102-1.4849,4.4921999-1.8941,5.1972999-.4082.707,0,.9668,0,.9668Z"/>
    <path class="cls-5" d="M109.4335922,102.2284974s.4443.4453.8906-.2578c.4453-.707,1.9307-3.3436999,2.2655999-6.1288998,0,0,.1475-.8535-.2967922-.9277-.4473078-.0742-.7793078.4453-.8555078.6679-.0742.2227-.6309,3.6757999-1.8926,5.4589999,0,0-.6313.7421906-.1113,1.1875Z"/>
    <path class="cls-5" d="M111.8847922,104.0487974s.705.4825,1.0009-.4453c.2979-.9297,2.0058999-4.3456999,2.2285999-6.0155998.2226-1.6719-1.003-1.4121-1.1875-.9277095-.1866.4824095-1.1895,4.455-2.2285999,5.9414093,0,0-.706.8164.1866,1.4472Z"/>
    <path class="cls-5" d="M114.5575921,105.4960973s.7793.707,1.0401-.2227c.2587-.9277,2.0057999-4.7518999,2.1903999-5.9764998.1865-1.2266-.1856-1.7832-.8174-1.5977094-.6309.1856095-.928692.8907094-1.0019,1.4473094-.0752.5586-.7803,3.6776906-1.5606,4.4940999-.7793.8164-.0361,1.8555.1494,1.8555Z"/>
    <path class="cls-5" d="M117.119092,106.8710973s.7422.5566,1.0411-.668c.2959-1.2246,1.708-3.2303999,2.2635999-6.1269092,0,0,.2598-1.0761906-.5556-1.1523906-.8174-.0742-.8907.3711-1.077192,1.0782-.185508.705-1.411108,4.3436999-1.820308,5.2342999-.4082.8926-.6309,1.2637.1484,1.6348Z"/>
    <path class="cls-5" d="M120.016592,107.9472973s.668.4472,1.0391-.4082c.3711-.8535,1.8193081-4.4921999,1.9677-6.6093998,0,0,.2598-1.2246-.5195-1.2637-.7803-.0351-.8535.4844-.9287,1.2637-.0741919.7793-.8916,3.2675999-1.374,4.1210999-.4815.8555-1.2237,2.7850999-.1846,2.8964999Z"/>
    <path class="cls-5" d="M122.875,108.8398973s.8183919.4824,1.1884919-.8184c.3711-1.2988,1.4472-3.5624999,1.708-6.6464998,0,0,.1113-.9277-.5938-.9648094-.706-.0370906-.8916.7422094-.8916,1.1875094s-1.04,4.8280999-1.6338,5.9784906c-.5937,1.1523092.2227081,1.2637092.2227081,1.2637092Z"/>
    <path class="cls-5" d="M125.623,109.2851881s.4843918.1484092.7421918-.9296908c.2598082-1.0772,1.6348082-4.5293092,1.7452-6.3124998,0,0,.1865-1.336-.5557-1.002s-.6318,1.0391-.7061,1.5215c-.0742.4844-1.0029,4.3827999-1.4111,5.7577999,0,0-.5947.8906.1855082.9648908Z"/>
    <path class="cls-5" d="M128.0360918,109.6181881s.7803.2978092,1.003-.8896908c.2226-1.1894,1.5595-3.9003999,1.8574-6.0897998.2978-2.1913999-1.002-1.4863-1.1152-1.2637-.1094.2227-.3702.707-.4062917,1.5977-.0391083.8906-.7441083,3.5643999-1.3389082,4.6796999-.5937,1.1132-.6308,1.7441,0,1.9657908Z"/>
    <path class="cls-5" d="M130.748,109.8788972s.8535917.0742,1.002-1.8203c.1493917-1.8926,1.4472916-2.9686999,1.5966916-5.5702999,0,0,.1865-1.0391093-.4082-.8535-.5947.1855-.7041.7441-.7793,1.2265-.0751917.4825-1.4491917,5.0136999-1.708,5.5331999-.2608.5176-.5948,1.3731.2968083,1.4844Z"/>
    <path class="cls-5" d="M133.3104916,109.5077972s.7422-.0742.8536-1.041c.1113-.9648,1.4111-3.4159999,1.7451-6.0507998,0,0,.1113-.8554-.5196-.707-.6308.1484-.5205.7051-.5205.9648,0,.2618-1.04,4.3828999-1.6709,5.4228999-.6318,1.04-.2968,1.2627.1123,1.4111Z"/>
    <path class="cls-5" d="M136.207,109.2851881s.7040915.1484092.8154915-.8534908c.1123-1.004,1.3369-4.9395092,1.5605085-6.1660998.2226915-1.2246-1.1504085-.5937-1.1504085-.2597s-1.4863,5.5702906-1.7832,6.3495998c-.2978.7812-.0742.9668.5576084.9296908Z"/>
    <path class="cls-5" d="M138.7685915,108.9120972s.705-.1465.705-.7031.4834085-2.7851999,1.5977-5.1249999c0,0,.4453-1.709-.3721-1.5977-.8174.1114-.8174.5567-.8916,1.4864-.0742.9277-1.1494,4.1210999-1.2998,4.7889999-.1484.67-.2226,1.1133.2608,1.1504Z"/>
    <path class="cls-5" d="M141.1815914,108.2812973s.5586-.1114.5948-1.003c.0371-.8896.5205-2.3758999,1.04-3.3036999.5195-.9277.9658-2.8964999.2227-2.7479999-.7422.1484-.8174,1.4863-.8916,2.4510999-.0733.9649-1.1514,3.1562999-1.2627,3.8613999-.1114.7050908-.1114.6699.2968.7422Z"/>
    <path class="cls-5" d="M143.707,107.3534973s.669-.1855.669-1.1504c0-.9648,1.1874913-4.3456999,1.2987913-4.5682999.1113-.2227.2227-1.2617-.2959-1.0762-.5195.1855906-.5947.7051-.706,1.4121-.1124.7051-1.1885,3.7109999-1.337,4.3437999-.1474.6308.1104,1.1523.3711086,1.039Z"/>
    <path class="cls-5" d="M147.0126913,102.8612974s.3711-.3339.5557-.9296c.1865-.5938.7431-2.3378999.038-1.9668,0,0-.5205-.2227094-.5566,1.4472,0,0-.5205,1.2617-.0371,1.4492Z"/>
    <path class="cls-5" d="M68.624,40.439499s.334.0371-.1123067,1.1875c-.4453,1.1504-.1474,4.2342999-.5566,5.0878999-.4082.8535-.4824,1.4472-.668.3339-.1865-1.1132.2969067-2.5253999.334-5.2733999,0,0,.1113-1.5215,1.0029067-1.3359Z"/>
    <path class="cls-5" d="M70.1835932,41.9980989s.4453.2968.0361,1.2636c-.4082.9649-.2596932,2.7480999-.2596932,3.6757999,0,.9276893-.6309068,3.6757999-.8907067,4.1581999-.2597.4824-.5205,1.041-.8172933.1484894-.2969067-.8906893.2596933-2.004.5946933-3.4531893.334-1.4472.5566-3.4901999.5566-4.4921999,0-1.0039.669-1.3379.7803-1.3007Z"/>
    <path class="cls-5" d="M72.2255932,43.3358989s.7422.2598.1855,1.3731c-.5566,1.1151892-.4453,2.5624999-.5195,3.5643999-.0742,1.004-.2607,5.0507893-1.2255932,4.5683999-.9658068-.4824-.1113068-1.8203-.0742068-2.3026999s.5195-1.7071.4453-3.4531999c-.0742-1.746.2227-4.0467999,1.1885-3.7499999Z"/>
    <path class="cls-5" d="M74.7138931,44.4491881s.6679.2969108.1855,1.2246108c-.4833931.9297-.6318,4.3828999-.7431,5.1992999-.1114.8164-.1485,3.1932999-1.0772,2.7850894-.9277-.4081894-.2969-1.8202894-.2227-2.3026894.0743-.4824.335-3.8984999.2979-4.6777999s.7051-2.5995999,1.5596-2.2285108Z"/>
    <path class="cls-5" d="M76.8671931,45.1171881s.2969.1855108.1484,1.0039108c-.1484.8164-.1855,2.7108999-.6308,4.1952999s.2597,4.2694999-.6319,4.0468999c-.8906-.2227-.5937-.334-.5937-.8164s.8174-8.5780998,1.708-8.4297106Z"/>
    <path class="cls-5" d="M79.095693,44.8202989s.9277.2968892.2227,2.9706999c-.7061,2.6738999-.445393,5.8300999-.7061,6.2382998,0,0-.2598,1.0038894-.7422.8926-.4834-.1133-.2607-.7813-.2607-1.4492,0-.668.4463-8.8378998,1.4863-8.6523998Z"/>
    <path class="cls-5" d="M81.6200929,44.5233989s.9658.6309.1856,2.8222999c-.7793,2.1913999-.5938,2.9706999-.5566929,3.6757999.0370929.707.1113929,3.9003999-.891607,3.7518999-1.0019-.1484-.2226-1.5234-.2226-1.6347s.074207-3.9375106.5947-5.2362999c.519507-1.2989.0371-3.6386999.8906-3.3789999Z"/>
    <path class="cls-5" d="M82.957,53.4726986s.669-.4453.5947929-3.8985106c0,0,.4082071-2.8964892.7793-3.9374892,0,0,.0742-2.0780999-.7050929-1.707,0,0-.335.1854892-.2227071,1.0391.1113.8553892-.372,3.0819999-.6318,3.6014999-.2598.5215-.2598,1.8203-.0371,3.2304999.2226071,1.4121-.6309,2.2655999.2226071,1.6719Z"/>
    <path class="cls-5" d="M196.13959,28.6679993s.0743-2.1171999-.5937-1.041c-.668,1.0781.1855,2.4881888.2598,2.9335999.0742.4472.5566.5585888.3339-1.8926Z"/>
    <path class="cls-5" d="M196.28809,34.6464991s.2607-1.0781.373.5936889c.1114,1.671911-.5576.519611-.373-.5936889Z"/>
    <path class="cls-5" d="M197.46,30.4862992s.29289,1.6718888.33389-.1855c.043-1.8555-.166-1.2246112-.375-.8164-.20889.4082,0,.7793.04111,1.0019Z"/>
    <path class="cls-5" d="M197.626,38.656299s.59369,1.8945.74219.333889c.1484-1.558489.0371-5.6073889-.3711-4.083889-.4073,1.5214-.37109,3.3417999-.37109,3.7499999Z"/>
    <path class="cls-5" d="M199.74119,30.9687992s-.40819-1.1875-.5566-.0352c-.1485,1.1504.705,4.4179999.4453,6.3124998-.2598,1.8926.707,4.6034999,1.0039,3.0819999.2969-1.5234-.5567-6.6483998-.669-7.2421998-.1123-.5937111-.2236-2.1170999-.2236-2.1170999Z"/>
    <path class="cls-5" d="M201.4511899,30.7831881s.5927-.4081888.667,1.3008111c.0752,1.709.9297,3.2304999.7812,5.4218999-.1503899,2.1913999.669,4.7518999-.4101,3.5643999-1.0762-1.1894-.5567-3.1191109-.668-3.8612999-.1112899-.7441-.9268-6.3144998-.3701-6.425811Z"/>
    <path class="cls-5" d="M205.3856898,41.404299s.8184-.334.2227-2.4882999c-.5938-2.1542999-1.1875-8.4296998-1.8926-8.2069998-.7051.2246-.2226,1.1523-.1474,1.709.0732.5566.9267,4.3436999.7783,7.0175998,0,0,.1865,2.0428999,1.039,1.9687Z"/>
    <path class="cls-5" d="M208.0224897,40.773399s.5195103-.1484.3339-1.0039c-.1855-.8535-1.5213897-6.2381998-1.6328-8.0194998-.1113-1.7832-1.1152-2.1913999-1.1894-.9277-.0741898,1.2617,1.4502,7.8339998,1.6728102,8.7635998.2226898.9278.3700898,1.336.8154897,1.1875Z"/>
    <path class="cls-5" d="M210.4735897,39.697299s.5196-.5586.1856-1.1524c-.334-.593711-1.0391-2.6737999-1.1123-4.4549999-.0752-1.7832-.4483-6.0527998-1.4873-5.1992999,0,0-.5938.1855888-.1114,1.5215.4825,1.3379.7803,6.9823998,1.5987,8.0214998,0,0,.1474,1.5977.9267,1.2637Z"/>
    <path class="cls-5" d="M212.2196896,38.322299s.668.334.8164-.7422c.1494-1.0781-1.1152-3.5273999-1.2636-4.085911-.1464896-.5566889-1.002-5.8671888-1.1133-6.1640888-.1113-.2969112-1.1875-.8906-1.0391.5566.1494,1.4492,1.5586,3.0468999,1.1143,5.9433998,0,0,.1113,3.0429999,1.4853,4.4921999Z"/>
    <path class="cls-5" d="M213.8895896,35.0175991s.6309.668.6309-.7793c0-1.4492-.3711-3.1933999-.7793-3.8632999-.4081896-.668-.5195-4.1581999-1.2617-5.0116999-.7441-.8555-1.7451-.8926-1.1894896.4082.5585896,1.2988,1.1894896,3.6015999,1.4492896,5.7929999.2597104,2.1893999.9648,2.9335999,1.1503,3.4530999Z"/>
    <path class="cls-5" d="M122.9130919,43.4101881c.0742.082.668.4082108.5928-1.4120891-.0733-1.8184-.2968919-1.2989109-.7051-.7793-.4082.5195-.2969,1.7441.1123,2.1913891Z"/>
    <path class="cls-5" d="M125.4003918,43.4472989s-.2227,3.2675999-1.1885,2.8573999c-.9638919-.4063.334-2.6718999.4463-3.0058999.1104-.3359.668-1.0781.7422.1485Z"/>
    <path class="cls-5" d="M127.4794918,45.0800989s-.4814918,4.3827999-1.4854,3.9374999c-1.0019-.4473-.0742-2.1542999.0381-2.7128999.1104-.5566.668-3.0058999,1.4473-1.2246Z"/>
    <path class="cls-5" d="M129.9677917,46.7519988s-1.1875,5.8671893-2.0409999,4.3807999c-.8555-1.4844-.2617918-.6679.4814-3.5272999.7422-2.8593999,1.5596-1.7071,1.5596-.8535Z"/>
    <path class="cls-5" d="M132.3827917,48.2733988s-.7812,4.0488999-1.5615,4.6425999c-.7792917.5938-1.1885-.0371-1.0762-.7422.1113-.707,1.1143-3.3417999,1.3369083-4.0116999.2226917-.6679107.4833917-1.373,1.1142917-.9648.6308.4082.1865.9648.1865,1.0761Z"/>
    <path class="cls-5" d="M134.8690916,49.3144988s-.8164,4.2323999-1.374,4.9764999c-.5566.7421894-.6308.7793-1.1513.4824-.5196-.2988-.4825-1.041.1113-2.0057999.5947-.9668.6699083-3.5274106,1.2627-4.0097999.5947-.4844,1.4492084-.2597,1.1513.5567Z"/>
    <path class="cls-5" d="M137.5800915,51.0585987s-1.0772,4.4940999-1.4483,4.7167999c-.3701.2227-.3339.8906-1.2627.2227-.9277-.668,1.003-3.5273999,1.1153-4.7539105.1103-1.2246893.8154-1.4843893,1.0381-1.4472893.2226.0371,1.1513-1.1875.5576,1.2617Z"/>
    <path class="cls-5" d="M140.2528915,51.3183987s-.5556,4.4198999-1.0752,5.2733999c-.5195.8535-1.0029.5957-1.2998.5195-.2978-.0742-1.1513-.0742.1475-2.8963999,1.2998-2.8203999.2236085-4.1581999,1.4853-3.8984999,1.2627.2597893.7422.668.7422,1.002Z"/>
    <path class="cls-5" d="M142.8163914,53.5839986s-.9287,3.3046999-1.0762,3.7499999c-.1484.4473-.5957.5586-1.041.4101895-.4463-.1503895-.3711-.8925895.0742-2.0058895.4454-1.1133.4551-4.5019999,1.4854-3.3788999.8174.8906.5576,1.2246.5576,1.2246Z"/>
    <path class="cls-5" d="M143.7450914,55.3300986s.4072-1.1152,1.1514-.2227c0,0,.5928.4082.1474,1.2989-.4453.8906-.2226,1.9316-1.4853,1.8574-1.2617-.0742.1133-1.8945105.1865-2.9335999Z"/>
    <path class="cls-5" d="M147.3456913,53.8066986s1.3369-.8907.9297.5194894c-.4092,1.4121105-.8173913,4.0488105-1.5233913,3.9004105-.7051087-.1485-.7432087-.5215-.2598087-2.1171999.4824-1.5977.4082-2.1542999.8535-2.3026999Z"/>
    <path class="cls-5" d="M151.2821912,52.6562987s-.8896,3.8612999-1.1875,4.3807999c-.2978.5215-.1855,1.375-1.0029.9297-.8164-.4453.2227-2.0429999.334-2.6366999.1113-.5938.5566-2.8222999.8535-3.0077999.2978-.1856,1.0771-.5215,1.0029.334Z"/>
    <path class="cls-5" d="M153.9560911,51.5780987s-.335,2.3398999-.669,3.3808999c-.334,1.0391-.2969,2.6347999-1.1142,2.4511895-.8165-.1874895-.4454-1.2265895.0751088-2.711.5195911-1.4862894,0-3.3436894.8535911-3.6034894.8545-.2598.9277.0371.8545.4824Z"/>
    <path class="cls-5" d="M157.039091,50.0937987s-.1875,2.8221999-.6328,3.8241999c-.4454,1.0039.1494,2.0428999-.7042,2.3026999-.8554.2598-1.4492.2227-.8554-1.7832.5947-2.0038999.7441-3.2304999.706-3.4530999-.0371-.2227-.0371-1.002.6309-1.1875.668-.1856.8555.2969.8555.2969Z"/>
    <path class="cls-5" d="M159.711891,49.1288988s-.4082,3.5273999-.3711,4.0468999c.0381.5195-.5576,1.2617-.8916,1.4101-.334.1504-.9277.1485-.5185-.8906.4072-1.039.5927-3.9354999.5556-4.3065999s.222709-.8184.4453-.8906c.2227-.0762.8916-.1875.7803.6308Z"/>
    <path class="cls-5" d="M162.3495909,46.7519988s-.0019,1.0761-.2617,2.4881893c-.2598,1.4102107.8174,1.8555106-.4824,2.7461106-1.2998.8926-1.003.5215-.8544909-.8906.1493909-1.4101.2606909-4.2323999.7430909-4.3807999.4825-.1485.6309091-.2598.8555.0371Z"/>
    <path class="cls-5" d="M164.4647908,46.7890988s.334,1.6699-.4824,2.2655999c-.8173909.5937-.5205-1.1152-.4092-1.4863.1133-.3711.4834-1.2637.8916-.7793Z"/>
    <path class="cls-5" d="M214.1864896,40.179699c-.2226-1.1895109-.2969-1.1152-1.2617-.2988-.9647896.8182891-5.1991999,4.3827999-13.8143997,2.1542891,0,0-3.7871999-1.6327891-4.3066999-5.496089,0,0,.1484-1.2617-1.709-1.6328-1.8554-.371111-5.8671999-1.1133-7.6483998-1.039111,0,0-8.2450998-4.6796888-13.3691997-4.3085888,0,0-.371,2.2284999-.2216,3.1190999,0,0-.669.2227-.7442,0,0,0-.1484,4.4570999-.8896,5.4960999,0,0-.5946907-.6679-.8926-.8164,0,0-.7432,2.6738999-1.3369,3.5644999,0,0-.3858,20.0624995-24.5810994,18.7889995-23.9891994-1.2617104-24.5087994-26.8104993-24.3602994-28.6659993,0,0-.4453-.8183-.8174-.9668,0,0,0-2.5253999,1.7832-5.6444999,0,0-8.1688998-2.8964999-12.4760997-3.2675999,0,0-6.0165998,11.7343997-4.9764923,23.0234994,0,0,2.5253923.5195,2.9706923.9648,0,0-1.5596,16.1913996-.7422,21.6132995,0,0,2.8788999,2.6669999,3.0195076,7.0849998.0614923,1.9208-.0557077,2.9940999-1.8486077,10.7420997-.0567.2481-.3183923.8233-.4473,1.333-.1533.6016.2227.8897.2227.8897,15.3168996,16.7108996,35.1459991,13.1474997,36.1488991,13.0360997,1.0019-.1113094,3.8427999-1.0586,5.0693086-1.1699.2558913-.0234094,2.126-1.6006,2.126-1.6006,0,0,.8407912-1.0869,2.0224912-2.6151999-.8438.3525-2.6933999.7783-7.3788998.5303.5322-3.1015999,1.6425-7.5439998,1.83-7.8095998.1885-.2656,1.876-.166,1.959-.3047.084-.1387-2.4579999-6.9316097-2.4579999-6.9316097,0,0-2.5643999,2.5771098-2.5321999,2.7099098.0332.1338,1.4209.2744,1.6084.4502.1875.1768-1.3535,7.6366998-1.8623,8.0136998-.5098.376-15.0761996-2.1161999-18.4150995-3.4101999.334-2.2948999,1.667-7.9676998,1.8477-8.1522998.1807-.1836,2.0155999.333,2.2001999.2959.1904-.0381-1.1807-2.9677999-1.1807-2.9677999,0,0-5.9628998,5.01859-5.4090999,5.3280999.5537.3106,1.4785081.3487,1.5673.6153.0879.2656-1.2412,5.6708999-1.9940999,8.3739998-3.3671999-.4434-13.5961997-6.0185998-13.5971997-6.0194998-.2558-.3721,1.5948-7.8643098,1.9048-8.0634998.3096-.1992,2.7929999.9726,2.7929999.9726l11.1630997-10.7557997s-1.5498-.3106102-1.6719-.5313c-.1436-.2617,1.6279-7.9217998,1.8164-8.0311998.1885-.1113,11.9296997,3.6327999,15.1201081,4.2968896.2763915.0586103-1.8613085,7.8437101-2.1269084,8.0429101-.2657.1992-2.6357999-.4218-2.6357999-.4218,0,0,2.6581999,6.0487998,2.8905999,6.2147998.2325.166,4.8721085-4.7792999,4.8721085-4.7792999,0,0-2.0625085-.2363-2.1601085-.5156101-.0908915-.2587899,1.417-6.7890897,1.8418-7.6835897.0332-.0694103.1796-.0801.2314-.0703.667.1298897,1.4629086.1836,2.2499999.2832,4.4267999.5586,9.9882997.8066,11.6200997.9004.0342.0019.0703.125.0645.2011-.0674.9141-.8184,6.2910998-1.001,7.1992998-.0664.332-2.1718999.5078-2.1718999.5078,0,0,4.0458999,12.6464997,4.1034999,12.7538997.0371.0693,1.1153-.1035,1.8662-.2334.3418-.4405.5508-.71.5743-.7383,2.1542999-2.5976999,9.283209-10.9159997,15.3729996-30.1523992,0,0,1.1885-.0742,2.6737999.3731,1.4864095.4453,19.6094095,5.0487999,32.4560992-.1504,0,0,2.2265999-.8906,3.8613103-1.9297,1.6347896-1.039,1.2636896-3.0448999,1.2636896-3.2675999,0-.2226.1465-8.2441107-.0762-9.4315998Z"/>
  </g>
  <g>
    <path class="cls-1" d="M91.8695927,19.5878995s-4.1776999,8.6894998-3.6200999,17.2128996c0,0-.1113.7793.7793,1.2246.8916.4453,1.6709.8906,1.8389,1.002.166.1113,1.0019.3906.6679-1.0586-.3339-1.4473.1114073-10.1367997,3.7880999-17.8242995,0,0,.334-.8906-.3349-1.1132-.668-.2227-2.7851999-.7793-3.1191999.5566Z"/>
    <path class="cls-1" d="M102.397,20.4804995s-5.5694074,13.0331997-4.5674075,21.7772994c0,0,.167.3906.501.502.3349.1113,1.8945.7793,2.3397999.7793s.5567-.5.501-.9453c-.0557-.4473-.167-10.1386997,4.4559999-20.7773995,0,0,.5577-1.0019-.2226-1.3926-.7793-.3906114-1.8379-.4453-2.0058999-.4453-.166,0-.7793,0-1.0018924.502Z"/>
    <path class="cls-1" d="M91.8695927,19.5878995s-4.1776999,8.6894998-3.6200999,17.2128996c0,0-.1113.7793.7793,1.2246.8916.4453,1.6709.8906,1.8389,1.002.166.1113,1.0019.3906.6679-1.0586-.3339-1.4473.1114073-10.1367997,3.7880999-17.8242995,0,0,.334-.8906-.3349-1.1132-.668-.2227-2.7851999-.7793-3.1191999.5566Z"/>
    <path class="cls-1" d="M102.397,20.4804995s-5.5694074,13.0331997-4.5674075,21.7772994c0,0,.167.3906.501.502.3349.1113,1.8945.7793,2.3397999.7793s.5567-.5.501-.9453c-.0557-.4473-.167-10.1386997,4.4559999-20.7773995,0,0,.5577-1.0019-.2226-1.3926-.7793-.3906114-1.8379-.4453-2.0058999-.4453-.166,0-.7793,0-1.0018924.502Z"/>
    <path class="cls-1" d="M124.1698919,60.3954985c2.9628999.9571,9.5029998,2.8554999,12.7919997,3.6601999-.2656,1.2441-1.1465,4.8885999-1.6035,5.6366999-.041.0674-3.6220999-.9648-3.6220999-.9648l4.2275999,10.7518997,7.9198998-8.1776998s-2.9950999-.3819-3.2157914-.4434c.2684914-1.3369,1.2850914-5.6415999,1.3583914-5.6288999.1445-.0293103,3.5526999.3574,6.4598998.582,2.6454999.2032,4.8085999.3466897,5.5361999.3516-.0186.083-.5469,5.2909999-.8692,5.5448999-.3212911.2539-2.5819999.1045-2.5594999.2588.0214.1543,4.5467999,13.9735996,4.8426999,15.0458996.0254.0918,1.5615089-.2832,1.6455089-.2773-1.6621089,2.0565999-4.7109089,5.9354999-5.2129088,6.4696998-.6377.3887-2.9950912.9424-6.7928998.7850904.4131-2.0643904,1.0068087-4.8114903,1.3232-5.9208903.2432-.0468,2.6601999-.0957,2.6142999-.2431097-.0469-.1474903-3.4345999-9.876-3.4345999-9.876,0,0-5.7284999,5.2109098-5.3964999,5.4102098.333.1992,2.5761999.3652,2.5097999.6972-.0663914.333-.8779,4.6191999-1.2763914,5.8202999-2.6992085-.2421-12.3105083-1.8574-16.1367082-2.9393999-.0586-.044,1.1445-4.9550999,1.3311-6.0995998.831.1347,2.4461999.5,2.9940999.5176.6211.0195-2.4921999-6.6689998-2.4921999-6.6689998,0,0-8.4198998,7.7489998-7.9325998,7.9267998.487308.1767,1.9921999.7988,2.3290999.8867-.2002,1.2646-1.1182,4.1757999-1.5889,6.1307998-3.0497999-.8691-8.9843998-3.9129999-11.2787997-5.2596999.1651-1.3477.9859077-3.9277999,1.3511-5.5899098.3555.1329099,2.2919999.9434099,2.2919999.9434099l13.2606997-12.8817997s-2.4716999-.878-2.6385999-.919c.2138-1.292.8945-4.1249999,1.2636-5.5292999Z"/>
  </g>
  <path class="cls-3" d="M147.7883999,113.1910426c.3369087.1367.6269087.3242.873.5684.2461.2383.4395.5058.5791.7969.1846.3789.2764.7832.2764,1.2109,0,.4863-.1231.9512-.3672,1.3887-.2451.4394-.584.7812-1.0195,1.0273-.4346.2422-.8907.3652-1.3682.3652-.4756,0-.9316-.123-1.3643-.3652-.4355-.2461-.7773-.5879-1.0195-1.0273-.2461-.4375-.3682-.9024-.3682-1.3887,0-.4121.0801-.7891.2383086-1.1289.1572914-.3399.3554913-.627.5947913-.8594.2402087-.2344.5-.4141091.7812087-.5391091.373-.166.752-.248,1.1376913-.248.3477,0,.6904.0664091,1.0264.1992091ZM149.7355998,114.4137426c-.1484-.334-.3602912-.6407-.6338-.923909-.2734-.2811909-.6123-.5174909-1.0127-.7010909-.4023-.1895-.8437-.2832-1.3271-.2832-.4981,0-.9706913.1074-1.418.3222-.3242.1563-.625.3710909-.9013.6426-.2735.2714909-.4991.6074-.6739,1.0059-.1767.4004-.2656.832-.2656,1.291,0,.5703.1436,1.1152.4316,1.6308.2891.5157.6895086.9161,1.2051,1.2051.5127.2871,1.0547.4316911,1.6221.4316911.5029,0,.9775-.1093911,1.4258-.3281911.3428-.166.6572-.3964.9394-.6875.2852-.289.5049-.6347.6631088-1.0332.1552912-.3984.2343912-.8046.2343912-1.2187,0-.4629-.0977-.916-.2891-1.3535ZM146.6525999,116.2320425c.208,0,.3643.0293.4717087.086.1073913.0547.1845913.132791.2294913.2285.0478.0976.0781.2519.0918.4707.0176.3047.0371.4863.0635.5449h.7666c-.0303-.0996-.0498-.2578-.0557-.4766-.0039-.2148-.0166-.371-.0361-.4628-.0313-.1407-.0791-.2598-.1445913-.3594-.0673087-.0957-.1494087-.1719-.2509087-.2266-.0996-.0547-.2325-.0996-.3975-.1347.1865-.0215.3203-.0528.3975-.0918.1455-.0743.2627-.1797.3496-.318409.0888-.140591.1328-.300791.1328-.482391,0-.1875-.041-.351609-.124-.4922-.0821-.1387-.1884913-.25-.3174-.3359-.1309-.086-.2979-.146509-.502-.1856-.1455-.0273-.3593-.0391-.6416-.0391h-1.2949v3.6054999h.8047v-1.3301h.457ZM147.0793999,114.5680426c.122.0371.2187.0996.2871.1875.0693.0879.1035.193291.1035.3144,0,.1172-.0283.2207-.0908.3145-.0586.0918-.1494.1621-.2695.209-.1192.0468-.2481.0703-.3809.0703h-.5332v-1.1485h.5332c.1074,0,.2246.0157.3506.0528Z"/>
</svg>