<?xml version="1.0" encoding="UTF-8"?>
<svg id="Layer_1" data-name="Layer 1" xmlns="http://www.w3.org/2000/svg" version="1.1" viewBox="0 0 139.5421253 144">
  <defs>
    <style>
      .cls-1 {
        fill: #fc3;
      }

      .cls-1, .cls-2, .cls-3 {
        stroke-width: 0px;
      }

      .cls-2 {
        fill: #7a0019;
      }

      .cls-3 {
        fill: #fff;
      }
    </style>
  </defs>
  <g>
    <path class="cls-2" d="M109.0889928,0c-3.5553332,2.4033333-10.3248664,4.6041417-16.1165329,4.6041417-.196-1.0790666.2324-2.7857999.1048057-4.395475-.0657391,0-.3658724.0426667-.4186057,0-2.6881999,1.6386667-6.0110665,2.8717417-9.7324664,3.5582751-2.8749999.5302667-5.2499999.54-7.7447998,1.2562-1.8671333.5332-3.6366666,1.1546-5.4417332,1.8834666-.3430615.1376667-.8408.5722667-1.2561333.6279333-1.6315333.216125-3.4700666-1.099-5.0234665-1.3604-2.8541283-.484-6.270795-.026-9.2083331-.5234-2.9401333-.5003333-4.6965999-2.1451999-6.6979332-3.5576666-.1366667,1.71.7982,3.1816666,1.1510666,4.9183332-1.4258.3694667-3.0013333.4905333-4.3945332.8372-1.0312666.2516667-2.2083333,1.0202-3.2447999,1.1510666-.3177333.0390667-.3919333-.18-.6275956-.1044667-.7591377.2356667-1.6094044,1.1936666-2.615871,1.3606666-1.306.2125333-2.5625333-.4352082-3.7682666-.5238-6.5442665-.4902-12.266933,1.6387333-14.9647996,5.1282665-5.3085999,6.8707998-3.9713999,16.4990662,2.9296666,20.8255328,1.6224,1.0143333,3.6262666,1.3115333,5.5468665,2.0931333-.3567333,1.7460666-1.4127333,3.4306666-2.5117333,4.4999999-.2526.2450667-.6015333.3564-.837196.6279333-.127604.1471333-.186204.3434-.3151373.5234,1.2474.0944,3.2747333.0325333,3.9778666.7324-1.1015333,4.169926-1.9726666,2.7239999-5.7551999,3.8720666-9.2890664,2.8128666-17.5924662,8.6240664-20.6171995,17.6861996-.6575333,1.9749333-.7187333,3.8847999-1.0455333,6.2789932-.4557333,3.362-.7565333,7.7604065,0,11.1979397.4830667-1.0273333,1.194-1.9947999,2.0923999-2.3033999,0,6.5155998-.7291333,12.5357997,1.1510666,18.1061269.5729333-1.4882606,1.138-3.1764606,2.1979333-4.1861939.3698035.3202667.3333333.0579333.5234.6276,1.7552,5.2226665,2.3737369,9.1666664,5.3359332,13.1861997,3.0325999,4.1067332,7.3359331,5.6809999,8.7916664,11.4068664.0026-.0064721.3008039,0,.3138,0,.3359333-1.1022.4844-2.2173999.7330666-3.3489332.0755333,0,.3594.0423333.418,0,4.9713332,4.5429332,10.3997331,8.7812664,16.9531329,11.721333,3.3489332,1.4974,6.9309998,2.4101999,10.3606664,3.8717332,4.8919332,2.0801333,9.5494713,4.5853332,13.9179996,7.1165332,2.3228666,1.3405333,4.7590665,2.4687999,6.2808665,4.604195,1.167-1.4348618,2.1214666-3.0475284,3.2425333-4.5,3.4127386-4.4153333,8.2447998-7.5670615,13.2916663-10.36.9322666-.5169281,3.3879999-2.25,4.3951999-2.302728,1.2754-.0684.2942667,1.9133947.209,2.4068666-.0221333.1412667-.0716667.543.1048.5234667.2552-.0332.6282667-.6966666.8372-.8372666,2.4134666-1.6419333,5.0917999-2.9856719,7.6399998-4.3951999,1.4518-.8046666,2.8580666-1.118472,4.4999999-1.7792666,2.3320666-.9420666,4.7845332-2.1718721,7.0117332-3.3483332,5.1575332-2.7304666,10.0038664-6.9362055,13.8138062-11.0930664,1.416-1.5475333,2.4205267-3.7382666,3.9765267-5.1282665.1048667-.0950667.3040667-.2415392.4186667-.3138,1.0859333.7057333,1.0462,2.1021999,1.2558,3.6627332,1.1745333-1.1217333,1.6322-2.8684725,2.4075999-4.3951391,2.2200734-4.3763273,4.1497332-9.4973939,4.6041332-15.593127.1341333-1.7851333.4772-4.0065332.3138-6.1751332-.0234-.3196667-.2187333-1.0852666-.1048-1.5696666.1959333-.8138.9713333-.3854065,1.3606666,0,.321.3112.3170667.3535333.7324666.6276,0-1.2422-.1472-2.2630065-.418-3.4524666-1.7304666-7.6073998-5.4257999-14.6744663-9.8372664-19.6751328-1.6549267-1.8802-4.0461999-3.0868666-5.8606665-4.8137999.1308667-.1044667.0423333-.4316072.2096667-.5230667,1.0494666-.5824,2.5956666-.6934,3.5579332-1.1510666-2.3255333-1.0205333-5.0071934-4.2584666-5.7558601-6.8023998,1.1510602-.2946,5.7063934.1894667,3.8717268-1.1514-1.3574-.9974-4.0553332-4.3267999-3.0344666-6.4885998,2.4134065,0,4.4504666-.2516,6.1744665-.9414,4.3098666-1.7334,7.2206665-4.9417332,8.5807331-9.6279331,2.7896666-9.6051331-4.4895999-19.1353995-14.0234663-18.4192662-1.6217333.1214-3.3710666.4974-4.7089935,1.0468583-.6276064.254875-1.595673,1.2262749-2.406873,1.1510749-.5195333-.0491333-1.3307333-.8141333-1.7786666-1.0465333-1.5143333-.797875-3.0585999-1.514-5.0233999-1.779-.2031333-1.3346666,1.1471333-3.3522083.4186-5.2327332-.0683272-.1829333-.3170667-.3594-.4186-.5228085Z"/>
    <path class="cls-1" d="M105.0069262,4.499675c.3932667,1.6976-.6926666,2.7307999-1.3606666,3.9768666,3.5846666-.6998749,7.1269332-.2486667,9.8385331,1.2555333.6732.3701333,2.5305999,1.8675333,3.1386666,1.9886666.6348.1214,2.8717333-1.7008666,3.5579332-1.9886666,5.1477999-2.1679333,10.0599331.1930667,12.5585997,3.2444666v.2093333c.5130667,1.4782,1.8281333,2.8583999,2.0931333,4.8141252,1.0136666,7.4528078-2.5637999,12.4990077-8.1627998,13.7093333-1.2792666.274741-2.9953999.6276077-4.5005999.208941-1.1666666-.3300667-1.7331269-2.4263999-1.8828666-3.7671999,3.3320666-.3730744,5.5390731-.6738666,6.9069332-2.9303333.9902-1.6322-1.1711934.0621333-2.0931333.2092588-3.2278666.5133333-5.6777332-1.4781921-8.4771998-1.2558588.5072,1.0202.7298063,1.9951333,1.0468666,3.2444666.6308667,2.4622666,1.347,5.0198665,2.0931333,7.3255331.4934667,1.5172666.9388,2.8483333,1.3606666,4.2903999-1.9361935.1506667-2.9797999-.3727333-4.3958666-.9414666.8763397,1.8802591,1.4427333,3.7441999,2.1979333,5.8607332.5104064,1.4153333,1.3730731,2.6288593,1.7786666,4.1858666-2.1119999.4837333-3.6725332.0716-5.5461999-.5234667,0,.0296.0162667.4154,0,.4186.9876.9121333,1.7004666,2.1715999,2.7206666,3.0351927,1.7793333,1.4974072,3.9114666,2.5602071,5.7565332,3.9765404,3.6887999,2.8222666,7.0338665,7.0051998,9.3137998,11.1975997.6302,1.1575333,2.0859333,3.1787333,2.1972666,4.4999999.0885333,1.0039333-1.7754.4381333-2.4069333.4186.5729333,2.1809999,1.3509333,4.4277332,1.6744666,7.0117332.9154,7.2343998-1.125,13.6998663-2.7213333,18.9420662-.1341333.0195333-.3724.1210667-.6276.209-.6835933-.9681333-1.0950666-1.714206-2.3020666-2.1979333,0,2.5911333-1.6614666,4.1412666-2.7213333,5.7558665-4.1107332,6.2662665-9.8502664,10.9465997-16.4303996,14.7558607-2.6165333,1.5143389-5.7063332,2.3352722-8.3717331,3.6634055-1.8053333.8958666-3.3228666,2.6529999-5.4413941,3.1399999-.2786667-1.2136-.3567391-2.8327387-1.1523391-3.5585999-1.582,1.5078-3.1653333,3.1751333-5.0227999,4.3945278-4.7584665,3.1171386-10.0696664,5.638-14.7558663,8.7910052-1.7629947,1.1842666-3.7291332,2.6588666-5.3362665,4.0813999-.3144.2786-.7066666,1.0501333-1.152,1.1516666-.2942667.0651333-10.3827997-5.7395999-11.825533-6.3841332-6.6288665-2.9758666-13.7226663-4.8033332-20.4075328-7.7434665-5.764329-2.5416666-13.4465997-10.2005331-16.2200663-15.8027329-.2265333.7265333-.5143333,2.3443999-.8372,3.1399999-1.2734666-.4512-1.8346666-1.3802666-2.6171999-2.3027333-3.9010666-4.6341332-6.3450665-9.0618664-7.5338629-16.4303996-.0911369-.5794-.2877369-3.9641332-.2096703-2.8261333-.1249964-.9388-.1575333-1.2389333-.2096-2.0924729-.9908666.7200729-1.6706,2.1191396-2.8255333,2.3020729-.7187333-5.3241999.069-13.3163997,2.0924666-16.6399329-1.0716.2396-1.7721333.8990666-2.8241999,1.3613333-.75-1.7828666.1328-4.8993999.6276-6.6982665,2.3931999-8.6855331,9.9087997-15.4000663,18.9413995-17.2675996.9452666-.1959333,4.5689999-.513,4.9192665-1.0462.3593333-.5462.2382708-1.1608.4179333-1.8838.5924667-2.3479999,1.556-5.1210665,2.3021333-7.4303331-.487.0752-.7786666.2259333-1.2552666.4186-.6575333.2646667-1.25.3763333-1.151-.6279333.0624708-.6112742.5586-1.2262.7317333-1.7789333.7044666-2.2271999,1.6354666-4.2480666,2.3021333-6.3837998.9518-3.0383999,1.0664-5.9944665,1.6744666-9.4185998.2617333-1.4716666.7135333-2.7959413.8372-4.3955332-1.4257291.1113333-2.9647999-.1634-4.2903332-.3138-5.7747292-.6673333-8.5195331,1.3115333-9.4179998,5.6510665.8008-1.154,1.9062666-2.1845999,3.4531332-2.6165333.4192667-.1175333.7916666-.1237333,1.2552-.1042-.4374667.7978666-1.0989333,1.6380666-1.3593333,2.5113999-.2135333.7164666-.2591333,3.6337999.3138,2.4072666.1770667-.3792667.4674667-.8766666.6276-1.2562.2643333-.6178667.4778667-.9056.8372-1.3600746.7226666-.9123921,1.3893333-1.5764587,2.4062666-2.198192,2.2278666-1.3600666,2.6041999-.1924,2.4075999,2.4071999-.3138667,4.2125999-3.0703333,8.5911331-8.0585998,6.2793332.4856667.6445333.7460666.7194,1.4661333,1.1509922,1.4739333.8730744,2.0793999,1.2588077,4.4999999,1.3606667.1328.562541-.2226667,3.5579409-1.1510625,3.7672743-1.0768041.2386-2.6796707-.7128666-3.3489374-1.0462-.7812666-.3926-1.5208666-.556-2.1979333-1.0465333-4.4309999-3.2376666-5.7109332-11.0739331-2.1979333-16.2210663,2.4843999-3.6399999,7.1159332-5.7040665,13.3958663-5.2323999,1.5403333.1142585,3.6562709,1.2652666,4.9179332,1.0462.8346666-.1471333,1.8255333-.9059415,2.6159333-1.151,3.1471333-.9847333,7.9452665-2.4889415,12.035133-1.4655333-.2786667-.6637333-.7226666-1.4485333-.9413953-2.5114082,2.8345952,0,11.9778616,1.0299416,13.6041283,2.4066082,0,0,.0976667.0950667.1042.1048.3112.2418667.2096,2.1129333.3150667,2.5117333.1692717.6376667.6341333,1.2724666.9414666,1.7789333.2721333-.7128666.4973333-1.9029333.9414-2.5113333,1.5439333-2.1126666,7.0767998-4.4381999,10.3619331-4.8141332,1.3932666-.1631333,2.3893333.1213917,3.6614666-.1045333,2.4075333-.4284,4.7981999-1.2952,7.1165332-1.8838.343139,1.4814666-.1594667,2.6227333-.7324,3.6627999.0781333.0263333-.0169333.2946.3138.2092667.9258-.2418,2.3319999-1.0136749,3.4537999-1.2558,2.5865333-.5658,5.4875999-.7096666,7.9530665-1.3604,1.4616-.3893333,2.8522666-1.2229333,4.3951999-1.6744666Z"/>
    <path class="cls-2" d="M85.8559323,22.0810746c-5.2461388,0-10.8177386,5.8476665-11.9297386,10.0468664-.8672,3.2734666-1.6028666,6.5143332-1.8840666,10.2558664-.1211333,1.6484.4388,3.7509332,0,5.3369332-.1927333.6998666-2.1585333,1.1350666-2.7203999,1.5699261-.5856.4515406-.8798666,1.0990072-1.2562,1.7793333.9974-.4710595,1.8180666-.7952594,3.0338666-1.0468594-.1106667,1.0208-.7353333,1.4784666-1.1500666,2.5116666,1.1409333-.4677333,2.2112718-1.3082666,3.3492718-1.6744666,6.6705946-2.1614666,21.6132609-.9742666,26.7903941,1.3604,1.4023333.6311333,2.2955333,1.7597333,3.4531332,2.6165333-.5625333-1.8512738-1.8021333-2.9105333-3.0345333-4.0813999l.2090059-.5231333c.1998607.0098.7330607.1042.7330607.1042,2.0468666.3010595,2.8319999.9026666,4.0807332,1.8838-1.4388-3.2962666-4.4479332-3.4795332-7.7435331-4.9186665,0-10.6841997-1.3411333-25.2209994-11.9309275-25.2209994Z"/>
    <path class="cls-3" d="M88.1579933,24.5928079c.694.111.6836.471.8378666.8371921-5.5696665,2.2666078-8.9641998,8.7842076-10.0475331,15.4882741-.2382667,1.4814666-.5325333,6.0208665-1.1497279,7.0117259-.2486667.4026667-1.658872.4088739-1.9896053.4186073-.3619333.0065333-.7903333.0364667-1.0455333-.1044667-.6054667-.3398667-.2448-2.2629999-.3151333-3.1399999-.3554667-4.8069332.6784-9.6861407,1.9896053-13.2899997.091128-.2454744.0846667-.4023333.208328-.6282667,1.7513333-3.1559333,5.8281332-7.5315998,11.511733-6.5930665Z"/>
    <path class="cls-3" d="M86.4835267,36.8372742c.8736666.1503333,1.6392666.8596666,2.0937389,1.4648-1.0729389,2.2793333-2.1588722,4.8011332-3.4544722,7.0117332-.8762666-.0719333-1.651-.1048-2.6158666-.1048-.5950667-1.4941333,1.6354-7.7665998,2.7213333-8.2669331.2722-.1279333.8405333-.1803333,1.2552666-.1048Z"/>
    <path class="cls-2" d="M49.018661,23.9652079s-.7226666-.0098-.8372666,0c-1.2786.0780667-2.8345999.958-3.7681999,1.5696-4.2734666,2.8027333-6.9648665,8.5224665-8.0572622,14.441733-.457071,2.4853999-.3333333,5.2063999-.627671,7.8489998-3.2486666.8271261-5.0494665,1.3342666-6.6978665,3.6627332,1.3450666-.3958,1.9531333-1.3639333,3.3489332-1.6741333,1.9908666-.4479333.2318,1.2754-.1041333,1.7789333-.3346667.5003333-.6914,1.0661333-.9427333,1.6745333-.2838625.6966-.4896,1.1376666-.7318,1.8834666,1.6185333-1.3502666,2.6679999-3.2636666,4.7083332-4.1858666,2.3776043-1.0762,4.4648666-1.3704666,8.0585998-1.0469333,2.9114666.2584667,6.2786665.4515333,8.6861998,1.2562-.3893333.7487333-.7096,1.3636-1.0468666,2.1972666-.067662.1735333-.679662.988,0,.9420666.7747333-.0553333,2.0312666-1.779,2.7200666-2.1975999,1.0482-.6376667,2.2213333-.7584666,3.5585999-1.151-1.2292-2.4892666.4062667-5.3307332.6288667-7.8489998.6432667-7.2076665-1.0012666-15.6549329-5.5468665-18.2092662-.9023286-.5101333-2.2695333-.7064-3.3489332-.9417333Z"/>
    <path class="cls-3" d="M50.1697276,25.6393333c.5468713.1015412.8046666.5852745,1.151.8372078-2.8801999,1.7562-5.1627332,4.1503999-6.4882665,7.4303998-1.1484666,2.8485999-2.2994666,6.5081332-2.7200666,9.8371998-.1966,1.5664-.1705333,2.8616666-.5234,4.1858593-.7304666,0-1.6263333.0328739-2.6171999-.1044594-1.694-.2386-1.1666666-2.9661333-1.0456-4.6047999.5781333-7.7275998,2.8020666-13.0810663,7.9531331-16.2210663.9908666-.6048,2.4335999-1.7102666,4.2903999-1.3603411Z"/>
    <path class="cls-3" d="M49.018661,37.2558742c.612.1139333,1.763,1.1868666,2.3020666,1.5696666-.6692666,2.5673999-1.8307333,4.5553332-2.6158666,7.2209998-.6445333-.0166-1.7994666.0814-2.6171999-.2092667-1.2161333-.4382,1.3789379-8.8756664,2.9309999-8.5813998Z"/>
    <path class="cls-2" d="M89.30966,15.5928081c-6.6061332-.4837333-11.1125997,1.7434666-14.5461996,4.4996666-3.3463332,2.6855254-2.5976666,3.2935999-1.4648614,7.7447998,1.6223947-1.4655333,2.641928-3.4603332,4.394528-4.8141332,5.2591332-4.0651412,12.4765997-4.8336665,17.5820662,0,.9713333.916,2.3150666,2.1321333,3.0344666,3.2441333.6966,1.0696666,1.1908,2.3811999,2.0931333,3.2444666-.3568-3.2278666-.821-5.6123332-2.0931333-7.8492665-.4576667-.8144746-1.3183333-1.3932666-1.8834666-2.0927999-1.6744666-2.0901999-3.6171999-3.7216747-7.1165332-3.9768666Z"/>
    <path class="cls-2" d="M50.4847943,17.5810747c-4.0989332-.4154-6.7825332,1.4554-8.8957998,3.1396666-2.1523956,1.7138666-3.6275999,4.5653999-4.4999999,7.5351331,4.2213332-2.7539333,7.3710665-8.2773331,14.7551996-6.2789998.6666666.1761333,1.0755333.1077921,1.5702666.4183333,1.8412,1.1513333,2.5443333,3.6103332,4.3945332,4.6044666.5664667-.9284,1.8151333-3.2770078,1.4662-4.8137999-.1016-.4511333-.8450666-1.0266666-1.1510666-1.3603333-1.6848618-1.8379333-4.4648618-2.9267999-7.6393331-3.2444666Z"/>
    <path class="cls-2" d="M60.6358607,115.4296722c-1.2304666-.0911333-4.0039284-.2708-1.4661333.5241333,1.6575382.5136667,3.1848716,1.8287333,4.0807332,3.1399333,2.0389999-.8209333,3.6015332-1.6914,6.2808665-1.9895999l.1035333-.3131333c-1.3688-.0586-2.3675333-.3828-3.4534666-.6288667-1.8254616-.4147333-3.6523332-.5944-5.5455332-.7324666Z"/>
    <path class="cls-2" d="M57.8089941,54.1048071c-2.7199999.0032667-5.1497285,1.056-6.3827998,2.6161999-2.9335953,3.7115999-1.5924,11.557333,2.929738,12.2441997.1445286-.5495333.1171286-1.0563333.3137952-1.5696666.2421333-.6312,1.9426666-1.5208735,2.6158666-.6282667.7174666.9420599-.1393333,2.6393333-.3138,3.5582666,1.0247333.3434,2.1419333.6575333,3.1393333,1.0468666,0,1.9648666-.1523333,8.5618665-1.1510666,9.2089998-1.4153333.9185935-3.6848666.9948-5.6497332,1.2552-12.5260664,1.6523333-22.4713328-2.3411333-30.7681992-6.4876665-1.1081333-.5553333-3.8203332-1.6679333-4.3958666-2.6165333-.9453333-1.5728666-.2278667-4.4771999.2096705-5.9651332-.9844038.4645333-1.7591371,1.207-2.3034038,2.0930666-.6588667,1.0824-1.1471333,3.1559333-.5221333,4.6045332.1080667.2382667.5885333.5897934.6288704.8378666.1067962.6139267-.4388038,1.0136666-.5247371,1.4654666-.513,2.7525999.9427371,4.5813999,2.3020705,5.5455999-.2903372-.9583333-.4179372-1.7330666-.4179372-3.0345333,0,0-.1237333-.5136667-.1042-.7330666.0781372-.7844666.5364667-1.9524666,1.2552666-2.0930666,1.5377333-.3001333,4.1640666,2.1881333,5.1288705,2.8261333,7.2656625,4.7649999,11.2161291,8.8535331,14.335929,17.7903996.3958667,1.1289333.3997333,2.1751333.7330666,3.3489332.6901333,2.4010666,3.6197999,9.3170664,5.2330665,10.5703331.1471333.1113333.4401333.14.6276.2083333,3.8059999,1.3841333,10.5924664,1.0475333,14.546933,0,1.1015333-.2936,2.3475999-1.0748666,3.4530666-1.2552,1.7044666-.278,5.9283999,1.5240666,7.639005,1.8834666,3.6045281.7526,9.1748613.7037333,12.5589278-.209.8594-.2318,1.1315333-.4251333,1.3594-1.36.3632667-1.4785391.4166667-3.3040666.7330666-4.9186665.6874666-3.4706666,1.8346055-7.0351332,3.2447999-10.0475331.7721333-1.6406,2.1386666-2.8743394,3.2441333-4.1855332,4.1041332-4.8729999,8.4628665-8.9277331,14.1282663-12.2434729,1.3724-.806,9.0416664-5.5409933,10.2551997-5.3385267.8997333.1478,1.694,1.9368666,1.8841333,2.8261333.3333333,1.5371333-.4583333,5.3177267,1.0462,2.7207333.9746-1.6803398,1.6321333-5.2714665.209-7.0117332-.3496-.4345333-1.4257936-.791-1.5696666-1.36-.1634-.6673333.2154667-1.4980666.1048-2.3023999-.3307333-2.4563999-2.2434666-3.7971999-4.8137999-4.0817332,1.3014666,1.1546,3.7083332,3.8691332,2.3020666,6.5931332-.5.9713333-1.9426666,1.4654666-2.8255333,2.0930599-5.3274665,3.7877399-11.0930664,6.5338732-17.8957995,9-2.6809999.9713333-5.7226665,2.3541397-8.8945276,2.7207397-7.4791387.86-15.9951385-.4642-21.558605-2.9297333-.2682-.1210667-1.5273333-.6933333-1.6744666-.9420666-.6315333-1.0989398.1367333-5.7656065.3138-6.8020665.1276-.736.2356667-1.3346.4192716-1.8841333,1.8763283,0,3.1315283-.2028,4.3945282-.6276-.1236667-.2946-.2486667-.471-.3138-.6282-.2148667-.543-.4674667-1.3376067-.5234667-1.8838-.013-.1566.1054667-.5524.1054667-.5234667.1133333-.5491333.1797333-1.3144666.6276-1.4648666,1.9691333-.6734735,2.7210666,1.7106666,2.7210666,3.3489999.4446667-.0198667.9586666.0032667,1.4651333-.2093333,2.0403999-.86,3.2578666-2.9335999,3.9765999-5.1282665,1.8646-5.6933332-1.043-10.1442069-7.3255331-9.4185998-1.2200666.1409333-4.0129999,1.2757262-5.1275949,1.0468666-.295605-.0621333-.6549383-.5068-.9427383-.6279333-1.1601333-.4974-2.6327999-.9452666-4.1861999-.9417333Z"/>
    <path class="cls-3" d="M56.6592656,57.034807c.3268618.0231333.8294618.2158596,1.1497285.3138-.2799333,1.9098666-.6770618,3.5514666-1.1497285,5.3375999-1.0442715.2285333-2.0377381.4674667-3.0351381.7324-.3672-2.4918666.4765333-6.5702665,3.0351381-6.3837998Z"/>
    <path class="cls-3" d="M66.1813939,57.7672737c1.2304666.0621333,3.1071333.4612667,3.9762666,1.0462,1.0185333.6770666.9782,3.1891333.1061333,3.9775332-2.3388666-1.1712-4.2164666-2.3027333-7.9547998-2.3027333-.342395-2.5413333,1.4466666-2.8447333,3.8723999-2.7209999Z"/>
    <path class="cls-3" d="M62.5186606,82.7786667c1.0729333.0064731,2.8853999,1.1510064,3.9765332,1.4661397,2.5937999.7415333,5.6028665,1.3528666,8.4765998,1.569,2.2708053.1673333,4.5703332.3893333,7.0129998.2096667,1.7942666-.1380667,3.4987332-.8138,5.4413999-.5228063-.2395944,1.6178063-.8541333,2.8971396-1.2564666,4.2910062-1.0364611,3.6223999-1.7852,7.4622665-2.4062666,11.3013997-.2942667,1.8412-.5,7.1523998-1.7786666,7.6393331-2.6028612.9876666-7.0325332.1602-9.6288612-.1041333-2.0244718-.209-7.2174717-1.0475333-8.2669383-1.9882724-1.1706-1.0592608-2.096395-16.6953333-2.3033999-20.093127-.0390667-.694-.3554667-3.7773332.7330666-3.7682063Z"/>
    <path class="cls-3" d="M59.3793274,82.8841397c.5325333,2.0077999.1432716,4.7121999.3138,7.0110665.4062667,5.4029999.6028667,10.5468664,1.6744666,15.2792663.112.4844.3606667.821.418,1.1510666.0364667.1868667-.1028667.6288667-.1028667.6288667v.209c-.3554617.6341333-4.3905999,1.2454666-5.6523332,1.3594-3.2409333.2877333-8.2513331.7923333-10.6744619-.7324666-.8464045-.5364-1.2226667-2.2890058-1.6745378-3.2427999-1.9192666-4.0696666-5.4752665-14.5800663-3.8723999-20.7219995,2.6588666.1041333,5.0664665.7396,7.7447998.9414,4.4075999.3274667,8.3984665-.9772,11.825533-1.8828Z"/>
    <path class="cls-2" d="M126.7745257,14.0231415c-3.8685332-.5722667-4.8398665,3.3485999-8.2669331,1.5696666.0650667,1.5764666.3105333,3.5126666.7324,4.7092665.6868666-.4642,1.8281333-1.8147413,2.7213999-1.8838.457-.0358,2.4589333,3.1266666,3.1392666,3.6627999-.1601333-1.4648666-.7161333-4.4605999.418-5.3369332,1.3476666-1.0432666,4.2421999,1.5104,4.7095999,2.1979333.4349333.6308667.6341333,1.7226666.8372666,2.5113999.0456-.1438667.3665333-.7226666.418-1.0465333.207-1.2529413-.2578667-2.2663333-.7318-3.1396666-.7552-1.4026666-2.1523333-2.9759414-3.9771999-3.2441333Z"/>
  </g>
  <path class="cls-2" d="M115.598726,125.8236053c2.4479333,0,4.4999999,1.9322666,4.4999999,4.4641332,0,2.5801333-2.0520666,4.5117332-4.4999999,4.5117332-2.4595999,0-4.5240666-1.9316-4.5240666-4.5117332,0-2.5318666,2.0644666-4.4641332,4.5240666-4.4641332ZM115.598726,134.14c2.0761999,0,3.6842666-1.6562615,3.6842666-3.8522615,0-2.1477385-1.6080666-3.8039999-3.6842666-3.8039999-2.0995999,0-3.7076666,1.6562614-3.7076666,3.8039999,0,2.1959999,1.6080666,3.8522615,3.7076666,3.8522615ZM113.8467927,127.6836053h2.0279999c1.248,0,1.8359333.4922,1.8359333,1.5,0,.9479333-.5996,1.3443948-1.3796,1.4283948l1.5,2.3157385h-.8762666l-1.4277333-2.2558666h-.8639333v2.2558666h-.8164v-5.2441332ZM114.6631926,130.0117385h.8515333c.7200666,0,1.3802-.0358,1.3802-.8639333,0-.696-.6002-.8040666-1.152327-.8040666h-1.0794063v1.668Z"/>
</svg>