<?xml version="1.0" encoding="UTF-8"?>
<svg id="Layer_1" data-name="Layer 1" xmlns="http://www.w3.org/2000/svg" version="1.1" viewBox="0 0 216.0001945 149.8043341">
  <defs>
    <style>
      .cls-1 {
        fill: #fc3;
      }

      .cls-1, .cls-2, .cls-3, .cls-4, .cls-5, .cls-6, .cls-7 {
        stroke-width: 0px;
      }

      .cls-2 {
        fill: #bb945b;
      }

      .cls-3 {
        fill: #000;
      }

      .cls-4 {
        fill: #231f20;
      }

      .cls-5 {
        fill: #8f5a28;
      }

      .cls-6 {
        fill: #7a0019;
      }

      .cls-7 {
        fill: #fff;
      }
    </style>
  </defs>
  <g>
    <path class="cls-3" d="M99.8788975,74.8412981s2.6972999-1.67581,4.7792999-1.1367c-8.7948998-17.9101995-15.0370996-22.1425994-15.0370996-22.1425994-1.6445-1.5644-3.5819999-2.6875106-5.7714999-3.7186999-.4336-.2051-.8807929-.5703-1.332-.7227-.6445-.2168-1.3027929-.3027-1.8887-.498,1.0723-1.3711107,2.5409999-1.875,4.2187999-2.6659999-.4473-.7188-1.2598-1.0176-1.9980999-1.4434-3.7753999-2.1830999-9.1698998-1.6445-13.8222997-.7754-1.2226.2266-.4941-.6875-.166-1.1113108.7051-.916,1.5567-1.6972891,2.4413999-2.4413891.4473-.377.7657-.9121,1.2227-1.2769,1.6074068-1.2934,3.3651999-2.4594999,5.1620999-3.5531999.570307-.3496,1.1777-.4458,1.7754-.7774,4.5917999-2.5624999,10.4667997-3.7499999,16.8202996-4.5516999,1.3047-.1646,2.4706999-.0654112,3.8300999-.167,1.7871-.1343,3.5565999-.2109,5.1073999-.1113.9219.0605,2.0351999.352,2.8866999.5,3.3027999.5727,6.3027998,1.2324,9.1034998,2.3319999,3.1884999,1.2505,6.1679998,2.8007999,8.8261998,4.6078889,1.1777082.798411,2.3153999,1.782711,3.3867082,2.7183109.3154917.2773.8583917,1.1953,1.2763917,1.2773l-.04.5801s-1.1553.5254-1.4746.6094c-.3184.084-2.8916999.7212-3.4121999.9511-.5205.2325-2.7958999.6797-2.9159999.6582-.1191-.021-1.4551.7051-1.5537.8325892-.0976.1284108-.7051.5327108-1.1963.562-.4922.0293108-1.3593.8379108-1.4463.9551108-.0869.1152-.2812.8964-1.4091.8964-1.127,0-1.453192,1.0684-1.5391,1.127-.0869.0566-.5313.7363-.96.8457-.4287.1074-.9482,1.6699-.9775,1.7852-.0293.1152-.0147.3242-.3535.3789-.3399.0546-.8028.9804-.9766,1.3846894-.1738.4048106-.2988,1.0137106-.4678,1.1133106-.1679.1016-.4286922,2.6151999-.1962,3.3671999.2304.7519.2714,1.1992.3173,1.3301.0459.1328.376.7812.4336.9258.0576079.1445.7803,1.5039,1.1856079,1.705.4052921.2032,2.1678921,1.2442,2.4286921,1.4453.2607.2032.4336.6661.5195.8965.0869.2324,1.3887,2.4863999,2.2265999,3.0077897.8388.5196103,1.2724,1.4454102,2.0526999,1.8789102.7813.4336,2.6055081,1.877,4.7441999,2.4843999,2.1376999.6094,3.6405999,1.8809,3.8426999,1.9688.2032.0858899,2.1689999.6933,2.4579999.7793.2881.0879.8086083,1.1562,1.0694,1.5898.2597.4336,1.1269,1.7363,1.7929,2.0253999.6651.2891,1.4161.7793,1.5323084.8086.1151915.0293.664.4043,1.8202915.54879,1.1572.14461,3.1805999.4336099,3.5565999.7227099.376.289.7237,1.6191.8379,1.9082.1162086.289,1.6485,3.7870901,1.9950999,4.5682999.3477.7813,1.8799,4.5976999,2.1406999,5.4355999.2597.8379.4043,1.5898.1728,1.9081904-.2313913.3184096-.6933913.9258096-.6933913,2.1387095,0,1.2148.086,2.1971999.2011913,2.7186999.1162.5195.3477.6367.6367,1.9649.2891087,1.33,1.25,1.7186906,1.5059,2.6659999.2578.9492.9521,1.1504,1.0098,1.2383.0576.0859.164.2968.2119.539.0478.2403.539,2.3515999,1.4931,3.0741999.9541.7227,1.3594088,1.4453,2.4579999,1.793,1.0987.3457,1.5899.4629,1.6475.6074.0576.1446.6231,4.1464999,1.3008,5.2890999.4629.7812.4805.7793,1.0937,1.0039,0,0,.5352-.492209.8536,1.7344l-.3379.4629c-.3946.0761-1.1289,1.1211-1.532291,1.3671-1.1005089.67-1.6425089,1.2813-2.9492089,1.6778-1.8916.5722-4.0087911,1.2422-7.1688998,1.1562-5.4267999-.1465-22.2148913-.164-37.4316991-35.9647991-2.6210999-6.1679998-9.3280998-9.7929998-9.3280998-9.7929998Z"/>
    <path class="cls-2" d="M93.0155977,52.1752987c-.3886-.1602-.9414-.9023-1.2207-1.2012-.6152-.6543-1.414-1.2734-2.1092999-1.832-.7872-.6309-1.7676-1.3086107-2.6660999-1.7754-.6992-.3652107-1.5058-.5586-2.1639999-.9429.7832-1.0044,2.8163999-.8989,3.9413999-1.5551-.7012-1.0059-1.7207-1.7359-2.7753999-2.3867999-3.4394999-2.1190999-6.6620998-3.2206999-12.1562997-3.2206999,1.795-2.2923999,5.8926069-4.1483999,8.8261998-5.3837109.7285-.309589,1.6621-1.0185889,2.4414071-1.1650889.8788928-.1689111,4.957,1.7442,5.9394927,2.1093999-.2364.0762-1.1016.5312-.5547.9433.4941.3731,1.9902073.6836,2.6639999,1,1.5918.7442,3.0996999,1.695389,4.5527999,2.6074999-.0449.3847-.1621.5722-.334.9433.957,1.1797,2.8319999,1.3477,4.0526999,2.2773999.4492.3418-.332.9023.166,1.3867.3672.3594.9883.5137,1.4434.7773.8086.4668,1.6035,1.0274,2.4433999,1.5-.1875.2831893-.6094.7188-.5567,1.1641.0664.5566,2.9550999,2.1835999,3.5527999,2.5546999.2011.125.5839.2012.7226.3887.1895.2539-.0635.5625-.1113.998.375.1738.7148.3145,1.1103.5l-.0547.166s1.3233.541,1.3799078.5996c.0585922.0586-.3466078,2.9491999.5497922,4.6542999.8965,1.7071,1.128,1.7071,1.2715,1.8789.1455.1738896,1.6201.8398896,1.8799,1.0137.2607.1719.8096.5488.9541.75.1445.2031.8389,1.5918,1.0693,1.8223.2325.2304.4336.6074.5498.8378897.1163.2324103.9541,1.0117103,1.128,1.0996103.1728.0859.9824,1.3867,1.2138,1.705.2315.3183898,1.0704,6.7656998,1.9659,7.7480998,0,0-.752.4336-.752,1.0117s.5313,2.2714999.5313,2.2714999c.7802.6309,1.0058,2.0331999,1.3398,2.8671999.1982.4941,1.7148081,1.9453,1.1943,2.2050999,0,0-.4921,0-.6367.6933,0,0,.8389,4.0488999,2.5448999,5.5800999,1.7051,1.5332.375,1.6191.3174,1.707-.0576.086-.6933.2305.4336,2.0234999,1.1279,1.791,1.1279,2.8046999,2.2558999,3.9022999,1.1269,1.0995905,1.8789,3.7011999,1.792,4.6562999-.0869.9531-.4912,1.3867-.4335917,1.5312.0575917.1445,1.5028917,1.7344,3.4110916,2.8339999,1.9082,1.0977,1.5322,1.4453,1.9082,1.6758,0,0,.752.8672,1.3887084,1.041.6347915.1738,1.6766915.4042908,1.792.5215.1151915.1152-.2442085,1.4355.2968915,1.7147908,1.1845.084,2.7342999.4492091,4.3856999.334.5185-.0390909,1.4521-.2128909,2.0536999-.3886909.3086-.0937.7109-.4453091,1.0547087-.4453091.2392913-.0018909.458.2188091.666.2774091.6435912.1777,1.6601912.2734,2.332.0565909.9101912-.2968909,1.7167912-2.2323908,2.3300911-2.332.2266-.0370908,1.8877.5176092,1.9444.6113092.2353.3984.1757,1.0742.2763,1.5526908.2158,1.043.503,2.211.8887,3.164109.2344.582.5654,1.4883,1.332,1.5547-1.0986,1.3496-1.4179,1.6504-3.0848999,2.408191-1.6973.7715089-2.4677999.9258089-2.6992999,1.0039089-.4287.1426-1.5419.2109-3.5458999.2305-3.7948999.0371-5.0477999.6054-12.9530997-3.0839999-2.3124999-1.0801-5.3192916-4.1620999-5.8680999-4.6054999-3.2158999-2.5956999-7.7490998-7.4022998-13.1835997-17.1737996,0,0-2.7470999-5.6093999-6.3036998-13.0683997-.7041-1.4765-5.2529999-4.8573999-5.2529999-4.8573999,0,0,3.1835999-.6816,3.6054999.1152,0,0-2.0409999-4.5741999-2.7577999-6.2049998-.9238-2.1113999-5.7050999-9.4257998-6.1659998-10.1777997-.4629-.7519-3.0839999-4.1620999-3.4706999-4.6249999-.3106-.373-2.0820999-2.5448999-2.0820999-2.5448999Z"/>
    <path class="cls-5" d="M89.4081977,31.7128992c-.5742.023-.9843927.2202-1.334.3882,1.8301.5625,3.5663999,1.5863889,4.9413999,2.6639999-.1035.0918.041.7989.166.8887.6622074.4746,1.4512074.6973,2.2206999,1.054689,1.2989.601611,2.7363999,1.3125109,3.8300999,2.166.1133.086.5742.4864109.6114075.6094109.1678925.5801-.5098075.7402-.1114075,1.0547,1.1543.916,2.7988999,1.1914,3.8847999,2.1659999.3965.3535.1348.9102-.0547,1.2754,1.2266.8652,2.6523076,1.5156,3.8847999,2.3866999-.0801.7266-.5742.7383-1.0547,1,1.0215.7987893,2.4472077,1.2149,3.4432999,2.0546999.7588.6387,1.083,1.9355,2.0537999,2.3300894.1044-.1523894.7978-1.4550894.5546-1.6640894-.2334-.2051-.7763-.0605-1.0546-.2226-.5596-.3321-1.6846-2.8027999-2.2207999-3.4409999-.3076-.3676-1.1845-.3696-1.5537-.666-.8573923-.6899-1.375-2.0897999-1.9999999-2.9984999-.0293-.041-.0663923-.207-.1093-.2222-.2266-.0845-.5118.064-.6660923.0562-.4355076-.0269-.914-.3887-1.1113076-.666-.7422-1.043-1.2793-2.3530999-2.3866924-2.9980999-.3906076-.2266-.9375075.0215-1.2773075-.2226-.4219-.3008-.7325-1.0274-1.0546925-1.4434-.6719075-.8706-1.4942075-1.6758-2.2754075-2.4413999-.209-.2051-.4688-.7109-.7207-.8335-.4198926-.2041-.791.3686-1.0547.5561-1.6934-.8471-3.0116999-2.9374999-5.5507999-2.8314999Z"/>
    <path class="cls-2" d="M110.3349972,30.8803992c.292.6190889,1.0839,1.6157,1.665,1.9424.5381.3036889,1.0811.3862,1.5547.7216.9697.6895,1.5771079,1.8887,2.5536999,2.5527999.8897.6054,1.8018.8457,2.5526999,1.5547.544.5135891.8164,1.4199,1.387708,1.8885891.241192.1973109.6113919.2188109.8886919.3868109.7813081.4765,1.3076,1.2031,1.832,1.9438,2.2910999-.3423,4.1298999-1.1255,6.3281998-1.6099-.8282-1.1699-2.1787999-2.0389999-3.3300999-2.8867109-3.8486999-2.837889-9.7236998-5.6483889-15.4325996-6.4940889Z"/>
    <path class="cls-7" d="M92.7929977,30.4350992c-.5723.0776-1.1035.3305-1.3867.7226.6816.354,2.8631999,2.1933999,3.6620999,1.9980999.2636-.0664.498-.5991.7226-.7769,1.3887,1.3237,2.5663999,2.9330999,3.8848074,4.3295889.1757925.185611.3593925.701211.6112925.7774109.1817075.0545891.2539-.0821.4434-.0547.539.0702891,1.4062.9022891,1.7207,1.2754.1933.2285,1.7949,2.4803999,1.832,2.4979999.5859.2538891,1.0508.123,1.5.4453.9336077.6641,1.2324,2.0331999,1.8867,2.9960999.3301.4863,1.4405.5566,1.8877.9453,1.2354,1.0664,1.2354,3.2597999,3.3310999,3.6073999.0566.0079.3008.0937893.4433.0547.9063-.2441-.33-1.2422-.3877-1.3867-.1171-.291-.0263-.5605-.1113-.834-.1991921-.6367-.8359-1.1972107-1.332-1.5527-.5694-.4102-2.1093999-1.0547-2.2196999-1.832-.0987-.6758.6962-.2715108.2216-.8335108-.1513-.1777892-.3232-.4047892-.5-.5551892-.9912-.832-2.2723999-1.353-3.3876999-2.0526999.0332-.3418.0899-.4297.2774-.7227-.7246-.6641-1.5391-1.3027-2.3866999-1.832-.6758-.4239-1.4317-.6797-2.0527999-1.166-.4101-.3199.1739-.8516.2227076-1.1641-1.3125075-1.0288-2.6602075-1.8496-4.1641075-2.7206999-.1992-.1172-.6367-.3711-.7773-.5552-.1817-.2397-.1485-.603-.3887-.7768-.7441-.5489-2.1796999-1.0206111-3.5526999-.834Z"/>
    <path class="cls-5" d="M105.8378973,30.3808992c-.3300923.0795889,1.082,1.332,1.332,1.665.7481,1.0005,1.8506,1.3305889,2.8876999,2.0531999.3867.2696.9737.8145,1.2207,1.2227.1299.2134.1543.554689.333.720689.3076.285111.8057.382811,1.166.611311.7881.4922,1.4541,1.1446,2.1093999,1.7754.1319.127.5.3281.5547.5.1084079.332-.0527.6524.1113.8887.1084.1548.3926.2168.5557.332.6445.459,2.4892999,1.6802,2.6084079,2.5546999,0,0-.089808.2227-.055708.332.125.3887.8203.3653,1.1661.2774.2158-.0567.3134-.0235108.5-.1109.2753-.1294.5878-.3442.887608-.4985-.0546081-.4082-.0986081-.8828-.333-1.1113-.2959081-.2886-.905208-.2364-1.166-.5547-.317408-.3867-.400408-.8965-.665-1.332-.172908-.2813-1.310608-1.5235-1.554708-1.6661109-.3818-.2225891-.5986.1016109-1,0-.4209-.1068891-1.916-2.144489-2.3310999-2.552689-.3193-.3144-.9296-1.0098-1.3877-1.111311-.2578-.056689-.5292.033211-.7207-.054689-.1162-.0547-.2334-.3027-.3339-.3887-.9922-.8359-1.8555-1.9687-2.8867999-2.7201999-.2949-.2153-.7539-.1733-1.1113-.3325-.4687-.2139111-.9257923-.7344-1.8867-.4995Z"/>
    <path class="cls-5" d="M97.9003975,29.9921992c-.5254.0376-1.1309.1762889-1.5.2772889,1.4727.6812111,2.2304999,1.8023111,3.3866999,2.7754111.9297075.7832,2.5663999,1.4781,3.2753999,2.4428999.4277.582.1172,1.0606.7207,1.554689.918.748,2.2343999,1.2109109,3.1093999,1.998.3574.3204109.2656.8716109.5547,1.2754109.2695077.3809.8457.5977,1.2226.8887.7686.5938,1.7256,1.207,2.4423999,1.8867.3174.3028.165.7754,0,1.1113.7149.6797,1.5156,1.2481,2.2763999,1.8868.2851079.2422.539.7988.8877.9433.1045.0449.2509.0782.3886.0572.043-.0098.1788079-.1431.2217-.1665,1.1055-.6836.877-1.0176.2783-1.8887-.3271-.4727-1.6455-2.3905999-1.9989999-2.6088999-.5625-.3442-1.124-.4868-1.5547-.9434-.9726-1.0278-1.6826-2.3846999-2.5526999-3.4964999-.418.207-.8535.2871-1.2773,0-.4258-.2891-1.5704-1.5118-1.8321-1.9434109-.2402-.392589-.3789-.998089-.7226-1.277389-.3633-.2968-.9805-.0522-1.3321-.2773-.4472-.2871-.7714-.9746-1.1093-1.3862-.5371-.6563-1.2286-1.2388-1.7773924-1.8887-.2754076-.3286-.4531075-.7798-.832-.9985-.4883075-.2827-1.4883075-.2827-2.2754075-.2222Z"/>
    <path class="cls-7" d="M102.2851974,29.8256992c-1.5157.0234-.086,1.603.2226076,1.9979999.0292924.0381.0800924.1275.1112924.1665.3477076.4458.793,1.0152,1.2207076,1.3882.1738924.1504.2851924.1885.4433924,0,.582-.6972.5918-.3144,1.0547.3325l.1113.0567c.1504.231889.2285.4394.3887.666.0547.0776.1035.1128.166.2222.25.4179.5879077.8379.8887,1.220689.2851.359411.7637,1.005811,1.166,1.220711.0996.0547.2773,0,.2773,0,.1172-.4253.168-.541.5547-.720711,1.208.980911,1.7657,2.5918109,2.7206999,3.8301109.4424.5722,1.1524.6015,1.7207,1.0546.5703.4517,2.0146999,3.2246999,2.4423999,3.3305999.2627.062.4531-.1157.7217,0,.2871.1211.3603.5171.8896.4429.4034-.0586,1.3819-.4707,1.0538-1.1089-.1143-.2251-.7344-.4692-.9434-.6118-.9434-.6426.1543-.7324-.277292-1.2754-.742208-.9317-2.0997079-1.273-3.0538079-1.9999999-.4051921-.3106.0664-.7066.1114-1.1094-1.0703-.6641-1.9970999-1.5098-2.9980999-2.2207109-.4072-.289089-1.2724-.621089-1.499-1.054689-.1514-.2929.0439-.5566-.166-.832-.1631-.2129-.6084-.3399-.834-.5-.7617-.5425-1.5527-1.1572-2.3300999-1.6655-.2969-.1939-.8476-.3404-1.0547-.6104-.1621-.21-.0195-.4736-.1113-.7768-.1816-.5899-2.0936999-1.4585-2.9979999-1.4434Z"/>
    <path class="cls-5" d="M127.1903968,90.8197977c.1739-.1504.4746-.541.4336-.7226-.1426-.5938-.0761-.7481-.3213-1.1504-.5458918-.8945-1.2646-1.8574-1.666-2.8866999-.3222-.8242-.5996-1.4903-.832-2.3866999.4111082-.2598.7021082-.5938.5557-1.3868-.0733-.3906-.4082-.7754-.5557-1.1093-.502-1.1289-1.457-3.6406999-1.54-3.7343999-.1983-.2246-1.0186-2.2050999-.96-2.4374999.0576-.2305.7226-.6348.375-1.0977-.3467-.4629-2.0224999-6.6503998-1.6475-6.3026998.376.3457,1.3301.9531,1.3301.9531,0,.3477,1.2149,4.6562999,1.3301,5.1171999.1152.4629,1.2148.5508,1.1269,1.4473-.0869.8945.0586,1.5605.0586,1.5605.045.0293-.0215,1.0781,0,1.127.3965.9258.8213,1.9765,1.0371,2.9217999.17.75.0157,1.5918.2774,2.2206999.2344082.5645,1.0234082.4532,1.165,1.1094.2881,1.3457.4698,2.6601999.7227,3.9413999.1142.586.0742,1.1856.2773,1.7207.2168.5762.7754083.4843904.999.834.5245.8163904.6397,2.6737999.9991,3.6640999.2363083.6504.7461,1.0801,1.0556,1.6074.1153.2012.0479.3828.2207083.834.2353917.6211.5673917,1.1465.7783916,1.832l1.2558,2.2128906c.4346.4336093.6641.2891093.8399.4629093,1.0703,1.0527,1.7089084,2.6015999,2.7333999,3.7636999.3662.414,1.2588.5175,1.7207.832.7881.5332,1.372,1.6133,2.2762999,1.9979999.3692.1583.8565086.086,1.2764.1661.6973.1308,1.3662.4648,2.3311086.3339.5741913-.0781,1.121-.5039,1.6092913-.666.9405-.3183,1.8457087-.4316092,2.6650999-.832.914-.4531,1.624-.4727,2.1092999.5547-.5106912.2715-1.1806,1.0273-1.9989999.8866908-.3564-.0604908-.3799-.4940908-.832-.4433908-.5811.0665-1.3476912.7403-1.8866912.9433908-.7989087.3027091-1.8262087.5137091-2.6651086.6113091-1.0654.1211-2.1590999.0821-2.9969999-.1113091,0-.6112908-.0303-.8788908-.4454-1.0546908-.8408-.3554-1.7421-.3222-2.4969999-.7207,0,0-2.8515999-1.4336092-3.1405999-2.1854999-.2881-.752-2.7460999-2.2558999-2.8906999-2.6894999-.1445-.4336093.0293-.8086093.2032-.9824.1728-.1738-.1739-2.6015999-1.7647-4.6542999-1.5898-2.0526999-2.5438999-4.8007999-2.5722999-4.9745999-.0293-.1719-.7226-.9766-.5498-1.127Z"/>
    <path class="cls-2" d="M136.7948965,77.1791981l.166.8887c.252.3475901.7705-.0059,1,.332.9688,1.4297,1.4414,3.7167999,1.8321,5.7187999,1.3017.4394,1.6103,2.7655999,1.9424,4.1620999.0625.2636-.0049.4785.1103.7226.0322.0664.7676.1797,1.0547.666.7969,1.3418.5781,3.7851999,1.9989999,4.4960904.0108-.0233905.1944087-.0467905.2217-.1112905.1719-.4277095.1064-.8457095.2227087-1.2754.1336913-.5117.6834913-1.041.666-1.6113096-.0284087-.8183904-.545-1.834-.7774087-2.5526903-.9765-3.0058999-2.3348999-5.5937999-3.4969999-8.3261998-.2471-.5801099-.6377-2.0175999-1.0547-2.3319999-.7158914-.5391099-2.7949999-.6153-3.8857999-.7774Z"/>
    <path class="cls-7" d="M125.6933968,77.245598c.0058.1895.0341.4395.166.8223.2324082.6777.5303,1.3144.7217,1.9433.0312.1036.2783,1.9414.2783,1.9414.3428.3125.7129-.2734.8877.168.166.4198902.0898.916.166,1.3867.1787082,1.125.4307082,2.3867999.6103,3.4980999.0752.4648.0176.8887.167,1.332.166.4960903.7461.1094.9444083.4434.1883917.3203.1688917.748.2762917,1.1113.2657083.9023.5909,1.9277.833,2.8300999.1114.414.087.8515.2774,1.2207.1601.3105.6992.3867.8887.7225905.6367,1.125.7558,2.6993094,1.332,3.8848094.4043.834.7441.6328,1.3877,1.1113.4726.3496,1.5869084,2.5566999,1.9979999,3.2187999.3926.6308.67.2969,1.2217.666.335.2246.5254.7870907.7774,1.1113.4785.6192,1.0878085,1.1327907,1.7207,1.6094.0957.0703.1318.248.2773.2773.377.0723.8965-.0742,1.2773.0547.8584.2891,1.7374,1.0723,2.9970999.666,0,0,.041-.1308.0557-.166-.6074-.416-1.0029-1.0742-1.6104-1.4433-1.2822-.7793092-3.0624999-.7305-3.9960999-1.8321-.3613-.4238.0157-.6308.1104-.998-1.0879-.8516-2.5858999-1.8887-3.2753999-3.1093999-.3057-.5429-.0762-1.3047-.2764-1.7754-.1357-.3125-.6718-.6211-.8886-.8886-.7686-.9512-1.5186-2.0098094-2.0537916-3.1640999-.0244084-.0527095-.0966084-.2617095-.166-.2773-.0234084-.0059.0478916-.2149.0546916-.2227.0723084-.1191.6494-.2891.7774-.332h.1113c0-.0723-.0313-.2168,0-.2774-.8163916-1.207-1.9921999-2.3183096-2.6093916-3.6659999-.5928083-1.291-.1133083-1.0098.7216917-1.4414-.3106-1.0195-.8984-1.877-1.3876917-2.7753999-.4512083-.8281-1.0742083-1.6914-1.4434083-2.5546999-.042-.0957.0049-.2793-.1113-.2773-.1015,0,.0557083-.0547.0557083-.0547.2147917-.625,1.0380917-.0723.7216917-.9434-.1661-.457-.4961-.8437-.6661-1.2773-.333-.8477-.8789-2.1231099-1.2548-2.6718999,0,0-.8955-2.4569999-1.1563-2.8339999-.2598-.375.1152-.86721.1152-1.3574,0-.4922-1.5615-3.2675999-1.7626918-3.4413999-.2031082-.1738-1.7636081-.6934101-1.8798081-.7813-.1153-.0859,1.0537,4.2070999,1.2724,4.4531999.6934082.7812,1.1494082.7754,1.1856.9531.1152.5781.1269,2.4862999.1504,3.1366999Z"/>
    <path class="cls-5" d="M133.464805,75.7358981c.3798916,1.0234.794,1.9492,1.3320916,2.8319999.164.2695.6416.6367.7207.9433.0732084.2832-.3272,1.2305-.2217.9981,0,.0078.0068.1641,0,.168.3125.5566,2.8397999,5.2577999,2.7763999,5.6053999-.0284.1387-.4394915.4336-.5557.5.4824.9649,1.0479,1.8847903,1.6104,2.8300999.164.2793.5087.6289.6093.9453.1328.4219-.3007.6797-.166,1.0547.0977.2715.4951.4941.666.7206904.5049.6719095.959,1.3594095,1.4991,1.9981095.2031.2421.6494086.5507.7773.832.2402.5332-.3223.6523-.2773,1.0566.0341.3262,2.0721999,2.4804999,2.4422999,2.7187999.2422.1562.877.3652.9434.666.0732.3398-.1699.623-.2772913.8887.5770913.4101,1.2313913.7226,2.2206913.7226-.2969-.7031-1.0362-1.4551-1.3886913-2.2772999-.2647087-.6172-.4561087-2.0390999-.832-2.4980999-.3555087-.4336-.9327087-.705-1.2774086-1.166-.9141-1.2148-1.4023-2.7362999-1.8877-4.3847999-.333-.0527-.8838-.2734-1.0547-.6093-.1971914-.3926-.1836-.877-.2763-1.334-.211-.9961-.4776-2.0858999-.7784-3.1073999-.2684915-.0625-.7002-.1758-1.0546-.2227-.2295-.7832097-1.2022-5.4432999-1.4981-5.6620999-.1094-.082-.2567915-.0039-.3887-.0547-.2656-.1055-.6416-.5879-.7763-.832-.3457-.6231-.3946-1.3906-.7227-2.0546999-.3174-.6406-1.4619-1.0176-2.1640916-1.2773Z"/>
    <path class="cls-5" d="M127.9130968,72.2299982c1.5029,1.8516,1.6758,3.2440999,2.3309999,5.1718999.4122,1.2148.6739,2.4432999,1.2217083,3.5526999.1923917.3906.6327917.1445.7773917.4434.1699.3534902.1299.7793.2216083,1.166.3212916,1.3534902.6015916,3.1093999,1.1113916,4.4413999.1552.4082.6562.4687,1.1094.5547.3125,1.5312.4345,3.2147999.999,4.5526999.2187.5195.914.4551,1.1103.9434.6641,1.6542905.9229085,3.2831999,1.7764,4.7167999.2187.3691.8779.3183,1.1103.7226.2715.4727.3282085,1.043.5547,1.5547.2051.4629,1.2823,2.0155999,1.666,2.4413999.4434.4942,1.3321.2461,1.8311.6113.4287.3124907,1.4111,1.3789,1.8877,1.4981,1.1523.289,3.0614999-1.2129,3.4413999.2773-.5361.5098-2.8290999,1.3496-3.7743999,1.0547-.2168-.0664-.7998-.8281-1.166-.998-.8232914-.3848-2.0468999-.3477-2.7197999-.8887-.3203-.2578.0567-.9707-.333-1.332-.5869-.541-1.6014914-.6055-2.1649999-1.166-.2432-.2403-1.8057-2.0546999-1.832-2.2207999-.083-.5058.415-.6699.2216-1.1093-.1200915-.2754-.5839-.4922-.7763-.7227-.8496-1.0097-1.6445-2.0526999-2.4433999-3.1073999.0283-.0664,0-.2051,0-.2793.3408-.0898,1.0498-.0547,1-.5547-.0643916-.6211-2.4266999-3.5214999-2.8866999-4.4413999l.0557-.2754c.3369-.039.458-.0781.666-.168-.1923916-1.7148-1.2891-3.1913999-1.9980999-4.4959999-.0996-.1797-.3838-1.0118-.5556-1.0547-.1231-.0313.1113083-.2227.1113083-.2227.3446917-.4726.5233917-.6484.2772917-1.3867-.5878-1.7598098-1.5791-3.3671999-2.4422917-4.9394999-.1993082-.3632-1.1846082-2.5428999-1.2559082-2.9803999,0,0,.0576-.2891.1445-.8672s-1.5039-2.8047101-1.705-3.0644999c-.2032-.2597,1.2138.1446,1.6474082.4336.4335918.2891.7226918.4336.7226918.4336l.0576,1.7051Z"/>
    <path class="cls-7" d="M128.468805,71.4623982c.4784917,1.0313,1.0936917,2.0507999,1.498,3.1640899.3007917.82611,1.3427917,4.6816099,1.7772917,5.0508099.2168.1836.7286.0898.8877083.3339.212.3222901.1708916.8829.2773916,1.2754.417,1.5547.7529,3.1523999,1.165,4.7734999.8867,0,1.0449.1582,1.333,1.0566.3965,1.2383.1748,2.9159999.7764,3.9960999.2051.3672.8125.2813,1,.7206904.5029,1.1875095.791,2.5762095,1.2207,3.7207095.1025085.2715.0693.5449.2227.7754.1923.293.6445.0176.8877.2227.2089.1738,1.124,2.3065999,1.333,2.7206999.3379.6777.6757,1.2656,1.0546,1.8867.4385086-.0606.8545086-.0879,1.1651.1113.6269.4024.9072,1.2304907,1.5547,1.6641.7734.5215,3.1180999.541,4.1630999.0566-.0401-.0898-.0069-.1836-.0557-.2773-.4648-.8868-1.2598-.3516-2.2763999-.6114-.6532913-.166-2.5966999-1.3261-2.7196999-1.8867-.1395914-.6347.5605-.4785.167-1-.7705-1.0176-2.0390999-1.6855-2.6640999-2.8300999-.2754-.5-.0644-1.2011-.2783-1.7207095-.1055-.2557905-.4883-.5116905-.666-.7225905-.5674-.6719-1.2246-1.4004095-1.665-2.1640999-.2315-.3965-.3536-.7402-.4991-1.2207.1709085-.1191.4873-.2305.4434-.5547-.04-.289-.5224915-.75-.666-1-.503-.8691-.9893-1.6816-1.4434-2.5526999-.043-.084-.1299-.2949-.2217-.334-.0195-.0078.1084-.166.1114-.166.2158-.3887.4677-.8066.2216-1.3887-.2001-.4687-.6748-.8105098-.9443-1.2207-.3154-.4824-.4072-1.1269-.7207-1.6094-.2246-.3437-.6045-.6582-.7773-1.0546-.2559-.5782.1015-1.295.0547-1.7774-.0459-.4785-.753-1.1328-.9434-1.6094099-.6777-1.67959-.9717-3.47849-1.9980999-4.7733899-.1494-.1875-.2998-.2969-.5546-.3887-.4903-.1797-.9004-.2812-1.4444-.4433-.2334-.0723-.4336-.1739-.7762917-.2227Z"/>
  </g>
  <polygon class="cls-4" points="148.8144962 122.5268969 120.9882969 76.2729981 128.6542967 76.2729981 128.6542967 52.1713987 82.3378979 52.1713987 82.3378979 76.2729981 90.0019977 76.2729981 79.369098 93.9428976 68.7401983 76.2729981 76.4042981 76.2729981 76.4042981 52.1713987 30.0878992 52.1713987 30.0878992 76.2729981 37.749499 76.2729981 9.925805 122.5268969 0 122.5268969 0 146.6283963 47.235805 146.6283963 47.235805 122.5268969 38.749499 122.5268969 53.2455987 98.4311975 58.8651985 107.7748973 53.4760986 107.7748973 53.4760986 131.8764881 105.2616973 131.8764881 105.2616973 107.7748973 99.8749975 107.7748973 105.4940973 98.4311975 119.989297 122.5268969 111.5038972 122.5268969 111.5038972 146.6283963 158.737296 146.6283963 158.737296 122.5268969 148.8144962 122.5268969"/>
  <path class="cls-6" d="M125.5624968,55.2572986v17.9247995h-10.0390997l31.5458992,52.4365987h8.5829998v17.9198995h-41.0594911v-17.9198995h10.8602918l-19.9589995-33.1796992-11.0838997,18.4257995h7.7616998v17.9217995h-45.6093988v-17.9217995h7.7675998l-11.0844997-18.4257995-19.9608995,33.1796992h10.8612997v17.9198995H3.089805v-17.9198995h8.5800947l31.5463992-52.4365987h-10.0370997v-17.9247995h40.135299v17.9247995h-10.0390997l16.0936996,26.7529993,16.097707-26.7529993h-10.0391072v-17.9247995h40.134799Z"/>
  <path class="cls-3" d="M215.9901945,138.5522965c-.0019-.0235-.0322-.1719-.0556-.1661-.0166-.4179-.0352-.5859-.1114-.9433-.0048-.0195-.041-.1895-.0556-.2793-.0313-.1856-.0937895-.4492-.166-.666-.0196-.0567-.0703-.1446-.1123-.2774-.7012-2.1542999-2.2363999-3.5917999-3.3290999-5.3280999-1.1661-1.8516086-2.2285999-4.0116999-2.9980999-6.1620998-.6416-1.7891-1.1699-3.7167999-1.5547-5.7167999-.249-1.2949-.209-2.5605999-.3885897-3.9413999-.254-1.9375-1.1231102-5.0194999-2.1641102-6.2167998-.1221-.1406-.3057-.3281-.4434-.4453-.0547-.0449-.1777-.1387-.2236-.166-.0947-.0586-.1895-.0469-.2764-.1114-.0488-.0351-.1201-.1933-.167-.2226-1.7343-1.0156-4.5721999-1.1309-6.6610998-.3321-.9297.3536-1.707,1.2968908-2.94239,1.2774-.7558099-.0137-.0576099-1.0684-.7217099-1.0547-.3134.0039-.7666.4511908-1.0537.5547-1.1347.4062-2.7811999.8516-4.1630999.5.1407-1.2774.3672-2.6112999.7764-3.6640999.3057.1425908.4072.2168.6113.4434.1553.1777.6534.7637.8877.334.1817-.3379.1592-.7403.2774-1.1114.4805-1.5253.9697098-3.3065999,1.2207098-5.0506999.1112901-.7813-.0039099-2.1699999.2772901-2.8300999.1133-.2676094.5078-.2207.7217099-.3887.4120901-.3281.833-1.0527,1-1.6113.4862901-1.6485.6103901-3.4569999.6103901-5.6054999-.002.0098-.1563-.2226,0-.2226-.085-.5684-.2969-1.8145096-.0547-2.3320999.2656-.5761,1.9267-.3164097,2.4413999-.666,1.4336-.9746,3.3983999-4.1347999,3.9969999-5.9940998.2784-.875.667-2.2968999.4434-3.4413999-.2392-1.2325-2.0917999-2.2695999-1.4424-3.8867999.2237-.5625.916-1.121,1.2774-1.6093.8437-1.1465,1.5449-2.3476999,2.2753999-3.6073999.2382-.4141.7041102-.9141.8886-1.3321.2823-.6601.5684-2.2948999.4434-3.2206999-.0195-.1367-.1895-.3847-.167-.5547.0527-.4062,1.6924-2.5057999,1.9989999-3.0526999,1.7129-3.0742104,3.8075999-8.7812998,1.9414-13.3222997-2.1337999-5.1932999-8.2245998-6.8021998-12.8768997-9.4921998-.4649-.2695-1.1358-.6108-1.3321-1.166-.914-.0195-1.2109-.9043-1.8877-1.2768-.5019-.277911-.9715901-.3384-1.4433-.610911-.8721-.5048889-1.6807-1.2157889-2.6640999-1.6102889-1.4481902-.5801-3.6512999-.2461-5.0516999-.5547111.0468-.6698889.2568-1.9301888.166-2.7196888-.0586-.4981-.3223-1.1455-.2774-1.7217.0372-.481.4649096-.7276112.833-.8867.045-.5957.1231-1.2842.0557-1.9429112-.4131-4.0175886-3.1190999-8.0648885-6.0507903-9.5478885-.7382095-.3745-1.6513095-.7236-2.5537094-.8877-.9131-.1684115-2.1337999.1402-2.6639999-.3886.2295-.6504.8261-.6602,1.165-1.2217.1191.0845-.0547-.2217-.0547-.2217-.7109-.0581-.7305-.2856-1.1103-.6118.4736-.3354.9921-.644,1.333-1.1089,1.0869-1.4941,1.2793-4.7255999.2216-6.4393998-.1103-.1778-.1953-.4004-.333-.5547-.1084-.1192-.2734-.2188-.3886-.3345-.1494-.1465-.295-.3003-.4444-.4429-.0771-.0732118-.1963-.2148-.2783-.2773-.7715-.5977-2.8856999-1.0625-3.9960999-.666-.5273.1855-.8301.6386-1.6094.666-1.1084.0342-2.3524999-.5156-3.3866999-.7774-.0537-.4726-.0918-.7841-.1113-1.2773l-.166-.0547c-1.0370908.7314881-2.4071999,1.1211-3.9960908,1.332-.630909.0811-1.132809.0528-1.666.2217-.473709.1475-1.045909.4043-1.443409.6665-.183591.1177-.418.5591-.6103.6094-.487291.1274-1.0704-.4019-1.4434-.4985-.6172-.1631-1.3623-.2237-2.1093999-.1675-2.0604911.1528-3.9716999.686-6.1610998.3887.1904.4126.3262.602.4434,1.1108-.4581.2158-1.1133.2973882-1.6094.499-.8057.3233-1.5371.9443882-2.4423913,1.166-.6279086.1523882-1.3731086.023-1.8877086-.1113,0,0,.1025.1621.0557086.167.2684914.2568.6102914.417.8885914.6665.6914086.6196-.1805914,1.436-.8885914,1.6099-1.1573085.2812-2.3262085-.2852-3.2745085-.3887117-1.8896-.2108883-3.3084915,1.1094117-3.9969999,2.1641117-.1319.1992-.1582.3984-.2774.6113-.0683.1172-.2207.2392-.2783.3887-.039.0996-.0957.2714-.1113.332-.335,1.1767-.1348,2.7245999.2773,3.6635999.377.8618,1.0557,1.6235,1.833,2.1092885.084.0533115.1748.1763115.2774.2227115.6904.3184,1.3408084.4434,2.3866999.4434.165,1.2187-.6748,2.1087999-1.0547,3.0541999.6992.2119,1.5127-.1221,2.2763999.0556-.3184.9917-1.2393,1.3804-1.5547,2.2206999-.1582.416.2187.5703.3887.8877-1.3301,1.7564-2.8173999,3.8598999-2.8867999,6.8266887-.038,1.5688111.1182084,1.1147111,1.0547,1.2217111,0,2.6087999.9473,4.2352889,1.7764,5.9950998-.501.1581891-1.0771.416-1.5547.5551-1.3476.3887-2.5477999.607-3.8847999.9996-.4375.1269-1.1728.7148-1.7207.6093l-.247.168s-1.1553.5254-1.4746.6099c-.3184.0854-2.8915999.7202-3.4120917.9526-.5206082.2305-2.7832081.6104-2.9034081.5889-.1201-.0235-1.4687.7724-1.5664.9013-.0986.1289-.7158.4834-1.207.5127-.492192.0293-1.3486.8882-1.4356,1.003-.0869.1152-.2607.8105-1.387592.8105-1.128,0-1.4747079,1.1562892-1.5606079,1.2129-.0879.0586-.5303.7383-.96.8457-.4287.1099-.9492,1.6704-.9775,1.7852-.0293.1171-.0146.3261-.3545.3808-.3389.0528-.8017.9785-.9756,1.3828-.1737922.4063-.2987922,1.0137-.4667922,1.1153-.1699078.0995894-.4297078,2.6151999-.1982078,3.3671999.2314.7519.2725,1.1972.3183,1.33.0459078.1309.375.7793.4336.9239.0577.1444896.7803078,1.5039,1.1846,1.707.4053.2012,2.1689999,1.2422,2.4287079,1.4453.2607921.2031.4335921.6641.520492.8965.0869.2305,1.3877,2.4862999,2.2265999,3.0057999.837908.5215,1.2725,1.4454,2.0526999,1.879.7813.4335,2.6054999,1.8768898,4.7442081,2.4862999,2.1366918.6074,3.6395917,1.8808,3.8426917,1.9668.2022.0859,2.1679999.6933,2.4570999.7812.289.086.8095,1.1563,1.0693,1.5899.2608.4336,1.1279084,1.7343,1.793,2.0233999.665.2891,1.417.78129,1.5332.8106.1142.0273.664.4043,1.8203.5488,1.1562.1445,3.1806999.4336,3.5565999.7226.375.2891.7227,1.6192.8379,1.9082.1162.2890901,1.6485,3.7871999,1.9950999,4.5683999.3467.7793,1.8789,4.5956902,2.1396999,5.4335999.2607.8398.4043,1.5918.1728,1.9082-.2304.3184-.6933.9258-.6933,2.1405999,0,1.2149.0869,2.1972905.2021,2.7167999.1162.5214905.3467.6367.6368,1.9668.288,1.3301,1.249,1.7168,1.5058,2.6659999.2568.9473.9512,1.1504,1.0098,1.2364.0566.0879.164.2988.2109.539.0488.2422.5401,2.3515999,1.4942088,3.0761999.9540911.7227,1.3583911,1.4453,2.457,1.791,1.0985911.3477,1.5907911.4629,1.6483911.6074.0576089.1446.6231,4.1464999,1.3008,5.2910999.4629.7812.4805.7773,1.093809,1.0019,0,0,.699191-.0195,1.017491,2.2069999,0,0,.2676.7383.4258,1.0684.5742,1.2187,1.9688,3.4940999,3.1083999,4.1093999.3975.2128912.5459-.0801088.7217-.3887.0019,0,.2461.0859.166.1094.1387.2401912.3008.4843.4443.7226.75,1.2403,1.7227,2.4550999,2.9423999,3.2187999.418.2617.9453.3633,1.3321.666l.0556.0566c.3574.9551-.7997908,4.2460999-1,4.9960999-.1133.418-.1299.7325-.2217,1.1640914-.1406.6484085.2149092.5137085.833.3906085l.1114.2753915c-.9784908,2.6406085-3.2890999,6.1816084-1.5547,9.6035083.8877,1.7539,2.6669999,3.1269999,4.6073999,3.8300999,1.4942.543,3.4433999.8242,5.5518093.668.8104905-.0625,1.7020905-.168,2.664-.0567,4.6347904.5332,8.2792903,3.8730918,13.5995901,2.6640918.9161-.209,1.6387-.8710919,2.4424099-1.1093919.5995901-.1797,1.16209-.1094,1.72069-.2773,1.4658-.4473082,2.7851999-1.4414,3.6083999-2.5546999.2949101-.4024.374-.9043.666-1.332.1582-.2325.4336-.4317.5547-.7207.1485-.3614.1211-.7129083.333-1,.335-.4571.6963-.1114,1.1104-.0547.5947.0781,1.2129-.1075,1.7773.0547.7539.2167,1.3496.7812,2.2753999.8886.791.0899,1.0635-.4004,1.7754-.332.6406.0586,1.2617103.4844,1.8311.6094,1.7031.3690917,4.4432999-.7071,4.9960999-1.6641.2236-.3887.2304-.834.3339-1.334.0616105-.3086.1202-.7578083.167-1.166,0,0,.0225-.6641,0-.998ZM185.0712953,131.8920967c-.2481-.4473.2617-.2305.2217-.7227-.0313-.3593-.4511903-.875-.5547-1.2226-.1699-.5625-.2051-1.0274-.2774-1.6641-.0644-.5488-.1982-1.6992087.0547-2.1639999.1953-.3614,2.7792999-.8047,3.4980999-.834.8164-.0332087,1.8047.1172,2.3301098.4453.4461902.2773.7811902.9199,1.1112902,1.332,1.666,2.0761999,2.8447098,4.4101999,4.1073999,6.9374913.3779.7598085.9219,1.5957085,1.1094,2.3887084-3.5517999-.3965-10.33209-2.2207084-11.6005997-4.4960999Z"/>
  <g>
    <path class="cls-2" d="M180.1308954,127.0053968c-.6436.0957-1.4883.3789-2.2206999.4453-2.8261999.25-5.8535999.4102-7.7158998,1.6641-.4921.33-.8271.7734-1.0546,1.3886.2294-.0488.4072-.0742.7216-.166.2569.5879-.1054,1.4063-.333,2.0526999-.4131,1.17-1.1014907,2.1425999-1.5547,3.2187999-1.663,3.9452999-.8769,6.5526998,2.1093999,8.4940998,2.8056999,1.8223,7.7353998.7696,11.6025997,1.6094,3.0106999.6543,5.9286999,3.1366999,9.9354997,2.0546999.4785-.1309.957-.5273,1.332-.7773,2.9208999-1.9649-2.5126999-4.7089999-3.2753999-5.7187999.0127-.0117.1084-.2695083.1123-.2773.3663.0487917.6553.0937.9434.1679,1.3252.3418,2.3174098,1.1075,3.1630999,1.9434,1.0537,1.0371.7568,3.7401999,2.8866999,2.8300999.4619-.1992.8203-.3125,1.166-.6114,1.2774-1.1093.1201-2.5233999-.6103-3.3299999-.0742-.0801-.1455-.2012083-.2217-.2774-.0733-.0742-.209-.1445-.27739-.2226-.06831-.0762083-.09961-.2012083-.16791-.2774-.0567-.0644-.2158-.1074-.2774-.166-.34569-.3398083-.7939-.6426-1.166-.9434-.1152.1015916,0-.2773,0-.2773.999,0,1.6963099.0878916,2.2773999.498.7216.5137,1.1045,1.5782,1.8867,1.9980999.2148.1172.3349.0507917.5556.0566.335-1.1406-.623-2.4901999-1.2763-2.9413999-.7022-.4863-1.5498-.664-2.3876999-1-3.1269999-1.2617-7.0644998-1.7949-10.1025997-3.2186999-.9316-.4375-1.789-1.3672-2.4432999-2.1093999-.6856-.7773085-1.9668-2.2811999-1.5537-3.5526999.2968.1093.583.3183.8886.4433-.4033-1.3203-.9335-3.3007999-2.9422999-2.9979999Z"/>
    <path class="cls-2" d="M187.0146953,98.3627975c-1.3624.1016-3.1249999.4844-4.1640999,1-.8623.4238-1.6963,1.1836-2.5536999,1.6641-1.5762.8808-3.1689999,1.5957-4.8847999,2.3319999-1.4307.6133-2.8768999,1.4668-4.4403999,1.9414.0332.0273.0088.1875.0556.2227.1338.1034908.3575093.1444908.5.2226.1553.084.3545093.1348.3321.3887-.003.0293-.044.1699-.0557.1113-.0703.0645-.125.25-.2217.2774-.3379.0879-.8593-.1446-1.166-.1661-2.5428999-.1914092-4.9784999.4981-7.2157998.9434-1.5479.3047-3.0517999.3848-4.1083909,1.166-.592809.4356-1.042,1.1426-1.165,2.0527999-.074309.539-.041109.998.444291.5566.498-.457.4336-1.1816,1.054709-1.5547.6210909,2.4394909.474591,7.9101998,2.2196909,9.0468998.1602-.8262.3115-1.6797.666-2.3300999.1133091-.209.3604-.5684.5557-.2227.4892.861391.626,1.92.999,2.8300999,1.0498,2.5605999,2.6230999,5.0781999,5.5517999,5.7734999.4726.1113.998.3925,1.7207.2773.7461093-.1191,1.2871093-.625,1.9424-.8867v.0547c.3037094.1504.1025.8672.0556,1.2207,0,0,.3145.0566.0547.0566,4.8280999.7149,8.8925998-.8105,12.9345997-1.5547,2.1991999-.4062,4.3065999-.7207,6.1610998.1114,1.2861.5761,2.2187999,1.6211,3.1650999,2.5526999.2373.2344.5146099.457.666.7773.1054.2227.0205.2442,0,.4434-1.0137.4120913-1.1143-.2695-1.8877-.6094-.3711-.164-.4726901.0508-.4991.0547,2.7470999,2.6171999,3.3701999,7.1816998,5.6054999,10.3261997.5401.7578,1.4365,1.2969,1.9424,2.0526999.2598.3867.4063.7383.833.9434.2354.1133.5,0,.5,0,0,0,.041-.2324,0-.3887-.2812-1.0547-1.1142-1.5-1-2.9413999,1.1543.2344,1.044,1.3105,1.6113,2.1093999.5743.8105,1.4082101,1.7695,2.3300999,2.2206999.4531102.2207,1.1524.3261,1.6651102.166.8387897-.2637-.6309102-2.2245999-.8877102-2.7753999-.3409-.7344-.5987-1.4004-.7774-2.2753999.2285-.1621.2705-.1797084.6104-.2773.9257102,1.9921999,2.0370999,3.5487999,3.5537102,4.9393999.2587897.2383.5477897.6991917.8876897.834.4638.1797,1.4609.0801,1.8877-.0566,1.6914-.5508,2.4432999-2.5234999,1.6084-4.4413999-1.6777896-3.8476999-4.8857896-6.4804998-6.3827896-10.4355997-1.5674102-4.1386999-1.4639102-9.8515998-2.9424102-14.0448996-.3399-.959-.5977-1.8887-1.2207-2.5526999-.1534-.1641-.2744-.3555-.4444-.4981-2.9745999-2.5077999-7.0350998.9258-9.7694899,1.4981-.9307099.1933-1.0879099-.0489-1-.7774.0097901-.0781-.0547099-.334-.0547099-.334-3.4774999,1.0567-6.7343998,1.8926-9.3251998-.666-.251-.248-1.3525-1.4414-.7217-1.7754.1973-.1074.417-.1172.6661,0,.5361.25.8779.8867,1.6093.9434.543.041,1.8741-.3281,2.1093999-.666.2852-.4141.2773-1.1094.3897-1.6661.2705-1.3769.5683-3.0409999.999-4.3281092.3476.0528093.7314.1524093,1.0547.3887093.2656.1934.3515.293.7216.4434.3194-.6172.8164-2.3222999.5538098-3.3301093-.2305098-.8847906-2.0391098-1.4863906-3.3291097-1.3886906Z"/>
    <path class="cls-2" d="M199.336895,76.2690981c-.5596,1.3222-1.543,3.3377999-2.49709,4.2752999-.75481.7383-2.2519099,1.3067-2.6093099,2.3867999-.252.7519.0205,1.2441.5,1.5547,1.5234.9843,3.8534999-2.7246999,4.2733999-3.8300999.4688-1.2442.7666-3.0214999.333-4.3866999Z"/>
    <path class="cls-2" d="M196.671895,71.5522982c-.5137.1151899-.4102.8378-.499,1.3867-.0762.4726-.1065,1.3672-.33309,1.7773-.22461.3965-.916.6504-1.2207099.9981-.5341.6035-.9432901,1.4824-1.5546,1.9979999-.7803.6563-2.2880999.9629-1.9990999,2.4980901.0752.3984099.2002.7675098.4453,1,.3038.289.792.4941098,1.3321098.3886098.8563901-.1699,1.2665901-.7695,1.831-1.2207,1.78229-1.4316,4.07519-3.9374999,3.44239-7.3280998-.15139-.8047-.3076-1.75781-1.4443-1.498Z"/>
    <path class="cls-2" d="M193.674805,68.4994881c-.5293099,1.1367101-.8652099,2.1114101-1.6094099,2.9961101-.834.9883-2.0487999,1.877-2.5536999,3.1640999-.3476.8847-.2285,2.1073999.4444,2.5546999.167.1113.5283.3535.833.2773.1435-.0391.4189-.4004.5547098-.5,1.3045901-.9648,2.4911901-2.1972999,3.164-3.7753999.5653901-1.332,1.34959-4.71681-.833-4.71681Z"/>
    <path class="cls-2" d="M161.0360959,2.5522999c-.9892.0903-2.3456999.4379-2.9979999.9438-.415.3203-.9609,1.2871-1.499,1.3882-.615291.1128-1.1885-.666-1.666-.8325-.461-.1612-1.0538-.2139-1.6651-.167-.8115.0586-1.8271.1346882-2.4970999.3886-.2246.084-.5283.3926-.7226.4444-.543.1406-1.0401.0005-1.5537.1103-1.2119.2553882-2.2294999.9443882-3.4970999,1.2773882.0273087.1543117.1182.6484117,0,.8887117h-.0556913c-.2031087.0996-.3867087.3437-.6103087.4432883-.543.2402117-1.0635.2774117-1.499.6113117-.4151.3125-.5166.9532-1.0546914,1.1661-.0489086.0165883-.167.0542-.167.0542-.8438086.2523883-1.6035085-.2261-2.2754085-.3326117-1.6602-.2650883-3.4862999.2447117-4.0517999,1.2759116-1.5927,2.8988999,1.3125,6.6029998,4.1074999,4.6630884.9882-.688-1.2627-.5785885-1.6104-.7216885-.2128915-.0874-.1875-.1152-.332-.2212.2724-1.0425,1.0156-.1577,1.8867-.4443.4648-.1543.6768-.9058116,1.1103-.999.9161086-.2012.5713,1.3803.5,1.8877-.1572,1.082-.6386,3.1615999-1.2763,3.7181999-.0733.0606.0547.1665.0547.1665.2324-.1172114,1.291-1.1411,1.499-.4995.3467086,1.0737-.4062914,2.8329999-.5,3.5531999.2793-.042.6435-.0942.8877086-.1113.7772914-.06.9618914.0049,1.166.5557-2.4854086,1.7304-4.5137085,3.5990999-5.3848085,6.9379998.2627-.0157.6026-.0674,1-.1114,0,.0337-.0234.2647,0,.2784-.4248,2.1835999-.3506,5.0287999.6104,6.6053998.0088.0157.1015.041.1113.0552.1211085.187.1856.2944.2774,0,.4736-1.5317.6035-2.0707999,1.4433-.3892.6367,1.2779,1.0713,2.6157999,1.832,3.7753999,1.8047,2.7577999,5.0957999,4.6659999,8.9921998,5.1620999.6836.0879,1.4912088.0533,2.1650999,0-.166-.8003-.1738911-1.5429.1103-2.1639999.6319.5117,1.1328089,1.2265,1.833,1.664,2.0498089,1.2872,4.7178089,1.6744,7.3828089,2.3886999.5146909.1367,2.0273908.8692,2.4423908.832.3867-.0371,1.4932-1.7519107,1.8867-2.0545999,1.2129092-.9375,2.5205999-1.6231,3.6630999-2.6074999,1.9287-1.6679,3.7118999-3.8768999,4.9413999-6.2181998.3789-.726611.6221-1.578611.9981-2.2758999.7861.2305.623.707,1.1103095,1.166.1542905.145.2275905.1738.3886905.0552.46-.3423,1.46-2.3363999,1.6104-2.9975999.1591-.7075.1455-1.3359.3886-1.8877.4561.2266.7911.5386,1.1661.666.3183-2.1616111-.504-3.8119999-.8887-5.4388999-.0645-.2681-.041-.834-.2227-1.0005-.1269-.1172113.1114-.3315.1114-.3315.5097-.0801,1.0595.0048,1.499.0546-.1709-1.5415-.6747904-2.7025999-1.1651-3.8851999l-.0566-.1113c-.5059-.9273-1.9736-3.1328999-2.7753999-3.6079999-.8408-.4995-2.1952999-.6889-3.3856905-.7778115-.8243094-.061-1.5635094.169-2.2764094,0-.5147-.1224885-1.0391-1.0707885-1.2764-1.499-.5088-.9096884-1.039-1.6625884.2783-1.9980884-2.3075999-1.6308-1.4453-2.4090999-2.4989999-4.9389116-.1386-.334-.4794907-.6347883-.665-.9443883-.4932-.8173.3203-1.0693.832-1.3877.2422-.1523.4356-.5141.7217-.6113,1.4209-.4902,2.7040999.3711,2.8310999,1.4995,0-.0053.0673.2358882.0556.3326-.1084.7578-.6865.0585-.833-.1661-.0723-.1113-.251-.1797-.333-.2773.0654-.0156-.2773.0546882-.2773.0546882.248.4253117.4111.5815117.2773,1.166-.5605.1289117-.7393-.1815883-1.332-.333-.2744,1.1904117.3994,1.9097117,1.6093,1.5537117,0,0,.3702.0254.5.0566.043.6055-.1005.7071-.5.9981-.2568.1855-1.2959,1.1367-.0556.8882.9824094-.1968,1.5635-1.5542,1.7763-2.5522999.4981094-2.3558999-1.1757-4.8221999-3.6629999-4.2186999-.7715.1855-1.7002,1.0888-2.4980999,1.0542-.2987908-.0132-1.249-.8638118-1.7207-1-.8418-.2437-1.9862999-.3179-2.8309999-.3321-.3907-.0073-.835.1626-1.2207,0-.2588-.1088-.1358-.3847118-.6661-.3339Z"/>
    <path class="cls-2" d="M154.4296961,67.4994881c-.5977.0117102-1.6308911.2774102-2.0536999.5547102-1.6983,1.1016-7.1962998,7.6269998-5.8837999,10.7694997.8789,2.1074999,4.0986087,2.2187901,4.8290999,4.4960999.165.5156902.0976,1.3008-.666,1.1094-.4014-.0996-.5694-1.1816-1.3877-1.4433-1.168,1.6035.9472088,5.0877999,3.1639999,4.2186999.1748-.0684.4698-.3594.6104-.5,1.54-1.5371097,1.6269-4.2577999,1.9979999-6.9921998.3506,0,.5538089-.0508.7217.2774.3125.6132.2617,1.7753.167,2.6092999-.0908.7735-.3955,1.6093902-.6103,2.2753902-.3077.9414097-.8565,1.7149097.832,1.4981097,1.4678-.1895,2.4686999-2.5058999,2.6649999-4.0527999.0957-.7617.0049-1.6972.276409-2.2753999,1.4472909,0,.389591,3.5136999.389591,4.6074999.2129-.0938.1905-.0567.3331-.166.2011-.1563.442309-.4922.5546-.7227.1748-.3594.2256-.6953.3331-1.1094.0312-.123.1406091-.3867.1669-.5.2559-1.1406.586-2.2577999.6661-3.4960999.2841-4.4764999-3.0361999-7.1268998-5.1620999-9.4922099-.3887-.4335898-1.2286-1.6815898-1.9434-1.666Z"/>
  </g>
  <g>
    <path class="cls-3" d="M137.5546965,10.2123997c1.1142-.1792,1.6133.4458,2.7753999.4458,0,1.5352-.4014,1.4395-1.4434,1.0537-.2558.4355884-.2373.6851-.833.667-.0303-.2265.0244-.4101-.0547-.6113-.0244-.0606-.2158-.0957-.2217-.1118.1172-.0249-.4257.0439-.7783.3886-.2558.2486-.3691.4375-.4433.8892-1.4893-.1186.2617-2.6015999.999-2.7211999Z"/>
    <path class="cls-3" d="M144.9081963,29.3568993s10.3749997,1.771,12.5986087,10.0117997c0,0,.253891.5273,1.285191.3657,1.0303-.1602,3.5311999-.5171,5.3202999-1.7427,0,0,.4287-.4053,1.294-.2207.8662.1846,2.4227999.5254,5.1971999-.75,0,0,.6201-.001511.7451-1.1309,0,0,.6465-1.4189.6563-2.1419999.0098-.7251.4394-4.330611,1.2744-5.8256999,0,0,.8662-2.1196999,3.5810999-4.4482999,0,0,.5234095-.4257.8984095.4873.3778905.9126.0380905,1.0918.5018905.5410887,0,0,.209-.5966887.085-1.1538887-.124-.5581113-.2383-.1523-.2578-1.4575-.0166-1.3012-.8359-1.4272-.8106-1.4687.0254-.0401-.707-.3926-.3769.4643.3281.8531.3389,1.3677-.2559,1.7759-.5966.4097-5.0233999,5.2187999-12.1337997,5.1249999,0,0-.6718-.0903-.8974-.9341112-.2227-.8441888-.8428-2.0814887-.0459-2.3632887.7959-.2817113.1318-1.0947113.1318-1.0947113,0,0-.1601-.7220887.6758-.3593887.4219.1827.8076.6792,1.1465-.1186113,0,0,1.2392-2.1352886-.6895-3.8363886,0,0-1.4013-1.3394-4.0477999.3553886,0,0-5.9355999-.0824886-3.3525999,4.0879113,0,0,.542.8775,1.6163,1.2212,0,0,.5527.3233.461909-.5498-.091809-.875,1.3778909-.7563113,1.0858909.2388,0,0-.1777.5888.4404.5874.6202-.001,1.4463-.4614,1.8028,2.2118999,0,0,.1484.6543-1.7266,1.6602,0,0-3.5975999,1.9057-6.5331998,1.7041,0,0-5.9686998-.0748-10.2401997-2.5590999,0,0-.5127-.3028.2402-1.8418.4717087-.9658112-1.4852913.436-1.3125,1.0503,0,0,.2041.9175-.3232,1.9311-.2442.4634.2656,1.6597.417,1.8667.1513.2070889.7031.8408.5341-.5322-.1699-1.3735.795-1.2119,1.0137-1.1563Z"/>
    <path class="cls-3" d="M163.4813959,40.852099s1.1026.165,1.7725.3925c.001,0,.5889092-1.0595,1.4775-1.3964l.0059-.2754s-2.4208999.4048-3.2558999,1.2793Z"/>
    <path class="cls-3" d="M157.986296,18.9276995s-2.8378999-.5346-8.1766998,1.2823c0,0-1.2167912.4082-2.2919999,1.7509,0,0-.5137.3213-.2587913-.3886.2548913-.7119.2313913-.8096-.458-.5171-.6924087.292-.1738087-.3057114.0888913-.6743.2617-.3682,1.1523-.8443,1.3017-.9444114.1494088-.103.3408-.3177886.1963-.9730886-.1475-.6563-1.0527-5.6147999.623-7.5014998,1.6758-1.8896,5.1845999-1.1279,6.6611998,1.4658,1.4736,2.5942999,1.5361,4.7143999,1.5361,4.7143999,0,0,.0303.4395.5322.5322.502.0948,1.0127.5318.4922.8208,0,0,.0215.4073-.2461.4326Z"/>
    <path class="cls-3" d="M162.7226959,17.4892996s-2.1572999-4.4023999-1.4004-7.0136998c.7558-2.6132999,1.9121-2.8368999,3.6669999-2.3701116,1.7558.4678117,3.9559999,3.3808116,4.2450999,6.2046115,0,0-.0889.5351.6133.5849.7002.0503,1.3798.1734,1.6836.4497.3017.2764.1367.3135-.1631.3467-.3018.0322-.4766.1743-.1923907.5249.2841907.3491.457.9634-.1748093.4497-.6319-.5097-1.9746-.8301-2.8124999-.5737-.8369.2568-2.4677999.6553-3.1581999.9478-.6924.2933885-.5576.435-.4141.6103.1406092.1743.6201.9263-.2998.5137-.917-.4146114-1.1758-.4947-1.5937-.6748Z"/>
    <path class="cls-3" d="M146.7440963,12.6728997s2.4648999-6.4189998,8.4638998-2.0942999c0,0,.3174.2847.375-.228.0733-.6455.083-1.2686-.5303-1.6016-.6258911-.3413-7.4735998-3.2377999-8.7411998,3.3657999,0,0-.1728,2.0003999.4326.5581Z"/>
    <path class="cls-3" d="M160.191396,9.1098998s.3633.8481.8281-.1499c.4639-.9981,1.7989-3.0165999,5.6396999-.919,0,0,1.4199.9561.539-.3613-.8789-1.3174-4.2469999-3.4550999-7.0350998-.3857,0,0-.7246.6088.0283,1.8159Z"/>
  </g>
  <g>
    <g>
      <path class="cls-1" d="M155.1024961,87.8627978c-.332-.0225-.5918-.0889-.7451-.2266-.2627-.2363-.0713-.124-.5165911.2217-.1631089.127-.1543089.1367-.3808089.2451-.0401.0186-.417.0909.1084.0899.2353,0,.8994089-.1231,1.5761-.2461.1387-.0254.0977-.0742-.042-.084Z"/>
      <path class="cls-1" d="M162.9208959,84.0160979s-.6963-2.3798999-.7539-2.5721999c-.1084.3652-.1758.6513-.2598,1.0302-.2646,1.2119-.542,2.7206999-1.5771,3.3359999-.5078.2998-.9872909.4668-1.5684.6162,0,0-.665.0137-.666.0137-.2851.5566-.9365.8388-1.456,1.1376-.0733.043-.044.0772.0263.0596.091809-.0234.1651-.0439.211-.0605.4082-.1446,3.0458999-.7998,3.0458999-.7998,1.2548-.3291,2.4872999-.9707,3.3866999-1.4385-.0342-.4121-.3887-1.3223-.3887-1.3223Z"/>
    </g>
    <path class="cls-1" d="M169.799805,55.5658986c1.8368907-.5664105,7.1317905-2.7601999,7.8827905-3.2147999l1.9717-1.1084c.3281-.1792106.8604-.5908,1.2031-.4668.4551.1645.8701,1.8895894.8701,1.8895894.2676.7002105.8565,2.6241105.8018,2.8829105-.0547.2583-.5771.5750895-.9756.8295-.7646.4893-.8174.6822-.8174.962,0,.0561.0137.1123.042.1694.3242.6274,9.6767998,10.6928997,10.0146997,11.1918997l.0664.0976.6826-.1884c.0332.0034-.2821902.3813-.251.375-.2519.395-.7421902,1.06-1.457,1.9585l-.25.3203c-.7725,1.0747-1.9999999,2.7377999-1.9999999,4.8466999,0,.4335.0303.8105.167,1.25-.3233.0957-1.1045.3769-1.1045.3769,0,0-.8066903.249-1.0146903.3125-.5107097-1.2588099-1.0986097-3.4931999-1.33-5.0590999.0301903-.0117101.0731903-.0288.0731903-.0288,1.0117-.3852,1.582-.6567,1.7022-.9897.0156097-.0454.0244-.0913.0244-.1368,0-.0659-.0176-.1313-.0507903-.1904101-1.0322097-1.8178899-5.6309096-6.1342898-6.6699095-7.0844897-1.0390905-.9501-1.1963-.4658-1.3057.0406-.415,1.9272-1.4033,6.5907998-1.3173905,6.9183998.0585905.2276.1933905.3311.2958905.3774899.3213.1469101.7412-.0595899,1.1836-.2812899.2725095-.1352.6836-.3393.8184-.2846.3799,1.0428899,1.292,4.0580999,1.292,4.6483999,0,.0234-.002.043-.0048904.0586-.3428096.2734-2.2119095,1.3096-2.7383095,1.4941-1.7686.6162-3.9921999,1.2793-5.8163999,1.6055,0,0-5.1122907.707-5.2196999.5732-.5235-.9326-1.2891-3.3710999-1.3741-4.8695999-.0019-.0317.0567-.1084.1094-.1201.4697-.1045,1.9853999-.4331,1.9853999-.4331l.0547092-.1865c.0047908-.023.0077908-.0464.0077908-.0718,0-.3482-4.1181999-4.4223999-4.1181999-4.4223999-.2324-.2754101-.4873-.5185-.8818-.4223-.4952.1201-.625.707-.9493,1.5683-.1552.4112-.3476,1.0469-.4853,1.3565-.1611-.2056-.3916-.5743-.5586-.8536-.416-.6982-1.2334-1.6889-1.2334-1.6889-.032191-.0337-2.617191-2.6591999-2.8329999-2.8739999.0723-.2408.4502-1.3628.4502-1.3628l.1494-.5489.4238-1.0673s-.0185-.1363-.139591-.1373c-.666-.0058-2.6279089-.0483-3.1358089.2237-.0371-.0884-.0888-.4556-.2177-.7612-.1289-.3062-.4356-.7251-.4356-.7251-.2187-.6329-.4736-2.6025999-.5527-3.5986999-.0068-.0835-.0088-.2993.4082-.2959,2.4306999.0215,6.3134998-.5517,7.4511998-.7646,1.289-.2417,3.5254091-.6875,4.7176999-1.0064.1221-.0136.2061.1402.2246.1929.379,1.1357,1.0577,3.2665999,1.0577,4.5858999,0,.1407.0683.5191-.1993.524-.9052.1411-1.9697.5102-2.1932908.6347-.1631092.0904-.0723092.1992-.0723092.1992.6914,1.1646,6.0907998,6.5805998,6.5986998,6.6713897.5078.0909101.5253.127.8701-.3627899.3447-.4892101,2.3026999-7.3055998,2.0233999-8.5604998-.0458906-.2046-.2948906-.3838-.6816-.3633-.7372906.0391-1.8506.48-1.9863999.5122-.1347.0318-.163.1103896-.2508907-.1875-.0879093-.2973-.3643093-1.3393-.3643093-1.3393,0,0-.6543-2.4955999-.7871-3.0248999-.1328-.5288.0684093-.5406.1494093-.5655Z"/>
    <path class="cls-1" d="M136.4999966,45.1283989c-.5644-.9297-1.4004-1.707-2.0536999-2.5526999-.4131-.5332108-.6436-1.4902108-1.7764-1.2773-.5918.1093-1.2373.7304-1.499,1.2207,1.6133,1.5351,3.0282999,3.5565999,4.1630999,5.5526999.3057.5391.7441,1.9609,1.166,2.3300999.21.1855.5772.1992.832.334.6045.3144,1.1905.7519,1.7774,1.1093-.125-.834-.4903-1.4121-.7227-2.1092999-.5595-1.6758-1.0527-3.2265999-1.8867-4.6074999Z"/>
    <path class="cls-1" d="M141.8290964,42.0756989c-.2656-.3145-1.8008-2.1562999-1.9989999-2.2206999-.21-.0664-.6112915-.0176-.832,0-.462.0332-.9737.2129-1.2774.3344891.5586.9174109,1.3399,1.7202108,1.9434,2.6089108,1.4756,2.1722999,2.8182999,4.6288999,3.8857085,7.1600892.6474913,1.5371106,1.2353913,3.2149106,1.665,4.8848105.1562913.6113.1171913,1.334.3886913,1.8867.2862.584,1.8115,1.8496,2.6083999,1.9979999-.3232-4.1170999-1.4785-8.5062998-3.0448999-11.4925997-1.0449-1.9877999-1.957-3.5209999-3.3378999-5.1596999Z"/>
  </g>
  <g>
    <g>
      <path class="cls-6" d="M147.5468963,44.9623989l.166.666c.081-.0156.2588-.0605.2773-.0547-.123-.291-.1201-.375-.4433-.6113Z"/>
      <path class="cls-6" d="M156.705096,96.5307976c-.499.0234-.7461.3769-1.1651.332.1885,1.6992.8135,3.3710999,1.2207,5.1073999.3116,1.3282.538109,2.6581999.9444,3.8300999v.1113c.3496.2774,1.2471.2227,1.831.2227-.5547-1.8848092-1.456-3.7108999-1.8867-5.6073999-.2392-1.0528-.0332-2.5156999-.3887-3.4414094-.1181-.3027905-.083-.5546905-.5-.5546905h-.0556Z"/>
      <path class="cls-6" d="M159.370096,96.3647976c-.444291.0625-.9629.2402-1.443291.332.226491,1.1953.402291,2.4960999.833,3.7753999.619091,1.8398,1.3680909,3.5585999,1.6092909,5.7167999.4317091.0469,1.4795.0194908,1.8877091-.2207.2704909-.1641-.1025091-.793-.167-1-.5292091-1.6739-1.1826091-3.3300999-1.499-5.0508092-.1748091-.9491906-.1347091-2.5175906-.499-3.3300905-.1221091-.2734-.306609-.1504-.555709-.168,0,0-.083-.0683-.166-.0546Z"/>
      <path class="cls-6" d="M152.9315961,96.0307976c-.5585,1.7519,1.3194,5.4901999,1.6084,7.7714998.0733.5878-.081,1.3007.167,1.7773.293.5645,1.8106.3223,2.1093999.2773-.416-.8964092-.4961-1.9472-.7764-2.9979999-.3613-1.3457-.7949-2.8184093-1.0546-4.2187999-.1202-.6406094-.1622-1.9082-.4454-2.3866999-.1845-.3144-1.1113-.2226-1.6084-.2226Z"/>
      <path class="cls-6" d="M162.256805,95.7533976c-.5625091-.041-1.0898091.2207-1.4433091.3887.0517.8711.5762,2.0136999.832,2.8866999.6065,2.0605999,1.2529,4.3652999,1.666,6.6620998.3907-.0547,1.0782-.0547,1.3321-.2773.1162092-.1074,0-.3887,0-.3887-.2705-3.4257999-1.2784-5.8222999-1.9990999-8.7714998-.083-.3359095-.0088-.4707-.3876909-.5Z"/>
      <path class="cls-6" d="M164.4218958,94.9213976c-.3946.0312-.8975.4414-1.2217.6113.4395,1.6973,1.0693,3.4589999,1.4434,5.2734999.2978,1.4452907.4824,2.9491999.999,4.2186999.0996,0,.1767.0059.2773,0,.4239092-.0371.9424-.3848,1.499-.4453-.0732-.918-.416-1.1543-.666-1.7754-.2450908-.6035-.4209-1.248-.6103-1.832-.5557-1.7129-.6357908-3.4003999-1.1113-5.2734999-.0762-.2988-.1729-.8144-.6094-.7773Z"/>
      <path class="cls-6" d="M149.4892962,94.8100976c.1162,1.4961.8916,2.2303905,1.499,3.2206999.4199.6836.6953,1.3652.999,2.1639999,0,0,.1318.6602.166.8886906.2979,2.0176093-.292,3.7266092,1.8321,4.1621092.1923-2.6932999-1.2315-4.6893999-1.7764-6.8281092-.1943-.7616906.0224-1.9765905-.333-2.6640905-.2276-.4375-1.792-.7929095-2.3866999-.9433Z"/>
      <path class="cls-6" d="M167.0312958,93.9779976c-.6231-.0214-1.1368.2989-1.4991.5547.586,3.1581999,2.1728999,5.4628999,2.6083999,8.7714998.0313.2422.1289.7422.3887.7754.333.041,1.3721-.3262,1.4434-.6094.1191093-.4883-1.5996-4.9745999-1.8321-5.7733999-.3047-1.043-.2167907-2.3866999-.6103-3.3300999-.0596-.1387-.1338-.3516-.2774-.3887-.0586-.0175095-.1630908.002-.2216,0Z"/>
      <path class="cls-6" d="M169.8612957,93.3666976c-.4541.0117-1.3398.4219-1.3877.8887-.0673.6387.3682093,1.5449.5,1.9414.5498,1.666,1.252,3.4218999,1.4424,5.5526905.0488093.5469093-.206,1.543.5,1.4434093.4863-.0723,1.1162-.4336,1.5537-.6113-.3252-2.1953999-.9834-4.0429999-1.5537-5.9394998-.3301-1.0957-.4765-2.2577999-.833-3.2206999,0,0-.1494-.0586-.2217-.0547Z"/>
      <path class="cls-6" d="M147.6581963,92.7006977c-.709,3.2030999.5781,4.0780999,1.8311,6.1620998.208.3456906.5244.668.666.9981.4765088,1.1152.3779,3.0135906,1.2217,3.7752999-.087.0722907.1543.0528.1669.0547.0381-.2949.0333-.666,0-.9433-.3994-3.1386999-2.0790912-4.7909999-2.8866999-7.3827998-.1718-.5489.0879-1.3555-.1113-1.9980999-.0732-.2305-.6514-.5527-.8877-.666Z"/>
      <path class="cls-6" d="M172.1376957,92.5346977c-.3438.0156-.7891.2695-1.1104.3887.2598,1.0488.3243,2.0916999.6104,2.9979999.4365,1.3906,1.0791093,2.7284999,1.4434,4.0507999.2158.7871.0097094,1.5078.5546,1.9432906.2842-.1483907.5831094-.3026907.8887-.4432907-.5869-2.8241999-1.3027-5.5273999-1.9424-8.3827998-.0839-.3692.0205-.5801-.4443-.5547Z"/>
      <path class="cls-6" d="M173.9140956,91.7572977c-.378.0176-.6455.1407-.6114.6114.0469.6679.3496,1.5996.6114,2.1073999-.1494.0742-.002.4902,0,.5.3779,2.0194999.9277094,4.0507999,1.4423,5.9960998.0118.0019.2383.0312.2784094.0547.2401905-.1504093,1.0282905-.4864093,1.1092905-.7774093.2227095-.7987906-.3662-1.9042906-.5546-2.4413906-.6826905-1.9355-1.5352-3.8358999-1.8868-5.9393998-.0858906-.0176-.167-.1231-.3886-.1114Z"/>
      <path class="cls-6" d="M176.300805,90.9252977c-.3262095.0331904-.7637094.3789-1.166.4981.291,2.6249999,1.7714905,4.7694999,2.2206905,7.2166998.0761.4239-.0352,1.2266.5547,1.1113906.1435-.0292906.6884-.4413906.7216095-.6113906.1474905-.8066094-.4336095-1.8359-.5546095-2.4979999-.3409-1.8359-.6407-3.8593999-1.3331-5.3280999-.1074-.2285096-.0644-.4317-.4432905-.3887Z"/>
      <path class="cls-6" d="M179.0761955,89.8139977c-.4317.0136-1.0683905.4354904-1.4433905.6113.0585905,1.584.8446905,3.3671904,1.2773905,4.8847999.292,1.0312.2763,2.4042999.7763,3.3299999.375-.1406094.7754-.2988,1.166-.4433,0-3.1953094-1.4433-4.9413999-1.4433-8.1601998-.1699-.0976.0146095-.2343-.333-.2226Z"/>
      <path class="cls-6" d="M181.2968954,88.7592978c-.3477.0469-.8828.4531-1.2217.6113.1426096,1.8125.6592,3.3085999,1.1104,4.7187999.3398,1.0625.4648,2.4471999.6113,3.5526999.0254.0059.0664.0977.2207.1093906.5088.0371094.9492096-.3163906,1.2773-.4980906-.3564-3.1854999-.7842-5.8319999-1.666-8.4374998-.0303-.0039-.2109-.0742-.332-.0566Z"/>
      <path class="cls-6" d="M183.4062954,87.7592978c-.3497.0527-.6299.3769-.8887.5566.1035.709.4267,1.1758.5556,1.7754.0811.3867.0538,1.209.1104,1.6094.082.5742.3691,1.3027.4443,1.8887.1328,1.0605.1289096,1.9530905.333,2.9979999.0489097.2480905.21.252.3887.3887.2656-.1699.6485-.3125.9434-.334-.2491-3.1698999-.9151-5.7440999-1.3321-8.8261998-.125-.0097-.3486-.0879-.5546-.0566Z"/>
      <path class="cls-6" d="M185.4032953,86.8725978c-.3213.0527-.582.4707-.5547.8867.1036,1.6191.5381,3.6327999.8887,5.4413999.166.8633.0332,2.1151999.333,2.9413999.0401.1133.1904.2266.333.2227.1114-.0039.4873-.2266.666-.2774.3975097-2.6815999-.3104903-5.2401999-.7207-7.3280998-.1064-.5293-.081-1.0567-.2783-1.4981-.0967-.2148-.2684903-.4589-.667-.3886Z"/>
      <path class="cls-6" d="M187.8466953,85.7065978c-.3731.0488-1.0322.4375-1.1113.7773-.1377.5898.4726,2.1718999.5556,2.8300999.2246,1.7793.2539,3.7030999.3887,5.4960999.0351098.4765-.1524,1.164.4434,1.1113,1.3066-.123.663-6.4315998.5546-7.8827998-.0488-.666.1875-1.2637,0-1.832-.0752-.2305-.4463-.5528-.831-.5Z"/>
      <path class="cls-6" d="M190.0663952,85.3744881c-.3115.0313097-.7295.1856097-.9433.2774097.2568,1.7363.5488,2.9471999.6669,4.7733999.1036,1.6406-.1669,3.5429999-.1669,5.2167999.1171.0253905.3955.0938.4433.1113h.1113c.1514-.0273.3575-.1074.5557-.166.1035-.539.3975-.918.499-1.4433.4737-2.4609999.4239-5.4687999-.2225902-7.6601998-.1739098-.5918-.0752098-1.2012-.9434098-1.1094097Z"/>
      <path class="cls-6" d="M191.843805,85.2065978c-.084,1.0488.289,1.8886.332,2.8319999.0038901.1074-.1397099.2168,0,.2773,0,.0117-.0108099.1602,0,.166-.1104099-.0156.0780901.4434-.0547099.4434.0781-.0273.0273.207.0547099.2227,0,.8671-.001,1.8906.1112901,2.7206999.1426,0,.0039.0742,0,.0547.0068.0780904-.0498.2929.0547099.2773,0,.584.0370901,1.3945-.0547099,1.832-.0234.1094-.2558.25-.2772901.334-.3555099,1.3672,1.1444901.6016,1.332.1094.2694901-.711.1854901-8.0273998-.1104099-8.6034998-.2548-.4922-.6494-.6367-1.3875901-.666Z"/>
      <path class="cls-6" d="M133.7245966,70.8861982c.4981,3.3574999,4.4980999,3.3671999,7.5487998,4.2187999,1.1914086.3301,1.7149,1.3711,2.8320999,1.7754.2676-.38091.3965-.7598.5547-1.2774-.7237-.18751-1.5059-.4746-2.1650999-.7773-.8535-.3906-1.832-.7988-2.8309999-.9981-1.0186-.205-1.8868-.2207-2.7197999-.5546-1.3094915-.5293-1.9950999-1.81251-3.2196999-2.3867999Z"/>
      <path class="cls-6" d="M134.6132966,68.3881983c-.3711.5292898-.8301,1.1035-.3897,1.8867.1241.2227.2383.2715.3897.4434.0683.0801.1553.1991899.2207.2773.1182.1387.1914.1641.334.2793.0674.0527.1513.1563.2217.2207.0917.084.1718.1367.2783.2227.1328084.1074.2051.1777.3886.2773.0948.0528.2286.0996.3321.166.5244.334,1.1816.752,1.7763,1,.8311.3457,7.0878998,2.1171999,7.3838085,1.0547.1620913-.5937-.2715087-.8047-.667-.9433-.3037087-.10551-.583-.045-.9433086-.1114-1.0078-.1875-2.1044999-.5234-3.1640999-.832-1.9678-.5762-3.6552999-1.5996-5.1063999-2.7206999-.4033-.3105-.6826-.8672-1.0547-1.2207Z"/>
      <path class="cls-6" d="M135.5009966,66.4447983c-.1446.2032-.5899.6504-.6113.8886898-.0362.3945102.4794.8223102.6669,1.0547102,1.6582084,2.0643999,4.0605999,2.8202898,6.8828998,3.6073999.6308.1758,2.5516999.9648899,3.3299999.7774.2559-.0625101.4014-.4942.5-.7227.0469-.1113.1319-.3086.167-.4434-.6855-.3847-1.6356913-.6093-2.3876913-.8886-2.2656086-.8457-4.2851085-1.75-6.3281085-2.8300999-.791-.4199-1.2715-1.166-2.2196999-1.4434Z"/>
      <path class="cls-6" d="M136.7772965,64.3900984c-.3964.3613897-.6464.8731-.8876,1.3887,1.8642,2.4667999,5.5418999,3.0370999,8.5477998,4.3847999.5352.2402,1.2246.9707,1.7773087,1.0547.4306913.0644.667-.3399.8320913-.5547.1367-.1817.165-.3301101.2773-.5547-.7129-.3711-1.2607-.8047-1.9979999-1.166-1.9902999-.9746-4.1933913-1.8516-6.1611998-2.9414102-.8505-.4726898-1.4697-1.2714897-2.3876999-1.6113897Z"/>
      <path class="cls-6" d="M202.8339949,64.0580984c-.9414,1.1992-1.6151899,2.4999999-2.3310999,3.9413897-.1552.3086102-.5869.5489102-.7773.8867102-.2881.5059-.5967.8926-.999,1.2774.291.7871.3554.3203.7773.1113.4277-.2168.6543-.1855.999-.4433.503-.3809,1.3096-1.2207,1.6094-1.7774.5166-.9629,1.4072-2.5547102.999-3.9413999-.0204899-.0039-.2284899-.0234-.2773-.0547Z"/>
      <path class="cls-6" d="M138.3866965,62.2807984c-.4121.3125-.7041.9004-.9424,1.3886,1.4512,1.4278,2.5478999,1.7480897,4.6065085,2.6093999,2.0624914.8594,4.1610913,2.1269999,5.9393913,3.3300999,1.5938-.8164101-.206-1.7285-.999-2.2206999-.8563913-.5332-1.79-1.1543-2.7196999-1.6094-1.7949-.8789-3.6972999-1.4707-5.1620999-2.6639999-.2608-.2129-.4737-.5977-.7227-.834Z"/>
      <path class="cls-6" d="M201.5575949,61.7826984c-.8164,1.0391-1.6416,2.0566999-2.2206999,3.3300999-.5947,1.3026897-1.28609,2.6366897-1.831,3.9413999-.20509.4844.1748.6738.5547.8887.8095-.7988,4.4598999-5.9589998,4.1629999-7.4394998-.0722-.3535-.3867-.5508-.666-.7207Z"/>
      <path class="cls-6" d="M139.4980965,60.5600985c-.3741.3027-.5254.6738-.7227,1.166,1.1279.8418,2.3231999,1.7773,3.6640999,2.3866999,1.2841.5859,2.6543086.9766,3.8856999,1.666.5137.2852,1.0674.6113,1.6104.9434.3583.2187,1.1806,1.4765,1.831,1.2772898,1.1445-.3553898-1.1064-2.0780898-1.4434-2.332-1.4248-1.0761897-2.9911999-1.7987897-4.7176999-2.6093897-1.4453-.6777-2.7197999-1.7363-4.1073999-2.4979999Z"/>
      <path class="cls-6" d="M200.0585949,60.3393985c-.3301.4629-.5137,1.164-.8887,1.6093-1.2119,1.4297-2.1307999,2.7578999-2.8856999,4.7187897-.4395,1.1328102-.7783,1.6309102.55561,2.2187102.73149-2.2713999,1.48049-4.6190999,2.7187899-6.4374998.3633-.5371,1.0273-.9961,1.499-1.4433-.2977899-.3692-.4756-.5078-.999-.666Z"/>
      <path class="cls-6" d="M198.227495,59.0072985c-1.1406,2.1796999-2.42569,4.3105999-3.6649999,6.3827998-.3408.5703898-.792,1.1348-.8311,1.8321.1475-.0254.2803-.0528.3877-.0567102,0,0,.6709.3457102.9434.1114102.2314-.2012.1797-.709.333-.9981.1729-.3301.6006-.666.7774-1,.2294-.4394.2294-.8301.4443-1.2773102.1719-.3652897.6348-.6581897.832-.9980897.22561-.3945.2403-.7519103.4453-1.166.251-.5215.8418-1.0801,1.0537-1.6094.0713-.1836.1573-.5214.1114-.7226-.0655-.2832-.5811-.3965-.8321-.4981Z"/>
      <path class="cls-6" d="M141.6063964,58.8393985c-.3875914.3690896-.7802.7422-1.165,1.1113.8223.4883,1.5.9941,2.3866999,1.498.1348.0762.2852.3204.4444.3887,1.3388.5645,2.4843086,1.0567,3.7186999,1.832,1.4414.9024,2.5380999,2.2246999,3.8310999,3.2753999.7715088-.4336.8515088-.5722.332-1.2773102-.3447-.4687898-.7393-.9511897-1.166-1.332-1.4268-1.2792897-3.2528999-2.0878897-4.9394912-3.1093897-1.2002086-.7246103-2.167-1.7559-3.4424086-2.3866999Z"/>
      <path class="cls-6" d="M195.7851951,57.6186985c-.1485,1.1211-.06639,2.4667896-.5,3.3866999-.1895.3945-.4151.793-.6113901,1.2207-.0537099-.2774.0077901.9375.6113901.4433.2158-.1777,1.5937-3.4745999,1.7763-3.9413999.0205-.0566.0518-.1621.0557-.166.041-.1094.0117-.1133.0547-.2226-.3155-.3868-.8604-.5508-1.3867-.7207Z"/>
      <path class="cls-6" d="M143.2724964,57.5639985c-.3291.0547-.7911.5898-1.0556914.7754.3612914.3125.6786914.7773,1.0556914,1.0547,2.1543086,1.5957,4.6717999,2.7167999,6.8827998,4.2186999.8838.5996,1.3135088,1.6191,2.1649999,2.2206897.2481-.1444898.4805089-.3300898.7217-.5-1.2266-3.0448897-4.7392999-4.2655896-7.4384998-5.8280896-.625-.3594-1.2129-.9043-1.665-1.4434-.0869-.1035104-.2236914-.4531-.333-.498-.0684-.0313-.2616914-.0137-.333,0Z"/>
      <path class="cls-6" d="M163.7558959,48.5150988c-.0528.6523893.039,1.3829.2773,1.8868.668-.0996,1.2363-.2071,1.8867-.3321-.1172-1.0605-1.2040908-1.3769-2.1639999-1.5547Z"/>
      <path class="cls-6" d="M161.4794959,47.7924881c-.1572.4692107.0068,1.2363107.1103091,1.832.2480909,1.4375106.3076909,1.4102106,1.8876909,1-.2353-2.1151893.0645-2.3182893-1.9979999-2.832Z"/>
      <path class="cls-6" d="M158.371096,47.1830988c.0478.8418.2236,1.8477.388709,2.7192999.187491.9917,1.2811909.8979,2.0536909.7220894-.1153-.8358894-.4512-2.9530893-.999-3.2206893-.4004-.1933107-.9473-.2012-1.4434-.2207Z"/>
      <path class="cls-6" d="M156.2606961,46.9057988c-.0546.0136-.1396.2246-.0546.166-.0118.0058,0,.1523,0,.166-.0987-.043-.0088.2754,0,.334-.1006-.0449-.0479.1191-.0557.166.0986.041.0352.0546893.0557.166-.0196-.0019-.0147,1.3672.167,1.7774.175709.4042894.843709.7031,1.3876.7772894.3897-.9823894.0538-3.9667893-1.5-3.5526893Z"/>
      <path class="cls-6" d="M167.5858958,46.8490988c-.4306.6055-.7587,1.3926-1,2.1659999-.539,1.709,1.4043.168,1.833-.1674-.1015-.4009-.1992-.7974-.2783-1.1646-.1181-.5312-.0634-.6601-.5547-.834Z"/>
      <path class="cls-6" d="M154.0409961,46.5170988c-.0937.0137-.209.1367-.2773.166.2148.7343893.3125,2.4023893.7217,2.9413893.2011.2656106,1.0341.4668106,1.3877.5567106-.1895-1.2754-.1612-3.9179999-1.8321-3.6640999Z"/>
      <path class="cls-6" d="M151.5985962,45.6830988c-.2773.6953-.2147912,1.7695,0,2.2773893.2041.4843107.8291.7402107,1.333.9433107,0-1.8379.3184-2.9237999-1.333-3.2206999Z"/>
      <path class="cls-6" d="M149.3778962,45.5170989c-.3086.0683893-.1875,1.4512.1114,1.7207.2392.2168.6015088.2754.999.334.0625088-.8125-.0332-2.2929999-1.1104-2.0546999Z"/>
      <path class="cls-6" d="M170.5829957,44.8510989c-.2461.082-1.3389.9277-1.3877,1.1113-.1426.5117.208,2.1855999.3887,2.6073999.2285-.1347.4023-.1054.6103-.2207.0713-.0429.1084-.2422.167-.2773.2422-.1621.3731-.0938.6104-.2793107-.1387-.9335893-.2315-2.0937893-.3887-2.9413892Z"/>
      <path class="cls-6" d="M172.5253956,43.3529989c-.2188-.0058-.419.2383-.5547.3321-.1924.1308-.5391.2597-.666.4453-.3867.5605.4434,2.5272999.666,2.9960892.6484-.2616893.9658-.6405893,1.4434-1.0546893-.1211-.4551-.3526-.793-.4444-1.2207-.1006-.4629.0176-.9766108-.166-1.3867-.0361-.0801-.1533-.1094-.2783-.1114Z"/>
      <path class="cls-6" d="M128.339805,42.0209989c-1.8613082.2344-3.4394082.9277-4.6621081,1.832-.582.4258-1.0273,1.1504-1.7207,1.4414-.54.2250892-1.3574.0762-1.9433.2227-1.1573.2891-2.2206999.9102-3.0527999,1.5547-1.9296,1.4883-4.3202999,7.4882998-2.2762999,10.6015997.2822079.4316.8427,1.1620896,1.3877,1.2773.9853.207.2324-1.8789,1.6093-1.832.408208,5.1893999,3.8632999,8.0409998,7.660208,10.0467895.832.4395102,1.5185918.8887102,2.5536918,1.2227102.8135.2598,2.0663999,1.125,3.2196999.9434.1485-.0254.5293-.2422.7217-.334.0733-.0352.0586-.0645.1113-.1114,2.6123999-2.4257102,3.8936083-6.1581998,6.2167998-8.8807998.7178085-.8438,1.8008085-1.586,2.7206999-2.2206999.3252-.2266.8858-.4102104,1.0547-.7774.0215-.0507.0186-.1777.0547-.2773-.6308-.6016-1.0996-1.334-1.7207-1.9434-1.6201-1.5898-3.5360999-2.7303999-5.8280999-3.6621105.2685084-.2440894.4072-.4413894.7773-.6112894-.6992-2.2948999-4.1669999-8.8358998-6.8837916-8.4921998Z"/>
      <path class="cls-6" d="M174.468805,41.7983989c-.3311094.4824-.7247094.6894-.6114094,1.332.1162.6620892.1914094,1.0780892.3887,1.6094,1.1875-.7754,1.2978-1.9551.2227094-2.9413999Z"/>
      <path class="cls-6" d="M136.1669966,39.912099c-.6387.0308-1.3359.3887-1.5537.8863.6562.8690891,1.373,1.6503,2.1639999,2.3866999.3067.2856.7364.5683.9434.9453.3516.6367.3975,1.4120892.6113,2.1639999.3467,1.2227,1.0323,2.3007999,1.4424,3.3867999,1.0938,2.8885999,1.082,5.3690999,4.5527999,5.9940998.0585-1.5391-.8613913-3.1386999-1.3331-4.3848105-1.0682914-2.8182893-2.4530999-5.248-3.9959999-7.6053892-.5625-.8555-1.3555-1.6289-1.8321-2.5527999-.2295-.4433-.3066-1.2578109-.999-1.2202Z"/>
      <path class="cls-6" d="M176.3563955,39.022999c-1.3603,1.1034891-.7539,1.7851-.333,3.3866999.2413-.1973.4541-.4004.6104095-.668.1474905-.2558.2186905-.4004.3876905-.6094-.2959-.5703-.3848-1.2773-.499-2.0541999l-.1661-.0551Z"/>
      <path class="cls-6" d="M177.9101955,38.023399c-.5655.0308-.4112.8100891-.333,1.3316.0068,0,.165-.002.1669,0,.1407095-.3008.7735-1.3652.1661-1.3316Z"/>
      <path class="cls-6" d="M185.0155953,32.8061992c-1.7041.1958-3.0614999,1.0488-4.2186999,1.7758-.1465.0899-.3496.085489-.4444.2222-.2509.361289-.1766904,1.0645-.2773,1.5547-.2256,1.0879-.5059,2.265589-.8887,3.2733999-1.1328,2.9863999-4.0360999,6.9023998-6.3827998,8.7167998-1.1387.877-2.8075999,1.5918-4.1639999,2.1640999-1.4776.6211-3.3427999.8594-5.2177999,1-1.2676.0937-2.5107999.4375-3.9404999.332-5.0956999-.3808-8.8788998-2.5780999-11.8788997-5.1073999-1.7196913-1.4473107-2.7450999-3.6913999-4.4413999-5.1620999.1202.457.3194,1.3262.6104,1.6094.0478.0468.2988.0625.334.1113.0429.0625.1621.625.2763086.834.292.5293.7841913,1.1152,1.0546913,1.664,1.1807,2.4081999,2.3251999,4.9394999,2.9980999,7.7714998.2881,1.2149.5722088,2.4413999.7773,3.7187999.1358.8535.0654,1.6152.2217,2.3319999.0547.2461.1318.5.333.6113.2773.1543,2.0448999,1.2393,2.3046999,1.1123-.1318-.9687-.6719-3.0345999-.0986-3.7025999.0654-.0781.1181088-.0644.2226-.1113.0088-.0064.1602-.1113.166-.1113.458-.0938,1.7481-.1172,2.0956999-.1583,1.0469-.1308,1.418-.0502,2.6679999-.1752,2.1718999-.2168,2.5390999-.3204,4.6249999-.75.5-.1036,3.9325999-1.0059,4.4022999-.8399.0206.0077895.212.2577895.2227.2774.2881.5605,1.627,5.8104999,1.4482,6.5877998-.1201.5118-1.7128.5645-2.1249999.8125.5957.9776,3.8330999,3.9526999,5.0196092,4.8017999.2001907.1631.374-.0688.3993907-.127.7422-1.6914,1.2685-3.9339999,1.5596093-6.2372998-.6309094-.2519-1.5987093.5498-2.4161093.4581-.6777-1.5503-1.6787-5.1557999-1.789-7.1152998-.002-.04.0849-.1479.1299-.1626,2.0497999-.6762,3.7235999-1.0454,5.5858999-1.9555,1.5947-.7793,4.3114999-2.0283999,5.8124999-2.9995999,1.249-.809,1.6523.4146,1.8955.9224.3096.6543,2.0263999,4.0849999,1.667,5.2021999-.0898.2753-.7959.6386-1,.875-.0361.0428895-.6416.6533-.5615.7294,1.0586,1.0098,8.7821998,9.6030998,9.2568096,9.8295998.1806902.086.5116901.0132.9296901-.434.2939-.3145.3447-.8477.3779-1.0665,1.2998-8.8592998-.7461-18.3124995-5.5506999-22.1483994-.2198-.1758-.4131-.3613-.6114-.5566-.1699-.168-.331-.3321-.5-.4981-.4736-.4668-1.1044903-1.0293-1.2207-1.666,3.3183999.4492,4.1689999,2.9296999,5.8280999,4.9960999.2276.2832.5762.9473.8887,1.1093893.4453.2324107.9893-.5585893,1.499-.3886893-.1211,1.0879-.9892,2.6581999-.2225901,3.6093999.6102901.7578,3.08889-.166,3.99609-.2774.6611-.0859,1.4824.086,1.9999999.2206894-.6738.606-1.7774.3125106-2.7763999.5567106-.7646.1836-1.2822.8047-1.7764,1.2754-.083-.0762-.0537.1992-.0556.2226.2705.0821.6806.2168.9433099.2774,1.29589.2928894,3.02249-.8203,4.27539-.0547.1592.0957.18361.2578,0,.332-.3789.1504-.8955.0645-1.333.1113-1.73039.1797-2.6522999.1152894-3.77439.9434-.1318099.0957-.5361099.1934-.6103099.334-.2784.5156.1796,1.3574.4433099,1.5527.7851901.5821,1.88769.8028,2.832,1.2227.99319.4394,1.94149,1.1406,2.8300899,1.7207.7012.4551,3.5165999,2.4042999,4.6064999,1.6094.3447-.252.5263-.7579.7783-1.1094.8838-1.2481,1.2353-2.0507999,1.6103-3.8866999.5127-2.5253999,1.5293-5.9472998.4434-8.7148998-.5937-1.5097-2.5585898-3.4452999-3.7743999-4.3846999-1.1436-.8829108-2.6483999-1.2652-4.0517999-1.8882-.833-.3697109-1.5947-.94-2.44239-1.3872-1.041-.5528-1.9658099-1.375-2.8876099-2.0541999-.8389-.6197-1.7413-1.0767-2.6083901-1.6646-1.6387098-1.1133-3.293-2.8490999-6.3282097-2.4979999Z"/>
      <path class="cls-6" d="M178.1659955,70.4770982c.7305-.0411,1.3418095-.6954,1.5635-.375.2412.3476,2.2987999,6.2254998,1.8955,6.5419998-.3231904.2539-1.8926,1.3115-2.6249999,1.5625-.9756.3338901-2.1464999.9433-3.1874999,1.2578-2.9794999.8965-9.7352998,1.6865-9.9374997,1.6172-.4658-.9903-.7666-2.0722999-1.124-3.1874999-.335-1.0391-1.3819-3.6289999-.3135-4.1874999.3203092-.17.3682-.125.75-.25.0586-.0215.0947-.2149.1113092-.2227-1.0849092-1.084-1.2207092-1.5391-2.5908091-2.3397999-.1094.3085-1.0527,2.4354999-.8555,3.0252999.295.8829.7657,1.9122.9043091,2.5722999.2421909,1.1641.1747909,2.6620999.4101909,3.9433999.2002,1.0898.5664,2.2987999.917,3.3749999.4043,1.248.2705,1.9716.417,2.4169999-1.6133.6767-5.0312999,2.0536999-8.5839998,2.7079999-.6143.1133-1.2549.2773-1.876.3242-3.5575999.2656-6.0468998-2.1425999-6.6610998-4.9960999-.1318-.6094.1533-1.5195-.0557-2.1640999-.1455-.4531-2.0721999-1.916-2.6093913-2.1092999.1484913,1,.6347913,1.7832.9443913,2.6092999.4717,1.2657.9424,2.5370999,1.332,3.7734999.3233,1.0273.7764,1.9746.999,2.9979999.1944.8965.2461,1.9902999.667,2.7206999.5684.9863,1.6338,1.3946,2.6083999,1.9980999.333.205.6992088.5760905,1.1104.7207,2.5878999.9023,6.1971998.7558,9.1591998.0566.6796091-.1621,1.4394-.5527,2.3309999-.7773-1.1503909-.3243-2.3710999-.8457-3.4413909-1.3321-.1924091-.0898096-.997109-.5019-.3887091-.5566.46-.043.9942.291,1.3877091.3887,1.4492909.3574,3.1454908.8203,4.9960908.5547.874-.127,2.0253999-.668,2.8866999-.8868,5.2939999-1.3652,9.8837998-3.4628999,14.3769996-5.6620999,1.8408-.9043,4.0644999-1.6484,6.1063998-2.2207097.6045-.1718902,1.1543-.2382902,1.6651-.4432902-.7392902-1.0938-2.3486999-3.6298999-2.7616999-5.0341999-.1485.0117-.3184-.1768-.4745902-.3945099-.1114098-.1533901-2.3331097.6806099-2.8448097.8085099-.8027.2012-2.1903999-5.7567999-2.3319999-7.0418998.666-.3086101,1.1846-.2149,1.7285-.6036101-1.0936903-1.6151899-4.3270999-4.7147898-5.7704999-5.9383898-.1299-.1104-.5205,3.3544999-.834,4.7499999Z"/>
    </g>
    <path class="cls-6" d="M155.4589961,65.9350983c.1162-.2051.2119-.4405.3242-.6328.1162-.2012.2119-.6192.124-.5342-.1883911-.3242-2.4481999-.291-1.8945.332.3672.4131,1.2168.7402,1.4873.794"/>
  </g>
  <g>
    <path class="cls-7" d="M156.049805,31.3344881s1.487291.1836111,6.1523909-2.0312888c0,0,1.3115-1.0507112,1.4589,1.5996l.5469,5.5195999s-.1045.6093-.7871.9336c-.6846.3252-2.4335999,1.268-4.6571999,1.4902,0,0-.5596.2617-1.004891-.8066-.447309-1.0704-1.609409-4.4218999-2.5303089-5.7665999,0,0-.6806-1.0484.8213089-.9385111Z"/>
    <path class="cls-7" d="M164.1688959,29.1728993s.8653,5.8597999.8292,7.2445888c0,0-.1562908.689411,1.0937092.582,1.25-.108389,2.1063907-.126889,3.8388907-.688489,0,0,.6338.065489.8515-1.5664,0,0,.7744-2.3753999.1104-6.4242998,0,0-.0606-.8818112-1.2539-.3735-1.1934.5093-2.9364999.8652-4.6855999.7402,0,0-.8916-.143-.7842.4859Z"/>
    <path class="cls-7" d="M158.881805,21.2392995s-.351509.4228-.194309.6631c.156309.2397.3369.4389.7529.1410887.416-.2988887.9268-.6196886,1.360409-.6830886.4354909-.0625.4647909-.3809114.5487909-.4668.083-.0874-.0146-.3755-.3827909-.3272-.3672091.0474-1.260709-.0976-2.085.6729Z"/>
    <path class="cls-7" d="M163.0673959,20.2680995s.209,1.0879,1.0303,1.2143c0,0,.5781092-.0273.0742-1.0493-.503-1.022-1.5147-.6235-1.1045-.165Z"/>
    <path class="cls-7" d="M150.7489962,11.5009997s2.5195999.1929,4.3349999,5.8407999c0,0,.3086.7554.792.6133,0,0,.6299-.1069.4394-.9585,0,0-.4765-6.1195998-5.2723999-6.1811998,0,0-.5371.0523-.5869.3028-.0459.2529.1806.3384.2929.3828Z"/>
    <path class="cls-7" d="M151.3730962,15.3525996s-.3331.5214.1708.9238c.503.4033.711.873.8458,1.0140885.1347.1421115.3574.3687114.7187.2871115.3604089-.081.4355-.5107.2959-.8217-.1377-.3125-.9062-1.5874115-1.3008-1.67-.3974-.0839-.7304.2667-.7304.2667Z"/>
    <path class="cls-7" d="M164.0683959,12.7494881s-.42.438-.086.8438116c.3321.4096.6631,1.125.7754092,1.3066.1093908.1835885,1.1816908.5264,1.0507908-.3716-.1327908-.9013-1.0087908-2.3553999-1.7402-1.7788115Z"/>
    <path class="cls-7" d="M163.6034959,9.1376998s1.9863091.7256,3.7568999,5.5585999c0,0,.1543.688.7207.4565.5693-.2299.5322-.3935.416-.9179-.1182-.523-.9131-4.9897999-4.6435999-5.6679999,0,0-1.416-.0273-.25.5708Z"/>
  </g>
  <path class="cls-3" d="M202.7328324,94.014791c.2975687.1207379.5537061.2863439.7710619.5020293.2173635.2104743.3881806.4467389.5114799.7038479.1630447.3346568.2441254.6917476.2441254,1.0695061,0,.4295159-.1087259.8401306-.3243229,1.2265448-.2164803.3880923-.5158077.6899811-.9004554.9073446-.3838528.2139189-.7866951.3225565-1.2084385.3225565-.4200653,0-.8228193-.1086376-1.2049939-.3225565-.3846477-.2173635-.6865365-.5192523-.9004554-.9073446-.2173635-.3864142-.3252062-.7970289-.3252062-1.2265448,0-.3639801.0707469-.6969587.2104819-.997081.1389248-.3002107.3139815-.5537867.525339-.7590499.2121601-.2070297.4416162-.3657545.6899888-.4761586.3294457-.1466166.6641908-.2190416,1.0048458-.2190416.3070999,0,.6097836.0586546.9065497.1759479ZM204.4526625,95.0947193c-.1310717-.2949996-.3182209-.565887-.5597927-.8160264-.2414757-.2483569-.5408032-.4570648-.8944494-.6192262-.3553244-.1673725-.7451832-.2501314-1.1721377-.2501314-.4399381,0-.857346.0948592-1.2524235.2845775-.2863439.1380492-.5520202.3277595-.7960573.5675651-.2415641.2397896-.4408213.5364754-.5952103.8884435-.1560672.3536462-.2345966.7348493-.2345966,1.140253,0,.5037074.1268422.9849808.3812131,1.4403754.2553425.4554829.6089964.8091292,1.0643833,1.0643833.4528332.253576.9315452.3812835,1.4326913.3812835.4441776,0,.8633597-.0966177,1.2593127-.289869.3027721-.1466166.5804603-.3501133.8297085-.6072223.2518979-.2552542.445944-.5605876.5856792-.9125557.1371582-.3518798.2070117-.7106488.2070117-1.0763953,0-.4088483-.0862816-.8090409-.2553323-1.195455ZM201.7296571,96.7007007c.1837123,0,.3217616.0258787.4166284.075958.0948515.0483128.163037.1172853.2026941.2018186.0422185.0862035.0689804.2224862.0810807.4157375.0155449.2691209.0327679.4295159.0560853.4812733h.6770859c-.0267619-.0879699-.043985-.2276973-.049196-.4209486-.0034446-.1897183-.0146617-.3276792-.0318847-.4087599-.0276452-.1242708-.0698637-.2294638-.1277077-.3174337-.0594493-.0845253-.1319626-.1518276-.2216107-.2001405-.0879699-.0483128-.2053515-.0879699-.3510849-.1189714.1647228-.0189895.2828993-.0466347.3510849-.0810807.1285103-.0656242.2320251-.1587169.308778-.2812292.078431-.1241745.1172933-.2656683.1172933-.4260633,0-.1656061-.0362125-.3105525-.1095208-.434727-.0725134-.1225043-.1664816-.2208081-.280338-.2966778-.1156151-.075958-.2631149-.1294015-.4433827-.1639279-.1285103-.0241122-.3173454-.0345344-.5666819-.0345344h-1.1436976v3.1844944h.7107371v-1.1747874h.4036372ZM202.1066207,95.231002c.1077544.0327679.1931629.0879699.253576.1656061.061208.0776361.0914146.1707208.0914146.2776883,0,.1035148-.0249955.1949294-.0801975.2777766-.0517574.0810807-.1319549.143172-.2380311.1845956-.1052813.0413353-.21913.0620912-.3364232.0620912h-.4709395v-1.0143924h.4709395c.0948592,0,.198374.0138667.3096613.0466347Z"/>
</svg>