<svg xmlns="http://www.w3.org/2000/svg" viewBox="0 0 1600 560" fill="none">
  <rect width="1600" height="560" fill="url(#sky)" />
  <circle cx="1240" cy="92" r="104" fill="#ECF7FF" fill-opacity=".9" />
  <g filter="url(#blur)">
    <path d="M120 170C120 124.713 156.713 88 202 88H343C364.216 88 384.564 96.4286 399.568 111.432L453.568 165.432C468.571 180.436 477 200.784 477 222V222C477 267.287 440.287 304 395 304H202C156.713 304 120 267.287 120 222V170Z" fill="white" fill-opacity=".96"/>
    <path d="M914 132C914 88.3855 949.386 53 993 53H1144C1165.48 53 1186.08 61.5321 1201.27 76.7244L1263.28 138.728C1278.47 153.92 1287 174.52 1287 196V196C1287 239.615 1251.61 275 1208 275H993C949.386 275 914 239.615 914 196V132Z" fill="white" fill-opacity=".95"/>
    <path d="M1130 312C1130 276.654 1158.65 248 1194 248H1368C1385.51 248 1402.3 254.955 1414.68 267.336L1462.66 315.322C1475.04 327.703 1482 344.493 1482 362V362C1482 397.346 1453.35 426 1418 426H1194C1158.65 426 1130 397.346 1130 362V312Z" fill="white" fill-opacity=".92"/>
    <path d="M262 328C262 287.131 295.131 254 336 254H458C476.045 254 493.351 261.168 506.11 273.928L555.072 322.89C567.832 335.649 575 352.955 575 371V371C575 411.869 541.869 445 501 445H336C295.131 445 262 411.869 262 371V328Z" fill="white" fill-opacity=".88"/>
  </g>
  <path d="M0 398C130 350 268 330 410 342C532 352 664 400 822 406C980 412 1130 370 1270 334C1398 302 1507 297 1600 322V560H0V398Z" fill="#7CB5FF" fill-opacity=".34"/>
  <path d="M0 456C144 416 278 412 414 434C564 458 696 516 859 524C1038 533 1208 470 1360 430C1459 404 1541 398 1600 410V560H0V456Z" fill="#5E97F0" fill-opacity=".22"/>
  <defs>
    <linearGradient id="sky" x1="800" y1="0" x2="800" y2="560" gradientUnits="userSpaceOnUse">
      <stop stop-color="#0E6CF2"/>
      <stop offset=".48" stop-color="#418EFF"/>
      <stop offset="1" stop-color="#94C1FF"/>
    </linearGradient>
    <filter id="blur" x="72" y="20" width="1458" height="473" filterUnits="userSpaceOnUse" color-interpolation-filters="sRGB">
      <feGaussianBlur stdDeviation="10"/>
    </filter>
  </defs>
</svg>
