<svg xmlns="http://www.w3.org/2000/svg" viewBox="0 0 800 1000" fill="none">
  <rect width="800" height="1000" fill="url(#g5)" />
  <circle cx="594" cy="210" r="76" fill="#D9E8FF" />
  <path d="M0 546C83 511 158 510 226 542C299 576 359 640 446 656C543 674 650 626 800 522V1000H0V546Z" fill="#426EBC" />
  <path d="M0 692C118 662 208 694 301 762C383 821 505 850 621 827C690 813 747 780 800 734V1000H0V692Z" fill="#294E90" />
  <g fill="#BBD6FF" fill-opacity=".38">
    <ellipse cx="204" cy="318" rx="128" ry="44" />
    <ellipse cx="156" cy="298" rx="56" ry="56" />
    <ellipse cx="248" cy="292" rx="58" ry="58" />
  </g>
  <g fill="#D7E7FF" fill-opacity=".26">
    <ellipse cx="550" cy="364" rx="144" ry="50" />
    <ellipse cx="490" cy="340" rx="58" ry="58" />
    <ellipse cx="602" cy="336" rx="62" ry="62" />
  </g>
  <defs>
    <linearGradient id="g5" x1="400" y1="0" x2="400" y2="1000" gradientUnits="userSpaceOnUse">
      <stop stop-color="#18335E" />
      <stop offset=".5" stop-color="#3E6AAE" />
      <stop offset="1" stop-color="#7CA6E7" />
    </linearGradient>
  </defs>
</svg>
