<svg xmlns="http://www.w3.org/2000/svg" viewBox="0 0 800 1000" fill="none">
  <rect width="800" height="1000" fill="url(#g2)" />
  <circle cx="186" cy="206" r="72" fill="#F8FDFF" />
  <path d="M0 578C93 515 197 502 313 541C409 573 522 642 631 628C693 620 749 592 800 548V1000H0V578Z" fill="#98C8FF" />
  <path d="M0 700C127 688 216 712 325 786C405 840 521 862 627 838C690 824 747 794 800 756V1000H0V700Z" fill="#6C9FE0" />
  <g fill="#F7FCFF" fill-opacity=".78">
    <ellipse cx="510" cy="244" rx="118" ry="44" />
    <ellipse cx="460" cy="228" rx="52" ry="52" />
    <ellipse cx="550" cy="218" rx="60" ry="60" />
  </g>
  <g fill="#FFFFFF" fill-opacity=".62">
    <ellipse cx="240" cy="362" rx="132" ry="46" />
    <ellipse cx="182" cy="342" rx="56" ry="56" />
    <ellipse cx="286" cy="334" rx="64" ry="64" />
  </g>
  <defs>
    <linearGradient id="g2" x1="400" y1="0" x2="400" y2="1000" gradientUnits="userSpaceOnUse">
      <stop stop-color="#D9F0FF" />
      <stop offset=".48" stop-color="#B4DAFF" />
      <stop offset="1" stop-color="#89B6F5" />
    </linearGradient>
  </defs>
</svg>
