<svg xmlns="http://www.w3.org/2000/svg" viewBox="0 0 800 1000" fill="none">
  <rect width="800" height="1000" fill="#E5F4FF" />
  <rect x="76" y="90" width="648" height="820" rx="36" fill="#F7FBFF" />
  <rect x="120" y="132" width="560" height="736" rx="24" fill="url(#g3)" />
  <circle cx="564" cy="286" r="82" fill="#F6FBFF" fill-opacity=".94" />
  <path d="M120 560C185 522 241 512 297 530C360 550 425 600 503 600C567 600 630 566 680 530V868H120V560Z" fill="#92C1F4" />
  <path d="M120 646C180 638 251 662 316 708C395 762 498 786 597 762C627 754 655 742 680 724V868H120V646Z" fill="#5E94DC" />
  <defs>
    <linearGradient id="g3" x1="400" y1="132" x2="400" y2="868" gradientUnits="userSpaceOnUse">
      <stop stop-color="#DDF2FF" />
      <stop offset=".52" stop-color="#B4DAFF" />
      <stop offset="1" stop-color="#7DADEB" />
    </linearGradient>
  </defs>
</svg>
