<svg xmlns="http://www.w3.org/2000/svg" viewBox="0 0 800 1000" fill="none">
  <rect width="800" height="1000" fill="url(#g4)" />
  <rect x="98" y="110" width="604" height="780" rx="36" fill="#F8FCFF" fill-opacity=".72" />
  <rect x="156" y="174" width="488" height="652" rx="26" fill="#D6EEFF" />
  <circle cx="536" cy="284" r="70" fill="#FFFFFF" />
  <path d="M156 526C224 486 292 480 362 504C416 522 463 558 526 564C570 568 610 556 644 534V826H156V526Z" fill="#8AB8F0" />
  <path d="M156 612C235 630 304 674 376 740C430 789 521 812 604 786C619 782 632 777 644 770V826H156V612Z" fill="#5D90D9" />
  <path d="M0 786C109 742 214 730 315 754C419 778 513 832 619 834C681 836 741 820 800 788V1000H0V786Z" fill="#2E5A9F" fill-opacity=".34" />
  <defs>
    <linearGradient id="g4" x1="400" y1="0" x2="400" y2="1000" gradientUnits="userSpaceOnUse">
      <stop stop-color="#E6F5FF" />
      <stop offset=".45" stop-color="#A8D2FF" />
      <stop offset="1" stop-color="#739EE0" />
    </linearGradient>
  </defs>
</svg>
