<svg xmlns="http://www.w3.org/2000/svg" viewBox="0 0 512 512">
  <circle cx="256" cy="256" r="256" fill="#23272d"/>
  <path fill="#fff" d="M256 98C169 98 98 169 98 256c0 69 44 128 106 149 8 2 10-3 10-7v-27c-43 9-52-18-52-18-7-18-17-23-17-23-14-10 1-10 1-10 15 1 24 16 24 16 14 23 36 16 45 12 1-10 5-16 9-20-34-4-69-17-69-74 0-16 6-28 15-38-2-4-7-20 1-41 0 0 13-4 42 15 12-3 28-5 42-5s30 2 42 5c29-19 42-15 42-15 8 21 3 37 2 41 9 10 15 22 15 38 0 57-35 70-69 74 5 4 10 13 10 27v40c0 4 3 9 10 7 62-21 106-80 106-149 0-87-71-158-158-158Z"/>
</svg>
