<svg xmlns="http://www.w3.org/2000/svg" viewBox="0 0 24 24" role="img" aria-label="GitHub">
  <path fill="#0d1117" d="M12 .5C5.73.5.75 5.48.75 11.75c0 4.96 3.22 9.17 7.69 10.66.56.1.77-.24.77-.54 0-.27-.01-1.17-.02-2.12-3.13.68-3.79-1.33-3.79-1.33-.51-1.3-1.25-1.64-1.25-1.64-1.02-.7.08-.68.08-.68 1.13.08 1.72 1.16 1.72 1.16 1 1.72 2.63 1.22 3.27.93.1-.73.39-1.22.71-1.5-2.5-.28-5.13-1.25-5.13-5.57 0-1.23.44-2.23 1.16-3.02-.12-.29-.5-1.44.11-3 0 0 .95-.3 3.1 1.15.9-.25 1.87-.38 2.83-.38.96 0 1.93.13 2.83.38 2.15-1.45 3.1-1.15 3.1-1.15.61 1.56.23 2.71.11 3 .72.79 1.16 1.79 1.16 3.02 0 4.33-2.63 5.28-5.14 5.56.4.35.76 1.04.76 2.1 0 1.52-.01 2.74-.01 3.11 0 .3.2.65.78.54 4.47-1.49 7.68-5.7 7.68-10.66C23.25 5.48 18.27.5 12 .5z"/>
</svg>
