<?xml version="1.0" encoding="UTF-8"?>
<svg id="_x3C_Layer_x3E_" xmlns="http://www.w3.org/2000/svg" version="1.1" viewBox="0 0 233.620605 128.5312968">
  <!-- Generator: Adobe Illustrator 29.2.1, SVG Export Plug-In . SVG Version: 2.1.0 Build 116)  -->
  <defs>
    <style>
      .st0 {
        fill: #7a0019;
      }
    </style>
  </defs>
  <path class="st0" d="M229.1733942,116.912097c.6699.2676,1.2461.6426,1.7363,1.1241.4883.4803914.8731,1.0087,1.1504,1.5878.3672.754.5508,1.5595914.5508,2.4091999,0,.9688-.2451,1.8906-.7305,2.7607999-.4873.875-1.1621,1.5537-2.0282999,2.0409999-.8633.4873-1.7704892.7295-2.7226999.7295-.9443,0-1.8496-.2422-2.7128999-.7295-.8662-.4873-1.5438893-1.166-2.0282999-2.0409999-.4883-.8702-.7304-1.792-.7304-2.7607999,0-.8222.1572-1.5722.4726-2.2469999.3135-.6749.707-1.2461,1.1846-1.709.4756106-.4639.9941-.8223,1.5556106-1.0713.7382893-.3311,1.4931893-.4942,2.2587893-.4942.6953,0,1.377.1338,2.0439999.4004ZM233.0444941,119.339897c-.2948891-.6621-.7138891-1.2735-1.2578-1.834-.5459-.5635-1.2188-1.0303087-2.0165999-1.4004-.7979-.375-1.6778-.5606-2.6406999-.5606-.9892,0-1.9297.2149-2.8172999.6426-.6464893.3096-1.2432.7363-1.795,1.2754-.5439.5401-.9931,1.207-1.3418,2.0019999-.3506.7959-.5254,1.6523-.5254,2.5682999,0,1.1348.2862,2.2157999.8575,3.2441999.5752106,1.0244,1.373,1.8231915,2.3954999,2.3954999,1.0224.5732,2.0985999.8584,3.2264999.8584,1.003,0,1.9463-.2149,2.8369999-.6485.6835-.333,1.3085-.789,1.871-1.3691.5665-.5772,1.003-1.2637,1.3174-2.0565999.3086-.7911.4658109-1.5997.4658109-2.4238999,0-.9219-.1923109-1.8203-.5761109-2.6932999ZM226.915605,122.9589969c.4110893,0,.7215892.0557.9374892.167.2129.1123.3662.2645915.457.4561.0947.1943.1533.5039.1807.9374915.0332.6064085.0732.9687085.1259,1.0839085h1.5254c-.0604892-.1992-.0986-.5136-.1093-.9463-.0098-.4306085-.0351892-.7382-.0751892-.9209-.0616108-.2841-.1563108-.5205-.2862108-.7148-.1327892-.1904-.2967892-.3437-.498-.4521-.1992-.1114-.4629-.2002-.792-.2676.3721-.0459.6367-.1065.792-.1846.29-.1435.5224-.3555.6972108-.6328.1757892-.2793.2626892-.5977.2626892-.9609,0-.3711-.083-.6963-.2461-.9747-.164-.2792086-.3759-.5-.6337-.6718-.2588-.1699-.5908892-.292-.9971-.3692-.2891-.0527-.7149-.0761-1.2783-.0761h-2.5751999v7.1717998h1.6015v-2.6444999h.9112107ZM227.7612942,119.648497c.2461.0722.4365.1962.5742.3710914.1367.1757086.2051108.3857086.2051108.6298086,0,.2295-.0586108.4366-.1807108.6211-.1172.1866-.2978.3262-.5371.418-.2383.0908-.4931892.1367-.7578.1367h-1.0606v-2.2831999h1.0606c.2148,0,.4463.0352.6963.1065Z"/>
  <polygon class="st0" points="202.495605 95.7362976 164.6332958 32.7958992 175.0629956 32.7958992 175.0629956 0 112.039605 0 112.039605 32.7958992 122.4692969 32.7958992 107.9990973 56.8407986 93.5371976 32.7958992 103.9648974 32.7958992 103.9648974 0 40.942399 0 40.942399 32.7958992 51.3691987 32.7958992 13.5068997 95.7362976 0 95.7362976 0 128.5312968 64.2773984 128.5312968 64.2773984 95.7362976 52.7304987 95.7362976 72.4550982 62.9472984 80.101605 75.6620981 72.768605 75.6620981 72.768605 108.4570973 143.2338964 108.4570973 143.2338964 75.6620981 135.9038966 75.6620981 143.5502964 62.9472984 163.2729959 95.7362976 151.7260962 95.7362976 151.7260962 128.5312968 215.998605 128.5312968 215.998605 95.7362976 202.495605 95.7362976"/>
</svg>