<?xml version="1.0" encoding="UTF-8"?>
<svg id="Layer_1" xmlns="http://www.w3.org/2000/svg" version="1.1" viewBox="0 0 149.5348267 49.1273267">
  <!-- Generator: Adobe Illustrator 29.8.1, SVG Export Plug-In . SVG Version: 2.1.1 Build 2)  -->
  <defs>
    <style>
      .st0 {
        fill: #231f20;
      }

      .st1 {
        fill: #7a0019;
      }
    </style>
  </defs>
  <g>
    <path class="st1" d="M93.2202966,17.806516c.1020304.0407573.1897896.0978724.2644504.1712082.0743714.0731669.1329791.1536319.1752138.2418328.0559271.1148394.0838906.2375365.0838906.3669377,0,.1475549-.0373304.2879514-.1112602.4204888-.0742191.1332685-.1769958.2366392-.308924.3108583-.1314865.0742191-.2696577.1111079-.4146859.1111079-.1438234,0-.2817068-.0368887-.4131933-.1111079-.1319282-.0742191-.235145-.1775898-.308924-.3108583-.0743714-.1325374-.1112449-.2729339-.1112449-.4204888,0-.1252267.0239426-.2394569.0719802-.3422335.0477482-.1027919.107681-.1897896.1804227-.2602924.0724388-.0706552.1514083-.1252419.2369302-.1631663.1124465-.0504288.227423-.0752701.3440291-.0752701.105899,0,.2097266.0203787.3113152.0609837ZM93.8098917,18.1762866c-.0449136-.1008424-.1087302-.1939628-.1915716-.2793308-.0831443-.0858249-.1856316-.1569231-.307142-.2132905-.1215257-.0571151-.2555405-.0853832-.4021968-.0853832-.150662,0-.2939066.0327307-.4290941.0978724-.0984648.0471542-.1893479.1121435-.2733908.1942522-.0828397.0822609-.151256.1838344-.2043654.3049184-.0533988.121221-.080022.2516566-.080022.3911697,0,.1728378.0435902.3374816.1306031.4941139.0876085.1560232.2091173.2776846.3648511.3648511.1557185.0873023.3196312.1307402.4914181.1307402.1527638,0,.2964349-.0327307.4320946-.098771.1041017-.0507182.1992935-.1201701.2849662-.2085233.0862818-.0879115.1527638-.1924702.2006491-.3132343.0470019-.12049.0709462-.2436453.0709462-.3691766,0-.1404117-.0292903-.2772442-.0877456-.4102081ZM92.8764198,18.7275004c.0626117,0,.109903.0084835.1427861.0254352.0324261.0171041.0557748.0402991.0696042.0694672.0144235.0295932.0233486.0767474.0275219.1427864.0050566.0923602.0111489.147541.0191754.1650867h.2323289c-.0092129-.0303395-.0150175-.0782248-.0166471-.144128-.0014926-.0655846-.0053596-.1124329-.0114518-.1402594-.0093837-.0432704-.0238072-.0792757-.0435919-.108869-.0202247-.0289992-.045203-.0523479-.0758488-.0688579-.0303395-.016967-.0705029-.0304918-.120627-.0407573.0566734-.0069909.0969738-.0162207.120627-.0281158.044169-.021856.0795651-.0541451.10619-.0963798.0267739-.0425393.0400094-.0910338.0400094-.1463517,0-.0565211-.0126415-.1060513-.0374827-.1484535-.0249783-.0425254-.0572522-.0761534-.0965169-.1023198-.039417-.0258769-.0899965-.0444736-.1518652-.0562317-.0440319-.0080266-.1088842-.0115906-.1946939-.0115906h-.3922207v1.0923144h.2439195v-.4027755h.1387837ZM93.0052241,18.2232885c.0374827.0109966.0664819.0298826.0874546.0565198.0208203.0267616.0312398.0587461.0312398.0959242,0,.0349544-.0089268.0664972-.0275235.0945978-.0178504.0284205-.045357.0496825-.081804.0636643-.0362947.0138295-.0751161.0208203-.1154181.0208203h-.1615367v-.347747h.1615367c.0327155,0,.0679746.0053612.1060513.0162207Z"/>
    <polygon class="st1" points="89.1570859 14.5812962 83.390396 4.9950409 84.9789109 4.9950409 84.9789109 0 75.3800153 0 75.3800153 4.9950409 76.9685291 4.9950409 74.7646182 8.6572443 72.5619715 4.9950409 74.1501819 4.9950409 74.1501819 0 64.5514221 0 64.5514221 4.9950409 66.1394954 4.9950409 60.372807 14.5812962 58.3156133 14.5812962 58.3156133 19.5762 68.1055029 19.5762 68.1055029 14.5812962 66.3468307 14.5812962 69.3510228 9.5873062 70.5156384 11.5238576 69.3987721 11.5238576 69.3987721 16.5187614 80.1311203 16.5187614 80.1311203 11.5238576 79.014711 11.5238576 80.1793102 9.5873062 83.1832129 14.5812962 81.4245407 14.5812962 81.4245407 19.5762 91.2136856 19.5762 91.2136856 14.5812962 89.1570859 14.5812962"/>
  </g>
  <g>
    <path class="st0" d="M143.1735457,29.2031181l.0545999,1.8475954h-.2420994c-.2246994-1.1854971-.5117893-1.3807966-2.0703949-1.3807966v5.5213863c0,.6464984.3300992.9335977.9316977.9335977v.2597994h-2.8905928v-.2597994c.6035079,0,.9335071-.2870993.9335071-.9335977v-5.5213863c-1.5585055,0-1.8476048.1952995-2.0722042,1.3807966h-.2402994l.0546999-1.8475954h5.5410863Z"/>
    <path class="st0" d="M133.5836694,29.0644185c-1.7714956,0-3.2069921,1.4569964-3.2069921,3.7206908s1.4354964,3.7186908,3.2069921,3.7186908,3.2069921-1.4549964,3.2069921-3.7186908-1.4354964-3.7206908-3.2069921-3.7206908ZM133.5836694,36.0839011c-1.3436967,0-2.1132948-1.2929066-2.1132948-3.2987918,0-2.005895.7695981-3.2968918,2.1132948-3.2968918,1.3456967,0,2.1151948,1.2909968,2.1151948,3.2968918,0,2.0058853-.7694981,3.2987918-2.1151948,3.2987918Z"/>
    <path class="st0" d="M148.7789318,35.4999026c-.1307997-.3359089-2.5370937-6.3983842-2.5370937-6.3983842h-.2421994s-2.1268947,5.5585862-2.3885941,6.2108846c-.2617899.6542984-.5781986.812498-.8300979.812498v.2597994h1.9589952v-.2597994c-.2871993,0-.6113985-.2010995-.6113985-.5135987,0-.0937998.0078-.2050995.0331999-.2714993.0176-.0546999.2206995-.5995985.4765988-1.2948968h2.4882938c.2538994.6893983.4491989,1.220697.4569989,1.2499969.0331999.0936998.0761998.2225994.0761998.3163992,0,.2792993-.2245899.5135987-.6445888.5135987v.2597994h2.5195809v-.2597994c-.306696,0-.6249952-.2889993-.7558949-.6249985ZM144.8258416,33.5409976c.4862988-1.318387,1.0604974-2.8730831,1.0604974-2.8730831,0,0,.5761986,1.5644961,1.0546974,2.8730831h-2.1151948Z"/>
    <path class="st0" d="M123.230195,34.519505c-.3183992.7460982-.7265982,1.4003965-1.8651954,1.4003965h-1.1386883c-.415999,0-.5957074-.1445996-.5957074-.4863988v-2.5565937h1.5468962c.5975985,0,.9139977.3378992,1.0078064.9725976h.2421905v-2.4823939h-.2597994c-.0370999.6894983-.392599,1.0253975-.9335977,1.0253975h-1.603496v-2.4042941c0-.2636993.1679996-.3182992.390599-.3182992h1.3808966c.8573979,0,1.1562061.3534991,1.3436967,1.1561971h.2421994l-.0565999-1.622996h-5.1660784v.2616994c.6015897,0,.8769979.2850993.8769979.9315977v4.7948881c0,.6464984-.2754082.9335977-.8769979.9335977v.2597994h5.2988781l.4647988-1.8651954h-.2987993Z"/>
    <path class="st0" d="M128.6969815,29.0546185l.2050995,2.3691941h-.2617903c-.3535082-1.1660971-.9511067-1.8848052-1.8085046-1.8848052-.6171985,0-.9706976.415999-.9706976.9707075,0,.6327984.4666988,1.0058975,1.0448974,1.3983965.5780986.390699.9686976.6542984,1.1561971.7831981.5351987.3749991,1.0448974,1.0429974,1.0448974,1.8105955,0,1.1679971-.8768978,2.033195-2.033195,2.033195-.7088982,0-1.1561971-.3554991-1.5116963-.3554991-.1952995,0-.2889993.1972995-.3358902.3554991h-.2422084l-.2987903-2.3886941h.2616904c.4374989,1.222697,1.0800973,1.9394952,1.9784951,1.9394952.6698983,0,1.1738062-.4589989,1.1738062-1.210997,0-.6815983-.3593082-1.0077975-.7832071-1.3065968-.4745988-.3358992-1.0624974-.7460982-1.4178965-.9901975-.5546986-.3769991-.8964978-.8886978-.8964978-1.7148958,0-.9882976.6522984-1.8085955,1.7733956-1.8085955.4843988,0,1.0253975.3163893,1.3242058.3163893.2226904,0,.3163901-.1483897.3359992-.3163893h.2616903Z"/>
    <path class="st0" d="M114.4255168,29.2031181v.2616994c.5585986,0,.8944978.4296989.8944978,1.0819973v3.7773907l-3.7303908-5.1210873h-1.623096v.2616994c.3163992,0,.5780986.1483996.7070983.3163992.0156.0195.0897998.1190997.2069995.2753993v4.8182881c0,.820298-.2812907,1.2499969-.9335977,1.2499969v.2597994h2.2948943v-.2597994c-.5604986,0-.8944978-.3729991-.8944978-1.0272975v-4.4101891c1.3573966,1.8339955,4.2889894,5.8105759,4.2889894,5.8105759h.1523996v-5.783176c0-.9140977.3710991-1.2499969.9296977-1.2499969v-.2616994h-2.2929943Z"/>
    <path class="st0" d="M106.4587365,29.2031181v.2616994c.5606072,0,.8944978.4296989.8944978,1.0819973v3.7773907l-3.7303908-5.1210873h-1.623096v.2616994c.3183992,0,.5780986.1483996.7089982.3163992.0137.0195.0898998.1190997.2069995.2753993v4.8182881c0,.820298-.2811993,1.2499969-.9335977,1.2499969v.2597994h2.2949943v-.2597994c-.5605986,0-.8964978-.3729991-.8964978-1.0272975v-4.4101891c1.3573966,1.8339955,4.2909894,5.8105759,4.2909894,5.8105759h.1483996v-5.783176c0-.9140977.3730991-1.2499969.9335977-1.2499969v-.2616994h-2.2948943Z"/>
    <path class="st0" d="M96.8318604,27.1327233v-.2617093h-2.2187945l-2.8925928,7.7597907-2.9091928-7.7597907h-2.2586944v.2617093c.9520976,0,1.2138051.5214987,1.2138051,1.4550964v5.8378856c0,1.3495967-.3789071,1.6991958-1.230405,1.6991958v.2597994h2.9286928v-.2597994c-.8212899,0-1.213897-.3534991-1.213897-1.6991958v-6.0995849l3.0224925,8.07808h.2792993l3.0799924-8.2264796v6.2479845c0,1.3495967-.3065992,1.6991958-1.1581889,1.6991958v.2597994h3.3574835v-.2597994c-.820398,0-1.1367972-.3534991-1.1367972-1.6991958v-5.9686951c0-1.0820874.5781986-1.3242868,1.1367972-1.3242868Z"/>
    <path class="st0" d="M99.5739536,30.3964152c0-.6464984.3300992-.9315977.9335977-.9315977v-.2616994h-2.8924928v.2616994c.6034985,0,.9335977.2850993.9335977.9315977v4.7948881c0,.6464984-.3300992.9335977-.9335977.9335977v.2597994h2.8924928v-.2597994c-.6034985,0-.9335977-.2870993-.9335977-.9335977v-4.7948881Z"/>
    <path class="st0" d="M73.0945191,29.0742185c-1.7713956,0-3.2079921,1.4569964-3.2079921,3.7206908,0,2.2635944,1.4365964,3.7186908,3.2079921,3.7186908,1.7705956,0,3.2070921-1.4550964,3.2070921-3.7186908,0-2.2636944-1.4364964-3.7206908-3.2070921-3.7206908ZM73.0945191,36.0917011c-1.3446967,0-2.1151948-1.2909968-2.1151948-3.2967918,0-2.0079049.7704981-3.2989017,2.1151948-3.2989017,1.3427967,0,2.1132948,1.2909968,2.1132948,3.2989017,0,2.005795-.7704981,3.2967918-2.1132948,3.2967918Z"/>
    <path class="st0" d="M82.5241958,29.2031181h-5.2225871v.2616994c.6014985,0,.8749978.2850993.8749978.9315977v4.7948881c0,.6464984-.2734993.9335977-.8749978.9335977v.2597994h2.7792931v-.2597994c-.5780986,0-.9150977-.2811993-.9150977-.9335977v-2.3143943h1.4921963c.5976985,0,.9150977.3378992,1.0087975.9725976h.2411994v-2.4823939h-.2606994c-.0370999.6894983-.391599,1.0253975-.9325977,1.0253975h-1.5488962v-2.4042941c0-.2636993.1679996-.3182992.3916069-.3182992h1.4374886c.8575058,0,1.1552971.3534991,1.3427967,1.1561971h.2431994l-.0566999-1.622996Z"/>
    <path class="st0" d="M58.5418551,29.2128181l.0556999,1.8456954h-.2421994c-.2235994-1.1835971-.5126987-1.3788966-2.0712949-1.3788966v5.5214863c0,.6464984.3300992.9335977.9325977.9335977v.2597994h-2.8905928v-.2597994c.6034985,0,.9325977-.2870993.9325977-.9335977v-5.5214863c-1.5565961,0-1.8456954.1952995-2.0702949,1.3788966h-.2431994l.0556999-1.8456954h5.5409863Z"/>
    <path class="st0" d="M64.0828414,29.4726175v-.2597994h2.2011946v.2597994c-.3163992,0-.816398.3475991-1.0263975.6913884-.2333994.3828089-1.7723956,2.9473026-1.7723956,2.9473026v2.0897948c0,.6972983.2557994.9335977,1.0077975.9335977v.2597994h-3.0409925v-.2597994c.7528981,0,1.0077975-.2362994,1.0077975-.9335977v-1.9765951s-1.6972958-2.7069933-1.9023879-3.0428925c-.2059995-.3339992-.6162058-.7089982-1.0078049-.7089982v-.2597994h2.835993v.2597994c-.393599,0-.6728983.1776996-.6728983.3827991,0,.1327997.0673998.2909993.1122997.3730991.0478999.0838998,1.4374964,2.3690941,1.4374964,2.3690941,0,0,1.3809041-2.3964941,1.4169965-2.4608939.0380999-.0664998.0566999-.1484996.0566999-.2324994,0-.1972094-.1123997-.4315989-.6533984-.4315989Z"/>
    <path class="st0" d="M47.0867835,29.0546185l.2050995,2.3691941h-.2597994c-.3553991-1.1660971-.9520976-1.8848052-1.8094955-1.8848052-.6161985,0-.9706976.415999-.9706976.9707075,0,.6327984.4657988,1.0058975,1.0448974,1.3983965.5790986.390699.9697046.6542984,1.1561971.7831981.5341987.3749991,1.0439974,1.0429974,1.0439974,1.8105955,0,1.1679971-.8769978,2.033195-2.032195,2.033195-.7099982,0-1.1562902-.3554991-1.5126963-.3554991-.1943995,0-.2880993.1972995-.3339992.3554991h-.2421994l-.2997993-2.3886941h.2616994c.4374989,1.222697,1.0810973,1.9394952,1.9775951,1.9394952.6698983,0,1.1747971-.4589989,1.1747971-1.210997,0-.6815983-.3593991-1.0077975-.7841981-1.3065968-.4745988-.3358992-1.0624904-.7460982-1.4159965-.9901975-.5556986-.3769991-.8954908-.8886978-.8954908-1.7148958,0-.9882976.6512915-1.8085955,1.7713887-1.8085955.4853988,0,1.0263975.3163893,1.3242967.3163893.2235994,0,.3163992-.1483897.3358992-.3163893h.2606994Z"/>
    <path class="st0" d="M51.0418737,30.4062152c0-.6464984.3300992-.9335977.9326048-.9335977v-.2597994h-2.8906v.2597994c.6024985,0,.9326048.2870993.9326048.9335977v4.7948881c0,.6464984-.3301063.9335977-.9326048.9335977v.2597994h2.8906v-.2597994c-.6025057,0-.9326048-.2870993-.9326048-.9335977v-4.7948881Z"/>
    <path class="st0" d="M34.5878144,34.519505c-.3163992.7460982-.7274982,1.4003965-1.8641954,1.4003965h-1.1386972c-.415999,0-.5976985-.1445996-.5976985-.4863988v-2.5565937h1.5488962c.5975985,0,.9149977.3378992,1.0077975.9725976h.2421994v-2.4823939h-.2607994c-.0389999.6894983-.391599,1.0253975-.9335977,1.0253975h-1.604496v-2.4042941c0-.2636993.1689996-.3182992.392599-.3182992h1.3798966c.8583979,0,1.1571971.3534991,1.3436967,1.1561971h.2421994l-.0555999-1.622996h-5.1669872v.2616994c.6025051,0,.8758978.2850993.8758978.9315977v4.7948881c0,.6464984-.2733927.9335977-.8758978.9335977v.2597994h5.2977869l.4657988-1.8651954h-.2987993Z"/>
    <path class="st0" d="M41.4158975,35.8066018c-.1669996-.1991995-1.7587956-2.3827941-2.1122948-2.8691929,1.2851968-.2734091,1.7392957-.9276977,1.7392957-1.8690954,0-1.1190972-.8398979-1.8651954-2.3690941-1.8651954h-2.8730929v.2616994c.6024985,0,.8778978.2850993.8778978.9315977v4.7948881c0,.6464984-.2753993.9335977-.8778978.9335977v.2597994h2.7802931v-.2597994c-.6034917,0-.8788978-.2870993-.8788978-.9335977v-2.1093046c.1932995,0,.3729991-.0077902.5458986-.0156902l2.3280942,3.3183918h1.567403v-.2227092c-.2608063,0-.5409987-.13079-.7276051-.3553894ZM37.7021067,32.6542096v-2.425694c0-.4960988.1014997-.6152985.6542984-.6152985,1.212897,0,1.6601027.5976985,1.6601027,1.4921963,0,1.1015875-.832998,1.5487962-2.0703017,1.5487962h-.2440994Z"/>
    <path class="st0" d="M19.3661521,30.3964152c0-.6464984.3281992-.9315977.9316977-.9315977v-.2616994h-2.8915928v.2616994c.6024985,0,.9335977.2850993.9335977.9315977v4.7948881c0,.6464984-.3310992.9335977-.9335977.9335977v.2597994h2.8915928v-.2597994c-.6034985,0-.9316977-.2870993-.9316977-.9335977v-4.7948881Z"/>
    <path class="st0" d="M24.1034404,29.4648175v-.2616994h-2.6307935v.2616994c.3173992,0,.6542984.2050995.8769042.7460982.224593.5389987,2.5937872,6.2870747,2.5937872,6.2870747h.1669996s2.0722014-5.783176,2.2587944-6.2870747c.1864995-.5039086.5028988-.7460982.800698-.7460982v-.2616994h-2.032195v.2616994c.4472989,0,.6903983.2421895.6903983.5585986,0,.0936998-.0252999.1952995-.0575999.2811993-.0389999.1093899-1.5096963,4.2343798-1.5096963,4.2343798,0,0-1.7372957-4.1679898-1.7880956-4.2948796-.0400935-.0956998-.0595999-.2167995-.0595999-.3241992,0-.2831993.2392994-.4550989.6903983-.4550989Z"/>
    <path class="st0" d="M0,27.1327233c.7841981,0,1.193397.390699,1.193397,1.5097963v4.441389c0,2.2441944,1.232397,3.4335915,3.3778916,3.4335915,1.8456954,0,3.2646919-1.1210972,3.2646919-3.2850919v-4.849688c0-.7459982.2236055-1.2499969,1.1190972-1.2499969v-.2617093h-2.834993v.2617093c.801798,0,1.1367972.3554991,1.1562971,1.3242868.0185.9707075.0742058,3.5078012.0742058,5.0194975,0,1.5097963-1.0819973,2.4608939-2.5556997,2.4608939-1.4168965,0-2.5370937-.8397979-2.5370937-2.6112935v-4.9628877c0-.7323982.2802993-1.230497,1.1201972-1.230497v-.2617093H0v.2617093Z"/>
    <path class="st0" d="M13.6191663,29.2031181v.2616994c.5594986,0,.8944978.4296989.8944978,1.0819973v3.7773907l-3.7304908-5.1210873h-1.622996v.2616994c.3174053,0,.5780986.1483996.7098982.3163992.0137.0195.0888998.1190997.2050995.2753993v4.8182881c0,.820298-.2802993,1.2499969-.9325916,1.2499969v.2597994h2.2938883v-.2597994c-.5594986,0-.8954978-.3729991-.8954978-1.0272975v-4.4101891c1.3564966,1.8339955,4.2910894,5.8105759,4.2910894,5.8105759h.1483996v-5.783176c0-.9140977.3729991-1.2499969.9325977-1.2499969v-.2616994h-2.2938943Z"/>
  </g>
  <g>
    <path class="st0" d="M8.7403622,47.5540657c.158205.2690462.3652387.4790096.6211012.6308669.2553741.151369.5327212.2275418.8320412.2275418.2163112,0,.4145557-.0283207.5947337-.0844737.1796897-.0566413.3432658-.1357438.4907285-.2373075.1469744-.102052.2729525-.2202175.3769576-.3544964v.7280361c-.1909203.1689473-.3989306.2949254-.6240309.3769576-.2255886.0825205-.5048889.1235366-.8383889.1235366-.31641,0-.612312-.0576179-.8872176-.1723653-.2753939-.1147475-.517096-.2768588-.7251063-.4873105-.2080103-.2099635-.3701216-.4585016-.4873105-.7441495-.1171889-.2861362-.1757834-.5981517-.1757834-.9360464s.0585945-.6499101.1757834-.9360464.2793002-.5341861.4873105-.7441495c.2080103-.2104517.4497124-.3730513.7251063-.4877988.2749056-.1147475.5708076-.1723653.8872176-.1723653.3335001,0,.6128003.0415044.8383889.1235366.2251004.0825205.4331107.2080103.6240309.3774459v.7275478c-.1040052-.134279-.2299832-.2519561-.3769576-.3540081-.1474627-.1015637-.3110389-.1811545-.4907285-.2373075-.1801779-.056153-.3784225-.0844737-.5947337-.0844737-.29932,0-.5766671.0756845-.8320412.2275418-.2558624.1518573-.4628962.3608442-.6211012.6274489-.158205.2661165-.2368192.5771553-.2368192.9326283,0,.3510784.0786142.6606524.2368192.9292103Z"/>
    <path class="st0" d="M13.1183443,48.8997849h-.5200258v-2.9902702h.5200258v2.9902702ZM13.8336849,46.3680163c-.0566413-.0239261-.1279312-.035645-.2148463-.035645-.1298844,0-.2314481.0322269-.3051794.0971691-.0737314.0654305-.1245132.1542987-.1528339.2666048-.0283207.1127943-.042481.2407255-.042481.3837937h-.2338895c0-.2382841.042481-.4497124.1269546-.6337966s.19385-.3305704.3281289-.4389701.270511-.1625996.4096729-.1625996c.1079114,0,.2089869.0141603.3022472.042481.0927771.0283207.1787156.0834971.2563533.1655293l-.2856479.4292044c-.0693368-.0522467-.1323258-.0898448-.1884788-.1137709Z"/>
    <path class="st0" d="M14.6750035,46.5989761c.1367204-.2343778.3217812-.418462.5556707-.552741.2343778-.134279.496588-.2016626.7866305-.2016626.2949254,0,.5581121.0673836.7900485.2016626.2314481.134279.4160206.3183632.5522527.552741.1367204.2338895.2045923.5024474.2045923.8056737,0,.29932-.0678719.5669013-.2045923.802744-.1362321.236331-.3208046.4213918-.5522527.5556707-.2319364.1347672-.4951231.2016626-.7900485.2016626-.2900425,0-.5522527-.0668953-.7866305-.2016626-.2338895-.134279-.4189503-.3193398-.5556707-.5556707-.1362321-.2358427-.2045923-.503424-.2045923-.802744,0-.3032263.0683602-.5717842.2045923-.8056737ZM15.1300871,47.9573908c.0888683.1601582.2099635.2871128.3642622.3803756.1533221.0927745.3281289.1396501.5229555.1396501.1953148,0,.3696333-.0468756.5234438-.1396501.1538104-.0932628.2749056-.2202175.3637739-.3803756s.1333024-.3447307.1333024-.552741-.0444341-.3930711-.1333024-.5556707-.2099635-.289066-.3637739-.3803756c-.1538104-.0908214-.3281289-.1362321-.5234438-.1362321-.1948266,0-.3696333.0454107-.5229555.1362321-.1542987.0913097-.2753939.217776-.3642622.3803756s-.1333024.3476604-.1333024.5556707.0444341.3925828.1333024.552741Z"/>
    <path class="st0" d="M18.2238741,46.5989761c.1367204-.2343778.3217812-.418462.5556707-.552741.2343778-.134279.496588-.2016626.7866305-.2016626.2949254,0,.5581121.0673836.7900485.2016626.2314481.134279.4160206.3183632.5522527.552741.1367204.2338895.2045923.5024474.2045923.8056737,0,.29932-.0678719.5669013-.2045923.802744-.1362321.236331-.3208046.4213918-.5522527.5556707-.2319364.1347672-.4951231.2016626-.7900485.2016626-.2900425,0-.5522527-.0668953-.7866305-.2016626-.2338895-.134279-.4189503-.3193398-.5556707-.5556707-.1362321-.2358427-.2045923-.503424-.2045923-.802744,0-.3032263.0683602-.5717842.2045923-.8056737ZM18.6789577,47.9573908c.0888683.1601582.2099635.2871128.3642622.3803756.1533221.0927745.3281289.1396501.5229555.1396501.1953148,0,.3696333-.0468756.5234438-.1396501.1538104-.0932628.2749056-.2202175.3637739-.3803756s.1333024-.3447307.1333024-.552741-.0444341-.3930711-.1333024-.5556707-.2099635-.289066-.3637739-.3803756c-.1538104-.0908214-.3281289-.1362321-.5234438-.1362321-.1948266,0-.3696333.0454107-.5229555.1362321-.1542987.0913097-.2753939.217776-.3642622.3803756s-.1333024.3476604-.1333024.5556707.0444341.3925828.1333024.552741Z"/>
    <path class="st0" d="M22.31572,43.8299v5.0698849h-.5200258v-5.0698849h.5200258ZM24.0706238,45.9095147l-1.2998202,1.2353663,1.4297046,1.7549038h-.6499101l-1.4301929-1.7549038,1.3003085-1.2353663h.6499101Z"/>
    <path class="st0" d="M25.0193656,48.236691c.0781259.0781259.1679708.1396501.2700228.1855491.1015637.0454107.2133815.0678719.3344767.0678719.1474627,0,.2631867-.0332035.3481487-.1005871.0844737-.0668953.1264664-.1591816.1264664-.2763705,0-.1040052-.0336918-.1914085-.1005871-.2631867-.0673836-.0712899-.1528339-.1318375-.256839-.1821311-.1040052-.0498053-.214358-.0961926-.3315469-.1396501-.1298844-.0517584-.2612336-.1137709-.3930711-.1850608-.1323258-.0717782-.2426787-.1645528-.3315469-.2797885-.0888683-.1147475-.1333051-.2587922-.1333051-.4321341,0-.1777365.04639-.3247109.1396528-.4418998s.214358-.2036157.3642622-.260257c.1494159-.056153.3042029-.0844737.464361-.0844737.1606465,0,.3110389.0263675.4521538.0781259.1406267.0522467.2651399.1215835.3735396.2080103.1083997.0869151.1928734.1865257.253421.2988317l-.4160206.2666048c-.0825205-.112306-.1850608-.2055689-.3085974-.2793002s-.2631867-.1103529-.4194386-.1103529c-.1083997,0-.2011743.0234378-.2793002.0712899s-.1171889.1215835-.1171889.2211941c0,.0776376.0302738.1469744.0913097.2080103.0605476.0605476.1381852.1147475.2338895.1621113.095216.0478521.1948266.0932628.2988317.1367204.1733419.0693368.3315469.1440447.4746151.2241238s.256839.1767599.3413127.2895542c.0844737.112306.1264664.2578156.1264664.4350638,0,.260257-.0942394.4770565-.2827182.6503984s-.4365287.2597687-.7441495.2597687c-.1992211,0-.3793991-.035645-.5395572-.1074232-.1601582-.0712899-.295902-.1630879-.4062549-.2758822s-.19385-.2275418-.250003-.3447307l.4091846-.253421c.0610359.0908214.1303727.1752951.2080103.253421Z"/>
    <path class="st0" d="M28.3475305,45.9095147v.4877988h-1.4946468v-.4877988h1.4946468ZM27.8602199,44.8699515v4.0298334h-.5200258v-4.0298334h.5200258Z"/>
    <path class="st0" d="M28.8123798,46.5989761c.1367204-.2343778.3217812-.418462.5556707-.552741.2343778-.134279.496588-.2016626.7866305-.2016626.2949254,0,.5581121.0673836.7900485.2016626.2314481.134279.4160206.3183632.5522527.552741.1367204.2338895.2045923.5024474.2045923.8056737,0,.29932-.0678719.5669013-.2045923.802744-.1362321.236331-.3208046.4213918-.5522527.5556707-.2319364.1347672-.4951231.2016626-.7900485.2016626-.2900425,0-.5522527-.0668953-.7866305-.2016626-.2338895-.134279-.4189503-.3193398-.5556707-.5556707-.1362321-.2358427-.2045923-.503424-.2045923-.802744,0-.3032263.0683602-.5717842.2045923-.8056737ZM29.2674633,47.9573908c.0888683.1601582.2099635.2871128.3642622.3803756.1533221.0927745.3281289.1396501.5229555.1396501.1953148,0,.3696333-.0468756.5234438-.1396501.1538104-.0932628.2749056-.2202175.3637739-.3803756s.1333024-.3447307.1333024-.552741-.0444341-.3930711-.1333024-.5556707-.2099635-.289066-.3637739-.3803756c-.1538104-.0908214-.3281289-.1362321-.5234438-.1362321-.1948266,0-.3696333.0454107-.5229555.1362321-.1542987.0913097-.2753939.217776-.3642622.3803756s-.1333024.3476604-.1333024.5556707.0444341.3925828.1333024.552741Z"/>
    <path class="st0" d="M34.1718189,46.5208502c-.1083997-.1254898-.2666048-.1884788-.4746151-.1884788-.1518573,0-.2851597.0312504-.3999071.0942394s-.2036157.1503924-.2666048.2631867c-.0625007.1127943-.0942394.2426787-.0942394.3901414v1.819846h-.5200258v-2.9902702h.5200258v.4682673c.0996106-.1821311.2246121-.31641.3740279-.4028369.1494159-.0869151.3217812-.1303727.5166077-.1303727.31641,0,.566413.10547.7509855.3154335.1840842.2104517.2758822.4951231.2758822.8549907v1.8847882h-.5200258v-1.819846c0-.2470733-.0541999-.4335989-.1621113-.5590887Z"/>
    <path class="st0" d="M40.3139823,44.3499258v4.5498591h-.5522527v-4.5498591h.5522527ZM40.0673973,48.8997849v-.552741h1.0590947c.2558624,0,.489752-.0395513.7021568-.1201186.2124049-.0800791.394536-.1948266.545905-.3442424.1518573-.1499041.2690462-.3305704.3510784-.5429752.0825205-.2124049.1235366-.450689.1235366-.7148523s-.0410161-.5029357-.1235366-.7153406c-.0820322-.2119166-.1992211-.3930711-.3510784-.542487-.151369-.1494159-.3335001-.2641633-.545905-.3447307-.2124049-.0800791-.4462944-.1201186-.7021568-.1201186h-1.0590947v-.5522527h1.0590947c.4423881,0,.8344826.095216,1.1767719.2856479.3422893.1909203.6108472.4560601.806162.7963962.1948266.3403361.292484.7378018.292484,1.1928854s-.0976574.8525493-.292484,1.1928854c-.1953148.3398478-.4638727.605476-.806162.795908-.3422893.1909203-.7343838.2861362-1.1767719.2861362h-1.0590947Z"/>
    <path class="st0" d="M44.8316144,48.2821017c.1083997.1303727.2666048.1953148.4746151.1953148.151369,0,.2846714-.0317387.3999071-.0942394.1147475-.062989.2036157-.1508807.2661165-.2631867.062989-.1127943.0942394-.2426787.0942394-.3901414v-1.8203343h.5200258v2.9902702h-.5200258v-.467779c-.0996106.1777365-.2231472.3105506-.3701216.3994188-.1474627.0888683-.3208046.1333024-.5200258.1333024-.3120155,0-.5615302-.1059583-.7475675-.3183632-.1865257-.2124049-.2797885-.4960997-.2797885-.8515727v-1.8852765h.5200258v1.8203343c0,.2382841.0541999.4223683.1625996.5522527Z"/>
    <path class="st0" d="M48.0811651,43.8299v5.0698849h-.5200258v-5.0698849h.5200258Z"/>
    <path class="st0" d="M49.7388997,48.2821017c.1083997.1303727.2666048.1953148.4746151.1953148.151369,0,.2846714-.0317387.3999071-.0942394.1147475-.062989.2036157-.1508807.2661165-.2631867.062989-.1127943.0942394-.2426787.0942394-.3901414v-1.8203343h.5200258v2.9902702h-.5200258v-.467779c-.0996106.1777365-.2231472.3105506-.3701216.3994188-.1474627.0888683-.3208046.1333024-.5200258.1333024-.3120155,0-.5615302-.1059583-.7475675-.3183632-.1865257-.2124049-.2797885-.4960997-.2797885-.8515727v-1.8852765h.5200258v1.8203343c0,.2382841.0541999.4223683.1625996.5522527Z"/>
    <path class="st0" d="M53.5089644,45.9095147v.4877988h-1.4946468v-.4877988h1.4946468ZM53.0216539,44.8699515v4.0298334h-.5200258v-4.0298334h.5200258Z"/>
    <path class="st0" d="M54.5490159,48.8997849h-.5200258v-5.0698849h.5200258v5.0698849ZM55.787312,46.5208502c-.1059583-.1254898-.2651399-.1884788-.4775448-.1884788-.1518573,0-.2851597.0322269-.3999071.0971691-.1147475.0654305-.2036157.1542987-.2666048.2666048-.0625007.1127943-.0942394.2407255-.0942394.3837937h-.1689473c0-.2382841.0454107-.4497124.1367204-.6337966.0908214-.1840842.2153346-.3305704.3735396-.4389701s.3413127-.1625996.549323-.1625996.3891648.0434576.5429752.1303727c.1538104.0864268.2729525.2163112.3574262.3896531s.1264664.3901414.1264664.6503984v1.8847882h-.5200258v-1.819846c0-.2470733-.052735-.4335989-.1591816-.5590887Z"/>
    <path class="st0" d="M61.7262893,48.8997849h-.552741l.552741-4.7774009,1.819846,3.2954496,1.8203343-3.2954496.5522527,4.7774009h-.5522527l-.338383-3.0747438-1.4819513,2.6523755-1.4819513-2.6523755-.3378947,3.0747438Z"/>
    <path class="st0" d="M66.6111134,46.5989761c.1367204-.2343778.3217812-.418462.5556707-.552741.2343778-.134279.496588-.2016626.7866305-.2016626.2949254,0,.5581121.0673836.7900485.2016626.2314481.134279.4160206.3183632.5522527.552741.1367204.2338895.2045923.5024474.2045923.8056737,0,.29932-.0678719.5669013-.2045923.802744-.1362321.236331-.3208046.4213918-.5522527.5556707-.2319364.1347672-.4951231.2016626-.7900485.2016626-.2900425,0-.5522527-.0668953-.7866305-.2016626-.2338895-.134279-.4189503-.3193398-.5556707-.5556707-.1362321-.2358427-.2045923-.503424-.2045923-.802744,0-.3032263.0683602-.5717842.2045923-.8056737ZM67.0661969,47.9573908c.0888683.1601582.2099635.2871128.3642622.3803756.1533221.0927745.3281289.1396501.5229555.1396501.1953148,0,.3696333-.0468756.5234438-.1396501.1538104-.0932628.2749056-.2202175.3637739-.3803756s.1333024-.3447307.1333024-.552741-.0444341-.3930711-.1333024-.5556707-.2099635-.289066-.3637739-.3803756c-.1538104-.0908214-.3281289-.1362321-.5234438-.1362321-.1948266,0-.3696333.0454107-.5229555.1362321-.1542987.0913097-.2753939.217776-.3642622.3803756s-.1333024.3476604-.1333024.5556707.0444341.3925828.1333024.552741Z"/>
    <path class="st0" d="M70.7351862,48.8997849h-.5200258v-2.9902702h.5200258v2.9902702ZM71.4505268,46.3680163c-.0566413-.0239261-.1279312-.035645-.2148463-.035645-.1298844,0-.2314481.0322269-.3051794.0971691-.0737314.0654305-.1245132.1542987-.1528339.2666048-.0283207.1127943-.042481.2407255-.042481.3837937h-.2338895c0-.2382841.042481-.4497124.1269546-.6337966s.19385-.3305704.3281289-.4389701.270511-.1625996.4096729-.1625996c.1079114,0,.2089869.0141603.3022497.042481.0927745.0283207.1787131.0834971.2563507.1655293l-.2856479.4292044c-.0693368-.0522467-.1323258-.0898448-.1884788-.1137709Z"/>
    <path class="st0" d="M72.964705,48.8997849h-.5200258v-2.9902702h.5200258v2.9902702ZM73.6800456,46.3680163c-.0566413-.0239261-.1279312-.035645-.2148463-.035645-.1298844,0-.2314481.0322269-.3051794.0971691-.0737314.0654305-.1245132.1542987-.1528339.2666048-.0283207.1127943-.042481.2407255-.042481.3837937h-.2338895c0-.2382841.042481-.4497124.1269546-.6337966s.19385-.3305704.3281289-.4389701.270511-.1625996.4096729-.1625996c.1079114,0,.2089869.0141603.3022497.042481.0927745.0283207.1787131.0834971.2563507.1655293l-.2856479.4292044c-.0693368-.0522467-.1323258-.0898448-.1884788-.1137709Z"/>
    <path class="st0" d="M74.7816213,44.4212157c.0712899-.0693368.154787-.1040052.2504913-.1040052.0996106,0,.1840842.0346684.253421.1040052s.1040052.1538104.1040052.253421c0,.0957043-.0346684.1787131-.1040052.2504913-.0693368.0712899-.1538104.1069349-.253421.1069349-.0957043,0-.1792014-.035645-.2504913-.1069349-.0712899-.0717782-.1074232-.154787-.1074232-.2504913,0-.0996106.0361332-.1840842.1074232-.253421ZM75.2918813,45.9095147v2.9902702h-.5200258v-2.9902702h.5200258Z"/>
    <path class="st0" d="M76.6957067,48.236691c.0781259.0781259.1679708.1396501.2700228.1855491.1015637.0454107.2133815.0678719.3344767.0678719.1474627,0,.2631867-.0332035.3481487-.1005871.0844737-.0668953.1264664-.1591816.1264664-.2763705,0-.1040052-.0336918-.1914085-.1005871-.2631867-.0673836-.0712899-.1528339-.1318375-.256839-.1821311-.1040052-.0498053-.214358-.0961926-.3315469-.1396501-.1298844-.0517584-.2612336-.1137709-.3930711-.1850608-.1323258-.0717782-.2426787-.1645528-.3315469-.2797885-.0888683-.1147475-.1333024-.2587922-.1333024-.4321341,0-.1777365.0463873-.3247109.1396501-.4418998s.214358-.2036157.3642622-.260257c.1494159-.056153.3042029-.0844737.464361-.0844737.1606465,0,.3110389.0263675.4521538.0781259.1406267.0522467.2651399.1215835.3735396.2080103.1083997.0869151.1928734.1865257.253421.2988317l-.4160206.2666048c-.0825205-.112306-.1850608-.2055689-.3085974-.2793002s-.2631867-.1103529-.4194386-.1103529c-.1083997,0-.2011743.0234378-.2793002.0712899s-.1171889.1215835-.1171889.2211941c0,.0776376.0302738.1469744.0913097.2080103.0605476.0605476.1381852.1147475.2338895.1621113.095216.0478521.1948266.0932628.2988317.1367204.1733419.0693368.3315469.1440447.4746151.2241238s.256839.1767599.3413127.2895542c.0844737.112306.1264664.2578156.1264664.4350638,0,.260257-.0942394.4770565-.2827182.6503984s-.4365287.2597687-.7441495.2597687c-.1992211,0-.3793991-.035645-.5395572-.1074232-.1601582-.0712899-.295902-.1630879-.4062549-.2758822s-.19385-.2275418-.250003-.3447307l.4091846-.253421c.0610359.0908214.1303727.1752951.2080103.253421Z"/>
    <path class="st0" d="M84.6146218,47.0319119c.1199951-.0299683.2299805-.0700073.3300171-.1199951.2299805-.1099854.4099731-.2700195.5499878-.4699707.1400146-.210022.2000122-.4500122.2000122-.7300415,0-.2799683-.0599976-.5199585-.2000122-.7299805-.1400146-.2000122-.3200073-.3599854-.5499878-.4700317-.2399902-.1099854-.5-.1599731-.7900391-.1599731h-1.2399902v4.5499878h.5499878v-1.8200073h.5500488l1.2699585,1.8200073h.6900024l-1.3599854-1.8699951ZM83.4645974,46.5919095v-1.75h.6900024c.1900024,0,.3600464.0300293.5100098.1000366.1500244.0699463.2700195.1699829.3500366.2999878.0899658.1300049.1300049.289978.1300049.4699707,0,.1900024-.0400391.3500366-.1300049.4800415-.0800171.1300049-.2000122.2299805-.3500366.2999878-.1499634.0700073-.3200073.0999756-.5100098.0999756h-.6900024Z"/>
    <path class="st0" d="M86.4682846,46.5989761c.1367204-.2343778.3217812-.418462.5556707-.552741.2343778-.134279.496588-.2016626.7866305-.2016626.2949254,0,.5581121.0673836.7900485.2016626.2314481.134279.4160206.3183632.5522527.552741.1367204.2338895.2045923.5024474.2045923.8056737,0,.29932-.0678719.5669013-.2045923.802744-.1362321.236331-.3208046.4213918-.5522527.5556707-.2319364.1347672-.4951231.2016626-.7900485.2016626-.2900425,0-.5522527-.0668953-.7866305-.2016626-.2338895-.134279-.4189503-.3193398-.5556707-.5556707-.1362321-.2358427-.2045923-.503424-.2045923-.802744,0-.3032263.0683602-.5717842.2045923-.8056737ZM86.9233682,47.9573908c.0888683.1601582.2099635.2871128.3642622.3803756.1533221.0927745.3281289.1396501.5229555.1396501.1953148,0,.3696333-.0468756.5234438-.1396501.1538104-.0932628.2749056-.2202175.3637739-.3803756s.1333024-.3447307.1333024-.552741-.0444341-.3930711-.1333024-.5556707-.2099635-.289066-.3637739-.3803756c-.1538104-.0908214-.3281289-.1362321-.5234438-.1362321-.1948266,0-.3696333.0454107-.5229555.1362321-.1542987.0913097-.2753939.217776-.3642622.3803756s-.1333024.3476604-.1333024.5556707.0444341.3925828.1333024.552741Z"/>
    <path class="st0" d="M90.4400118,47.9573908c.08838.1601582.2099635.2871128.3637739.3803756.1538104.0927745.3281289.1396501.5234438.1396501.1601582,0,.3105506-.0249026.4516656-.0747079.1406267-.0498053.2631867-.1171889.3671919-.2016626s.1777365-.1743185.2211941-.2695345v.6499101c-.1040052.1210952-.2529327.2153346-.4453178.2827182-.1928734.0668953-.391118.1005871-.5947337.1005871-.2905308,0-.552741-.0668953-.7866305-.2016626-.2338895-.134279-.4194386-.3193398-.5556707-.5556707-.1367204-.2358427-.2050806-.503424-.2050806-.802744,0-.3032263.0683602-.5717842.2050806-.8056737.1362321-.2343778.3217812-.418462.5556707-.552741s.4960997-.2016626.7866305-.2016626c.2036157,0,.4018603.0336918.5947337.1010754.1923851.0668953.3413127.1611347.4453178.2827182v.6499101c-.0434576-.0996106-.1171889-.190432-.2211941-.2729525s-.2265652-.1484393-.3671919-.1982446c-.141115-.0498053-.2915074-.0747079-.4516656-.0747079-.1953148,0-.3696333.0454107-.5234438.1362321-.1538104.0913097-.2753939.217776-.3637739.3803756-.0888683.1625996-.1333024.3476604-.1333024.5556707s.0444341.3925828.1333024.552741Z"/>
    <path class="st0" d="M93.6993282,48.8997849h-.5200258v-5.0698849h.5200258v5.0698849ZM94.9376242,46.5208502c-.1059583-.1254898-.2651399-.1884788-.4775448-.1884788-.1518573,0-.2851597.0322269-.3999071.0971691-.1147475.0654305-.2036157.1542987-.2666048.2666048-.0625007.1127943-.0942394.2407255-.0942394.3837937h-.1689473c0-.2382841.0454107-.4497124.1367204-.6337966.0908214-.1840842.2153346-.3305704.3735396-.4389701s.3413127-.1625996.549323-.1625996.3891648.0434576.5429752.1303727c.1538104.0864268.2729525.2163112.3574262.3896531s.1264664.3901414.1264664.6503984v1.8847882h-.5200258v-1.819846c0-.2470733-.052735-.4335989-.1591816-.5590887Z"/>
    <path class="st0" d="M97.0113795,48.7664825c-.214358-.1323258-.3813522-.3154335-.5004943-.549323s-.1787131-.5048889-.1787131-.8125097c0-.3120155.0615242-.5849679.1850608-.8188575s.2968786-.4160206.5200258-.545905c.2231472-.1303727.4819394-.1953148.7768648-.1953148.2944371,0,.5468815.0620125.7573333.1855491.2099635.1235366.3715865.2998083.4843808.5297915.112306.2294949.1689473.5024474.1689473.8188575,0,.0302738-.0014649.0615242-.003418.0942394s-.003418.0532233-.003418.0615242h-2.5542298v-.4418998h2.1450452l-.2080103.29932c.0126955-.0219729.0258792-.0556647.039063-.1010754.0126955-.0454107.0195315-.0830088.0195315-.1137709,0-.1772482-.0361332-.3315469-.1074232-.4614313s-.1699239-.2314481-.295902-.3051794c-.1254898-.0737314-.2729525-.1108412-.4418998-.1108412-.1992211,0-.3696333.042481-.51026.1269546s-.2490264.2055689-.3251992.3637739c-.0756845.158205-.115724.352055-.1201186.5820382,0,.2338895.0366215.4331107.1103529.5976634.0737314.165041.1821311.2905308.3251992.3769576.1430681.0869151.31641.1303727.5200258.1303727s.3833054-.0444341.5395572-.1333024c.1557636-.0888683.2880894-.2241238.3964891-.4062549l.4223683.2666048c-.1557636.2509796-.352055.4409232-.5878977.5683662-.236331.1279312-.5146546.1918968-.8354592.1918968-.2773471,0-.5234438-.0659188-.7378018-.1982446Z"/>
    <path class="st0" d="M100.2711842,48.236691c.0781259.0781259.1679708.1396501.2700228.1855491.1015637.0454107.2133815.0678719.3344767.0678719.1474627,0,.2631867-.0332035.3481487-.1005871.0844737-.0668953.1264664-.1591816.1264664-.2763705,0-.1040052-.0336918-.1914085-.1005871-.2631867-.0673836-.0712899-.1528339-.1318375-.256839-.1821311-.1040052-.0498053-.214358-.0961926-.3315469-.1396501-.1298844-.0517584-.2612336-.1137709-.3930711-.1850608-.1323258-.0717782-.2426787-.1645528-.3315469-.2797885-.0888683-.1147475-.1333024-.2587922-.1333024-.4321341,0-.1777365.0463873-.3247109.1396501-.4418998s.214358-.2036157.3642622-.260257c.1494159-.056153.3042029-.0844737.464361-.0844737.1606465,0,.3110389.0263675.4521538.0781259.1406267.0522467.2651399.1215835.3735396.2080103.1083997.0869151.1928734.1865257.253421.2988317l-.4160206.2666048c-.0825205-.112306-.1850608-.2055689-.3085974-.2793002s-.2631867-.1103529-.4194386-.1103529c-.1083997,0-.2011743.0234378-.2793002.0712899s-.1171889.1215835-.1171889.2211941c0,.0776376.0302738.1469744.0913097.2080103.0605476.0605476.1381852.1147475.2338895.1621113.095216.0478521.1948266.0932628.2988317.1367204.1733419.0693368.3315469.1440447.4746151.2241238s.256839.1767599.3413127.2895542c.0844737.112306.1264664.2578156.1264664.4350638,0,.260257-.0942394.4770565-.2827182.6503984s-.4365287.2597687-.7441495.2597687c-.1992211,0-.3793991-.035645-.5395572-.1074232-.1601582-.0712899-.295902-.1630879-.4062549-.2758822s-.19385-.2275418-.250003-.3447307l.4091846-.253421c.0610359.0908214.1303727.1752951.2080103.253421Z"/>
    <path class="st0" d="M103.599349,45.9095147v.4877988h-1.4946468v-.4877988h1.4946468ZM103.1120385,44.8699515v4.0298334h-.5200258v-4.0298334h.5200258Z"/>
    <path class="st0" d="M104.5383251,48.7664825c-.214358-.1323258-.3813522-.3154335-.5004943-.549323s-.1787131-.5048889-.1787131-.8125097c0-.3120155.0615242-.5849679.1850608-.8188575s.2968786-.4160206.5200258-.545905c.2231472-.1303727.4819394-.1953148.7768648-.1953148.2944371,0,.5468815.0620125.7573333.1855491.2099635.1235366.3715865.2998083.4843808.5297915.112306.2294949.1689473.5024474.1689473.8188575,0,.0302738-.0014649.0615242-.003418.0942394s-.003418.0532233-.003418.0615242h-2.5542298v-.4418998h2.1450452l-.2080103.29932c.0126955-.0219729.0258792-.0556647.039063-.1010754.0126955-.0454107.0195315-.0830088.0195315-.1137709,0-.1772482-.0361332-.3315469-.1074232-.4614313s-.1699239-.2314481-.295902-.3051794c-.1254898-.0737314-.2729525-.1108412-.4418998-.1108412-.1992211,0-.3696333.042481-.51026.1269546s-.2490264.2055689-.3251992.3637739c-.0756845.158205-.115724.352055-.1201186.5820382,0,.2338895.0366215.4331107.1103529.5976634.0737314.165041.1821311.2905308.3251992.3769576.1430681.0869151.31641.1303727.5200258.1303727s.3833054-.0444341.5395572-.1333024c.1557636-.0888683.2880894-.2241238.3964891-.4062549l.4223683.2666048c-.1557636.2509796-.352055.4409232-.5878977.5683662-.236331.1279312-.5146546.1918968-.8354592.1918968-.2773471,0-.5234438-.0659188-.7378018-.1982446Z"/>
    <path class="st0" d="M107.9866085,48.8997849h-.5200258v-2.9902702h.5200258v2.9902702ZM108.7019491,46.3680163c-.0566413-.0239261-.1279312-.035645-.2148463-.035645-.1298844,0-.2314481.0322269-.3051794.0971691-.0737314.0654305-.1245132.1542987-.1528339.2666048-.0283207.1127943-.042481.2407255-.042481.3837937h-.2338895c0-.2382841.042481-.4497124.1269546-.6337966s.19385-.3305704.3281289-.4389701.270511-.1625996.4096729-.1625996c.1079114,0,.2089869.0141603.3022497.042481.0927745.0283207.1787131.0834971.2563507.1655293l-.2856479.4292044c-.0693368-.0522467-.1323258-.0898448-.1884788-.1137709Z"/>
    <path class="st0" d="M113.1136816,44.3499258h2.8926127v.5200258h-1.1699359v4.0298334h-.552741v-4.0298334h-1.1699359v-.5200258Z"/>
    <path class="st0" d="M116.4936049,45.9095147l.7475675,1.9438709.8125097-2.1709244.8706159,2.1836199.7544036-1.9565664h.5849679l-1.3003085,3.2178119-.9033311-2.1777604-.8515727,2.1777604-1.2998202-3.2178119h.5849679Z"/>
    <path class="st0" d="M120.8906301,44.4212157c.0712899-.0693368.154787-.1040052.2504913-.1040052.0996106,0,.1840842.0346684.253421.1040052s.1040052.1538104.1040052.253421c0,.0957043-.0346684.1787131-.1040052.2504913-.0693368.0712899-.1538104.1069349-.253421.1069349-.0957043,0-.1792014-.035645-.2504913-.1069349-.0712899-.0717782-.1074232-.154787-.1074232-.2504913,0-.0996106.0361332-.1840842.1074232-.253421ZM121.4008902,45.9095147v2.9902702h-.5200258v-2.9902702h.5200258Z"/>
    <path class="st0" d="M124.2285607,46.5208502c-.1083997-.1254898-.2666048-.1884788-.4746151-.1884788-.1518573,0-.2851597.0312504-.3999071.0942394s-.2036157.1503924-.2666048.2631867c-.0625007.1127943-.0942394.2426787-.0942394.3901414v1.819846h-.5200258v-2.9902702h.5200258v.4682673c.0996106-.1821311.2246121-.31641.3740279-.4028369.1494159-.0869151.3217812-.1303727.5166077-.1303727.31641,0,.566413.10547.7509855.3154335.1840842.2104517.2758822.4951231.2758822.8549907v1.8847882h-.5200258v-1.819846c0-.2470733-.0541999-.4335989-.1621113-.5590887Z"/>
    <path class="st0" d="M128.4307594,47.5540657c.158205.2690462.3652387.4790096.6211012.6308669.2553741.151369.5327212.2275418.8320412.2275418.2163112,0,.4145557-.0283207.5947337-.0844737.1796897-.0566413.3432658-.1357438.4907285-.2373075.1469744-.102052.2729525-.2202175.3769576-.3544964v.7280361c-.1909203.1689473-.3989306.2949254-.6240309.3769576-.2255886.0825205-.5048889.1235366-.8383889.1235366-.31641,0-.612312-.0576179-.8872176-.1723653-.2753939-.1147475-.517096-.2768588-.7251063-.4873105-.2080103-.2099635-.3701216-.4585016-.4873105-.7441495-.1171889-.2861362-.1757834-.5981517-.1757834-.9360464s.0585945-.6499101.1757834-.9360464.2793002-.5341861.4873105-.7441495c.2080103-.2104517.4497124-.3730513.7251063-.4877988.2749056-.1147475.5708076-.1723653.8872176-.1723653.3335001,0,.6128003.0415044.8383889.1235366.2251004.0825205.4331107.2080103.6240309.3774459v.7275478c-.1040052-.134279-.2299832-.2519561-.3769576-.3540081-.1474627-.1015637-.3110389-.1811545-.4907285-.2373075-.1801779-.056153-.3784225-.0844737-.5947337-.0844737-.29932,0-.5766671.0756845-.8320412.2275418-.2558624.1518573-.4628962.3608442-.6211012.6274489-.158205.2661165-.2368192.5771553-.2368192.9326283,0,.3510784.0786142.6606524.2368192.9292103Z"/>
    <path class="st0" d="M132.3956506,44.4212157c.0712899-.0693368.154787-.1040052.2504913-.1040052.0996106,0,.1840842.0346684.253421.1040052s.1040052.1538104.1040052.253421c0,.0957043-.0346684.1787131-.1040052.2504913-.0693368.0712899-.1538104.1069349-.253421.1069349-.0957043,0-.1792014-.035645-.2504913-.1069349-.0712899-.0717782-.1074232-.154787-.1074232-.2504913,0-.0996106.0361332-.1840842.1074232-.253421ZM132.9059107,45.9095147v2.9902702h-.5200258v-2.9902702h.5200258Z"/>
    <path class="st0" d="M135.0182406,45.9095147v.4877988h-1.4946468v-.4877988h1.4946468ZM134.5309301,44.8699515v4.0298334h-.5200258v-4.0298334h.5200258Z"/>
    <path class="st0" d="M135.6456895,44.4212157c.0712899-.0693368.154787-.1040052.2504913-.1040052.0996106,0,.1840842.0346684.253421.1040052s.1040052.1538104.1040052.253421c0,.0957043-.0346684.1787131-.1040052.2504913-.0693368.0712899-.1538104.1069349-.253421.1069349-.0957043,0-.1792014-.035645-.2504913-.1069349-.0712899-.0717782-.1074232-.154787-.1074232-.2504913,0-.0996106.0361332-.1840842.1074232-.253421ZM136.1559495,45.9095147v2.9902702h-.5200258v-2.9902702h.5200258Z"/>
    <path class="st0" d="M137.6476666,48.7664825c-.214358-.1323258-.3813522-.3154335-.5004943-.549323s-.1787131-.5048889-.1787131-.8125097c0-.3120155.0615242-.5849679.1850608-.8188575s.2968786-.4160206.5200258-.545905c.2231472-.1303727.4819394-.1953148.7768648-.1953148.2944371,0,.5468815.0620125.7573333.1855491.2099635.1235366.3715865.2998083.4843808.5297915.112306.2294949.1689473.5024474.1689473.8188575,0,.0302738-.0014649.0615242-.003418.0942394s-.003418.0532233-.003418.0615242h-2.5542298v-.4418998h2.1450452l-.2080103.29932c.0126955-.0219729.0258792-.0556647.039063-.1010754.0126955-.0454107.0195315-.0830088.0195315-.1137709,0-.1772482-.0361332-.3315469-.1074232-.4614313s-.1699239-.2314481-.295902-.3051794c-.1254898-.0737314-.2729525-.1108412-.4418998-.1108412-.1992211,0-.3696333.042481-.51026.1269546s-.2490264.2055689-.3251992.3637739c-.0756845.158205-.115724.352055-.1201186.5820382,0,.2338895.0366215.4331107.1103529.5976634.0737314.165041.1821311.2905308.3251992.3769576.1430681.0869151.31641.1303727.5200258.1303727s.3833054-.0444341.5395572-.1333024c.1557636-.0888683.2880894-.2241238.3964891-.4062549l.4223683.2666048c-.1557636.2509796-.352055.4409232-.5878977.5683662-.236331.1279312-.5146546.1918968-.8354592.1918968-.2773471,0-.5234438-.0659188-.7378018-.1982446Z"/>
    <path class="st0" d="M140.9074713,48.236691c.0781259.0781259.1679708.1396501.2700228.1855491.1015637.0454107.2133815.0678719.3344767.0678719.1474627,0,.2631867-.0332035.3481487-.1005871.0844737-.0668953.1264664-.1591816.1264664-.2763705,0-.1040052-.0336918-.1914085-.1005871-.2631867-.0673836-.0712899-.1528339-.1318375-.256839-.1821311-.1040052-.0498053-.214358-.0961926-.3315469-.1396501-.1298844-.0517584-.2612336-.1137709-.3930711-.1850608-.1323258-.0717782-.2426787-.1645528-.3315469-.2797885-.0888683-.1147475-.1333024-.2587922-.1333024-.4321341,0-.1777365.0463873-.3247109.1396501-.4418998s.214358-.2036157.3642622-.260257c.1494159-.056153.3042029-.0844737.464361-.0844737.1606465,0,.3110389.0263675.4521538.0781259.1406267.0522467.2651399.1215835.3735396.2080103.1083997.0869151.1928734.1865257.253421.2988317l-.4160206.2666048c-.0825205-.112306-.1850608-.2055689-.3085974-.2793002s-.2631867-.1103529-.4194386-.1103529c-.1083997,0-.2011743.0234378-.2793002.0712899s-.1171889.1215835-.1171889.2211941c0,.0776376.0302738.1469744.0913097.2080103.0605476.0605476.1381852.1147475.2338895.1621113.095216.0478521.1948266.0932628.2988317.1367204.1733419.0693368.3315469.1440447.4746151.2241238s.256839.1767599.3413127.2895542c.0844737.112306.1264664.2578156.1264664.4350638,0,.260257-.0942394.4770565-.2827182.6503984s-.4365287.2597687-.7441495.2597687c-.1992211,0-.3793991-.035645-.5395572-.1074232-.1601582-.0712899-.295902-.1630879-.4062549-.2758822s-.19385-.2275418-.250003-.3447307l.4091846-.253421c.0610359.0908214.1303727.1752951.2080103.253421Z"/>
  </g>
</svg>