<?xml version="1.0" encoding="UTF-8"?>
<svg id="Layer_1" xmlns="http://www.w3.org/2000/svg" version="1.1" viewBox="0 0 79.646498 72.4949339">
  <!-- Generator: Adobe Illustrator 29.8.1, SVG Export Plug-In . SVG Version: 2.1.1 Build 2)  -->
  <defs>
    <style>
      .st0 {
        fill: #231f20;
      }

      .st1 {
        fill: #7a0019;
      }
    </style>
  </defs>
  <g>
    <path class="st1" d="M58.2781911,17.806516c.1020304.0407573.1897896.0978724.2644504.1712082.0743714.0731669.1329791.1536319.1752138.2418328.0559271.1148394.0838906.2375365.0838906.3669377,0,.1475549-.0373304.2879514-.1112602.4204888-.0742191.1332685-.1769958.2366392-.308924.3108583-.1314865.0742191-.2696577.1111079-.4146859.1111079-.1438234,0-.2817068-.0368887-.4131933-.1111079-.1319282-.0742191-.235145-.1775898-.308924-.3108583-.0743714-.1325374-.1112449-.2729339-.1112449-.4204888,0-.1252267.0239426-.2394569.0719802-.3422335.0477482-.1027919.107681-.1897896.1804227-.2602924.0724388-.0706552.1514083-.1252419.2369302-.1631663.1124465-.0504288.227423-.0752701.3440291-.0752701.105899,0,.2097266.0203787.3113152.0609837ZM58.8677862,18.1762866c-.0449136-.1008424-.1087302-.1939628-.1915716-.2793308-.0831443-.0858249-.1856316-.1569231-.307142-.2132905-.1215257-.0571151-.2555405-.0853832-.4021968-.0853832-.150662,0-.2939066.0327307-.4290941.0978724-.0984648.0471542-.1893479.1121435-.2733908.1942522-.0828397.0822609-.151256.1838344-.2043654.3049184-.0533988.121221-.080022.2516566-.080022.3911697,0,.1728378.0435902.3374816.1306031.4941139.0876085.1560232.2091173.2776846.3648511.3648511.1557185.0873023.3196312.1307402.4914181.1307402.1527638,0,.2964349-.0327307.4320946-.098771.1041017-.0507182.1992935-.1201701.2849662-.2085233.0862818-.0879115.1527638-.1924702.2006491-.3132343.0470019-.12049.0709462-.2436453.0709462-.3691766,0-.1404117-.0292903-.2772442-.0877456-.4102081ZM57.9343143,18.7275004c.0626117,0,.109903.0084835.1427861.0254352.0324261.0171041.0557748.0402991.0696042.0694672.0144235.0295932.0233486.0767474.0275219.1427864.0050566.0923602.0111489.147541.0191754.1650867h.2323289c-.0092129-.0303395-.0150175-.0782248-.0166471-.144128-.0014926-.0655846-.0053596-.1124329-.0114518-.1402594-.0093837-.0432704-.0238072-.0792757-.0435919-.108869-.0202247-.0289992-.045203-.0523479-.0758488-.0688579-.0303395-.016967-.0705029-.0304918-.120627-.0407573.0566734-.0069909.0969738-.0162207.120627-.0281158.044169-.021856.0795651-.0541451.10619-.0963798.0267739-.0425393.0400094-.0910338.0400094-.1463517,0-.0565211-.0126415-.1060513-.0374827-.1484535-.0249783-.0425254-.0572522-.0761534-.0965169-.1023198-.039417-.0258769-.0899965-.0444736-.1518652-.0562317-.0440319-.0080266-.1088842-.0115906-.1946939-.0115906h-.3922207v1.0923144h.2439195v-.4027755h.1387837ZM58.0631185,18.2232885c.0374827.0109966.0664819.0298826.0874546.0565198.0208203.0267616.0312398.0587461.0312398.0959242,0,.0349544-.0089268.0664972-.0275235.0945978-.0178504.0284205-.045357.0496825-.081804.0636643-.0362947.0138295-.0751161.0208203-.1154181.0208203h-.1615367v-.347747h.1615367c.0327155,0,.0679746.0053612.1060513.0162207Z"/>
    <polygon class="st1" points="54.2149804 14.5812962 48.4482905 4.9950409 50.0368054 4.9950409 50.0368054 0 40.4379098 0 40.4379098 4.9950409 42.0264236 4.9950409 39.8225127 8.6572443 37.619866 4.9950409 39.2080763 4.9950409 39.2080763 0 29.6093166 0 29.6093166 4.9950409 31.1973899 4.9950409 25.4307015 14.5812962 23.3735078 14.5812962 23.3735078 19.5762 33.1633974 19.5762 33.1633974 14.5812962 31.4047252 14.5812962 34.4089173 9.5873062 35.5735329 11.5238576 34.4566666 11.5238576 34.4566666 16.5187614 45.1890148 16.5187614 45.1890148 11.5238576 44.0726055 11.5238576 45.2372047 9.5873062 48.2411074 14.5812962 46.4824352 14.5812962 46.4824352 19.5762 56.2715801 19.5762 56.2715801 14.5812962 54.2149804 14.5812962"/>
  </g>
  <g>
    <path d="M64.9296984,29.2114002l.0557,1.8466h-.2421916c-.2246084-1.184-.5137083-1.3803-2.0713083-1.3803v5.5218999c0,.647.3301.9331.9326.9331v.2608h-2.8915999v-.2608c.6035,0,.9336-.2861.9336-.9331v-5.5218999c-1.5576,0-1.8476.1963-2.0712917,1.3803h-.2422082l.0557-1.8466h5.5409999Z"/>
    <path d="M70.4697982,29.4731002v-.2617h2.2010999v.2617c-.3174,0-.8154.3451896-1.0254.6899-.2342915.3828-1.7724,2.9477999-1.7724,2.9477999v2.0887999c0,.6963.2549.9331,1.0068.9331v.2608h-3.0409999v-.2608c.7529,0,1.0078-.2368,1.0078-.9331v-1.9765s-1.6973-2.7055999-1.9023-3.0409999c-.2061-.336-.6161916-.709-1.0078-.709v-.2617h2.8358999v.2617c-.3926,0-.6719.1767-.6719.3818,0,.1309.0654.2891.1123.3731.0459.0839,1.4365,2.3695999,1.4365,2.3695999,0,0,1.3799-2.3974999,1.417-2.4628999.0371-.0649.0567-.1489.0567-.2324104,0-.1962896-.1123-.4291896-.6533-.4291896Z"/>
    <path d="M53.4745986,29.0532002l.2061,2.3685999h-.2617c-.3535-1.1655104-.9512-1.8833-1.8096-1.8833-.616192,0-.9697.4165-.9697.9692,0,.6343.4658,1.0074,1.0439,1.3995.5791.3920896.9707.6533,1.1572.7837.5342.3745,1.045,1.0429,1.045,1.8095,0,1.169-.878,2.0331999-2.0331999,2.0331999-.71,0-1.1573-.3545-1.5118-.3545-.1953,0-.289.1963-.3359.3545h-.2422l-.2988-2.3876999h.2617c.4375,1.2222,1.0811,1.94,1.977608,1.94.670892,0,1.1747919-.4605,1.1747919-1.2119,0-.6817103-.3604-1.0074-.7842-1.3062-.474592-.3359-1.0625-.7466-1.417-.9893-.5537-.3784-.8955-.8896-.8955-1.7158,0-.9887.6533-1.8095,1.7724-1.8095.4854,0,1.0254.3169,1.3243.3169.2236,0,.3164-.1495.3359-.3169h.2607Z"/>
    <path d="M57.4296985,30.4052002c0-.6465.3301-.9321.9326-.9321v-.2617h-2.8915999v.2617c.6035081,0,.9336.2856.9336.9321v4.7943999c0,.647-.3300919.9331-.9336.9331v.2608h2.8915999v-.2608c-.6025,0-.9326-.2861-.9326-.9331v-4.7943999Z"/>
    <path d="M40.975599,34.5190001c-.3163922.7461-.7275,1.3994-1.8652,1.3994h-1.1377c-.417,0-.5967-.1436-.5967-.4854v-2.5555999h1.5479c.5976,0,.914.3358897,1.0078.9702h.2422v-2.4809999h-.2618c-.0371.69-.3906,1.0254-.9326,1.0254h-1.6035v-2.4061999c0-.2613.168-.3169.3916-.3169h1.3799c.8584,0,1.1572.3545,1.3437077,1.1567h.2421922l-.0556-1.623h-5.1679999v.2606896c.6035,0,.8769.2861104.8769.9331104v4.7939999c0,.6468897-.2734.9326-.8769.9326v.2617h5.2987999l.4658-1.8657h-.2988Z"/>
    <path d="M47.8036988,35.8061001c-.165-.1987-1.7587-2.3842999-2.1122999-2.8695999,1.2852-.2745,1.7393-.9273,1.7393-1.8687,0-1.1196-.8399-1.8652-2.3690999-1.8652h-2.8730999v.2606896c.6035,0,.877.2861104.877.9331104v4.7939999c0,.6468897-.2735.9326-.877.9326v.2617h2.7802999v-.2617c-.6035,0-.878-.2857103-.878-.9326v-2.1088999c.1924078-.0005.3721-.0069.545-.0161l2.3280999,3.3192999h1.5674v-.2236c-.2608,0-.541-.1314-.7276-.355ZM44.0907989,32.6537002v-2.4256999c0-.4966.1006-.6153.6534078-.6153,1.2128921,0,1.6600921.5972,1.6600921,1.4922,0,1.1011-.833,1.5488-2.0702999,1.5488h-.2432Z"/>
    <path d="M25.7529993,30.3964002c0-.647.33-.9331104.9336-.9331104v-.2606896h-2.8915999v.2606896c.6025,0,.9326.2861104.9326.9331104v4.7939999c0,.6468897-.3301.9326-.9326.9326v.2617h2.8915999v-.2617c-.6036,0-.9336-.2857103-.9336-.9326v-4.7939999Z"/>
    <path d="M30.4922067,29.4632898v-.2606896h-2.6308074v.2606896c.3173,0,.6533.2056104.8769.7466104.2236.5405,2.5927999,6.2865998,2.5927999,6.2865998h.168s2.0702999-5.7832102,2.2577999-6.2865998c.1865-.5039.5029-.7466104.8017-.7466104v-.2606896h-2.0331999v.2606896c.4473,0,.6904.2427104.6904.5601104,0,.0932-.0263.1953-.0565924.2798-.04.1108-1.5107075,4.2347999-1.5107075,4.2347999,0,0-1.7364-4.1678999-1.7891-4.2938999-.0391-.0952-.0576-.2188104-.0576-.3238104,0-.2850896.2392-.457.6904075-.457Z"/>
    <path d="M6.3896998,27.1318003c.7832,0,1.1933.3916,1.1933,1.5107v4.4399999c0,2.2450999,1.2315,3.4325999,3.3769999,3.4325999,1.8467,0,3.2645999-1.1192,3.2645999-3.2831999v-4.8506103c0-.7460895.2237-1.2494895,1.1192-1.2494895v-.2608h-2.8359999v.2608c.8028,0,1.1387.354,1.1573,1.3242.0185.9702.0742,3.5072895.0742,5.0184999,0,1.5107897-1.082,2.4619999-2.5556999,2.4619999-1.417,0-2.5370999-.8389-2.5370999-2.6113999v-4.9623999c0-.7334105.2803-1.2309,1.1201-1.2309v-.2608h-3.3768999v.2608Z"/>
    <path d="M20.0077995,29.2026002v.2606896c.5596,0,.8955.4292104.8955,1.0825104v3.7778999l-3.7313999-5.1210999h-1.623v.2606896c.3173071,0,.5791.1494104.7089.3174104.0147.0185896.0889.1187.2051.2754v4.8178999c0,.8208-.2793,1.249-.9326,1.249v.2617h2.2949071v-.2617c-.5605072,0-.8955072-.3731-.8955072-1.0254v-4.4110999c1.3565072,1.8349,4.2909999,5.8099999,4.2909999,5.8099999h.1494v-5.7832102c0-.914.3721073-1.25.9317-1.25v-.2606896h-2.2939999Z"/>
    <path d="M73.2852067,43.5706999l.0555914,1.8477h-.2421c-.2246-1.1846-.5127-1.3809-2.0712999-1.3809v5.5224999c0,.6465.3301.9326.9336.9326v.2608h-2.8915999v-.2608c.6025,0,.9326-.2861.9326-.9326v-5.5224999c-1.5576,0-1.8467.1963-2.0702999,1.3809h-.2432l.0566-1.8477h5.5401084Z"/>
    <path d="M63.6962984,43.4329999c-1.7715,0-3.2069999,1.4561-3.2069999,3.7197999,0,2.2645999,1.4355,3.7196999,3.2069999,3.7196999s3.2069999-1.4551,3.2069999-3.7196999c0-2.2636999-1.4355-3.7197999-3.2069999-3.7197999ZM63.6962984,50.4505997c-1.3437,0-2.1141999-1.291-2.1141999-3.2977999,0-2.0058999.7705-3.2968999,2.1141999-3.2968999,1.3438,0,2.1142999,1.291,2.1142999,3.2968999,0,2.0067999-.7705,3.2977999-2.1142999,3.2977999Z"/>
    <path d="M78.889698,49.8685997c-.1299-.3369-2.5361999-6.4003998-2.5361999-6.4003998h-.2431s-2.1269999,5.5604999-2.3876999,6.2128998c-.2617.6533-.5781.8115-.8291.8115v.2608h1.959v-.2608c-.2891,0-.6123-.2002-.6123-.5127,0-.0937.0097-.2051.0332-.2715.0195-.0556.2197086-.5996.4775-1.2959h2.4872999c.2539087.6905.4473,1.2197901.458,1.25.0332.0927901.0752.2237.0752.3174,0,.2793-.2246.5127-.6435.5127v.2608h2.5184999v-.2608c-.3066,0-.625-.29-.7568-.624ZM74.9374981,47.9085998c.4854-1.3174,1.0606-2.8729999,1.0606-2.8729999,0,0,.5752,1.5635,1.0556,2.8729999h-2.1161999Z"/>
    <path d="M53.3427987,48.8880997c-.3174.7461-.7275,1.3985-1.8652,1.3985h-1.1387c-.416,0-.596692-.1426-.596692-.4844v-2.5566999h1.548792c.5967,0,.9141.336,1.0069.9707h.2422v-2.4803999h-.2608c-.037092.6894-.3916,1.0254-.9326,1.0254h-1.604492v-2.4062999c0-.2607.168-.3174.392592-.3174h1.3799c.8584,0,1.1572.3545,1.3437,1.1563h.2422l-.0556-1.6231h-5.1679999v.2618c.6035,0,.8769.2861.8769.9326v4.7948999c0,.6465-.2734.9326-.8769.9326v.2608h5.2977999l.4659-1.8653h-.2979Z"/>
    <path d="M58.8085985,43.4222898l.2061,2.36911h-.2617c-.3545-1.166-.9512-1.8847-1.8096-1.8847-.6161918,0-.9697.4179-.9697.9707,0,.6347.4658,1.0068,1.0439,1.3994.5781.3906.9707.6523,1.1572.7832.5342.374,1.044,1.043,1.044,1.8086,0,1.1699-.877,2.0341999-2.0321999,2.0341999-.71,0-1.1583-.3545099-1.5118-.3545099-.1963,0-.29.1953099-.3359.3545099h-.2422l-.2988-2.3876999h.2617c.4375,1.2217,1.0811,1.9394,1.9775,1.9394.6709,0,1.1748-.459,1.1748-1.2119,0-.6807-.3593-1.0068-.7841-1.3057-.4745918-.3359-1.0635-.746-1.417-.9882-.5537-.3789-.8965-.8907-.8965-1.7178,0-.9883.6533-1.80861,1.7734-1.80861.4854,0,1.0254.3174101,1.3242.3174101.2237,0,.3164-.1494101.336-.3174101h.2607Z"/>
    <path d="M44.5370989,43.5706999v.2618c.5596,0,.8955.4296.8955,1.082v3.7782999l-3.7303921-5.1220999h-1.6231077v.2618c.3164,0,.5782.1503.709.3173.0137.0186.0889.1182.2051078.2754v4.8173999c0,.8213-.2793078,1.25-.9326077,1.25v.2608h2.2948999v-.2608c-.5605,0-.8955-.373-.8955-1.0264v-4.4110999c1.3564,1.835,4.2899999,5.8105999,4.2899999,5.8105999h.1494v-5.7831999c0-.9141.3731-1.25.9327-1.25v-.2618h-2.2949999Z"/>
    <path d="M36.5712991,43.5706999v.2618c.5596,0,.8955.4296.8955,1.082v3.7782999l-3.7303999-5.1220999h-1.6231v.2618c.3164,0,.5781.1503.709.3173.0146.0186.0889076.1182.2051.2754v4.8173999c0,.8213-.2793,1.25-.9326,1.25v.2608h2.2948999v-.2608c-.5606,0-.8954924-.373-.8954924-1.0264v-4.4110999c1.3563924,1.835,4.29,5.8105999,4.29,5.8105999h.1493923v-5.7831999c0-.9141.3731-1.25.9326077-1.25v-.2618h-2.2949076Z"/>
    <path d="M26.9462993,41.5003999v-.2607h-2.2206999l-2.8915999,7.7596998-2.9100999-7.7596998h-2.2568999v.2607c.9512071,0,1.2129.5225,1.2129,1.4551v5.8388999c0,1.3496-.3799,1.6982-1.2314,1.6982v.2608h2.9287071v-.2608c-.8213072,0-1.2129072-.3545-1.2129072-1.6982v-6.1005998l3.0223999,8.0790998h.2803l3.0780999-8.2276099v6.2491099c0,1.3496-.3056,1.6982-1.1572,1.6982v.2608h3.3583999v-.2608c-.8213,0-1.1387-.3545-1.1387-1.6982v-5.9687998c0-1.083.5782-1.3252,1.1387-1.3252Z"/>
    <path d="M29.6874993,44.7650999c0-.6465.3301-.9326.9336-.9326v-.2618h-2.8915999v.2618c.6026,0,.9326.2861.9326.9326v4.7948999c0,.6465-.33.9326-.9326.9326v.2608h2.8915999v-.2608c-.6035,0-.9336-.2861-.9336-.9326v-4.7948999Z"/>
    <path d="M3.2070999,43.4427999c-1.7715,0-3.2070999,1.4561-3.2070999,3.7196999,0,2.2636999,1.4356,3.71979,3.2070999,3.71979,1.7714,0,3.2069999-1.4560901,3.2069999-3.71979,0-2.2635999-1.4356-3.7196999-3.2069999-3.7196999ZM3.2070999,50.4603997c-1.3438,0-2.1142999-1.291-2.1142999-3.2978999,0-2.0067999.7705-3.2967999,2.1142999-3.2967999,1.3437,0,2.1131999,1.29,2.1131999,3.2967999,0,2.0068999-.7695,3.2978999-2.1131999,3.2978999Z"/>
    <path d="M12.6376997,43.5706999h-5.2245999v.2618c.6045,0,.8779.2861.8779.9326v4.7948999c0,.6465-.2734.9326-.8779.9326v.2608h2.7802999v-.2608c-.5781,0-.9141-.2803099-.9141-.9326v-2.3144999h1.4932c.595707,0,.9141.336,1.0068.9707h.2422v-2.4803999h-.2607c-.0371.6894-.392593,1.0254-.933593,1.0254h-1.547907v-2.4062999c0-.2607.168-.3174.3926-.3174h1.4356c.8583,0,1.1572.3545,1.343707,1.1563h.242193l-.0557-1.6231Z"/>
  </g>
  <g>
    <path class="st0" d="M5.4544282,61.9216917c.1582031.269043.3652344.4790039.6210938.6308594.2553711.1513672.5327148.2275391.8320312.2275391.2163086,0,.4145508-.0283203.5947266-.0844727.1796875-.0566406.3432617-.1357422.4907227-.2373047.1469727-.1020508.2729492-.2202148.3769531-.3544922v.7280273c-.190918.1689453-.3989258.2949219-.6240234.3769531-.2255859.0825195-.5048828.1235352-.8383789.1235352-.3164062,0-.6123047-.0576172-.887207-.1723633-.2753906-.1147461-.5170898-.2768555-.7250977-.4873047-.2080078-.2099609-.3701172-.4584961-.4873047-.7441406-.1171875-.2861328-.1757812-.5981445-.1757812-.9360352s.0585938-.6499023.1757812-.9360352.2792969-.5341797.4873047-.7441406c.2080078-.2104492.449707-.3730469.7250977-.487793.2749023-.1147461.5708008-.1723633.887207-.1723633.3334961,0,.612793.0415039.8383789.1235352.2250977.0825195.4331055.2080078.6240234.3774414v.7275391c-.1040039-.1342773-.2299805-.2519531-.3769531-.3540039-.1474609-.1015625-.3110352-.1811523-.4907227-.2373047-.1801758-.0561523-.378418-.0844727-.5947266-.0844727-.2993164,0-.5766602.0756836-.8320312.2275391-.2558594.1518555-.4628906.3608398-.6210938.6274414-.1582031.2661133-.2368164.5771484-.2368164.9326172,0,.3510742.0786133.6606445.2368164.9291992Z"/>
    <path class="st0" d="M9.8323579,63.2673949h-.5200195v-2.9902344h.5200195v2.9902344ZM10.5476899,60.7356566c-.0566406-.0239258-.1279297-.0356445-.2148438-.0356445-.1298828,0-.2314453.0322266-.3051758.097168-.0737305.0654297-.1245117.1542969-.152832.2666016-.0283203.112793-.0424805.2407227-.0424805.3837891h-.2338867c0-.2382812.0424805-.449707.1269531-.6337891s.1938477-.3305664.328125-.4389648.2705078-.1625977.409668-.1625977c.1079102,0,.2089844.0141602.3022461.0424805.0927734.0283203.1787109.0834961.2563477.1655273l-.2856445.4291992c-.0693359-.0522461-.1323242-.0898438-.1884766-.1137695Z"/>
    <path class="st0" d="M11.3889985,60.9666136c.1367188-.234375.3217773-.418457.5556641-.5527344.234375-.1342773.496582-.2016602.7866211-.2016602.2949219,0,.5581055.0673828.7900391.2016602.2314453.1342773.4160156.3183594.5522461.5527344.1367188.2338867.2045898.5024414.2045898.8056641,0,.2993164-.0678711.5668945-.2045898.8027344-.1362305.2363281-.3208008.4213867-.5522461.5556641-.2319336.1347656-.4951172.2016602-.7900391.2016602-.2900391,0-.5522461-.0668945-.7866211-.2016602-.2338867-.1342773-.4189453-.3193359-.5556641-.5556641-.1362305-.2358398-.2045898-.503418-.2045898-.8027344,0-.3032227.0683594-.5717773.2045898-.8056641ZM11.8440766,62.325012c.0888672.1601562.2099609.2871094.3642578.3803711.1533203.0927734.328125.1396484.5229492.1396484.1953125,0,.3696289-.046875.5234375-.1396484.1538086-.0932617.2749023-.2202148.3637695-.3803711s.1333008-.3447266.1333008-.5527344-.0444336-.3930664-.1333008-.5556641-.2099609-.2890625-.3637695-.3803711c-.1538086-.0908203-.328125-.1362305-.5234375-.1362305-.1948242,0-.3696289.0454102-.5229492.1362305-.1542969.0913086-.2753906.2177734-.3642578.3803711s-.1333008.3476562-.1333008.5556641.0444336.3925781.1333008.5527344Z"/>
    <path class="st0" d="M14.9378266,60.9666136c.1367188-.234375.3217773-.418457.5556641-.5527344.234375-.1342773.496582-.2016602.7866211-.2016602.2949219,0,.5581055.0673828.7900391.2016602.2314453.1342773.4160156.3183594.5522461.5527344.1367188.2338867.2045898.5024414.2045898.8056641,0,.2993164-.0678711.5668945-.2045898.8027344-.1362305.2363281-.3208008.4213867-.5522461.5556641-.2319336.1347656-.4951172.2016602-.7900391.2016602-.2900391,0-.5522461-.0668945-.7866211-.2016602-.2338867-.1342773-.4189453-.3193359-.5556641-.5556641-.1362305-.2358398-.2045898-.503418-.2045898-.8027344,0-.3032227.0683594-.5717773.2045898-.8056641ZM15.3929047,62.325012c.0888672.1601562.2099609.2871094.3642578.3803711.1533203.0927734.328125.1396484.5229492.1396484.1953125,0,.3696289-.046875.5234375-.1396484.1538086-.0932617.2749023-.2202148.3637695-.3803711s.1333008-.3447266.1333008-.5527344-.0444336-.3930664-.1333008-.5556641-.2099609-.2890625-.3637695-.3803711c-.1538086-.0908203-.328125-.1362305-.5234375-.1362305-.1948242,0-.3696289.0454102-.5229492.1362305-.1542969.0913086-.2753906.2177734-.3642578.3803711s-.1333008.3476562-.1333008.5556641.0444336.3925781.1333008.5527344Z"/>
    <path class="st0" d="M19.0296235,58.1975706v5.0698242h-.5200195v-5.0698242h.5200195ZM20.7845063,60.2771605l-1.2998047,1.2353516,1.4296875,1.7548828h-.6499023l-1.4301758-1.7548828,1.300293-1.2353516h.6499023Z"/>
    <path class="st0" d="M21.7332368,62.6043089c.078125.078125.1679688.1396484.2700195.1855469.1015625.0454102.2133789.0678711.3344727.0678711.1474609,0,.2631836-.0332031.3481445-.1005859.0844727-.0668945.1264648-.1591797.1264648-.2763672,0-.1040039-.0336914-.1914062-.1005859-.2631836-.0673828-.0712891-.152832-.1318359-.2568359-.1821289-.1040039-.0498047-.2143555-.0961914-.331543-.1396484-.1298828-.0517578-.2612305-.1137695-.3930664-.1850586-.1323242-.0717773-.2426758-.1645508-.331543-.2797852-.0888672-.1147461-.1333008-.2587891-.1333008-.4321289,0-.1777344.0463867-.324707.1396484-.4418945s.2143555-.2036133.3642578-.2602539c.1494141-.0561523.3041992-.0844727.4643555-.0844727.1606445,0,.3110352.0263672.4521484.078125.140625.0522461.2651367.121582.3735352.2080078.1083984.0869141.1928711.1865234.253418.2988281l-.4160156.2666016c-.0825195-.1123047-.1850586-.2055664-.3085938-.2792969s-.2631836-.1103516-.4194336-.1103516c-.1083984,0-.2011719.0234375-.2792969.0712891s-.1171875.121582-.1171875.2211914c0,.0776367.0302734.1469727.0913086.2080078.0605469.0605469.1381836.1147461.2338867.1621094.0952148.0478516.1948242.0932617.2988281.1367188.1733398.0693359.331543.144043.4746094.2241211s.2568359.1767578.3413086.2895508c.0844727.1123047.1264648.2578125.1264648.4350586,0,.2602539-.0942383.4770508-.2827148.6503906s-.4365234.2597656-.7441406.2597656c-.1992188,0-.3793945-.0356445-.5395508-.1074219-.1601562-.0712891-.2958984-.1630859-.40625-.2758789s-.1938477-.2275391-.25-.3447266l.4091797-.253418c.0610352.0908203.1303711.175293.2080078.253418Z"/>
    <path class="st0" d="M25.0613618,60.2771605v.487793h-1.4946289v-.487793h1.4946289ZM24.5740571,59.2376097v4.0297852h-.5200195v-4.0297852h.5200195Z"/>
    <path class="st0" d="M25.5262055,60.9666136c.1367188-.234375.3217773-.418457.5556641-.5527344.234375-.1342773.496582-.2016602.7866211-.2016602.2949219,0,.5581055.0673828.7900391.2016602.2314453.1342773.4160156.3183594.5522461.5527344.1367188.2338867.2045898.5024414.2045898.8056641,0,.2993164-.0678711.5668945-.2045898.8027344-.1362305.2363281-.3208008.4213867-.5522461.5556641-.2319336.1347656-.4951172.2016602-.7900391.2016602-.2900391,0-.5522461-.0668945-.7866211-.2016602-.2338867-.1342773-.4189453-.3193359-.5556641-.5556641-.1362305-.2358398-.2045898-.503418-.2045898-.8027344,0-.3032227.0683594-.5717773.2045898-.8056641ZM25.9812836,62.325012c.0888672.1601562.2099609.2871094.3642578.3803711.1533203.0927734.328125.1396484.5229492.1396484.1953125,0,.3696289-.046875.5234375-.1396484.1538086-.0932617.2749023-.2202148.3637695-.3803711s.1333008-.3447266.1333008-.5527344-.0444336-.3930664-.1333008-.5556641-.2099609-.2890625-.3637695-.3803711c-.1538086-.0908203-.328125-.1362305-.5234375-.1362305-.1948242,0-.3696289.0454102-.5229492.1362305-.1542969.0913086-.2753906.2177734-.3642578.3803711s-.1333008.3476562-.1333008.5556641.0444336.3925781.1333008.5527344Z"/>
    <path class="st0" d="M30.8855805,60.8884886c-.1083984-.1254883-.2666016-.1884766-.4746094-.1884766-.1518555,0-.2851562.03125-.3999023.0942383s-.2036133.1503906-.2666016.2631836c-.0625.112793-.0942383.2426758-.0942383.3901367v1.8198242h-.5200195v-2.9902344h.5200195v.4682617c.0996094-.1821289.2246094-.3164062.3740234-.402832.1494141-.0869141.3217773-.1303711.5166016-.1303711.3164062,0,.5664062.1054688.7509766.3154297.184082.2104492.2758789.4951172.2758789.8549805v1.8847656h-.5200195v-1.8198242c0-.2470703-.0541992-.4335938-.1621094-.559082Z"/>
    <path class="st0" d="M37.0276704,58.7175902v4.5498047h-.5522461v-4.5498047h.5522461ZM36.7810883,63.2673949v-.5527344h1.059082c.2558594,0,.4897461-.0395508.7021484-.1201172.2124023-.0800781.3945312-.1948242.5458984-.3442383.1518555-.1499023.269043-.3305664.3510742-.5429688.0825195-.2124023.1235352-.4506836.1235352-.7148438s-.0410156-.5029297-.1235352-.715332c-.0820312-.2119141-.1992188-.3930664-.3510742-.5424805-.1513672-.1494141-.3334961-.2641602-.5458984-.3447266-.2124023-.0800781-.4462891-.1201172-.7021484-.1201172h-1.059082v-.5522461h1.059082c.4423828,0,.8344727.0952148,1.1767578.2856445.3422852.190918.6108398.4560547.8061523.7963867.1948242.340332.2924805.737793.2924805,1.1928711s-.0976562.8525391-.2924805,1.1928711c-.1953125.3398438-.4638672.6054688-.8061523.7958984-.3422852.190918-.734375.2861328-1.1767578.2861328h-1.059082Z"/>
    <path class="st0" d="M41.5452485,62.6497191c.1083984.1303711.2666016.1953125.4746094.1953125.1513672,0,.284668-.0317383.3999023-.0942383.1147461-.0629883.2036133-.1508789.2661133-.2631836.0629883-.112793.0942383-.2426758.0942383-.3901367v-1.8203125h.5200195v2.9902344h-.5200195v-.4677734c-.0996094.1777344-.2231445.3105469-.3701172.3994141-.1474609.0888672-.3208008.1333008-.5200195.1333008-.3120117,0-.5615234-.105957-.7475586-.3183594-.1865234-.2124023-.2797852-.4960938-.2797852-.8515625v-1.8852539h.5200195v1.8203125c0,.2382812.0541992.4223633.1625977.5522461Z"/>
    <path class="st0" d="M44.7947602,58.1975706v5.0698242h-.5200195v-5.0698242h.5200195Z"/>
    <path class="st0" d="M46.452475,62.6497191c.1083984.1303711.2666016.1953125.4746094.1953125.1513672,0,.284668-.0317383.3999023-.0942383.1147461-.0629883.2036133-.1508789.2661133-.2631836.0629883-.112793.0942383-.2426758.0942383-.3901367v-1.8203125h.5200195v2.9902344h-.5200195v-.4677734c-.0996094.1777344-.2231445.3105469-.3701172.3994141-.1474609.0888672-.3208008.1333008-.5200195.1333008-.3120117,0-.5615234-.105957-.7475586-.3183594-.1865234-.2124023-.2797852-.4960938-.2797852-.8515625v-1.8852539h.5200195v1.8203125c0,.2382812.0541992.4223633.1625977.5522461Z"/>
    <path class="st0" d="M50.2224946,60.2771605v.487793h-1.4946289v-.487793h1.4946289ZM49.7351899,59.2376097v4.0297852h-.5200195v-4.0297852h.5200195Z"/>
    <path class="st0" d="M51.2625336,63.2673949h-.5200195v-5.0698242h.5200195v5.0698242ZM52.5008149,60.8884886c-.105957-.1254883-.2651367-.1884766-.4775391-.1884766-.1518555,0-.2851562.0322266-.3999023.097168-.1147461.0654297-.2036133.1542969-.2666016.2666016-.0625.112793-.0942383.2407227-.0942383.3837891h-.1689453c0-.2382812.0454102-.449707.1367188-.6337891.0908203-.184082.215332-.3305664.3735352-.4389648s.3413086-.1625977.5493164-.1625977.3891602.043457.5429688.1303711c.1538086.0864258.2729492.2163086.3574219.3896484s.1264648.3901367.1264648.6503906v1.8847656h-.5200195v-1.8198242c0-.2470703-.0527344-.4335938-.1591797-.559082Z"/>
    <path class="st0" d="M58.4397211,63.2673949h-.5527344l.5527344-4.7773438,1.8198242,3.2954102,1.8203125-3.2954102.5522461,4.7773438h-.5522461l-.3383789-3.074707-1.4819336,2.6523438-1.4819336-2.6523438-.3378906,3.074707Z"/>
    <path class="st0" d="M63.3244868,60.9666136c.1367188-.234375.3217773-.418457.5556641-.5527344.234375-.1342773.496582-.2016602.7866211-.2016602.2949219,0,.5581055.0673828.7900391.2016602.2314453.1342773.4160156.3183594.5522461.5527344.1367188.2338867.2045898.5024414.2045898.8056641,0,.2993164-.0678711.5668945-.2045898.8027344-.1362305.2363281-.3208008.4213867-.5522461.5556641-.2319336.1347656-.4951172.2016602-.7900391.2016602-.2900391,0-.5522461-.0668945-.7866211-.2016602-.2338867-.1342773-.4189453-.3193359-.5556641-.5556641-.1362305-.2358398-.2045898-.503418-.2045898-.8027344,0-.3032227.0683594-.5717773.2045898-.8056641ZM63.7795649,62.325012c.0888672.1601562.2099609.2871094.3642578.3803711.1533203.0927734.328125.1396484.5229492.1396484.1953125,0,.3696289-.046875.5234375-.1396484.1538086-.0932617.2749023-.2202148.3637695-.3803711s.1333008-.3447266.1333008-.5527344-.0444336-.3930664-.1333008-.5556641-.2099609-.2890625-.3637695-.3803711c-.1538086-.0908203-.328125-.1362305-.5234375-.1362305-.1948242,0-.3696289.0454102-.5229492.1362305-.1542969.0913086-.2753906.2177734-.3642578.3803711s-.1333008.3476562-.1333008.5556641.0444336.3925781.1333008.5527344Z"/>
    <path class="st0" d="M67.4485102,63.2673949h-.5200195v-2.9902344h.5200195v2.9902344ZM68.1638422,60.7356566c-.0566406-.0239258-.1279297-.0356445-.2148438-.0356445-.1298828,0-.2314453.0322266-.3051758.097168-.0737305.0654297-.1245117.1542969-.152832.2666016-.0283203.112793-.0424805.2407227-.0424805.3837891h-.2338867c0-.2382812.0424805-.449707.1269531-.6337891s.1938477-.3305664.328125-.4389648.2705078-.1625977.409668-.1625977c.1079102,0,.2089844.0141602.3022461.0424805.0927734.0283203.1787109.0834961.2563477.1655273l-.2856445.4291992c-.0693359-.0522461-.1323242-.0898438-.1884766-.1137695Z"/>
    <path class="st0" d="M69.6780024,63.2673949h-.5200195v-2.9902344h.5200195v2.9902344ZM70.3933344,60.7356566c-.0566406-.0239258-.1279297-.0356445-.2148438-.0356445-.1298828,0-.2314453.0322266-.3051758.097168-.0737305.0654297-.1245117.1542969-.152832.2666016-.0283203.112793-.0424805.2407227-.0424805.3837891h-.2338867c0-.2382812.0424805-.449707.1269531-.6337891s.1938477-.3305664.328125-.4389648.2705078-.1625977.409668-.1625977c.1079102,0,.2089844.0141602.3022461.0424805.0927734.0283203.1787109.0834961.2563477.1655273l-.2856445.4291992c-.0693359-.0522461-.1323242-.0898438-.1884766-.1137695Z"/>
    <path class="st0" d="M71.4948969,58.7888792c.0712891-.0693359.1547852-.1040039.2504883-.1040039.0996094,0,.184082.034668.253418.1040039s.1040039.1538086.1040039.253418c0,.0957031-.034668.1787109-.1040039.2504883-.0693359.0712891-.1538086.1069336-.253418.1069336-.0957031,0-.1791992-.0356445-.2504883-.1069336-.0712891-.0717773-.1074219-.1547852-.1074219-.2504883,0-.0996094.0361328-.184082.1074219-.253418ZM72.0051508,60.2771605v2.9902344h-.5200195v-2.9902344h.5200195Z"/>
    <path class="st0" d="M73.4089594,62.6043089c.078125.078125.1679688.1396484.2700195.1855469.1015625.0454102.2133789.0678711.3344727.0678711.1474609,0,.2631836-.0332031.3481445-.1005859.0844727-.0668945.1264648-.1591797.1264648-.2763672,0-.1040039-.0336914-.1914062-.1005859-.2631836-.0673828-.0712891-.152832-.1318359-.2568359-.1821289-.1040039-.0498047-.2143555-.0961914-.331543-.1396484-.1298828-.0517578-.2612305-.1137695-.3930664-.1850586-.1323242-.0717773-.2426758-.1645508-.331543-.2797852-.0888672-.1147461-.1333008-.2587891-.1333008-.4321289,0-.1777344.0463867-.324707.1396484-.4418945s.2143555-.2036133.3642578-.2602539c.1494141-.0561523.3041992-.0844727.4643555-.0844727.1606445,0,.3110352.0263672.4521484.078125.140625.0522461.2651367.121582.3735352.2080078.1083984.0869141.1928711.1865234.253418.2988281l-.4160156.2666016c-.0825195-.1123047-.1850586-.2055664-.3085938-.2792969s-.2631836-.1103516-.4194336-.1103516c-.1083984,0-.2011719.0234375-.2792969.0712891s-.1171875.121582-.1171875.2211914c0,.0776367.0302734.1469727.0913086.2080078.0605469.0605469.1381836.1147461.2338867.1621094.0952148.0478516.1948242.0932617.2988281.1367188.1733398.0693359.331543.144043.4746094.2241211s.2568359.1767578.3413086.2895508c.0844727.1123047.1264648.2578125.1264648.4350586,0,.2602539-.0942383.4770508-.2827148.6503906s-.4365234.2597656-.7441406.2597656c-.1992188,0-.3793945-.0356445-.5395508-.1074219-.1601562-.0712891-.2958984-.1630859-.40625-.2758789s-.1938477-.2275391-.25-.3447266l.4091797-.253418c.0610352.0908203.1303711.175293.2080078.253418Z"/>
  </g>
  <g>
    <path class="st0" d="M10.5774164,67.7175902v4.5498047h-.5522461v-4.5498047h.5522461ZM10.3308344,67.7175902h.9291992c.2949219,0,.5581055.0551758.7900391.1655273.2314453.1103516.4160156.2675781.5522461.4711914.1367188.2036133.2045898.4462891.2045898.7280273,0,.2773438-.0678711.519043-.2045898.7246094-.1362305.2060547-.3208008.3642578-.5522461.4746094-.2319336.1103516-.4951172.1660156-.7900391.1660156h-.9291992v-.487793h.9291992c.1953125,0,.3671875-.034668.5170898-.1040039.1494141-.0693359.2661133-.1689453.3505859-.2988281s.1269531-.2880859.1269531-.4746094c0-.1860352-.0424805-.3442383-.1269531-.4746094-.0844727-.1298828-.2011719-.2294922-.3505859-.2988281-.1499023-.0693359-.3217773-.1040039-.5170898-.1040039h-.9291992v-.4873047ZM11.4553461,70.0247191l1.625,2.2426758h-.6826172l-1.5600586-2.2426758h.6176758Z"/>
    <path class="st0" d="M13.5774164,69.9666136c.1367188-.234375.3217773-.418457.5556641-.5527344.234375-.1342773.496582-.2016602.7866211-.2016602.2949219,0,.5581055.0673828.7900391.2016602.2314453.1342773.4160156.3183594.5522461.5527344.1367188.2338867.2045898.5024414.2045898.8056641,0,.2993164-.0678711.5668945-.2045898.8027344-.1362305.2363281-.3208008.4213867-.5522461.5556641-.2319336.1347656-.4951172.2016602-.7900391.2016602-.2900391,0-.5522461-.0668945-.7866211-.2016602-.2338867-.1342773-.4189453-.3193359-.5556641-.5556641-.1362305-.2358398-.2045898-.503418-.2045898-.8027344,0-.3032227.0683594-.5717773.2045898-.8056641ZM14.0324946,71.325012c.0888672.1601562.2099609.2871094.3642578.3803711.1533203.0927734.328125.1396484.5229492.1396484.1953125,0,.3696289-.046875.5234375-.1396484.1538086-.0932617.2749023-.2202148.3637695-.3803711s.1333008-.3447266.1333008-.5527344-.0444336-.3930664-.1333008-.5556641-.2099609-.2890625-.3637695-.3803711c-.1538086-.0908203-.328125-.1362305-.5234375-.1362305-.1948242,0-.3696289.0454102-.5229492.1362305-.1542969.0913086-.2753906.2177734-.3642578.3803711s-.1333008.3476562-.1333008.5556641.0444336.3925781.1333008.5527344Z"/>
    <path class="st0" d="M17.5490961,71.325012c.0883789.1601562.2099609.2871094.3637695.3803711.1538086.0927734.328125.1396484.5234375.1396484.1601562,0,.3105469-.0249023.4516602-.074707.140625-.0498047.2631836-.1171875.3671875-.2016602s.1777344-.1743164.2211914-.2695312v.6499023c-.1040039.1210938-.2529297.215332-.4453125.2827148-.1928711.0668945-.3911133.1005859-.5947266.1005859-.2905273,0-.5527344-.0668945-.7866211-.2016602-.2338867-.1342773-.4194336-.3193359-.5556641-.5556641-.1367188-.2358398-.2050781-.503418-.2050781-.8027344,0-.3032227.0683594-.5717773.2050781-.8056641.1362305-.234375.3217773-.418457.5556641-.5527344s.4960938-.2016602.7866211-.2016602c.2036133,0,.4018555.0336914.5947266.1010742.1923828.0668945.3413086.1611328.4453125.2827148v.6499023c-.043457-.0996094-.1171875-.1904297-.2211914-.2729492s-.2265625-.1484375-.3671875-.1982422c-.1411133-.0498047-.2915039-.074707-.4516602-.074707-.1953125,0-.3696289.0454102-.5234375.1362305-.1538086.0913086-.2753906.2177734-.3637695.3803711-.0888672.1625977-.1333008.3476562-.1333008.5556641s.0444336.3925781.1333008.5527344Z"/>
    <path class="st0" d="M20.8083735,72.2673949h-.5200195v-5.0698242h.5200195v5.0698242ZM22.0466547,69.8884886c-.105957-.1254883-.2651367-.1884766-.4775391-.1884766-.1518555,0-.2851562.0322266-.3999023.097168-.1147461.0654297-.2036133.1542969-.2666016.2666016-.0625.112793-.0942383.2407227-.0942383.3837891h-.1689453c0-.2382812.0454102-.449707.1367188-.6337891.0908203-.184082.215332-.3305664.3735352-.4389648s.3413086-.1625977.5493164-.1625977.3891602.043457.5429688.1303711c.1538086.0864258.2729492.2163086.3574219.3896484s.1264648.3901367.1264648.6503906v1.8847656h-.5200195v-1.8198242c0-.2470703-.0527344-.4335938-.1591797-.559082Z"/>
    <path class="st0" d="M24.1203852,72.1340941c-.2143555-.1323242-.3813477-.3154297-.5004883-.5493164s-.1787109-.5048828-.1787109-.8125c0-.3120117.0615234-.5849609.1850586-.8188477s.296875-.4160156.5200195-.5458984c.2231445-.1303711.4819336-.1953125.7768555-.1953125.2944336,0,.546875.0620117.7573242.1855469.2099609.1235352.371582.2998047.484375.5297852.1123047.2294922.1689453.5024414.1689453.8188477,0,.0302734-.0014648.0615234-.003418.0942383s-.003418.0532227-.003418.0615234h-2.5541992v-.4418945h2.1450195l-.2080078.2993164c.0126953-.0219727.0258789-.0556641.0390625-.1010742.0126953-.0454102.0195312-.0830078.0195312-.1137695,0-.1772461-.0361328-.331543-.1074219-.4614258s-.1699219-.2314453-.2958984-.3051758c-.1254883-.0737305-.2729492-.1108398-.4418945-.1108398-.1992188,0-.3696289.0424805-.5102539.1269531s-.2490234.2055664-.3251953.3637695c-.0756836.1582031-.1157227.3520508-.1201172.5820312,0,.2338867.0366211.4331055.1103516.5976562.0737305.1650391.1821289.2905273.3251953.3769531.1430664.0869141.3164062.1303711.5200195.1303711s.3833008-.0444336.5395508-.1333008c.1557617-.0888672.2880859-.2241211.3964844-.40625l.4223633.2666016c-.1557617.2509766-.3520508.440918-.5878906.5683594-.2363281.1279297-.5146484.1918945-.8354492.1918945-.2773438,0-.5234375-.065918-.737793-.1982422Z"/>
    <path class="st0" d="M27.3801508,71.6043089c.078125.078125.1679688.1396484.2700195.1855469.1015625.0454102.2133789.0678711.3344727.0678711.1474609,0,.2631836-.0332031.3481445-.1005859.0844727-.0668945.1264648-.1591797.1264648-.2763672,0-.1040039-.0336914-.1914062-.1005859-.2631836-.0673828-.0712891-.152832-.1318359-.2568359-.1821289-.1040039-.0498047-.2143555-.0961914-.331543-.1396484-.1298828-.0517578-.2612305-.1137695-.3930664-.1850586-.1323242-.0717773-.2426758-.1645508-.331543-.2797852-.0888672-.1147461-.1333008-.2587891-.1333008-.4321289,0-.1777344.0463867-.324707.1396484-.4418945s.2143555-.2036133.3642578-.2602539c.1494141-.0561523.3041992-.0844727.4643555-.0844727.1606445,0,.3110352.0263672.4521484.078125.140625.0522461.2651367.121582.3735352.2080078.1083984.0869141.1928711.1865234.253418.2988281l-.4160156.2666016c-.0825195-.1123047-.1850586-.2055664-.3085938-.2792969s-.2631836-.1103516-.4194336-.1103516c-.1083984,0-.2011719.0234375-.2792969.0712891s-.1171875.121582-.1171875.2211914c0,.0776367.0302734.1469727.0913086.2080078.0605469.0605469.1381836.1147461.2338867.1621094.0952148.0478516.1948242.0932617.2988281.1367188.1733398.0693359.331543.144043.4746094.2241211s.2568359.1767578.3413086.2895508c.0844727.1123047.1264648.2578125.1264648.4350586,0,.2602539-.0942383.4770508-.2827148.6503906s-.4365234.2597656-.7441406.2597656c-.1992188,0-.3793945-.0356445-.5395508-.1074219-.1601562-.0712891-.2958984-.1630859-.40625-.2758789s-.1938477-.2275391-.25-.3447266l.4091797-.253418c.0610352.0908203.1303711.175293.2080078.253418Z"/>
    <path class="st0" d="M30.7082758,69.2771605v.487793h-1.4946289v-.487793h1.4946289ZM30.2209711,68.2376097v4.0297852h-.5200195v-4.0297852h.5200195Z"/>
    <path class="st0" d="M31.6472407,72.1340941c-.2143555-.1323242-.3813477-.3154297-.5004883-.5493164s-.1787109-.5048828-.1787109-.8125c0-.3120117.0615234-.5849609.1850586-.8188477s.296875-.4160156.5200195-.5458984c.2231445-.1303711.4819336-.1953125.7768555-.1953125.2944336,0,.546875.0620117.7573242.1855469.2099609.1235352.371582.2998047.484375.5297852.1123047.2294922.1689453.5024414.1689453.8188477,0,.0302734-.0014648.0615234-.003418.0942383s-.003418.0532227-.003418.0615234h-2.5541992v-.4418945h2.1450195l-.2080078.2993164c.0126953-.0219727.0258789-.0556641.0390625-.1010742.0126953-.0454102.0195312-.0830078.0195312-.1137695,0-.1772461-.0361328-.331543-.1074219-.4614258s-.1699219-.2314453-.2958984-.3051758c-.1254883-.0737305-.2729492-.1108398-.4418945-.1108398-.1992188,0-.3696289.0424805-.5102539.1269531s-.2490234.2055664-.3251953.3637695c-.0756836.1582031-.1157227.3520508-.1201172.5820312,0,.2338867.0366211.4331055.1103516.5976562.0737305.1650391.1821289.2905273.3251953.3769531.1430664.0869141.3164062.1303711.5200195.1303711s.3833008-.0444336.5395508-.1333008c.1557617-.0888672.2880859-.2241211.3964844-.40625l.4223633.2666016c-.1557617.2509766-.3520508.440918-.5878906.5683594-.2363281.1279297-.5146484.1918945-.8354492.1918945-.2773438,0-.5234375-.065918-.737793-.1982422Z"/>
    <path class="st0" d="M35.0954829,72.2673949h-.5200195v-2.9902344h.5200195v2.9902344ZM35.8108149,69.7356566c-.0566406-.0239258-.1279297-.0356445-.2148438-.0356445-.1298828,0-.2314453.0322266-.3051758.097168-.0737305.0654297-.1245117.1542969-.152832.2666016-.0283203.112793-.0424805.2407227-.0424805.3837891h-.2338867c0-.2382812.0424805-.449707.1269531-.6337891s.1938477-.3305664.328125-.4389648.2705078-.1625977.409668-.1625977c.1079102,0,.2089844.0141602.3022461.0424805.0927734.0283203.1787109.0834961.2563477.1655273l-.2856445.4291992c-.0693359-.0522461-.1323242-.0898438-.1884766-.1137695Z"/>
    <path class="st0" d="M40.2224946,67.7175902h2.8925781v.5200195h-1.1699219v4.0297852h-.5527344v-4.0297852h-1.1699219v-.5200195Z"/>
    <path class="st0" d="M43.6023774,69.2771605l.7475586,1.9438477.8125-2.1708984.8706055,2.1835938.7543945-1.956543h.5849609l-1.300293,3.2177734-.9033203-2.1777344-.8515625,2.1777344-1.2998047-3.2177734h.5849609Z"/>
    <path class="st0" d="M47.99935,67.7888792c.0712891-.0693359.1547852-.1040039.2504883-.1040039.0996094,0,.184082.034668.253418.1040039s.1040039.1538086.1040039.253418c0,.0957031-.034668.1787109-.1040039.2504883-.0693359.0712891-.1538086.1069336-.253418.1069336-.0957031,0-.1791992-.0356445-.2504883-.1069336-.0712891-.0717773-.1074219-.1547852-.1074219-.2504883,0-.0996094.0361328-.184082.1074219-.253418ZM48.5096039,69.2771605v2.9902344h-.5200195v-2.9902344h.5200195Z"/>
    <path class="st0" d="M51.3372407,69.8884886c-.1083984-.1254883-.2666016-.1884766-.4746094-.1884766-.1518555,0-.2851562.03125-.3999023.0942383s-.2036133.1503906-.2666016.2631836c-.0625.112793-.0942383.2426758-.0942383.3901367v1.8198242h-.5200195v-2.9902344h.5200195v.4682617c.0996094-.1821289.2246094-.3164062.3740234-.402832.1494141-.0869141.3217773-.1303711.5166016-.1303711.3164062,0,.5664062.1054688.7509766.3154297.184082.2104492.2758789.4951172.2758789.8549805v1.8847656h-.5200195v-1.8198242c0-.2470703-.0541992-.4335938-.1621094-.559082Z"/>
    <path class="st0" d="M55.5393891,70.9216917c.1582031.269043.3652344.4790039.6210938.6308594.2553711.1513672.5327148.2275391.8320312.2275391.2163086,0,.4145508-.0283203.5947266-.0844727.1796875-.0566406.3432617-.1357422.4907227-.2373047.1469727-.1020508.2729492-.2202148.3769531-.3544922v.7280273c-.190918.1689453-.3989258.2949219-.6240234.3769531-.2255859.0825195-.5048828.1235352-.8383789.1235352-.3164062,0-.6123047-.0576172-.887207-.1723633-.2753906-.1147461-.5170898-.2768555-.7250977-.4873047-.2080078-.2099609-.3701172-.4584961-.4873047-.7441406-.1171875-.2861328-.1757812-.5981445-.1757812-.9360352s.0585938-.6499023.1757812-.9360352.2792969-.5341797.4873047-.7441406c.2080078-.2104492.449707-.3730469.7250977-.487793.2749023-.1147461.5708008-.1723633.887207-.1723633.3334961,0,.612793.0415039.8383789.1235352.2250977.0825195.4331055.2080078.6240234.3774414v.7275391c-.1040039-.1342773-.2299805-.2519531-.3769531-.3540039-.1474609-.1015625-.3110352-.1811523-.4907227-.2373047-.1801758-.0561523-.378418-.0844727-.5947266-.0844727-.2993164,0-.5766602.0756836-.8320312.2275391-.2558594.1518555-.4628906.3608398-.6210938.6274414-.1582031.2661133-.2368164.5771484-.2368164.9326172,0,.3510742.0786133.6606445.2368164.9291992Z"/>
    <path class="st0" d="M59.5042329,67.7888792c.0712891-.0693359.1547852-.1040039.2504883-.1040039.0996094,0,.184082.034668.253418.1040039s.1040039.1538086.1040039.253418c0,.0957031-.034668.1787109-.1040039.2504883-.0693359.0712891-.1538086.1069336-.253418.1069336-.0957031,0-.1791992-.0356445-.2504883-.1069336-.0712891-.0717773-.1074219-.1547852-.1074219-.2504883,0-.0996094.0361328-.184082.1074219-.253418ZM60.0144868,69.2771605v2.9902344h-.5200195v-2.9902344h.5200195Z"/>
    <path class="st0" d="M62.1267914,69.2771605v.487793h-1.4946289v-.487793h1.4946289ZM61.6394868,68.2376097v4.0297852h-.5200195v-4.0297852h.5200195Z"/>
    <path class="st0" d="M62.7542329,67.7888792c.0712891-.0693359.1547852-.1040039.2504883-.1040039.0996094,0,.184082.034668.253418.1040039s.1040039.1538086.1040039.253418c0,.0957031-.034668.1787109-.1040039.2504883-.0693359.0712891-.1538086.1069336-.253418.1069336-.0957031,0-.1791992-.0356445-.2504883-.1069336-.0712891-.0717773-.1074219-.1547852-.1074219-.2504883,0-.0996094.0361328-.184082.1074219-.253418ZM63.2644868,69.2771605v2.9902344h-.5200195v-2.9902344h.5200195Z"/>
    <path class="st0" d="M64.756186,72.1340941c-.2143555-.1323242-.3813477-.3154297-.5004883-.5493164s-.1787109-.5048828-.1787109-.8125c0-.3120117.0615234-.5849609.1850586-.8188477s.296875-.4160156.5200195-.5458984c.2231445-.1303711.4819336-.1953125.7768555-.1953125.2944336,0,.546875.0620117.7573242.1855469.2099609.1235352.371582.2998047.484375.5297852.1123047.2294922.1689453.5024414.1689453.8188477,0,.0302734-.0014648.0615234-.003418.0942383s-.003418.0532227-.003418.0615234h-2.5541992v-.4418945h2.1450195l-.2080078.2993164c.0126953-.0219727.0258789-.0556641.0390625-.1010742.0126953-.0454102.0195312-.0830078.0195312-.1137695,0-.1772461-.0361328-.331543-.1074219-.4614258s-.1699219-.2314453-.2958984-.3051758c-.1254883-.0737305-.2729492-.1108398-.4418945-.1108398-.1992188,0-.3696289.0424805-.5102539.1269531s-.2490234.2055664-.3251953.3637695c-.0756836.1582031-.1157227.3520508-.1201172.5820312,0,.2338867.0366211.4331055.1103516.5976562.0737305.1650391.1821289.2905273.3251953.3769531.1430664.0869141.3164062.1303711.5200195.1303711s.3833008-.0444336.5395508-.1333008c.1557617-.0888672.2880859-.2241211.3964844-.40625l.4223633.2666016c-.1557617.2509766-.3520508.440918-.5878906.5683594-.2363281.1279297-.5146484.1918945-.8354492.1918945-.2773438,0-.5234375-.065918-.737793-.1982422Z"/>
    <path class="st0" d="M68.0159516,71.6043089c.078125.078125.1679688.1396484.2700195.1855469.1015625.0454102.2133789.0678711.3344727.0678711.1474609,0,.2631836-.0332031.3481445-.1005859.0844727-.0668945.1264648-.1591797.1264648-.2763672,0-.1040039-.0336914-.1914062-.1005859-.2631836-.0673828-.0712891-.152832-.1318359-.2568359-.1821289-.1040039-.0498047-.2143555-.0961914-.331543-.1396484-.1298828-.0517578-.2612305-.1137695-.3930664-.1850586-.1323242-.0717773-.2426758-.1645508-.331543-.2797852-.0888672-.1147461-.1333008-.2587891-.1333008-.4321289,0-.1777344.0463867-.324707.1396484-.4418945s.2143555-.2036133.3642578-.2602539c.1494141-.0561523.3041992-.0844727.4643555-.0844727.1606445,0,.3110352.0263672.4521484.078125.140625.0522461.2651367.121582.3735352.2080078.1083984.0869141.1928711.1865234.253418.2988281l-.4160156.2666016c-.0825195-.1123047-.1850586-.2055664-.3085938-.2792969s-.2631836-.1103516-.4194336-.1103516c-.1083984,0-.2011719.0234375-.2792969.0712891s-.1171875.121582-.1171875.2211914c0,.0776367.0302734.1469727.0913086.2080078.0605469.0605469.1381836.1147461.2338867.1621094.0952148.0478516.1948242.0932617.2988281.1367188.1733398.0693359.331543.144043.4746094.2241211s.2568359.1767578.3413086.2895508c.0844727.1123047.1264648.2578125.1264648.4350586,0,.2602539-.0942383.4770508-.2827148.6503906s-.4365234.2597656-.7441406.2597656c-.1992188,0-.3793945-.0356445-.5395508-.1074219-.1601562-.0712891-.2958984-.1630859-.40625-.2758789s-.1938477-.2275391-.25-.3447266l.4091797-.253418c.0610352.0908203.1303711.175293.2080078.253418Z"/>
  </g>
</svg>